<?xml version="1.0" encoding="UTF-8"?>
<svg xmlns="http://www.w3.org/2000/svg" viewBox="0 0 919.66 416.91">
  <defs>
    <style>
      .cls-1 {
        fill: #aea181;
        font-family: PangMenZhengDaoBiaoTiTiMianFeiBan-4Regular, PangMenZhengDaoBiaoTiTiMianFeiBan-4;
        font-size: 222px;
      }

      .cls-2 {
        stroke-width: 0px;
      }

      .cls-3 {
        fill: #2d496c;
        stroke: #000;
        stroke-miterlimit: 10;
        stroke-width: 2px;
      }
    </style>
  </defs>
  <g id="history">
    <g id="h">
      <path class="cls-3" d="m2.75,17.05s.15-9.98,5.86-13.27C14.32.49,16.32.56,21.28,1.75s9.21,4.24,12.03,4.4,6.59-.7,9.24-1.1c2.24-.34,8.86-3.84,9.1-3.42.08.13-.43.55-.57.67-4.36,3.55-9.02,5.64-12.15,9.13-1.9,2.12-2.97,4.47-3.7,6.06,0,0-1.25,2.23-1.7,4.74-1.26,6.96-.93,48.43-2.53,52.66s-13.09,16.06-10.56,16.03c2.52-.03,6.67-3.88,9.82-7.77s6.24-3.52,6.49-11.64c.25-8.12,3.59-44.02,3.7-47.02s6.48-12.77,7.52-13.73,1.71-.23,3.41-1.52c1.7-1.29,13.88-5.84,14.88-5.8s-10.52,6.87-12.18,14.68c-1.66,7.82-4.26,23.73-2.19,21.81s20.69-18.24,21.66-17.21,12.62,10.48,13.32,18.51,1.69,35.19-1.53,41.02c-2.79,5.05-11.65,18.85-20.43,22.4-.99.4-5.22,1.98-6.63,5.57-.55,1.4-1.22,4.5-.37,4.94.08.04.15.05.19.05l6.67.25c1.33.05.18,4.01-.86,4.97s-4.07,1.85-6.07,1.78c-.78-.03-1.55.16-2.39.16-2.02,0-3.03.01-3.61-.38-2.23-1.52.13-8.78,1.45-11.95.38-.92,1.39-3.23,3.22-5.88,1.37-1.99,2.61-3.3,3.15-3.89,5.99-6.48,11.05-11.96,11.73-18.53.05-.51.01-.41.23-7.05-6.32-2.61-11.32-2.68-13.92-2.52-3.86.24-7.78,1.31-9.07,1.66-2.29.63-3.43.94-4.74,1.54-7.16,3.28-11.51,10.99-11.51,10.99,0,0,6.37.07,15.49,2.43,9.12,2.36,14.28-6.16,14.28-6.16.47.17,1.17.51,1.35,1.14.3,1.04-1.01,2.26-1.33,2.57-3.92,3.83-5.18,15.15-10.79,17.8-5.93,2.81-10.34-7.11-23.6-8.07-7.43-.54-16.97,1.78-19.28,7.29,0,0-.45,1.06-.41,10.99-1.02.63-2.05,1.26-3.07,1.89-.58-.19-1.93-.74-2.92-2.11-.13-.18-.66-.93-.92-2.04-.51-2.12.3-4.1,1.22-5.96,1.81-3.64,3.77-6.22,4.26-6.85,6-7.78,9-11.68,10.67-13.48.69-.75,1.52-1.63,1.96-3.06,1.13-3.75-1.26-8.68-3.38-8.75-.47-.01-.8.21-1.32.57-3.03,2.11-3.04,6.08-4.48,6.13-.14,0-.4-.02-.74-.32-.67-.34-1.34-.68-2.02-1.03,0,0-.28-5.81,1.61-8.87,1.89-3.06,9.85-1.76,9.96-4.76s.37-4.99.37-4.99c-1.75-4.49-4.07-6.36-5.92-7.23-4.74-2.21-12.16-.47-11.94-.48,1.05-4.14,3.3-6.12,4.2-6.82,2.86-2.2,6.62-2.68,7.11-2.74,2.63-.31,4.13.24,5.03-.81.91-1.05.38-2.73.15-4-.71-3.98.95-7.33,3.13-11.73,3.43-6.91,9.75-11.81,9.75-11.81,0,0,.58-.43.47-.73-.03-.09-.15-.25-.81-.29-1.41-.07-2.76.58-3.66.86-1.86.58-3.6.16-5-.19,0,0-.3-.07-3.33-1.12-.45-.59-1.27-1.48-2.55-2.1-2.44-1.18-4.83-.54-6-.22-4.27,1.15-6.53,4.66-7.16,5.72Z"/>
      <path class="cls-2" d="m51.36,53.88s3.81,5.17,11.88,3.47c8.07-1.7,8.84-6.42,9.97-4.51,1.13,1.92-.71,18.95-.71,18.95-4.96-3.08-8.93-3.62-11.67-3.52,0,0-2.04.07-11.54,2.66h0l2.07-17.04Z"/>
      <path class="cls-2" d="m51.66,45.91l11.44-11.58s8.02.3,8.78,6.33c.77,6.03,1.46,8.9,1.46,8.9,0,0-1.7,1.47-3.73,2.8-2.6,1.71-5.09,1.91-5.65,1.99-1.02.15-3.15.45-5.6-.19-1.29-.34-2.46-.88-2.96-1.11-.6-.28-.18-.12-1.96-1.07-1.13-.6-1.75-.91-1.91-1.54-.07-.26-.02-.46-.01-.58l.15-3.94Z"/>
    </g>
    <g id="i">
      <path class="cls-3" d="m114.43,21.98c1.87-.11,5.22-7,11.11-4.65,9.45,3.78-7.34,9.92,8.92,2.34,3.64-1.7,10.07-1.63,10.07-1.63,0-.86-9.53,12.09-10.69,18.05-.9,4.63-.03,10.27-.65,10.65-2.03,1.26-5.51-1.25-9.76.59-6.62,2.86-7.74,9.75-7.74,9.75,1.15-1.11,7.85-1.55,10.77-1.09,5.55.87,8.4,6.8,9.18,12.85.51,3.97,1.07,13.07-1.82,15.97-1.06,1.06-4.43,1.11-10.84,1.6-2.26.17-4.12.24-6.41,1.3-2.06.96-3.5,2.28-4.11,2.85-1.64,1.53-2.58,2.98-3.15,3.89-.61.97-.84,1.49-2.89,6.38-1.26,3-1.88,4.51-1.66,4.63.18.1.64-.28,1.54-1.45,3.15-4.07,9.26-6.85,13.22-5.7s7.08,2.6,12.85,4.49c3.77,1.23,12.66,3.98,20.97.78,6.38-2.46,9.91-7.48,11.37-9.6,8.51-12.44,5.44-29.17,3.57-39.36-1.1-6-2.29-9.07-3.44-17.78-1.29-9.74-1.04-15.34,1.75-19.99.87-1.44,2.66-4.34,6.22-5.78,2.02-.82,3.87-.88,5.03-.82-2.04-.63-7.5-2-13.17.48-6.62,2.9-9.23,9.19-10.69,12.72-2.76,6.67-2.51,13.13-2.32,17.91.07,1.88.18,2.09.66,9.05.35,5.1.48,7.65.63,10.05.84,13.41,2.1,24.14,2.1,24.14.15,1.32.9,7.62-1.48,12.98-.43.97-1.15,2.15-2.45,2.98-2.16,1.38-4.88.33-6.66-.31-4.75-1.72-4.65-4.09-10.73-7.42-1.7-.93-2.99-1.45-2.92-2.11.11-1.01,3.25-1.51,6.07-1.78,1.3-.56,3.11-1.45,5.11-2.82,1.62-1.11,3.35-2.18,4.34-3.76,1.09-1.73,1.5-4.25,1.14-9.07-.66-9.05-.1-15.22-1.25-20.1-.87-3.68-.87-16.52.1-22.94.77-5.07,10.96-19.79,10.96-19.79,0,0-5.49-.24-10.97-.41-5.48-.17-16.68-2.97-18.05-2.33s-5.34-.51-8.48,3.38c-3.15,3.89-5.33,10.88-5.33,10.88Z"/>
    </g>
    <g id="s">
      <path class="cls-3" d="m249.33,17.46c2.01-.26,4.02-.52,6.03-.78-1.95,1.51-4.54,3.73-7.26,6.73-4.11,4.56-12.34,15.02-9.7,18.65,1.06,1.45,2.88.48,9.96,1.37,2.96.37,7.11.89,10.92,2.41,7.62,3.03,11.77,9.17,12.62,10.48,4.77,7.34,4.55,14.72,4.36,17.17-.56,7.48-4.04,12.62-5.55,14.8-5.11,7.35-12.74,11.72-20.62,16.24-2.56,1.47-3.91,1.92-6.14,3.77-1.97,1.63-2.67,2.74-4.11,2.85-1.84.14-3.11-1.48-4.88-3.18-1.66-1.59-7.64-7.33-12.82-6.94-2.52.19-2.11,1.62-7.09,4.2-4.44,2.3-8.28,2.97-12.63,3.73-4.82.85-7.23.65-8.55.48-1-.13-2.54-.33-4.21-.96-.86-.32-8.41-3.31-9.37-10.39-.72-5.31,2.74-9.33,3.38-10.04,6.27-7.3,11.27-8.11,13.71-8.12,1.31,0,3.4.3,7.58.9,3.33.48,6.08.96,7.96,1.3,0,0,1.36-2.48.41-3.55-.39-.44-1.04-.47-1.26-.48-1.64-.06-5.72-1.22-13.88-3.52-8.03-2.27-14.68-12.97-12.67-19.18.85-2.62,3.44-5.05,4.6-6.14,3-2.81,4.97-3.03,6.22-5.77.47-1.03.28-1.19,1.19-4.96,0,0,.5-2.06,1.32-4.95,1.63-5.69,21.02-22.66,22.08-23.59,0,0,17.89,14.23,21.89,13.23s6.52-5.78,6.52-5.78Z"/>
      <path class="cls-2" d="m189.67,91.41c-3.28.77-7.5,6.61-2.57,8.8s13.84,4.52,18.88,3.71,13.29-7.51,13.29-7.51c0,0-10.81-5.41-18.8-5.7-7.99-.3-10.79.71-10.79.71Z"/>
      <path class="cls-2" d="m218.04,78.34l-2.18,4.92,21.65,9.81c5.49-3.66,7.55-7.64,8.37-9.7,1.22-3.05.65-4.22.37-4.65-1.01-1.56-3.57-1.56-5.15-1.53-11.03.17-22.76,1.1-23.06,1.14Z"/>
      <path class="cls-2" d="m228.78,58.72l-3.22,5.88c3.76-.07,8.9-.01,14.99.56,11.35,1.07,13.58,2.75,14.71,3.82,3.25,3.08,4.98,8.34,3.68,12.88-1.06,3.71-3.82,5.85-6.29,7.77-4.6,3.57-10.78,5.6-10.78,5.6h0c3.15,1.12,6.3,2.24,9.45,3.35,10.02-3.53,16.07-13.13,14.85-22.46-1.45-11.05-12.35-15.92-12.87-16.14-3.64-.89-8.2-1.68-13.48-1.85-4.18-.13-7.9.15-11.03.59Z"/>
      <path class="cls-2" d="m197.17,47.54c.51,1.57,1.56,4.01,3.77,6.14,2.99,2.88,6.44,3.58,10.84,4.41,2.96.56,7.45,1.08,12.99.48-.74,1.97-1.48,3.95-2.22,5.92-6.81.49-12.41-.01-16.42-.61-8.82-1.32-10.62-3.24-11.41-4.43-2.11-3.16-1.2-7.23-.66-9.03l3.11-2.89Z"/>
      <path class="cls-2" d="m206.65,34.88c-.11.72-.74,5.21,1.74,7.07,1.02.77,2.34.91,4.96,1.19,2.16.23,3.8.16,4,.15,3.23-.14,9.13-.25,17.03-.37.12-1.28.42-3.02,1.19-4.96.66-1.66,1.46-2.97,2.15-3.92-3.13-2.26-6.71-4.76-10.73-7.4-3.01-1.98-5.08-3.17-7.88-3.3-2.67-.12-4.91.8-5.07.87,0,0-1.33.56-2.52,1.48-3.66,2.83-4.67,8.22-4.85,9.2Z"/>
    </g>
    <g id="t">
      <path class="cls-3" d="m290.68,43.69c2.8-7.37,2.53-15,6.67-17.76,4.85-3.24,11.33-8.58,18.36-9.32s19.04-1.29,21.97.82c2.93,2.11,23.81,5.89,24.81,5.93,0,0,6.18.95,11.32-1.71,2.19-1.13,2.69-2.25,2.86-2.77.57-1.76-.37-3.92-.1-4,.1-.03.28.26.29.3.88,1.74,1.71,9.12-.46,12.37-2.18,3.25-6.59,6.46-9.36,7.99-5.11,2.81-15.1,1.94-15.1,2.44,0,1.06-1.91,62.8-2.35,62.96-1.17.4,2.34.69,7.54-2.02,13.82-7.19,16.3-20.11,16.3-20.11.15,2.92.15,10.47-4.67,17.84-4.17,6.37-9.73,9.22-12.4,10.55-16.64,8.26-34.44.28-37.97-1.41-4.43-2.12-12.26-5.87-17.47-14.66-6.1-10.3-4.65-20.86-4.07-25.17,1.32-9.64,5.57-16.37,7.74-19.73,2.13-3.3,3.92-6.06,7.33-8.73,4.74-3.72,10.88-5.89,10.64-6.5-.05-.12-.29-.12-.39-.12-3-.11-8.67-1.94-16.99-.63-3.18.5-4.69.95-5.81,1.63-1.07.65-2.04,1.45-3.37,3.03-1.47,1.74-3.55,4.6-5.33,8.81Z"/>
      <path class="cls-2" d="m320.87,92.96c.78,1.13,2.01,2.68,3.85,4.15.91.73,2.74,2.06,5.88,3.22,4.05,1.49,12.18,3.39,13.99.52.36-.58.16-.85.15-4,0-2,.15-4,.22-6,.22-6,.45-11.99.67-17.99.46-12.29.92-24.57,1.37-36.86l-9.17-.34c1.32,19.37.35,33.88-1.27,38.86-1.28,3.93-3.26,6.88-3.26,6.88-1.46,2.02-2.73,3.41-4.18,4.85-1.85,1.82-4.56,4.24-8.26,6.7Z"/>
      <path class="cls-2" d="m327.14,32.04c-4.69,2.14-7.63,4.87-9.25,6.66-6.74,7.4-7.45,16.48-7.78,20.72-.15,1.95-.27,5.31.36,9.42.92,5.96,2.86,10,4.78,13.78,1.99,3.93,3.81,7.43,5.74,7.22,1.03-.11,1.7-1.24,2.07-1.92,3.66-6.74,3.76-18.13,3.82-21.87.15-9.55.57-7.55.63-16.99.04-6.88-.15-12.69-.37-17.03Z"/>
    </g>
    <g id="o">
      <path class="cls-3" d="m432.77,20.56l-42.09,28.45c-.44-.16-4.61,26.66-4.3,34.86.3,7.99,6.29,19.25,10.14,23.39s20.89,8.84,24.68,8.93,12.45-2.52,24.39-10.1c12.12-7.69,19.46-15.4,22.88-23.16,3.25-7.38,6.53-12.02,6.74-19.76.21-7.75-4.28-18.8-8.1-24.32-5.7-8.22-16.79-13.39-17.5-13.66-5.92-2.22-11.81-5.44-16.84-4.63Z"/>
      <path class="cls-2" d="m410.43,40.86c-1.94-.76-7.99,8.33-11.09,17.48-1.99,5.85-2.38,10.55-2.48,12.92-.24,5.6-.46,10.57,2.44,15.1,0,0,.02.03.04.07.95,1.45,1.51,2.41,1.84,3.01.29.45,1.47,2.21,2.92,2.11.38-.02,1.63-.23,3.15-3.89,1.57-3.78,1.66-6.98,1.79-9.55.13-2.67.4-6.54.99-11.36.05-4.11.21-10.32.67-17.99.33-5.48.57-7.57-.27-7.9Z"/>
      <path class="cls-2" d="m407.03,93.65c.11-1.21.95-1.72,3.15-3.89,0,0,2.03-2,5.22-5.81,2.73-3.26,3.51-6.77,4.41-10.84,1.59-7.16,2.68-21.01,2.12-38.89,1.05-.2,4.59-.78,6.29,1.18.92,1.06.89,2.73.78,6.03-.17,5.11-.26,7.67-.3,7.99-.9,7.16-2.04,22.8-2.26,33.94-.12,6-.69,11.99-.67,17.99,0,.73.03,4.18-.31,4.21-.02,0-.04-.01-.05-.02-.47-.37-6.05-1.51-8.71-2.53-1.85-.71-2.98-1.63-4.88-3.18-2.66-2.17-4.97-4.05-4.77-6.18Z"/>
      <path class="cls-2" d="m430.8,35.87l-.19,15.63s2.45,6.2,10.57,7.45c8.12,1.25,16.26-2.45,15.37-5.48-1.44-4.91-6.65-11.12-11.51-13.44-2.26-1.08-5.38-2.05-5.92-2.22-3.37-1.05-6.27-1.62-8.33-1.93Z"/>
      <path class="cls-2" d="m431.36,58.72l-.7,18.79s8.96-3.54,13.56-3.93c4.6-.39,15.33,7.01,15.33,7.01.81-1.58,1.79-3.93,2.26-6.92.58-3.71.06-6.45-.63-10.03-.71-3.69-1.32-6.91-2.74-7.11-1.25-.18-1.77,2.09-5.03,4.02-.97.57-2.19,1.06-3.91,1.4-5.31,1.05-7.2.48-10.72-.4s-7.43-2.83-7.43-2.83Z"/>
      <path class="cls-2" d="m429.98,95.5l-.26,7-.15,4c1.44-.28,3.45-.72,5.8-1.38,4.32-1.22,6.89-1.96,9.9-3.68.7-.4,5.41-3.16,8.8-8.03,1.26-1.81,1.88-3.26,2.15-3.92.73-1.82,1.37-3.44,1.19-4.96-.52-4.15-7.21-6.85-11.73-7.44-3.5-.46-6.32.26-8.03.7-3.02.77-4.85,1.18-6.11,2.77-.96,1.22-1.07,2.43-1.3,7.96-.07,1.7-.16,4.09-.26,7Z"/>
    </g>
    <g id="r">
      <path class="cls-3" d="m496.42,27.46c2.89-1.14,5.36-1.56,7.07-1.74,2.52-.26,4.04-.03,4.43.03,2.14.34,3.67,1.08,4.09,1.29.69.34,3.73,1.87,5.35,4.86.8,1.48.72,4.46.53,10.37,0,0-.07,2.08-.37,8.25l-21.42,12.62s9.98,10.5,13.59,16.24c3.61,5.74,6.04,19.36,6.04,19.36-2.49.57-6,1.52-10.06,3.11-3.14,1.23-4.71,1.84-6.51,2.97-6.49,4.08-10.27,10.92-9.8,11.6.02.03.08.05.17.04,1.59-.14,19.79-6.78,32.73-4.14,12.94,2.64,12.68,9.73,19.19,9.43,6.52-.3,15.88-14.76,15.88-14.76,0,0-4.2,6.06-7,2.74-2.8-3.32-12.69-6.69-12.69-6.69l.9-26.72c2.21.37,5.46,1.17,8.99,3.07,1.37.74,6.44,3.61,10.47,9.57,3.74,5.52,4.85,11.14,5.62,15.05,1.05,5.29.41,6.45,1.88,9.92.79,1.88,5.7,12.9,8.09,9.04.35-.56,14.62-11.83,14.62-11.83-1.52-3.35-2.11-3.93-2.37-3.85-.23.07-.14.64-.39,1.54-.36,1.32-1.61,3.39-2.11,2.92-.54-.51-2.5-3.97-2.81-5.11-1.72-6.2-4.89-17.63-9.58-25.99-1.38-2.46-2.97-4.52-6.14-8.62-2.19-2.84-3.91-4.83-6.77-6.26-1.18-.59-2.23-.92-2.96-1.11,7.18-4.74,14.36-9.47,21.54-14.21l-17.69-27.86-25.1,15.46s-5.12-14.77-10.11-16.77c-5.37-2.16-9.92-2.64-11.4-2.54-9.38.64-14.92,7.47-15.9,8.71Z"/>
      <polygon class="cls-2" points="506.9 61.54 515.05 68.87 515.59 54.47 506.9 61.54"/>
      <polygon class="cls-2" points="533.65 42.85 537.6 39.88 535.35 100.24 531.52 100.1 533.65 42.85"/>
      <path class="cls-2" d="m540.59,37.34c2.22-1.65,4.44-3.3,6.65-4.95,1.56,3.08,3.99,7.44,7.55,12.29,4.15,5.66,6.67,7.7,6.11,10.51-.5,2.52-3.06,3.53-9.78,7.36-5.16,2.95-9.21,5.53-11.74,7.19.4-10.8.8-21.6,1.21-32.4Z"/>
    </g>
    <g id="y">
      <path class="cls-3" d="m603.46,28.44c1.49-.05,8.09-.13,11.84,4.44,2,2.44,2.17,6,2.51,13.1.38,7.97-.95,8.78-1.33,8.96-1.46.68-2.34-1.6-5.92-2.22,0,0-4.22-.73-11.1,2.59-.12.06-1.92.93-1.92.93,0,0,8.05-.14,9.91,1.65,3.38,3.27,8.47,6.44,9.52,12.05.46,2.44.67,6.98-1.34,7.99-1.5.75-3.12-1.02-6.92-2.26-3.31-1.08-6.31-1.11-8.41-.94,8.42,4.91,11.61,10.13,12.92,14.12,1.52,4.6,2.69,19.19,2.12,14.38,0,0-5.41,1.49-10.76,4.5-3.74,2.1-7.44,4.95-9.27,8.55-4.45,8.77,5.48,24.74,11.65,26.68,8.87,2.78,19.6,1.91,25.39-3.36,2.45-2.23,4.39-5.43,9.29-7.66,3.3-1.5,7.1-2.73,7.1-2.73,0,0,.01,0,.01,0,.62,1.36,1.23,2.71,1.85,4.07-.75,2.31-1.51,4.61-2.26,6.92.3,1.01.59,2.02.89,3.04.51.79,1.74,2.43,3.89,3.15.67.22,1.74.58,2.88.15,1.04-.39,1.61-1.23,1.87-1.68,2.47-4.21,2.01-8.44.41-10.9-.79-1.22-2.43-4.69-6.27-7.15-6.81-4.38-15.14-2.14-19.88-.93-6.22,1.58-5.99,2.99-13.47,5.22-8.21,2.45-12.94,3.86-17.06,1.37-5.07-3.06-7.56-11.03-5.03-16.24,2.45-5.04,9.02-6.59,13.96-7.24,31.23-4.08,45.03,3.09,57.72-6.38,5.06-3.78,7.32-8.55,10.04-14.32,1.94-4.11,8.45-18.48,3.3-34.9-1.04-3.31-6.51-20.77-18.69-23.35-12.82-2.72-29.95,11.73-29.95,11.73,0,0-.62-11.52-6.03-13.08-5.4-1.56-15.18-4.11-15.18-4.11l-8.29,3.88Z"/>
      <path class="cls-2" d="m632.88,44.55c1.7-.94,3.41-1.87,5.11-2.81-.78,20.99-1.56,41.97-2.35,62.96l-5-.19c.74-19.99,1.49-39.97,2.23-59.96Z"/>
      <path class="cls-2" d="m641.06,39.85c-.05,1.67-.16,4.88-.34,8.99-.28,6.52-.42,8.05.63,10.03,1.98,3.78,6.06,5.04,6.81,5.26,3.21.93,5.87.18,7.34-.26,1.37-.41,6.53-1.94,7.91-6.18.41-1.28.32-2.28.15-4-.21-2.18-.57-5.83-3.11-9.27-.32-.44-4.79-6.28-12.32-6.31-3.23-.02-5.73,1.05-7.07,1.74Z"/>
      <path class="cls-2" d="m640.21,62.83c.32,4.62,0,8.34-.41,10.99-.54,3.61-1.37,6.27-.26,7,.66.43,1.3-.29,6.07-1.78,1.34-.42,2.51-.74,4.03-.85,0,0,1.32-.1,2.63.04,5.14.54,9.99,6.75,12.17,5.51.56-.32.74-1.2,1.11-2.96.42-2.03.26-3.46.19-5-.11-2.21.03-4.14.3-7.99.34-4.85.79-5.52.22-6-1.77-1.49-6.63,4.47-13.57,5.17-4.96.5-9.35-1.84-12.48-4.14Z"/>
      <path class="cls-2" d="m638.39,84.78c.02,6.43.03,12.87.05,19.3,1.04.31,2.47.66,4.21.87,1.89.22,3.41.18,4,.15,3.44-.19,8.68-2.01,12.25-6.55,1.92-2.44,2.82-4.97,3.26-6.88.43-1,1.24-3.25.19-5-.33-.55-.74-.87-.96-1.04-5.34-4.03-9.2-4.68-9.2-4.68-7.3-1.24-12.95,3.16-13.78,3.83Z"/>
    </g>
  </g>
  <g id="_历史记录" data-name="历史记录">
    <text class="cls-1" transform="translate(42.99 384.29) rotate(-11.56)"><tspan x="0" y="0">历史记录</tspan></text>
  </g>
</svg>