<?xml version="1.0" encoding="UTF-8"?>
<svg xmlns="http://www.w3.org/2000/svg" viewBox="0 0 173.6 436">
  <defs>
    <style>
      .cls-1 {
        fill: #aa6331;
      }

      .cls-1, .cls-2, .cls-3, .cls-4 {
        stroke-width: 0px;
      }

      .cls-2 {
        fill: #2d496c;
      }

      .cls-3 {
        fill: none;
      }

      .cls-4 {
        fill: #fff;
      }
    </style>
  </defs>
  <g id="_图层_2" data-name="图层 2">
    <polygon class="cls-3" points="173.6 0 24.07 0 68.5 123 0 203.87 83.9 436 173.6 0"/>
  </g>
  <g id="_图层_4" data-name="图层 4">
    <path class="cls-1" d="m109.55,224.38c-4.1,2.91-8.21,5.83-12.31,8.74-2.66,8.32-5.31,16.65-7.97,24.97,1.99,3.7,3.98,7.39,5.97,11.09-4.2-.68-8.4-1.37-12.6-2.05-1.3,1.96-3.18,4.83-5.42,8.35-5.1,8.01-5.55,9.17-5.93,9.02-1.21-.47-.36-13.35,7.06-18.4,2.61-1.78,3.82-1.08,5.87-3.08,3.38-3.3,2.69-7.74,3.55-15.03.86-7.21,1.78-14.96,6.33-19.47,1.72-1.71,5.97-4.93,15.45-4.14Z"/>
  </g>
  <g id="_图层_3" data-name="图层 3">
    <path class="cls-2" d="m109.55,224.38l-13.07,6.08.19,18.28-9.13,11.53,4.73,8.25-12.12-2.45-9.26,19.21-1.74-21.43-12.46-2.52,7.56-5.77-4.46-14.28,6.93-16.84-10.23-10.78,26.9,5.44,26.15,5.29Zm-20.37,7.81l7.52-5.61-14.17-2.86-14.17-2.86,4.93,8.13-4.62,13.99,1.64,11.28-4.37,5.09,6.57,1.33-.2,17.2,6.07-16.02,6.57,1.33-2.2-6.41,5.62-9.81.81-14.76Z"/>
  </g>
  <g id="_图层_1" data-name="图层 1">
    <polygon class="cls-4" points="106.8 223.82 93.73 229.9 93.92 248.18 84.79 259.71 89.53 267.96 77.41 265.51 68.16 284.72 66.41 263.29 53.95 260.77 61.5 255 57.05 240.72 63.97 223.88 53.75 213.1 80.65 218.54 106.8 223.82"/>
  </g>
</svg>