<?xml version="1.0" encoding="UTF-8"?>
<svg xmlns="http://www.w3.org/2000/svg" viewBox="0 0 173.6 436">
  <defs>
    <style>
      .cls-1, .cls-2 {
        stroke-width: 0px;
      }

      .cls-2 {
        fill: #fff;
      }
    </style>
  </defs>
  <g id="_图层_4" data-name="图层 4">
    <polygon class="cls-2" points="173.6 0 83.9 436 0 203.87 68.5 123 24.07 0 173.6 0"/>
    <polygon class="cls-1" points="84.13 122.02 85.3 125.25 84.26 126.47 143.14 148.06 143.8 144.89 84.13 122.02"/>
  </g>
  <g id="_图层_3" data-name="图层 3">
    <polygon class="cls-1" points="85.3 125.24 85.3 125.25 16.96 205.3 89.27 409.87 143.44 146.64 85.3 125.24"/>
    <path class="cls-2" d="m121.05,213.97l-15,6.58.17,20.07-10.5,12.6,5.41,9.09-13.89-2.77-10.66,21.02-1.95-23.54-14.28-2.85,8.68-6.28-5.07-15.71,7.98-18.44-11.7-11.91,30.83,6.16,29.97,5.99Zm-23.38,8.43l8.64-6.11-16.24-3.24-16.24-3.24,5.63,8.96-5.33,15.32,1.85,12.39-5.02,5.55,7.53,1.5-.27,18.88,7-17.54,7.53,1.5-2.5-7.05,6.47-10.73.97-16.19Z"/>
  </g>
  <g id="_图层_5" data-name="图层 5">
    <polygon class="cls-1" points="170.93 13 44.75 13.37 85.3 125.24 143.44 146.64 170.93 13"/>
    <polygon class="cls-2" points="114.64 66.84 136.26 54.93 103.93 61.27 128.34 119.66 114.64 66.84"/>
    <polygon class="cls-2" points="105.28 84.01 101.76 60.09 153.14 38.38 90.69 55.25 105.28 84.01"/>
  </g>
</svg>