<?xml version="1.0" encoding="UTF-8"?>
<svg xmlns="http://www.w3.org/2000/svg" viewBox="0 0 173.6 436">
  <defs>
    <style>
      .cls-1 {
        fill: #aa6331;
      }

      .cls-1, .cls-2, .cls-3, .cls-4 {
        stroke-width: 0px;
      }

      .cls-2 {
        fill: #2d496c;
      }

      .cls-3 {
        fill: none;
      }

      .cls-4 {
        fill: #fff;
      }
    </style>
  </defs>
  <g id="_图层_2" data-name="图层 2">
    <polygon class="cls-3" points="173.6 0 24.07 0 68.5 123 0 203.87 83.9 436 173.6 0"/>
  </g>
  <g id="_图层_4" data-name="图层 4">
    <path class="cls-1" d="m120.88,214.3c-4.47,3.17-8.94,6.35-13.41,9.52-2.89,9.07-5.78,18.13-8.68,27.2,2.17,4.03,4.34,8.05,6.5,12.08-4.57-.74-9.15-1.49-13.72-2.23-1.41,2.13-3.47,5.26-5.91,9.1-5.55,8.72-6.04,9.98-6.46,9.82-1.32-.51-.39-14.54,7.69-20.04,2.84-1.94,4.16-1.18,6.39-3.35,3.68-3.59,2.92-8.43,3.87-16.37.94-7.85,1.94-16.3,6.89-21.21,1.88-1.86,6.5-5.37,16.82-4.5Z"/>
  </g>
  <g id="_图层_3" data-name="图层 3">
    <path class="cls-2" d="m120.88,214.3l-14.23,6.62.21,19.91-9.94,12.56,5.15,8.99-13.2-2.67-10.08,20.92-1.9-23.34-13.58-2.74,8.23-6.28-4.85-15.55,7.54-18.34-11.13-11.74,29.29,5.92,28.48,5.76Zm-22.18,8.51l8.19-6.11-15.43-3.12-15.43-3.12,5.36,8.85-5.02,15.24,1.79,12.28-4.76,5.54,7.15,1.45-.21,18.74,6.61-17.44,7.15,1.45-2.39-6.98,6.12-10.68.88-16.07Z"/>
  </g>
  <g id="_图层_1" data-name="图层 1">
    <polygon class="cls-4" points="117.89 213.7 103.66 220.31 103.87 240.22 93.93 252.78 99.08 261.77 85.88 259.1 75.8 280.02 73.9 256.68 60.33 253.94 68.56 247.66 63.71 232.1 71.25 213.76 60.11 202.02 89.41 207.94 117.89 213.7"/>
  </g>
</svg>