<?xml version="1.0" encoding="UTF-8"?>
<svg xmlns="http://www.w3.org/2000/svg" viewBox="0 0 173.6 436">
  <defs>
    <style>
      .cls-1, .cls-2 {
        stroke-width: 0px;
      }

      .cls-2 {
        fill: #fff;
      }
    </style>
  </defs>
  <g id="_图层_4" data-name="图层 4">
    <polygon class="cls-2" points="173.6 0 83.9 436 0 203.87 68.5 123 24.07 0 173.6 0"/>
    <polygon class="cls-1" points="81.75 122.71 82.3 124.24 80.62 126.31 135.64 145.31 136.3 142.02 81.75 122.71"/>
  </g>
  <g id="_图层_3" data-name="图层 3">
    <polyline class="cls-1" points="12.28 208.19 82.28 407.19 136.28 142.19 82.3 124.24"/>
    <path class="cls-2" d="m109.55,224.21l-13.76,6.04.16,18.42-9.63,11.56,4.96,8.34-12.75-2.55-9.78,19.29-1.79-21.6-13.11-2.62,7.97-5.76-4.66-14.41,7.33-16.92-10.73-10.93,28.29,5.65,27.51,5.49Zm-21.46,7.74l7.93-5.6-14.91-2.98-14.91-2.98,5.17,8.22-4.89,14.06,1.7,11.37-4.61,5.09,6.91,1.38-.25,17.33,6.43-16.1,6.91,1.38-2.3-6.47,5.94-9.85.89-14.86Z"/>
  </g>
  <g id="_图层_5" data-name="图层 5">
    <polygon class="cls-1" points="162.28 10.19 41.28 10.19 82.3 124.24 136.28 142.19 162.28 10.19"/>
    <polygon class="cls-2" points="109.08 61.82 129.14 51.28 99.36 56.52 120.71 110.54 109.08 61.82"/>
    <polygon class="cls-2" points="100.19 77.41 97.39 55.39 144.93 36.4 87.32 50.75 100.19 77.41"/>
  </g>
</svg>