<?xml version="1.0" encoding="UTF-8"?>
<svg xmlns="http://www.w3.org/2000/svg" viewBox="0 0 220.96 253.45">
  <defs>
    <style>
      .cls-1 {
        fill: #fff;
      }

      .cls-2 {
        fill: #2d496c;
      }

      .cls-3 {
        fill: #aa6331;
      }
    </style>
  </defs>
  <g id="_图层_4" data-name="图层 4">
    <path class="cls-3" d="M220.71,.25c-13.53,13.78-27.06,27.56-40.58,41.34-4.13,32.62-8.26,65.24-12.39,97.86,10.23,12.13,20.46,24.25,30.69,36.38-16.47,.61-32.95,1.22-49.42,1.83-3.53,8.17-8.64,20.16-14.64,34.78-13.65,33.27-14.53,37.87-16.11,37.61-4.94-.82-10.97-48.87,13.66-73,8.66-8.48,13.78-6.82,20.14-15.7,10.5-14.65,4.66-30.48,2.73-57.99-1.91-27.17-3.96-56.42,10.11-76.39,5.33-7.57,19.18-22.6,55.81-26.72Z"/>
    <path class="cls-3" d="M51.99,10.47c26.85-.61,53.69-1.22,80.54-1.83-23.45-5.61-47.03,5.19-56.64,24.75-7.54,15.35-5.56,34.24,4.77,49.08,4.07,13.63,8.14,27.25,12.2,40.88-6.31,16.07-12.61,32.14-18.92,48.2-7.32-53.69-14.64-107.39-21.97-161.08Z"/>
  </g>
  <g id="_图层_3" data-name="图层 3">
    <path class="cls-2" d="M220.71,.25l-45.36,32.09,13.86,67.15-26.46,49.25,23.94,26.86h-47.88l-21.42,77.6-22.03-77.6H46.11l24.62-26.86-27.21-49.25,14.25-67.15L11.12,.25H220.71Zm-71.91,43.91l24.58-26.25H61.4l24.58,26.25-7.51,54.93,14.34,40.29-12.98,21.97h25.95l11.61,63.48,11.61-63.48h25.94l-12.97-21.97,14.34-40.29-7.51-54.93Z"/>
  </g>
  <g id="_图层_1" data-name="图层 1">
    <path class="cls-1" d="M209.84,.25l-45.36,32.09,13.86,67.15-26.46,49.25,23.94,26.86h-47.88l-21.42,77.6-22.03-77.6H35.24l24.63-26.86-27.22-49.25,14.26-67.15L.25,.25H209.84Zm-71.91,43.91l24.58-26.25H50.53l24.58,26.25-7.51,54.93,14.34,40.29-12.97,21.97h25.94l11.61,63.48,11.61-63.48h25.95l-12.98-21.97,14.34-40.29-7.51-54.93Z"/>
  </g>
</svg>