<?xml version="1.0" encoding="UTF-8"?>
<svg id="_图层_2" data-name="图层 2" xmlns="http://www.w3.org/2000/svg" viewBox="0 0 473.17 470.28">
  <defs>
    <style>
      .cls-1 {
        fill: #fff;
        stroke-width: 0px;
      }
    </style>
  </defs>
  <polygon class="cls-1" points="389.25 108.91 84.94 109.24 37.34 109.29 .25 109.29 .25 53.03 109.69 53.03 109.69 .68 236.75 1.03 237.25 1.03 363.48 .25 363.48 52.59 472.92 52.59 472.92 108.86 435.83 108.86 389.25 108.91"/>
  <polygon class="cls-1" points="236.25 437.24 236.25 437.03 370.25 437.03 389.25 417.03 389.25 108.91 435.83 108.86 434.92 433.59 398.92 469.59 237.25 470.03 236.75 470.03 74.25 470.03 38.25 434.03 37.34 109.29 84.94 109.24 84.94 415.6 102.25 435.03 236.25 437.24"/>
  <rect class="cls-1" x="256.88" y="162.9" width="53.4" height="198.57"/>
  <rect class="cls-1" x="164.25" y="163.03" width="53.4" height="198.57"/>
</svg>