<?xml version="1.0" encoding="UTF-8"?>
<svg xmlns="http://www.w3.org/2000/svg" viewBox="0 0 1203.89 807.85">
  <defs>
    <style>
      .cls-1 {
        fill: #2d9ec4;
      }

      .cls-1, .cls-2, .cls-3, .cls-4, .cls-5, .cls-6, .cls-7, .cls-8, .cls-9, .cls-10, .cls-11 {
        stroke-width: 0px;
      }

      .cls-2 {
        fill: #aa6331;
      }

      .cls-3 {
        fill: #324f6c;
      }

      .cls-4 {
        fill: #41bbc4;
      }

      .cls-5 {
        fill: #2db1c4;
      }

      .cls-12 {
        fill: #c93858;
      }

      .cls-12, .cls-13, .cls-14, .cls-15, .cls-16, .cls-17, .cls-18, .cls-19, .cls-20, .cls-21 {
        stroke: #fff;
        stroke-miterlimit: 10;
      }

      .cls-7 {
        fill: #2d496c;
      }

      .cls-8 {
        fill: #2d75c4;
      }

      .cls-13 {
        fill: #1f3858;
      }

      .cls-14 {
        fill: none;
      }

      .cls-14, .cls-21 {
        stroke-width: 2px;
      }

      .cls-9 {
        fill: #fff;
      }

      .cls-15 {
        fill: #142d5f;
      }

      .cls-17, .cls-21 {
        fill: #28606d;
      }

      .cls-10 {
        fill: #1f77c4;
      }

      .cls-18 {
        fill: #a82f49;
      }

      .cls-19 {
        fill: #0098b4;
      }

      .cls-11 {
        fill: #50adc4;
      }

      .cls-20 {
        fill: #a82f65;
      }
    </style>
  </defs>
  <g id="_图层_2" data-name="图层 2">
    <polygon class="cls-7" points="849.08 119.75 858.37 179.76 1017.99 161.78 1010.63 101.48 849.08 119.75"/>
    <g>
      <path class="cls-6" d="m1008.11,546.2c-20,31.02-40,62.04-60.01,93.06l-627.92,5.96c-24.59-13.09-49.18-26.19-73.77-39.28,27.88-2.19,55.76-4.37,83.64-6.56,4.2,1.16,8.5,2.31,12.8,3.43,35.16,9.09,276.6,10.59,605.24-32.48,4.44-7.24,8.58-13.97,12.52-20.41,15.83-1.24,31.66-2.48,47.48-3.72Z"/>
      <path class="cls-6" d="m960.62,549.92c-3.94,6.44-8.08,13.17-12.52,20.41-328.64,43.07-570.09,41.57-605.24,32.48-4.31-1.12-8.61-2.27-12.8-3.43,210.19-16.48,420.38-32.97,630.57-49.46Z"/>
      <path class="cls-7" d="m961.89,487.59c-3.86,6.64-7.73,13.29-11.58,19.93-224.44,9.55-414.36,19.1-638.8,28.65,5.87-1.88,10.79-3.89,14.85-6.01,212.29-14.92,422.25-26.02,635.53-42.57Z"/>
      <path class="cls-6" d="m993.01,434.01c-10.38,17.86-20.75,35.72-31.12,53.58-213.28,16.55-423.24,27.65-635.53,42.57,65.9-34.28-94.3-96.23-97.95-97.3,31.11.05,62.23.1,93.34.14,1.43,1.16,2.84,2.31,4.27,3.47,189.41-.86,378.81-1.74,568.22-2.61,32.93.05,65.85.1,98.78.15Z"/>
      <path class="cls-7" d="m1000.8,484.52c-15.17,24.74-26.66,43.41-40.17,65.4-210.19,16.49-420.38,32.98-630.57,49.46-28.35-7.83-52.66-16.1-52.66-16.1-4.62-1.57-15.66-5.51-29.83-10.72-17.31-6.37-42.14-16.25-72.82-31.02,50.72-4.09,101.23-7.85,151.61-11.38-4.06,2.12-8.98,4.13-14.85,6.01,224.44-9.55,414.36-19.1,638.8-28.65,3.85-6.64,7.72-13.29,11.58-19.93,12.96-1,25.92-2.02,38.91-3.07Z"/>
      <path class="cls-6" d="m950.48,287.35c29.98-.71,59.95-1.42,89.93-2.13-25.4,31.72-46.36,61.85-71.63,93.53-213.84-6.23-427.66-12.45-641.49-18.67,13.23-4.71,20.08-9.94,20.56-15.69.96-11.57-23.91-25.23-74.6-41,11.26-.27,22.52-.53,33.78-.8,4.14,3.98,8.28,7.95,12.42,11.93,208.59-6.96,417.17-13.93,625.75-20.89l5.27-6.28Z"/>
      <path class="cls-7" d="m1017.99,380.18c-20.1,17.8-40.18,35.59-60.28,53.39-21.16.1-42.33.19-63.48.29-190.83-.28-381.66-.57-572.48-.86-31.11-25.26-62.23-50.54-93.34-75.8,32.96.96,65.93,1.92,98.89,2.88-4.87,1.73-10.61,3.4-17.2,4.99,217.68,5.56,439.93,9.47,657.62,15.02.35-.45.72-.89,1.07-1.34,16.4.48,32.8.95,49.2,1.43Z"/>
      <path class="cls-7" d="m1011.97,214.06l-61.49,73.29c-214.48,5.08-428.96,10.16-643.44,15.24-21.06-20.22-42.11-40.45-63.18-60.67l768.12-27.86Z"/>
      <path class="cls-7" d="m968.79,378.75c-.35.45-.72.89-1.07,1.34-217.69-5.55-439.94-9.46-657.62-15.02,6.59-1.59,12.33-3.26,17.2-4.99,213.83,6.22,427.65,12.44,641.49,18.67Z"/>
      <path class="cls-6" d="m950.48,287.35l-5.27,6.28c-208.59,6.96-417.17,13.93-625.75,20.89-4.14-3.98-8.28-7.95-12.42-11.93,214.48-5.08,428.96-10.16,643.44-15.24Z"/>
      <path class="cls-6" d="m894.23,433.86c-189.4.87-378.8,1.75-568.22,2.61-1.43-1.16-2.84-2.31-4.27-3.47,190.83.29,381.66.58,572.48.86Z"/>
    </g>
    <polygon class="cls-6" points="250.45 200.87 242.63 147.99 367.7 128.47 369.76 134.97 478.37 128.47 480.02 134.97 547.49 128.47 831.16 109.14 834.45 157.55 385.81 191.11 387.04 196.4 250.45 200.87"/>
    <polygon class="cls-7" points="242.63 132.27 770.27 179.86 776.75 143.36 598.25 132.27 583.28 115.7 245.87 83.76 242.63 132.27"/>
    <polygon class="cls-2" points="559.78 297.04 958.65 276.28 943.96 287.94 559.78 297.04"/>
    <path class="cls-2" d="m228.4,432.86c204.06.31,408.13.61,612.19.92-212.52-3.15-425.04-6.29-637.56-9.44,8.46,2.84,16.91,5.68,25.37,8.52Z"/>
    <path class="cls-2" d="m453.91,151.33l156.79,20.95c15.43-.88,30.86-1.75,46.29-2.63-67.69-6.11-135.39-12.21-203.08-18.32Z"/>
    <path class="cls-2" d="m329.01,599.44c182.45-14.49,364.89-28.97,547.34-43.46-201.33,8.49-402.66,16.99-603.99,25.48,18.88,5.99,37.77,11.98,56.65,17.97Z"/>
    <path class="cls-2" d="m924.83,172.28l93.16-10.5c-2.09-17.13-4.18-34.26-6.27-51.38,6.09-.42,12.19-.84,18.28-1.25l-6.97,60.41-98.19,2.72Z"/>
    <path class="cls-2" d="m968.9,475.5c11.36-.93,19.33-1.69,30.68-2.62l-10.28,12.56c-10.36.84-17.14,1.35-27.5,2.19,1.72-2.96,5.38-9.16,7.1-12.13Z"/>
  </g>
  <g id="_可去除" data-name="可去除">
    <g id="_图层_12" data-name="图层 12">
      <path class="cls-14" d="m667.2,698.04c.33-2.95.67-5.91,1-8.86.84-3.99,1.68-7.97,2.52-11.96,1.16-2.36,2.32-4.72,3.48-7.09-2.84-3.47-5.68-6.93-8.52-10.4l-13.88-7.4-6.72,1.1-9.37-10.13,15.68-1.21c1.24,2.1,3.24,4.93,6.31,7.68,3.71,3.31,7.45,5.12,9.95,6.09,1.14.9,4.48,3.3,9.18,3.25,2.06-.02,3.75-.51,4.92-.97,1.9-3.11,4.71-7.01,8.77-10.88,3.01-2.87,5.98-5.02,8.53-6.61,3.14-2.56,7.2-5.44,12.21-8.1,5.84-3.09,11.25-4.97,15.61-6.15,4.2-.59,8.4-1.17,12.6-1.76l1.47-8.42-.15-8.66-2.22-1.18c-4.95-2.88-9.9-5.77-14.86-8.65l13.54-5.49,2.78-8.17c1.84,1.68,3.67,3.36,5.51,5.04.46,1.11.93,2.22,1.39,3.32,1.68,2.19,3.37,4.37,5.05,6.56l13.79,3.65,12.17,1.5,8.97-1.41c1.09-3.68,2.98-8.61,6.34-13.86,2.94-4.59,6.12-8.03,8.73-10.46,3.04-3.45,7.21-7.56,12.69-11.54,5.81-4.21,11.34-7.01,15.77-8.86,2.4-1.89,5.64-4.1,9.77-6.04,4.47-2.1,8.56-3.22,11.73-3.84-.98-5.6-1.96-11.21-2.94-16.81l-5.65-11.04-5.8-3.18,1.26-15.7,16.28,10.85-3.16,7.16,4.09,14.06,7.53,12.38c4.48-1.38,10.25-2.73,17.05-3.29,7.48-.62,13.92-.1,18.84.66,3.4,0,7.33.21,11.65.85,5.23.78,9.75,2.01,13.46,3.26,2.75.36,6.2,1.08,9.98,2.56,2.39.94,4.44,1.99,6.14,3.01-.56,51.41-1.12,102.81-1.68,154.22-90.6-3.03-181.2-6.07-271.81-9.1Z"/>
      <polyline class="cls-14" points="746.88 603.9 746.2 617.91 747.93 625.45 761.96 625.5 774.3 628.84 780.95 630.89 782.16 623.46 783.31 618.31 776.96 612.33 767.41 608.63 760.38 607.05 746.57 605.72"/>
    </g>
    <g id="_图层_11" data-name="图层 11">
      <path class="cls-7" d="m687.95,653.86c-1.22,1.28-3.98,3.79-8.25,4.55-2.24.4-4.33.21-6.81-.38-8.43-2-16.1-7.4-19.41-9.91-.96-1.95-1.92-3.91-2.88-5.86-5.23.4-10.45.81-15.68,1.21,3.12,3.38,6.25,6.75,9.37,10.13,2.24-.37,4.48-.74,6.72-1.1,6.03,3.01,12.07,6.02,18.1,9.03,1.34,1.24,3.66,3.69,5.07,7.42,1.31,3.46,1.25,6.45,1.07,8.13,4.23-7.74,8.46-15.48,12.7-23.22Z"/>
      <path class="cls-1" d="m652,650.5l23.1,13.15,5.42,3.79-5.63,10.1c.26-2.56.31-7.54-3.04-12-.61-.82-1.98-2.47-6.96-5.64-3.18-2.03-7.87-4.71-14.12-7.21.41-.73.82-1.46,1.24-2.19Z"/>
      <polygon class="cls-5" points="645.75 648.98 652 650.5 651 652.5 644.28 653.6 645.75 648.98"/>
      <polygon class="cls-8" points="634.91 643.47 645.75 648.98 644.28 653.6 634.91 643.47"/>
      <path class="cls-7" d="m757.99,631.36c-1.83-.29-5.6-1.15-8.57-4.11-1.56-1.55-2.5-3.3-3.28-5.56-2.65-7.67-1.79-16.52-1.26-20.44,1.28-1.78,2.56-3.55,3.84-5.33-3.16-3.9-6.32-7.8-9.48-11.69-1.43,4.22-2.87,8.44-4.3,12.66l4.6,4.71c.45,6.32.91,12.63,1.36,18.95-.42,1.7-1.44,4.81-4.1,7.87-2.47,2.83-5.25,4.35-6.89,5.09,9.36-.72,18.72-1.43,28.08-2.15Z"/>
      <path class="cls-1" d="m741.91,601.35l.25,25.03-.59,6.24-12.27.85c2.49-1.13,7.09-3.69,9.39-8.66.42-.91,1.21-2.85,1.47-8.42.17-3.55.12-8.65-.91-14.87.89-.06,1.78-.12,2.67-.17Z"/>
      <polygon class="cls-5" points="739.97 595.64 741.91 601.35 739.54 601.61 734.94 596.9 739.97 595.64"/>
      <polygon class="cls-8" points="739.25 584.24 739.97 595.64 734.94 596.9 739.25 584.24"/>
      <path class="cls-7" d="m815.39,663.48c-.91-1.5-2.57-4.76-1.95-8.74.33-2.09,1.2-3.85,2.61-5.82,4.79-6.68,12.79-11.56,16.43-13.61,2.3-.18,4.61-.36,6.91-.54,1.29-4.7,2.58-9.4,3.87-14.1-4.46,1.59-8.92,3.17-13.38,4.76-.35,2.08-.71,4.16-1.06,6.24-5.03,4.25-10.07,8.5-15.1,12.75-1.7.75-4.96,1.95-9.22,1.92-3.95-.02-6.98-1.09-8.64-1.81,6.51,6.31,13.02,12.62,19.53,18.93Z"/>
      <path class="cls-1" d="m830.52,633.23l-20.93,15.73-5.63,3.45-8.46-8.33c2.52,1.09,7.59,2.82,13.22,1.4,1.03-.26,3.16-.9,8.02-4.17,3.1-2.09,7.36-5.29,11.95-9.89.61.61,1.22,1.21,1.83,1.82Z"/>
      <polygon class="cls-5" points="834.11 628.28 830.52 633.23 828.81 631.68 829.88 625.44 834.11 628.28"/>
      <polygon class="cls-8" points="843.26 620.68 834.11 628.28 829.88 625.44 843.26 620.68"/>
      <path class="cls-7" d="m676.68,711.36c.11,1.71.05,5.31-2.4,8.61-1.29,1.74-2.91,2.96-5.12,4.14-7.49,4.03-17.02,5.13-21.27,5.47-2.16-.78-4.32-1.56-6.48-2.34-3.4,3.68-6.8,7.36-10.2,11.04,4.77.4,9.54.8,14.31,1.2,1.31-1.72,2.62-3.43,3.93-5.15,6.56-1.75,13.11-3.5,19.67-5.25,1.89.02,5.39.28,9.22,2.04,3.54,1.63,5.76,3.82,6.92,5.14-2.86-8.3-5.72-16.6-8.57-24.91Z"/>
      <path class="cls-1" d="m648.64,732.26l26.34-5.54,6.71-.79,3.65,10.91c-1.75-2-5.49-5.62-11.24-6.65-1.05-.19-3.27-.49-9.21.46-3.78.6-9.15,1.73-15.47,3.98-.26-.79-.52-1.58-.78-2.37Z"/>
      <polygon class="cls-5" points="643.06 735.22 648.64 732.26 649.45 734.34 645.51 739.49 643.06 735.22"/>
      <polygon class="cls-8" points="631.2 738.29 643.06 735.22 645.51 739.49 631.2 738.29"/>
      <path class="cls-7" d="m708.01,757.76c1.58.9,4.76,2.99,6.33,6.75.83,1.97,1,3.91.82,6.27-.61,8.02-4.97,15.91-7.04,19.36-1.91,1.2-3.81,2.41-5.72,3.61,1.37,4.7,2.75,9.39,4.12,14.09,3.03-3.41,6.06-6.83,9.09-10.24l-2.39-5.94c2.11-6,4.23-12.01,6.34-18.01,1.07-1.43,3.27-3.96,6.98-5.87,3.44-1.77,6.63-2.22,8.46-2.35-9-2.56-18-5.11-27-7.67Z"/>
      <path class="cls-1" d="m710.92,791.09l9.82-23.26,3.06-5.57,11.76,3.44c-2.77.19-8.08.98-12.22,4.79-.76.7-2.27,2.22-4.75,7.29-1.58,3.23-3.59,7.97-5.12,14.08-.85-.25-1.7-.51-2.55-.76Z"/>
      <polygon class="cls-5" points="710.43 797.05 710.92 791.09 713.23 791.66 715.61 797.61 710.43 797.05"/>
      <polygon class="cls-8" points="706.53 807.85 710.43 797.05 715.61 797.61 706.53 807.85"/>
      <path class="cls-7" d="m782.04,760.86c1.71-.64,5.4-1.76,9.59-.68,2.2.56,4,1.59,5.94,3.14,6.62,5.25,10.93,13.22,12.71,16.82-.07,2.14-.14,4.28-.21,6.42,4.89,1.78,9.79,3.56,14.68,5.35-1.19-4.3-2.38-8.6-3.57-12.9-2.19-.59-4.38-1.18-6.57-1.77-3.98-5.17-7.97-10.33-11.95-15.5-.62-1.65-1.52-4.8-1.01-8.71.48-3.63,1.97-6.27,2.93-7.71-7.51,5.18-15.02,10.36-22.54,15.55Z"/>
      <path class="cls-1" d="m812.76,778.6l-14.48-21.23-3.06-5.61,9.9-6.72c-1.46,2.18-3.89,6.61-3.01,11.97.16.98.6,3.02,3.56,7.9,1.89,3.11,4.83,7.44,9.25,12.23-.72.48-1.44.97-2.16,1.45Z"/>
      <polygon class="cls-5" points="817.65 782.53 812.76 778.6 814.61 777.23 821.19 779 817.65 782.53"/>
      <polygon class="cls-8" points="824.76 791.89 817.65 782.53 821.19 779 824.76 791.89"/>
      <path class="cls-7" d="m819.41,717.8c.81-1.54,2.75-4.64,6.64-6.41,2.04-.93,4.11-1.26,6.67-1.3,8.68-.13,17.61,3.21,21.52,4.82,1.48,1.65,2.97,3.3,4.45,4.96,4.92-1.67,9.83-3.34,14.75-5.01-3.97-2.5-7.94-5-11.92-7.49-2.05.9-4.1,1.81-6.16,2.71-6.67-1.43-13.34-2.86-20.01-4.29-1.65-.86-4.58-2.67-7.01-5.93-2.25-3.02-3.04-5.92-3.36-7.59-1.86,8.51-3.72,17.03-5.58,25.54Z"/>
      <path class="cls-1" d="m854.97,712.24l-26-7.05-6.3-2.34,2.54-11.14c.48,2.54,1.85,7.36,6.36,10.85.82.64,2.61,1.9,8.31,3.75,3.64,1.18,8.93,2.62,15.65,3.51-.19.81-.38,1.61-.56,2.42Z"/>
      <polygon class="cls-5" points="861.43 712.18 854.97 712.24 855.36 710.06 861.52 707.35 861.43 712.18"/>
      <polygon class="cls-8" points="873.43 714.85 861.43 712.18 861.52 707.35 873.43 714.85"/>
      <ellipse class="cls-7" cx="748.58" cy="698.5" rx="73.55" ry="80.36" transform="translate(19.58 1417.41) rotate(-87.62)"/>
      <g>
        <path class="cls-9" d="m748.83,750.29c-.96,0-1.93-.02-2.88-.07-16.07-.77-31.23-8.02-41.58-19.89-9.17-10.51-13.58-23.5-12.42-36.59,2.35-26.53,27.04-47.31,56.21-47.31,1.43,0,2.89.05,4.32.16,30.39,2.18,54.02,26.6,52.67,54.45-1.31,27.15-26.58,49.25-56.31,49.25Z"/>
        <path class="cls-6" d="m748.15,645.94v1c1.42,0,2.86.05,4.28.15,30.12,2.16,53.54,26.35,52.21,53.93-.64,13.18-6.84,25.49-17.48,34.67-10.53,9.09-24.15,14.1-38.34,14.1-.95,0-1.91-.02-2.86-.07-15.94-.77-30.97-7.95-41.23-19.71-9.08-10.41-13.45-23.27-12.3-36.21,2.32-26.27,26.79-46.85,55.71-46.85v-1m0,0c-28.93,0-54.3,20.64-56.7,47.77-2.61,29.44,22.83,55.5,54.48,57.01.97.05,1.94.07,2.91.07,29.58,0,55.46-21.67,56.81-49.72,1.37-28.39-22.87-52.8-53.14-54.97-1.46-.1-2.91-.16-4.36-.16h0Z"/>
      </g>
      <g>
        <path class="cls-7" d="m748.75,714.82c-.31,0-.61,0-.92-.02-4.96-.23-9.63-2.39-12.83-5.91-2.89-3.18-4.37-7.2-4.17-11.32.42-8.73,8.18-15.58,17.66-15.58.31,0,.62,0,.93.02,4.76.22,9.15,2.15,12.36,5.41,3.2,3.25,4.85,7.45,4.64,11.82-.42,8.73-8.18,15.58-17.66,15.58Z"/>
        <path class="cls-6" d="m748.48,682.49h0c.3,0,.6,0,.9.02,4.82.23,9.38,2.32,12.48,5.74,2.8,3.08,4.23,6.97,4.04,10.96-.41,8.47-7.94,15.1-17.16,15.1-.3,0-.6,0-.9-.02-4.82-.23-9.38-2.32-12.49-5.74-2.8-3.08-4.23-6.97-4.04-10.96.41-8.47,7.94-15.1,17.16-15.1m0-1c-9.68,0-17.72,7.02-18.16,16.05-.45,9.33,7.37,17.28,17.48,17.75.32.02.63.02.95.02,9.68,0,17.72-7.02,18.16-16.05.45-9.33-7.37-17.28-17.48-17.75-.32-.01-.63-.02-.95-.02h0Z"/>
      </g>
      <path class="cls-7" d="m691.9,702.5c-.39.09.22,8.95,5.8,19.1,5.24,9.53,11.93,14.88,12.25,14.66.36-.26-8.2-7.33-6.36-13.87,1.48-5.26,8.98-7.67,8.43-8.68-.55-1.03-7.28,3.09-12.67.89-6.3-2.56-7.05-12.2-7.45-12.1Z"/>
      <path class="cls-7" d="m763.86,648.32c.06-.36-8.92-3.13-21.1-2.24-11.43.84-19.29,4.43-19.19,4.78.11.39,9.98-4.12,16.14-.16,5.01,3.22,5.19,10.49,6.42,10.32,1.24-.17-.9-7.26,2.91-10.97,4.54-4.43,14.76-1.38,14.82-1.73Z"/>
      <path class="cls-7" d="m798.63,725.1c.38.13,5.41-7.38,7.18-18.62,1.66-10.55-.48-18.48-.89-18.46-.46.02,2.14,10.34-3.45,14.67-4.5,3.48-12.15,1.42-12.33,2.54-.19,1.13,7.89,1.39,10.94,6.06,3.56,5.45-1.84,13.68-1.45,13.81Z"/>
      <path class="cls-7" d="m764.2,748.98c.17.34,9.47-1.74,19.23-8.58,9.16-6.42,13.62-13.44,13.32-13.69-.34-.29-6.28,8.73-13.57,8.18-5.86-.44-9.81-6.86-10.79-6.18-.99.68,4.62,6.1,3.29,11.39-1.56,6.18-11.66,8.52-11.48,8.87Z"/>
      <path class="cls-7" d="m715.51,741.03c-.2.39,7.21,5.28,18.78,8.39,11.24,3.02,19.79,2.58,19.83,2.23.05-.42-11.36.25-15.12-5.57-3.03-4.68.33-11.34-.84-11.69-1.17-.35-2.62,6.74-8.13,9-6.35,2.61-14.31-2.77-14.52-2.36Z"/>
      <path class="cls-7" d="m710.73,658.74c-.31-.24-7.77,5.28-13.47,15.31-5.36,9.41-6.18,17.54-5.8,17.65.44.13,1.7-10.39,8.53-12.74,5.5-1.89,11.99,2.4,12.57,1.4.58-1.01-6.96-3.74-8.17-9.07-1.41-6.22,6.66-12.3,6.33-12.55Z"/>
      <path class="cls-7" d="m801.51,679.84c.35-.19-2.89-8.56-11.29-16.9-7.88-7.83-15.9-11.26-16.14-10.96-.27.34,10.06,4.95,10.25,11.72.16,5.44-6.32,9.68-5.48,10.52.84.85,6.06-4.84,11.89-4.11,6.81.85,10.41,9.93,10.77,9.73Z"/>
      <polygon class="cls-2" points="943.96 287.94 999.41 229.07 1029.35 226.2 977 287.01 943.96 287.94"/>
    </g>
    <g id="_图层_10" data-name="图层 10">
      <path class="cls-10" d="m795.26,595.44c-1.14,1.8-3.87,5.44-9.14,7.46-2.77,1.06-5.55,1.42-8.97,1.41-11.61-.01-23.4-4.13-28.56-6.11-1.91-1.98-3.83-3.96-5.74-5.95-6.64,1.88-13.28,3.77-19.92,5.65,5.2,3.03,10.41,6.06,15.61,9.09,2.78-1.03,5.56-2.06,8.34-3.09,8.85,1.82,17.71,3.64,26.56,5.46,2.16,1.05,6.01,3.25,9.12,7.14,2.88,3.61,3.82,7.06,4.17,9.04,2.85-10.04,5.69-20.07,8.54-30.11Z"/>
      <path class="cls-11" d="m747.5,601.34l34.45,8.83,8.32,2.88-3.86,13.13c-.54-3.01-2.17-8.75-8.04-12.96-1.07-.77-3.41-2.3-10.96-4.59-4.81-1.46-11.82-3.27-20.77-4.44.28-.95.57-1.9.85-2.85Z"/>
      <polygon class="cls-4" points="738.86 601.29 747.5 601.34 746.88 603.9 738.54 606.99 738.86 601.29"/>
      <polygon class="cls-10" points="722.93 597.9 738.86 601.29 738.54 606.99 722.93 597.9"/>
      <path class="cls-3" d="m878.43,550.59c-2.47.16-7.66.2-12.52-2.39-2.55-1.36-4.37-3.11-6.16-5.49-6.06-8.09-7.97-18.48-8.61-23.13,1.05-2.39,2.11-4.77,3.16-7.16-5.43-3.62-10.86-7.23-16.28-10.85-.42,5.23-.84,10.47-1.26,15.7,2.52,1.39,5.05,2.77,7.57,4.16,2.75,7.13,5.49,14.26,8.24,21.38.04,2.07-.22,5.91-2.64,10.15-2.24,3.93-5.33,6.42-7.2,7.72,11.89-3.37,23.79-6.73,35.68-10.1Z"/>
      <path class="cls-11" d="m847.32,520.5l8.87,28.67,1.36,7.33-15.63,4.31c2.84-1.98,7.93-6.17,9.23-12.49.24-1.16.59-3.6-.97-10.07-1-4.13-2.8-9.96-6.26-16.82,1.13-.31,2.27-.62,3.4-.92Z"/>
      <polygon class="cls-4" points="842.85 514.46 847.32 520.5 844.34 521.43 836.76 517.28 842.85 514.46"/>
      <polygon class="cls-10" points="838.02 501.57 842.85 514.46 836.76 517.28 838.02 501.57"/>
      <path class="cls-3" d="m963.84,571.87c-1.69-1.47-4.96-4.77-5.51-9.5-.29-2.49.24-4.75,1.39-7.39,3.93-8.97,12.64-16.74,16.66-20.08,2.93-.83,5.85-1.66,8.78-2.49.07-5.75.14-11.49.2-17.24-5.24,3.03-10.48,6.07-15.73,9.1l.75,7.46c-5.08,6.25-10.15,12.5-15.23,18.74-1.94,1.33-5.77,3.59-11.3,4.71-5.13,1.04-9.42.65-11.82.27,10.6,5.48,21.2,10.95,31.8,16.43Z"/>
      <path class="cls-11" d="m973.13,533.03l-21.77,23.74-6.12,5.49-13.82-7.27c3.65.57,10.8,1.18,17.63-1.98,1.25-.58,3.79-1.89,8.98-6.97,3.31-3.24,7.74-8.07,12.12-14.6,1,.53,2,1.06,3,1.59Z"/>
      <polygon class="cls-4" points="976.1 526.38 973.13 533.03 970.39 531.72 969.64 524.26 976.1 526.38"/>
      <polygon class="cls-10" points="985.36 515.17 976.1 526.38 969.64 524.26 985.36 515.17"/>
      <path class="cls-3" d="m800.28,664.51c.72,1.93,1.87,6.08-.18,10.54-1.08,2.34-2.77,4.19-5.23,6.15-8.34,6.66-20.32,10.5-25.72,12.06-3.07-.31-6.14-.62-9.2-.93-3.15,5.15-6.31,10.3-9.46,15.45,6.32-.84,12.65-1.67,18.97-2.51,1.11-2.33,2.23-4.65,3.34-6.98,7.91-3.79,15.81-7.58,23.72-11.37,2.45-.49,7.09-1.15,12.65-.16,5.15.91,8.78,2.82,10.73,4.02-6.54-8.76-13.08-17.51-19.63-26.27Z"/>
      <path class="cls-11" d="m771.06,696.12l32.27-13.51,8.44-2.73,8.46,11.53c-2.96-1.83-9.03-4.96-16.85-4.58-1.43.07-4.41.33-11.79,3.03-4.7,1.72-11.27,4.47-18.7,8.77-.61-.84-1.22-1.68-1.83-2.51Z"/>
      <polygon class="cls-4" points="764.82 701.04 771.06 696.12 772.81 698.29 769.47 705.27 764.82 701.04"/>
      <polygon class="cls-10" points="750.5 707.78 764.82 701.04 769.47 705.27 750.5 707.78"/>
      <path class="cls-3" d="m856.76,709.28c2.36.6,7.19,2.14,10.51,6.03,1.75,2.04,2.64,4.22,3.21,6.98,1.95,9.37-1.01,19.62-2.52,24.14-2.06,1.9-4.12,3.8-6.18,5.7,3.39,5.02,6.77,10.04,10.16,15.06,2.76-4.74,5.53-9.48,8.29-14.23l-5.13-6.17c.69-7.47,1.38-14.94,2.07-22.4.9-1.93,2.89-5.43,7.05-8.64,3.86-2.97,7.85-4.35,10.17-4.99-12.54-.49-25.09-.98-37.63-1.47Z"/>
      <path class="cls-11" d="m871.92,746.75l4.8-29.38,2.06-7.23,16.43.75c-3.53.98-10.15,3.32-14.22,8.81-.74,1.01-2.18,3.17-3.67,9.66-.95,4.14-1.93,10.12-1.83,17.56-1.19-.06-2.38-.12-3.57-.18Z"/>
      <polygon class="cls-4" points="873.32 753.72 871.92 746.75 875.11 746.79 880.23 752.96 873.32 753.72"/>
      <polygon class="cls-10" points="871.94 767.19 873.32 753.72 880.23 752.96 871.94 767.19"/>
      <path class="cls-3" d="m953.84,692.73c2-1.2,6.4-3.48,12.21-3.39,3.05.05,5.73.74,8.78,1.99,10.38,4.23,18.69,12.2,22.23,15.86.64,2.48,1.28,4.95,1.91,7.43,6.96.72,13.91,1.43,20.87,2.15-3.01-4.61-6.03-9.22-9.04-13.84-3.04-.08-6.09-.17-9.13-.25-6.93-4.85-13.86-9.7-20.79-14.55-1.36-1.73-3.62-5.1-4.29-9.73-.62-4.29.41-7.74,1.16-9.64-7.97,7.99-15.95,15.98-23.92,23.97Z"/>
      <path class="cls-11" d="m999.74,704.77l-26.02-20.44-5.88-5.61,10.55-10.4c-1.15,2.9-2.79,8.65.18,14.56.54,1.08,1.81,3.3,7.31,8.1,3.51,3.06,8.8,7.23,16.17,11.54-.77.75-1.54,1.5-2.31,2.25Z"/>
      <polygon class="cls-4" points="1007.43 707.94 999.74 704.77 1001.67 702.68 1010.8 702.93 1007.43 707.94"/>
      <polygon class="cls-10" points="1019.84 716.77 1007.43 707.94 1010.8 702.93 1019.84 716.77"/>
      <path class="cls-3" d="m987.6,633.15c.52-1.98,1.98-6.07,6.42-9.17,2.33-1.62,4.9-2.57,8.21-3.3,11.22-2.51,23.94-1.1,29.56-.31,2.49,1.49,4.98,2.99,7.46,4.48,5.81-3.25,11.61-6.51,17.42-9.76-6-1.79-12.01-3.58-18.01-5.37-2.35,1.6-4.71,3.19-7.06,4.79-9.14.17-18.28.34-27.41.5-2.43-.55-6.86-1.82-11.11-4.9-3.95-2.85-5.97-5.97-6.95-7.8.49,10.28.99,20.56,1.48,30.84Z"/>
      <path class="cls-10" d="m1031.83,617.11l-36.13-1.03-8.97-.97-.51-13.48c1.49,2.78,4.92,7.95,11.95,10.73,1.29.51,4.04,1.47,12.06,2.05,5.12.37,12.47.58,21.5-.22.03.98.06,1.95.1,2.93Z"/>
      <polygon class="cls-4" points="1040.18 615.29 1031.83 617.11 1031.59 614.51 1038.65 609.72 1040.18 615.29"/>
      <polygon class="cls-10" points="1056.66 615.09 1040.18 615.29 1038.65 609.72 1056.66 615.09"/>
      <ellipse class="cls-3" cx="889.15" cy="630.22" rx="107.38" ry="87.06" transform="translate(-14.24 20.59) rotate(-1.32)"/>
      <path class="cls-9" d="m964.03,617.68c8.07,33.64-20.08,66.56-60.5,73.22-41.56,6.85-83.45-16.16-90.13-50.67-6.46-33.38,22.37-65.43,62.94-71.24,39.99-5.72,79.78,15.72,87.69,48.69Z"/>
      <ellipse class="cls-3" cx="889.16" cy="630.1" rx="24.48" ry="20.01" transform="translate(-9.66 13.85) rotate(-.89)"/>
      <path class="cls-3" d="m816.99,650.2c-.47.21,3.34,10.21,14.05,20.36,10.05,9.52,20.56,13.85,20.9,13.5.38-.4-13.13-6.19-12.98-14.19.12-6.44,9.03-11.24,7.97-12.26-1.07-1.03-8.39,5.52-16.13,4.46-9.04-1.23-13.3-12.09-13.8-11.87Z"/>
      <path class="cls-3" d="m891.83,568.46c-.05-.43-12.64-1.17-28.13,3.16-14.54,4.06-23.51,10.33-23.25,10.7.28.42,11.53-7.44,20.88-4.57,7.6,2.33,10.32,10.63,11.86,10.11,1.55-.53-3.65-8.09.02-13.39,4.38-6.31,18.67-5.59,18.62-6.01Z"/>
      <path class="cls-3" d="m963.14,647.18c.54.05,4.49-9.95,2.95-23.33-1.45-12.56-6.94-21.08-7.45-20.96-.59.14,6.3,11.29.53,17.78-4.64,5.22-15.27,4.93-15.13,6.27.14,1.35,10.71-.55,16.26,3.99,6.48,5.29,2.28,16.2,2.84,16.25Z"/>
      <path class="cls-3" d="m926.64,683.94c.34.34,11.69-4.57,22.02-15.07,9.69-9.85,13.07-19.12,12.6-19.33-.54-.23-5.16,11.73-14.8,13.08-7.75,1.09-15.06-5.21-16.11-4.17-1.05,1.05,8.08,5.74,8.15,12.18.09,7.51-12.22,12.95-11.86,13.31Z"/>
      <path class="cls-3" d="m860.77,688.03c-.12.51,11.16,4.11,27.22,4.53,15.6.41,26.54-2.41,26.48-2.82-.08-.5-14.64,3.37-21.51-2.29-5.53-4.55-3.44-13.11-5.08-13.2-1.64-.09-1.1,8.45-7.47,12.54-7.35,4.73-19.51.71-19.64,1.23Z"/>
      <path class="cls-3" d="m826.47,594.85c-.49-.19-8.27,8.18-12.24,21.24-3.73,12.26-2.03,21.81-1.49,21.83.61.02-1.35-12.39,6.71-16.94,6.49-3.67,16.38-.5,16.78-1.8.41-1.31-10.3-2.4-13.69-8.2-3.95-6.76,4.43-15.93,3.93-16.13Z"/>
      <path class="cls-3" d="m951.42,594.43c.38-.31-6.67-9.04-20.41-16.34-12.9-6.85-24.48-8.61-24.68-8.2-.23.47,14.73,2.96,17.3,10.67,2.06,6.2-4.89,12.83-3.52,13.57,1.38.74,6.2-7.2,14.02-7.94,9.12-.87,16.89,8.57,17.3,8.25Z"/>
    </g>
    <polyline class="cls-9" points="228.14 242.88 184.18 219.14 228.14 231.01"/>
    <polyline class="cls-9" points="228.14 242.88 184.18 219.14 228.14 231.01"/>
  </g>
  <g id="maozi">
    <path class="cls-17" d="m980.09,572.04c15.65,16.61,25.25,18.79,31.25,17.29.91-.23,10.55-2.75,23.34-6.84,2.08-.67,3.59-1.16,3.98-.63,2.24,3.02-33.07,31.71-33.07,31.71,0,0-10.21,12.92-18.97-18.32-8.76-31.24-6.53-23.21-6.53-23.21Z"/>
    <path class="cls-15" d="m824.24,701.75c-6.28,4.08-13.41,9.34-20.73,16.05-7.81,7.16-13.96,14.24-18.72,20.44,19.29,2.75,38.59,5.51,57.88,8.26l76.15-47.29c-10.17-3.08-23.06-5.89-38.09-6.66-7.42-.38-14.27-.21-20.44.27-5.46.58-11.71,1.57-18.5,3.26-6.66,1.66-12.53,3.65-17.54,5.66Z"/>
    <path class="cls-13" d="m894.32,697.37c-3.81-.88-6.82.14-8.44-1.87-.88-1.09-.86-2.47-.57-5.04.93-8.02,2.26-11.37,2.26-11.37.75-1.87,3.19-10.57,8.09-27.96,2.1-7.48,3.12-11.75,5.64-19.42.89-2.69,1.88-5.56,3.08-8.74,1.35-3.6,2.85-7.27,4.69-11.39,9.76-21.9,33.65-75.56,52.32-72.87,20.75,2.99,19.16,73.33,39.77,75.45,15.11,1.55,28.24-35.01,36.24-31.95,4.46,1.71,1.79,13.59,2.09,52.26.14,18.33.76,19.13-.64,23.08-3.53,9.97-11.6,16.11-56.79,35.75-29.05,12.63-39.66,15.97-47.7,16.49-2.61.17-5.27-.01-5.27-.01-6.66-.28-16.93-.71-25.63-6.43-5.05-3.32-5.12-5.06-9.15-5.99Z"/>
    <path class="cls-21" d="m756.72,734.25l65.88,16.58,16.56,3.42,139.52-51.48,89.81-30.39,59.3-1.62,75.48-58.98s-90.39,46.23-75.77,23.29c14.63-22.94,43.41-45.71,43.41-45.71,0,0-48.26,43.17-68.81,40.9-20.56-2.27,1.78-31.33,1.78-31.33,0,0-5.65-37.22,18.94-43.59,24.58-6.37,53.23-36.65,54.85-38.49,1.61-1.84-138.43,66.18-151.43,87.66-12.99,21.48-26.15,48.53-33.74,48.41-7.58-.13,11.98-19.39,9.03-27.81-2.95-8.43,3.36-25.58,3.36-25.58,0,0-17.54,30.91-27.09,43.55-9.56,12.64-8.5-4.73-8.5-4.73l6.94-16.61-44.42,69.43c-29.71,18.45-59.43,36.9-89.14,55.36-15.72-4.24-31.45-8.48-47.17-12.72-12.93.15-25.85.31-38.78.46Z"/>
    <path class="cls-16" d="m896.56,647.96s40.92,34.34,46.97,24.88c6.05-9.46-9.4,14.69-9.4,14.69,0,0-45.52-6.77-43.39-16.31s5.83-23.26,5.83-23.26Z"/>
    <path class="cls-12" d="m911.65,694.33c29.81-38.91,38.85-56.05,40.45-63.96.18-.9.84-4.11,2.59-8.19,4.29-10.03,11.26-15.94,14.34-18.49,0,0,98.9-81.99,99.41-106.65,0-.31.03-1.35-.07-1.36-.26-.02-1.04,8.05-1.64,11.91-2.68,17.37-14.21,30.49-16.6,33.21-5.79,6.59-21.85,26.44-18.07,22.97,4.38-4.01,25.43-11.32,25.51-11.12.13.31-21.29,14.42-27.02,18.92-2.03,2.27-4.78,4.95-8.38,7.53-4.19,3.01-8.2,4.93-11.35,6.16,5.59.28,11.17.56,16.76.84l-19.05,7.57c-14.78,9.96-29.55,19.92-44.33,29.88-1.5,2.52-3.01,5.04-4.51,7.56-14.78,20.6-29.56,41.21-44.34,61.81-1.23.47-2.46.94-3.7,1.41Z"/>
    <polygon class="cls-19" points="761.87 734.87 846.07 746.69 798.9 733.97 761.87 734.87"/>
    <path class="cls-19" d="m1097.58,671.58l-49.47,23.77-194.22,53.46c37.38-14.36,75.81-28.57,115.28-42.54,33.19-11.75,65.92-22.9,98.14-33.5,10.09-.4,20.18-.8,30.27-1.2Z"/>
  </g>
  <g id="_图层_6" data-name="图层 6">
    <path class="cls-18" d="m242.12,244.57c16.03-16.9,32.06-33.8,48.09-50.7,32.54-23.74,65.07-47.49,97.61-71.23-10.85,21.19-21.69,42.38-32.54,63.57,26.92,2.16,53.83,4.32,80.75,6.48-45.77,14.44-91.53,28.87-137.3,43.31-18.87,2.86-37.74,5.71-56.61,8.57Z"/>
    <polygon class="cls-20" points="242.12 244.48 436.03 192.61 298.73 235.91 242.12 244.48"/>
    <polygon class="cls-18" points="239.44 242.88 242.63 195.32 261.07 133.93 264.61 192.61 313.03 170.04 280.88 194.55 239.44 242.88"/>
    <polygon class="cls-20" points="241.11 240.94 270.81 196.09 313.03 170.04 275.46 200.87 241.11 240.94"/>
  </g>
</svg>