<?xml version="1.0" encoding="UTF-8"?>
<svg id="_图层_1" data-name="图层 1" xmlns="http://www.w3.org/2000/svg" viewBox="0 0 810.91 602.21">
  <defs>
    <style>
      .cls-1 {
        fill: #fff;
      }
    </style>
  </defs>
  <path class="cls-1" d="M810.64,301.21s1,2-11,21-14,23-24,40-33,42-48,61-34,40-45,52-46,44-88,71-87,46-126,52-61,3-81,3-32-2-50-5-40-10-53-16-35-16-52-24-44-29-44-29c-22-15-31-28-55-50s-43-45-66-76S1.06,304.5,.64,303.21c-.43-1.29-.58-2.71-.08-4.21s44-67,67-98,42-54,66-76,33-35,55-50c0,0,27-21,44-29s39-18,52-24,35-13,53-16,30-5,50-5,42-3,81,3,84,25,126,52,77,59,88,71,30,33,45,52,38,44,48,61,12,21,24,40,11,21,11,21l.08,.21Zm-101.55,14.69c9.22-13.63,8.45-15.06,8.45-15.06l-.05-.15s.76-1.43-8.46-15.06c-9.23-13.63-10.76-16.49-18.45-28.69-7.69-12.19-25.37-30.12-36.9-43.74-11.53-13.63-26.14-28.69-34.59-37.3-8.46-8.6-35.37-31.55-67.65-50.92-32.29-19.36-66.88-32.99-96.87-37.29-29.98-4.3-46.89-2.15-62.26-2.15s-24.6,1.43-38.44,3.58c-13.84,2.16-30.75,7.18-40.75,11.48-9.99,4.3-26.9,11.47-39.97,17.21s-33.82,20.8-33.82,20.8c-16.92,10.76-23.84,20.08-42.29,35.86-18.45,15.78-33.05,32.27-50.73,54.5-17.68,22.24-51.12,69.21-51.51,70.29-.38,1.07-.27,2.09,.06,3.01,.33,.93,33.82,48.06,51.51,70.29,17.68,22.23,32.28,38.73,50.73,54.5,18.45,15.78,25.37,25.11,42.28,35.86,0,0,20.76,15.06,33.83,20.8,13.07,5.74,29.98,12.91,39.97,17.21,10,4.31,26.91,9.33,40.75,11.48,13.83,2.15,23.06,3.58,38.43,3.58s32.29,2.16,62.27-2.15c29.98-4.3,64.58-17.93,96.86-37.29,32.29-19.36,59.2-42.31,67.65-50.92,8.46-8.61,23.07-23.67,34.6-37.29,11.53-13.63,29.21-31.56,36.9-43.75s9.22-15.06,18.45-28.69Z"/>
  <path class="cls-1" d="M406.06,163.5c79.36,0,143.7,61.78,143.7,138s-64.34,138-143.7,138-143.7-61.78-143.7-138,64.34-138,143.7-138Zm55,137.5c0-30.65-24.85-55.5-55.5-55.5s-55.5,24.85-55.5,55.5,24.85,55.5,55.5,55.5,55.5-24.85,55.5-55.5Z"/>
</svg>