<?xml version="1.0" encoding="UTF-8"?>
<svg id="_图层_2" data-name="图层 2" xmlns="http://www.w3.org/2000/svg" viewBox="0 0 2161.89 2288">
  <defs>
    <style>
      .cls-1 {
        fill: #fff;
      }
    </style>
  </defs>
  <polygon class="cls-1" points="1517.5 1026.38 1213.19 1026.71 1165.59 1026.76 1128.5 1026.76 1128.5 970.5 1237.94 970.5 1237.94 918.15 1365 918.5 1365.5 918.5 1491.73 917.72 1491.73 970.06 1601.17 970.06 1601.17 1026.33 1564.08 1026.33 1517.5 1026.38"/>
  <polygon class="cls-1" points="1364.5 1354.71 1364.5 1354.5 1498.5 1354.5 1517.5 1334.5 1517.5 1026.38 1564.08 1026.33 1563.17 1351.06 1527.17 1387.06 1365.5 1387.5 1365 1387.5 1202.5 1387.5 1166.5 1351.5 1165.59 1026.76 1213.19 1026.71 1213.19 1333.07 1230.5 1352.5 1364.5 1354.71"/>
  <rect class="cls-1" x="1385.13" y="1080.37" width="53.4" height="198.57"/>
  <rect class="cls-1" x="1292.5" y="1080.5" width="53.4" height="198.57"/>
</svg>