<?xml version="1.0" encoding="UTF-8"?>
<svg xmlns="http://www.w3.org/2000/svg" viewBox="0 0 322 179.98">
  <defs>
    <style>
      .cls-1, .cls-2 {
        stroke-width: 0px;
      }

      .cls-2, .cls-3 {
        fill: #fff;
      }

      .cls-3 {
        stroke: #fff;
        stroke-miterlimit: 10;
      }
    </style>
  </defs>
  <g id="_图层_4" data-name="图层 4">
    <polygon class="cls-2" points="120 17.98 127 34.98 126.93 34.98 0 32.98 14.27 179.98 179.83 179.98 181.46 166.12 181.59 166.1 322 150.98 322 0 120 17.98"/>
    <polygon class="cls-1" points="146 39.98 140.04 40.93 141 46.98 138.82 46.93 162 150.98 163 150.91 163 146.03 166.36 146.06 146 39.98"/>
  </g>
  <g id="_图层_3" data-name="图层 3">
    <polygon class="cls-1" points="138 27.98 141 46.98 140.97 46.98 163.01 146.03 173.25 146.1 305 146.98 307 14.98 138 27.98"/>
    <polygon class="cls-3" points="193.28 80.57 207.26 78.53 235.25 78.53 249.23 80.55 249.3 86.49 235.32 88.53 207.26 88.57 193.21 86.52 193.28 80.57"/>
  </g>
  <g id="_图层_2" data-name="图层 2">
    <polygon class="cls-1" points="131.84 46.76 15 43.98 24.66 166.12 163 157.98 163 146.03 163.01 146.03 140.97 46.98 131.84 46.76"/>
    <polygon class="cls-3" points="64.28 103.43 85.04 100.4 88.08 79.57 93.75 79.64 96.77 100.36 117.65 103.41 117.71 109.08 96.82 112.13 93.77 133.01 88.1 133.07 85.07 112.15 64.21 109.1 64.28 103.43"/>
  </g>
</svg>