<?xml version="1.0" encoding="UTF-8"?>
<svg id="_图层_3" data-name="图层 3" xmlns="http://www.w3.org/2000/svg" viewBox="0 0 693.42 1082.45">
  <defs>
    <style>
      .cls-1 {
        fill: #141414;
      }

      .cls-1, .cls-2 {
        stroke-width: 0px;
      }

      .cls-3 {
        fill: none;
        stroke: #fff;
        stroke-miterlimit: 10;
        stroke-width: 2px;
      }

      .cls-2 {
        fill: #fff;
      }
    </style>
  </defs>
  <path class="cls-1" d="m511.44,878.16l-3.47,17.06-5.97,29.36-13.46,66.15-7.65,37.6h0s-10.75,52.85-10.75,52.85H.34V1.3h689.34l-3.45,17.04-7.65,37.71-5.59,27.6-13.05,64.32v.02l-1.66,8.21-6.69,32.9-3.16,15.54-3.49,17.12-.82,4.04-1.12,5.52-1.91,9.4-7.6,37.32-2.97,14.63-5.6,27.5-2.38,11.7-5.17,25.43-2.32,11.4-3.7,18.22-4.3,21.13-4,19.62-3.43,16.87-2.25,11.07-16.25,79.85h0s-6.68,32.84-6.68,32.84l-6.36,31.3-4.59,22.55-3.77,18.52-2.85,14.03h0s-3.77,18.51-3.77,18.51l-3.8,18.65-11.51,56.6-5.67,27.88h0s-6.16,30.21-6.16,30.21l-4.97,24.49-4.96,24.36-4.63,22.75Z"/>
  <path class="cls-3" d="m672.99,83.65c-.18-.31-.35-.62-.53-.93-5.59-9.86-11.79-19.4-17.98-29.88-1.04-2.11-3.12-3.16-5.2-4.22-10.39-1.05-15.59,10.54-22.86,14.76-21.81,12.65-31.17-16.87-41.56-31.62-7.28-8.43-11.86-18.78-28.06-13.71-16.21,5.09-52.27,22.69-53,35.84-1.04,7.38,1.04,13.71,0,21.08-1.04,3.16-3.12,6.33-6.23,7.38-17.67,0-38.45,0-49.89,18.97-3.11,5.27-9.35,8.44-15.59,10.54-16.63,4.22-31.17,8.44-46.76,15.82-4.16,2.11-9.36,2.11-13.51,1.05-9.36,0-18.7-3.16-29.1-2.1-12.47,2.1-22.85,10.54-31.17,20.02-15.59,18.97-28.05,37.95-45.72,54.81-9.36,8.43-19.74,12.65-30.14,18.97-4.16,3.16-1.04,9.49,1.04,13.7,11.44,14.76,27.02,23.19,34.29,40.06,5.2,11.6,4.16,24.24,0,35.84-1.04,2.11-2.08,4.22-3.12,7.38-9.35,17.91-29.09,22.13-43.64,34.78-7.28,7.39-13.51,14.77-16.63,24.25-1.04,2.1-2.08,5.27-3.12,7.38-4.16,13.7-7.28,27.4-6.24,42.16,2.08,14.76,8.32,28.46,18.7,39,2.08,2.11,5.2,3.17,7.28,5.28,14.55,14.76,31.17,25.29,46.76,39,7.28,7.38,14.55,15.81,24.94,16.87,11.43,2.11,23.9-2.11,32.21-11.6,3.12-4.22,1.07-9.49,4.16-14.76s10.39-11.6,16.63-14.76c8.31-4.22,17.67-1.06,24.93,4.21,2.08,1.06,5.2,2.11,7.28,1.06,17.67-7.38,33.25-17.92,49.88-27.4,8.32-4.22,12.48-11.6,17.67-18.97,1.04-1.06,3.12-2.11,4.16-2.11,10.39,1.05,20.78,3.16,31.17-1.06,7.28-3.16,13.52-9.49,20.2-14.1,3.39-2.35,6.43-4.19,10.28-2.73s6.81,4.57,9.96,7.24c19.45,16.53,46.86,17.05,71.48,24.04.48.12.95.26,1.42.4"/>
  <path class="cls-3" d="m502,924.58c-.79-.09-1.59-.15-2.38-.19-3.37-.16-6.75.14-9.95,1.18-13.83,4.47-20.31,21.83-17.34,36.24,2.07,9.99,7.52,18.71,14.15,26.54.67.8,1.37,1.6,2.06,2.38"/>
  <path class="cls-3" d="m285.98,1072.99c.46,1.38.91,2.75,1.37,4.13-9.13-11.89-12.32-28.21-8.36-42.73,1.49-5.46,3.99-10.73,7.88-14.78,3.69-3.85,8.47-6.44,13.37-8.47,19.49-8.05,41.21-7.77,62.25-7.37,4.04.08,8.18.18,11.92,1.73,5.7,2.36,10.1,7.94,16.22,8.58,4.49.46,8.74-1.89,13.1-3.09,10.21-2.8,21.92,1.34,28.2,9.97,5.92,8.13,7.21,19.42,14.56,26.22,5.09,4.7,12.71,6.39,19.25,4.25,3.56-1.16,6.74-3.43,9.12-6.36"/>
  <path class="cls-3" d="m480.9,1028.34h0"/>
  <path class="cls-3" d="m340.79,1081.08c-.09-4.68-.29-9.69-3.04-13.44-6.54-8.91-23.41-5.7-27.75-15.9-3.01-7.07,2.99-14.88,9.62-18.64,14.53-8.23,33.51-6.22,47.36,3.14,5.22,3.52,9.79,7.97,15.05,11.43s11.55,5.95,17.73,4.87c2.03-.35,4.06-1.09,6.1-.77,2.98.47,5.19,3.1,6.48,5.86,3.22,6.9,2.03,15.67-2.9,21.44"/>
  <path class="cls-3" d="m284.17,997.59c4.74-.47,9.16-2.53,13.48-4.57,8-3.78,16-7.56,24.01-11.33,12.55-5.92,26.09-12.83,31.79-25.62,1.06-2.37,1.81-5.02,1.25-7.56-.76-3.48-3.92-6.04-7.31-6.96-3.39-.93-7-.49-10.44.22-17.33,3.56-32.71,13.56-49.63,18.79-6.97,2.16-14.48,3.65-20.01,8.46-14.26,12.4,2.24,30.01,16.87,28.58Z"/>
  <path class="cls-3" d="m507.97,895.22c-.74-.21-1.49-.41-2.24-.59-11.15-2.77-22.51-2.8-34.15,2.53-9.35,4.22-14.55,13.71-19.74,22.14-2.08,5.27-3.12,10.54-4.16,15.81-2.08,12.65,1.04,24.24-2.08,35.84-4.15,11.6-17.67,1.05-24.93-2.11-2.08-1.05-5.2,0-7.28,1.06-4.15,3.16-8.31,4.21-12.47,3.16-6.24,0-7.28-8.44-5.2-13.71,4.16-8.43,11.44-14.76,8.32-24.24-1.04-2.11-2.08-4.22-3.12-5.27-24.94-18.97-57.15-13.71-85.21-5.27-31.18,8.43-59.23,21.07-87.29,39-12.48,8.43-12.48,23.19-10.4,36.89,1.04,7.38-7.27,9.49-11.43,12.66-10.4,9.49-7.28,27.4,6.24,32.67,4.15,2.11,12.47,1.06,10.39,7.38-4.16,8.44-14.55,7.38-21.82,8.44-9.35,0-17.67-5.27-25.97-10.55-5.2-2.11-11.44-4.21-15.6,0-7.27,7.38-6.23,18.97-11.43,27.41-1.04,1.05-2.08,1.05-3.42,2.45"/>
  <path class="cls-3" d="m495.9,2.2c-7.82,7.45-16.39,14.08-25.54,19.74-3.43,2.12-7.11,4.29-9.05,7.86-2.67,4.92-1.32,11.18-3.43,16.37-3.57,8.75-14.73,10.7-22.26,16.3-6.54,4.87-10.7,12.91-18.07,16.34-15.4,7.16-34.73-9.72-49.57-1.42-5.69,3.19-9.48,9.66-15.75,11.42-5.75,1.61-11.7-1.27-17.64-1.84-12.15-1.17-23.16,7.46-30.66,17.23-7.49,9.77-12.99,21.19-21.86,29.69-8.23,7.86-18.93,12.77-26.76,21.04-6.71,7.09-11.08,16.44-18.79,22.39-9.46,7.31-22.2,8.22-32.99,13.29-2.07.97-4.15,2.18-5.36,4.14-1.27,2.06-1.37,4.63-1.31,7.06.72,32.7,23.51,57.71,41.83,84.64,5,7.37.98,17.95-5.72,23.77-6.69,5.83-15.4,8.58-23.05,13.01-15.77,9.12-26.7,25.32-32.61,42.73-5.91,17.41-7.22,36.06-7.31,54.47-.09,16.4,1.18,33.99,11.19,46.86,7.43,9.56,18.74,15.22,26.86,24.17,14.85,16.37,16.71,40.61,25.89,60.79,1.88,4.13,4.21,8.25,7.87,10.87,3.72,2.66,8.4,3.47,12.93,3.96,45.25,4.97,89.83-14.4,128.17-39.28,24.14-15.67,48.88-34.38,77.53-34.61,3.5-.03,7.85.88,8.73,4.32.93,3.64-2.83,6.58-5.99,8.56-16.68,10.42-30.72,25.12-40.46,42.36-3.75,6.62-6.93,13.97-6.49,21.58.44,7.62,5.51,15.41,12.95,16.62,6.19,1,12.08-2.56,17.85-5.04,5.77-2.49,13.34-3.63,17.6,1.04,6.34,6.95-.07,20.6,7.2,26.53,3.88,3.17,9.5,2.12,14.44,2.73,15.8,1.96,23.6,20.44,36.88,29.34,9.6,6.43,21.74,7.57,32.06,12.6.58.28,1.15.58,1.71.88h0"/>
  <path class="cls-3" d="m4.21,791.47c11.84,1.35,22.32,10.99,24.79,22.81.9,4.33.84,8.88,2.31,13.04,1.48,4.16,5.22,8.03,9.56,7.59,3.51-.36,6.15-3.34,8.13-6.3,4.58-6.83,7.62-14.72,8.82-22.89.68-4.58.82-9.36,2.79-13.53,3.38-7.16,11.67-10.95,19.49-10.82,7.82.13,15.24,3.52,21.99,7.55,14.61,8.73,27.29,20.77,36.84,34.99.74,1.1,1.56,2.3,2.81,2.7s2.95-.58,2.69-1.89c2.05-26.43-1.95-53.31-11.59-77.95-2.68-6.85-5.83-13.69-6.43-21.04-.88-10.71,3.69-21.96-.17-31.96-1.92-4.99-5.8-9.12-7.13-14.3-2.25-8.76,3.3-17.61,3.56-26.65.15-5.4-1.59-10.69-1.64-16.09-.06-5.4,1.74-13.03,7.49-12.99,5.75.04,5.04,17.75,7.72,26.74,3.91,13.13,15.42,22.85,19.33,35.98,1.76,5.9,1.9,12.28,4.32,17.94,1.75,4.1,4.61,7.59,7.42,11.02,11.31,13.79,21.9,30.63,35.71,41.82,13.97,11.32,22.28,27.13,31.64,42.94,7.27,9.49,14.55,18.97,27.02,21.08,6.23-8.43,6.23-17.92,6.23-27.41-4.16-35.84-27.02-63.25-42.6-94.87-4.16-10.54-16.77-27.62-4.16-33.73,12.61-6.11,56.11,35.84,80.01,60.08,9.35,8.43,18.7,14.76,30.13,18.97,9.35,3.16,18.16,6.49,29.1-3.16,10.94-9.65-8.31-41.11,6.23-57.97,6.23-6.32,22.86-11.59,22.86-11.59,5.56-.91,17.67-4.22,25.98-6.32,0,0,9.44-3.54,16.89-4.5,7.45-.96-8.58-8.15-8.58-8.15-5.2-3.16-9.35-6.32-14.55-8.43-16.63-6.32-35.33-6.32-50.92-15.81-8.31-5.27-14.55-12.65-22.86-17.92-5.2-3.16-12.47-3.16-18.7-1.05-1.04,0-2.08,2.11-3.12,2.11-3.12,1.05-5.2,2.11-7.27,3.16-5.2,2.11-10.39,3.16-15.59,2.11-8.31-2.11-15.59-7.38-23.9-8.43-14.55-1.05-30.13,0-43.64-5.27-16.63-7.38-21.82-24.24-24.94-41.11-2.08-16.87-3.12-33.73-13.51-48.49-11.43-14.76-25.98-23.19-37.41-37.95-14.55-22.14-18.7-48.49-16.63-73.79,2.08-25.3,6.23-49.54,13.51-73.79,5.2-14.76,15.59-30.57,33.25-32.68,5.2,0,7.27-5.27,6.23-10.54-7.27-22.14-14.55-41.11-19.74-64.3-2.08-13.7-1.04-25.3,3.12-37.95,4.16-11.59,13.51-18.97,22.86-27.41,18.7-14.76,34.29-28.46,53-43.22,2.08-2.11,4.16-5.27,6.23-7.38,24.94-21.08,42.6-45.33,67.54-66.41,2.08-1.05,5.2-2.11,8.31-2.11,9.35,1.05,16.63,8.43,25.98,7.38,7.27-1.05,12.47-8.43,19.74-8.43,10.39,0,21.82,7.38,32.21,2.11,5.2-3.16,8.31-7.38,9.35-13.7,1.04-6.32,1.04-13.7-4.47-18.19"/>
  <path class="cls-3" d="m26.12,1.5c5.06,11.72,10.4,23.84,19.93,32.21,12.28,10.79,30.13,14.07,40.85,26.45,7.92,9.15,12.74,23.52,24.64,25.12,10.8,1.45,19.08-8.98,25.61-17.83,19.61-26.6,44.57-49.13,72.9-65.79"/>
  <path class="cls-3" d="m246.26.88c-51.84,27.84-95.72,70.73-125.08,122.24-4.84,8.49-9.51,17.47-17.18,23.44-3.57,2.78-9.29,4.53-12.12.98-1.27-1.6-1.48-3.78-1.72-5.83-2.75-23.59-17.7-45.36-38.56-56.16-6.41-3.32-13.44-5.74-18.83-10.59-3.63-3.27-6.31-7.47-8.81-11.7-7.56-12.76-13.95-26.23-19.06-40.18"/>
  <path class="cls-3" d="m270.76,3.07c-38.94,23.58-71.58,56.3-103.8,88.68-20.51,20.62-41.69,42.29-50.91,70.05-6.48,19.5-6.51,40.5-9.19,60.91-2.68,20.4-8.83,41.72-24.23,55.12-11.07-12.7-11.47-31.28-12.44-48.19-1.07-18.73-3.54-37.38-7.39-55.74-1.75-8.33-3.88-16.84-8.82-23.73-3.61-5.03-8.52-8.92-13.48-12.56-11.09-8.14-22.8-15.41-35-21.71"/>
  <path class="cls-3" d="m5.37,338.76c7.82,43.28,21.88,85.39,41.59,124.58,2.93,5.82,6.13,11.76,11.26,15.69,7.1,5.45,16.57,6.14,24.99,9.08,23.86,8.34,39.6,34.96,64.59,38.54,4.37.63,9.26.33,12.53-2.67,7.11-6.51,1.02-18.48-6.09-24.98-15.18-13.9-34.72-23.18-46.74-39.97-12.28-17.15-14.74-39.43-15.58-60.61-1.1-27.68.82-57.98,18.96-78.7,10.88-12.42,27.18-20.88,32.7-36.52,4.83-13.68-.13-28.62-2.67-42.92-5.19-29.19.47-60.62,17.27-84.9,8.28-11.97,18.98-21.97,29.58-31.88,32.24-30.11,64.58-60.3,100.05-86.42,9.44-6.95,19.46-13.76,30.92-15.94,7.92-1.51,16.08-.7,24.13-1.15,16.08-.9,31.84-6.98,44.45-17.16"/>
  <path class="cls-3" d="m1.73,414.3c-.86,7.43,3.36,14.51,8.3,20.06s10.84,10.36,14.59,16.81c7.52,12.9,5.09,29.81,12.15,42.96,4.03,7.51,10.9,13.26,14.26,21.1,3.65,8.52,2.75,18.62,6.99,26.86,2.95,5.73,8.06,9.93,13.04,13.96,8.66,7.02,17.32,14.04,25.98,21.06,4.12,3.34,8.88,6.87,14.1,6.17,9.1-1.23,12.11-13.66,20.17-18.13,6.6-3.66,15.3-.84,20.45,4.74,5.15,5.57,7.43,13.23,8.91,20.72,1.34,6.79,2.26,13.93,6.05,19.69,3.79,5.76,11.62,9.54,17.6,6.2.55-4.83-2.11-9.35-4.34-13.66-8.18-15.86-11.35-34.32-8.94-52.05"/>
  <path class="cls-3" d="m98.16,545.29c1.09-.14,2.23-.43,3-1.22.85-.87,1.09-2.17,1.15-3.39.44-8.79-14.53-29.26-23.88-19.01-9.44,10.35,10.52,24.85,19.73,23.62Z"/>
  <path class="cls-3" d="m169.02,558.68c-.56-5.16,2.91-10.47,7.81-11.96,5.26,2.43,6.48,9.31,7.11,15.14,2.36,22,7.54,46.26,25.48,58.85,8.98,6.3,19.97,8.72,30.27,12.39,10.31,3.67,25.57,14.49,25.57,19.36s-28.16-3.32-42.24-4.97c-11.34-1.34-25.21-1.53-31.33,8.24-5.15,8.22-1.75,19-2.95,28.66-.17,1.36-.47,2.8-1.41,3.8-2.9,3.1-7.77-.59-10.27-4.03-12.13-16.68-24.6-34.16-28.14-54.57-1.86-10.74-1.12-21.77-2.29-32.61-.59-5.44-2.22-11.61-7.12-13.89-3.92-1.83-8.72-.38-12.01,2.46-3.29,2.83-5.38,6.8-7.34,10.7-8.93,17.71-16.9,35.91-23.85,54.51-2.29,6.12-4.69,12.6-9.76,16.65-5.06,4.05-13.71,4.24-17.05-1.35-4.32-7.23,3.09-15.91,3.57-24.35.33-5.79-2.69-11.19-3.9-16.86-1.36-6.35-.44-12.97-1.19-19.42-2.04-17.54-16.71-31.71-33.33-36.98-11.27-3.58-24.91-4.68-31.38-14.7"/>
  <path class="cls-3" d="m5.58,490.02c4.14-6.61,7.32-14.1,7.49-21.93.17-7.83-3.1-16.03-9.59-20.28"/>
  <path class="cls-3" d="m4.18,533.6c20.85-17.36,27.83-49.74,16.03-74.34-1.66-3.47-3.67-6.8-6.3-9.59-4.33-4.58-10.66-8.32-11.3-14.63"/>
  <path class="cls-3" d="m2.07,571.46c8.08,12.69,23.99,17.33,38.64,20.03,3.58.66,7.31,1.33,10.21,3.55,3.45,2.64,5.12,7.04,6.08,11.31,3.46,15.44-.58,32.42-10.6,44.55-2.05,2.48-4.36,4.8-5.79,7.69-5.56,11.18,3.95,24.1,3.73,36.63-.1,5.97-2.45,11.66-3.44,17.55-2.25,13.47,2.71,26.98,7.58,39.71,1.1,2.88,2.27,5.87,4.51,7.97,4.94,4.64,12.97,3.16,18.88-.11,6.28-3.46,11.64-8.61,15.41-14.77,1.99-3.26,3.61-6.88,6.49-9.37,2.87-2.49,7.58-3.4,10.31-.74,2.37,2.31,4.07,7.16,7.05,5.76.87-.41,1.41-1.3,1.81-2.18,4.07-8.9-.77-19.06-3.94-28.33-11.66-34.05.07-71.73,16.13-103.88,1.37-2.74,3.16-5.78,6.15-6.32,5.55-1.01,8.09,6.66,8.76,12.34,3.27,27.92,15.86,53.78,29.68,78.16,12.56,22.16,27.03,44.36,48.5,57.74,2.83,1.76,6.45,3.37,9.32,1.67,3.49-2.07,3.13-7.28,1.94-11.21-5.42-17.99-18.15-33.07-23.15-51.19-2.14-7.74-2.5-16.9,2.73-22.94,2.94-3.4,7.27-5.29,11.64-6.2,15.66-3.26,31.31,4.83,44.77,13.6,13.45,8.77,37.65,20.32,43.11,20.06s3.93-8.17,2.9-12.63c-1.03-4.47-3.02-8.84-2.66-13.41.48-6.04,5.07-11.06,10.33-13.94,5.26-2.88,11.22-4.08,16.96-5.77,2.94-.87,6.03-2.01,7.88-4.49,4.34-5.83-1.58-14.62-8.61-16.21-7.03-1.59-14.19,1.19-21.26,2.59-15.98,3.17-32.41-.73-48.24-4.61-10.45-2.56-20.9-5.13-31.35-7.69-8.4-2.06-17.52-4.59-22.58-11.69"/>
  <path class="cls-3" d="m1.88,590.91c7.09,6.18,16.04,10.14,25.33,11.21,2.49.29,5.16.43,7.19,1.94,3.5,2.61,3.41,7.85,2.97,12.24-.77,7.69-1.76,15.91-6.73,21.78-1.65,1.95-3.69,3.56-5.16,5.66-3.92,5.61-2.92,13.17-2.29,20.01,2.16,23.49-2.05,47.05-6.25,70.25-1.03,5.69-2.92,12.41-8.38,14.09-.97.3-2.19.32-2.8-.5s.46-2.33,1.24-1.68"/>
  <path class="cls-3" d="m1.71,641.66c5.32-3.35,10.27-7.3,14.73-11.76,3.34-3.33,6.62-8.07,4.85-12.46-2.43-6.03-11.42-5.22-16.23-9.54"/>
  <path class="cls-3" d="m211.72,877.39c-1.98,16.1-3.96,32.19-5.94,48.28-.51,4.2-.49,9.49,3.22,11.4,3.55,1.83,7.65-.93,10.59-3.65,11.47-10.62,21.77-23.39,36.18-29.28,5.76-2.35,11.99-3.5,17.54-6.32,5.55-2.82,10.59-7.95,10.85-14.25.42-10.21-11.53-18.75-8.77-28.58,1.17-4.19,4.77-7.12,7.39-10.58,6.93-9.16,6.81-21.72,10.12-32.76,3.32-11.04,14.33-22.13,24.71-17.45,5.22,2.36,8.16,7.88,12.13,12.04,3.96,4.16,11.02,6.91,15.1,2.86,2.38-2.36,2.74-6.18,4.87-8.79,5.21-6.38,15.27-1.27,21.53,4.04,6.97,5.91,14.22,12.2,17.51,20.78,2.13,5.54,2.47,11.74,5.23,16.98,2.76,5.24,9.55,9.2,14.46,5.95,1.54-1.02,2.65-2.6,3.55-4.23,8.34-15.06,2.06-34.89,9.47-50.44,2.48-5.19,6.44-9.78,7.5-15.45,2.13-11.37-7.84-20.97-16.75-28.21-8.91-7.23-18.69-17.21-16.07-28.46,1.89-8.06,9.97-13.37,18.05-14.52,8.08-1.15,16.23.99,24.11,3.12,9.66,2.61,19.31,5.22,28.97,7.83,12.03,3.25,24.27,6.6,34.71,13.47,14.49,9.55,23.47,24.3,28.91,41.02.46,1.37.88,2.76,1.28,4.16,0,0,0,0,0,0"/>
  <path class="cls-3" d="m553.13,673.2c-.58-.3-1.16-.61-1.74-.93-10.95-5.96-21.52-12.9-31.63-19.73-15.75-10.65-31.49-21.29-47.24-31.95-5.26-3.56-10.79-7.42-13.41-13.27-1.42-3.17-1.89-6.76-3.72-9.71-5.64-9.08-19.34-6.58-28.72-1.62-9.38,4.96-20.15,11.45-29.73,6.9-11.07-5.27-11.55-21.42-6.96-32.92,4.6-11.5,18.95-29.4,12.97-34.51-5.98-5.1-43.2,22.7-64.79,34.05-19.33,10.17-40.63,20.63-61.97,16.24-6.76-1.4-13.25-4.26-20.12-4.65-6.88-.38-14.71,2.66-16.93,9.28,16.62,4.13,33.27,8.11,49.96,11.96,6.06,1.4,12.28,2.78,18.42,1.91,16.38-2.34,27.83-19.83,44.29-21.44,2.36-.23,4.99-.02,6.7,1.65,4.28,4.16-1.07,10.97-1.99,16.91-1.54,9.89,9.65,16.38,18.92,19.79,44.82,16.54,89.64,33.07,134.46,49.62,4.33,1.59,8.87,3.34,11.79,6.95,2.93,3.6,3.4,9.69-.24,12.55-2.03,1.59-4.77,1.81-7.34,1.96-28.64,1.63-57.38,1.53-86.02-.31-15.2-.97-32.94-1.4-42.64,10.51-10.07,12.37-5.48,31.1,2.06,45.2,7.54,14.1,17.81,27.87,17.97,43.91.05,4.95-1.75,10.87-6.49,12.03-7.55,1.86-10.93-8.87-14.96-15.61-5.23-8.74-15.82-12.55-25.8-13.84-9.99-1.3-20.29-.75-29.94-3.7-29.18-8.92-60.87-63.33-71.54-55.96-10.68,7.37,14.72,33.67,21.15,50.92,6.44,17.25,8.03,34.35,2.49,51.92-6.05,19.18-18.51,36.21-34.86,47.64-2.36,1.64-5.14,3.24-7.93,2.6-3.29-.76-5.2-4.44-5.33-7.87-.14-3.42,1.03-6.73,1.73-10.08,2.8-13.41-2.07-27.44-9.61-38.82-7.55-11.37-17.63-20.72-26.82-30.77-22.41-24.5-39.84-53.68-50.88-85.19-1.95-5.56-3.94-11.55-8.58-15.11-.55-.42-1.2-.82-1.88-.72-1.46.2-1.73,2.21-1.61,3.7,1.94,24.85,3.98,50.17,13.24,73.27,3.25,8.09,7.37,15.89,9.36,24.39,1.54,6.61,1.75,13.46,1.83,20.24.3,25.04-2.16,52.86-20.18,69.97-1.11,1.06-2.33,2.1-3.82,2.44-3.17.74-6.26-2.05-7.24-5.2-.98-3.14-.47-6.54-.23-9.83,1.7-24.11-14.19-48.4-36.76-56.16-8.23-2.83-18.8-2.92-23.97,4.16-2.29,3.14-3.05,7.14-3.62,11-1.44,9.71-2.33,20.27-8.76,27.61-3.62,4.12-8.73,6.84-11.71,11.46-4.65,7.2-2.89,16.86-5.75,24.96-1.12,3.16-3.93,6.49-7.11,5.58-2.72-.78-3.74-4.11-4.15-6.94-1.87-13.01-.21-26.37-2.54-39.31-2.32-12.88-10.25-26.21-22.9-28.72-.05,0-.09-.02-.14-.03"/>
  <path class="cls-3" d="m549.33,691.86c-.56-.46-1.11-.94-1.67-1.42-.81-.71-1.62-1.43-2.42-2.17-2.72-2.49-3.48-7.52-7.88-4.1-2.56,1.98-1.62,6.94-.72,9.51,1.28,3.65,2.97,7.94.78,11.11-.95,1.36-2.46,2.21-4,2.8-14.01,5.42-32.22-5.85-43.73,3.89-.86.73-1.69,1.65-1.8,2.78-.23,2.16,2.08,3.62,4.1,4.32,8.41,2.91,17.91,2.42,25.69,6.77,8.19,4.58,12.72,13.47,18.48,21.05.54.7,1.08,1.39,1.65,2.07"/>
  <path class="cls-3" d="m304.33,825.85c-.71,5.1.35,10.26,1.56,15.26,1.69,6.97,3.96,14.31,9.41,18.88,7.67,6.43,18.92,5.33,28.6,2.99,9.68-2.34,19.91-5.55,29.32-2.26,2.81.98,6.14,2.45,8.49.6,1.26-1,1.76-2.68,2-4.28,1.12-7.6-2.09-15.09-5.23-22.09-2.34-5.21-5.24-10.96-10.61-12.73-9.94-3.29-19.74,9.38-29.86,6.72-7.86-2.06-9.96-11.2-16.5-14.97-8.76-5.05-15.9,2.74-17.18,11.87Z"/>
  <path class="cls-3" d="m463.46,791.53c.82,6.76,6.6,12.56,13.27,13.32,6.79.78,13.19-3.11,18.69-7.23,2.25-1.68,4.57-3.61,5.36-6.32,1.5-5.16-3.17-10-7.77-12.69-11.29-6.59-31.77-5.24-29.55,12.93Z"/>
  <path class="cls-3" d="m481.89,826.5c7.4-3.23,16.51,1.6,21.83,7.74,1.91,2.21,3.47,5.03,3.11,7.94-.69,5.48-7.26,7.74-12.68,8.33-6.14.67-12.35.72-18.5.17-4.3-.39-9.52-1.91-10.38-6.2-.67-3.34,2.56-6.17,4.23-8.79,1.67-2.62.31-3.92,12.4-9.19Z"/>
  <path class="cls-3" d="m521.03,831.05c-.48-.86-1.07-1.67-1.75-2.4-.63-.69-1.35-1.31-2.15-1.86-3.07-2.1-6.81-2.82-10.38-3.81-3.57-.98-7.26-2.42-9.47-5.43-2.21-3-2.15-7.97,1-9.94,1.39-.87,3.08-1.02,4.66-1.44,7.47-1.98,12.12-10.41,11.49-18.2-.62-7.81-5.55-14.73-11.69-19.47-6.13-4.75-13.43-7.67-20.6-10.52-3.49-1.38-7.25-2.78-10.87-1.86-4.83,1.23-7.78,6.13-9.55,10.85-3.65,9.72-12.33,21.57-10.5,32.22,1.18,6.82,5.92,12.9,12.19,15.63,1.51.66,3.15,1.17,4.36,2.3,3.33,3.12,1.49,8.98-1.79,12.16-3.28,3.17-7.69,5.12-10.43,8.78-5.75,7.7-1,19.7,7.25,24.49,8.26,4.79,18.45,4.23,27.86,2.8,7.93-1.2,16.21-3.15,22.66-7.73h0c.96-.68,1.86-1.4,2.73-2.2"/>
  <path class="cls-3" d="m526,806.56c-.1-3.62.04-7.26.06-10.9.02-2.63-.02-5.25-.25-7.86-1.69-18.88-14.44-36.33-31.76-43.47-7.71-3.17-16.06-4.4-23.91-7.19-9.32-3.3-17.74-8.74-26.82-12.68s-19.4-6.36-28.79-3.26c-3.35,1.11-6.98,3.84-6.4,7.37.24,1.47,1.19,2.7,2.15,3.82,5.05,5.86,14.49,16.39,21.28,19.71,4.47,2.19,9.55,3.91,12.39,8.04,3.25,4.72,2.52,11.18.61,16.6-4.84,13.76-16.42,26.3-13.89,40.68.6,3.41,1.99,6.66,2.26,10.11.31,4.05-.94,8.02-1.57,12.02-1.84,11.64,1.88,24.03,9.8,32.66,7.91,8.62,19.83,13.27,31.4,12.25,6.98-.62,13.64-3.16,20.47-4.69,5.29-1.18,10.69-1.73,16.1-1.66h0c.77,0,1.54.02,2.31.06"/>
  <path class="cls-3" d="m295.98,864.67c.86,10.91,16.64,15.45,17.97,26.31.62,5.07-2.35,10.03-6.3,13.19-3.95,3.17-8.8,4.91-13.49,6.75-23.44,9.2-45.43,22.19-64.89,38.33-6.19,5.14-12.43,10.75-20.16,12.83-7.73,2.08-17.47-.81-20.2-8.44-.89-2.5-.96-5.21-1-7.87-.58-33.55.47-69.55,19.79-96.79,3.65-5.14,8.14-10.81,6.94-17.03-.62-3.21-2.69-5.89-4.7-8.44-8.72-11.08-18.52-35.09-26.16-33.25-7.64,1.85.14,14.08-.22,21.24-.76,15.1-17.21,27.17-14.46,42.03,1.07,5.76,5,10.81,5.3,16.66.48,9.52-8.45,16.49-16.61,21.22-10.42,6.05-21.22,11.44-32.31,16.12-4.97,2.1-12.35,3.11-14.25-2-.54-1.45-.42-3.07-.28-4.61.53-6.14,1.06-12.28,1.59-18.42.74-8.53,1.47-17.2-.27-25.58-1.73-8.38-6.33-16.57-13.81-20.52-7.48-3.95-17.99-2.4-22.6,4.77-3.21,4.99-3.1,11.34-4.17,17.2-1.69,9.29-6.67,17.93-13.82,23.98-2.6,2.2-5.56,4.16-7.21,7.16-1.26,2.29-1.62,4.95-2.43,7.43-2.75,8.45-10.73,14.39-19.26,16.52-8.52,2.12-17.53.94-26.03-1.24,1.75.3,3.5.61,5.26.91"/>
  <path class="cls-3" d="m5.75,840.55c4.68,3.07,8.8,7.3,10.8,12.58,3.88,10.24-.83,21.56-5.45,31.47-.68,1.46-1.42,2.98-2.72,3.9s-3.36.95-4.28-.36"/>
  <path class="cls-3" d="m1.87,954.41c8.86-3.7,18.26-6.06,27.8-6.96,8.11-.77,18.57,1.26,20.25,9.34.91,4.37-1.31,8.7-2.63,12.96-1.32,4.27-1.28,9.86,2.51,12.13,4.76,2.86,10.33-1.95,13.78-6.33,9.03-11.45,20.54-24.3,34.9-22.61,4.21.5,8.32,2.29,12.54,1.91,5.81-.52,10.54-5.05,13.71-10.01,3.17-4.96,5.3-10.59,8.77-15.34,4.05-5.54,9.89-9.71,16.4-11.71,2.91-.89,6.25-1.3,8.83.32,1.72,1.08,2.84,2.91,3.7,4.77,5.43,11.65,2.31,26.79-7.26,35.26-5.06,4.47-11.95,7.63-14.18,14.05-1.99,5.7.48,11.87,2.21,17.66,6.08,20.33,2.15,44.41-12.97,59.12-4.43,4.31-9.64,7.72-14.21,11.88-5.95,5.44-10.76,12.16-14,19.59,1.1-2.48,2.19-4.96,3.29-7.45"/>
  <path class="cls-3" d="m71.4,1076.76c3.4-20.03,23.06-33.07,30.45-51.96,1.94-4.95,2.95-10.72.63-15.5-2.74-5.66-9.64-8.35-15.8-7.51-6.16.84-11.59,4.6-16.01,9.02-7.14,7.12-13.86,16.99-23.87,16.96-7.98-.02-14.25-6.52-20.31-11.79-6.06-5.27-14.79-9.83-21.66-5.7-.41.24.64.56.43.13"/>
  <path class="cls-3" d="m2.65,1058.07c8.05.35,16.34.76,23.67,4.16,7.33,3.4,13.57,10.56,13.45,18.73"/>
  <path class="cls-3" d="m392.59,501.62c1.53,1.88,4.5.71,6.56-.55,26.57-16.25,56.59-26.65,87.41-30.29,6.84-.8,14.97-.75,19.1,4.83,3.53,4.77,2.4,11.83-.97,16.71-3.38,4.89-8.52,8.15-13.41,11.46-17.79,12.05-34.04,26.42-48.22,42.67-2.8,3.22-5.69,7.04-5.23,11.3.85,7.83,11.34,9.75,18.96,8.26,7.63-1.48,16.74-3.85,22.19,1.75,5.28,5.42,3.23,14.49,5.6,21.7,5.43,16.56,28.5,15.69,43.87,23.5,10.79,5.49,18.12,15.93,27.04,24.17.84.78,1.73,1.54,2.64,2.29.52.42,1.06.84,1.61,1.25"/>
  <path class="cls-3" d="m421.16,479.23c13.08-5.48,26.16-10.95,39.24-16.43,12.07-5.05,24.4-10.48,37.75-9.79,12.76.66,24.73,6.02,35.92,11.9,7.8,4.1,24.68,12.66,10.94,21.37-19.13,12.14-40.56,20.03-58.67,33.91-4.5,3.45-8.76,7.21-12.63,11.37-3.05,3.28-8.64,8.15-6.17,13.14,5.15,10.39,21.32,1.99,26.06,13.33,2,4.79,1.28,10.28,2.33,15.29.97,4.6,3.5,8.35,7.22,11.14,8.04,6.03,18.57,7.37,27.61,11.28,10.98,4.75,20.09,12.12,27.92,21.15,1.06,1.23,2.17,2.48,3.33,3.71.49.52,1,1.04,1.51,1.55"/>
  <path class="cls-3" d="m581.14,535.44h0c-.77.99-1.52,1.97-2.26,2.97l-.27.36c-6.24,6.33-14.49,3-21.82,0-8.14-3.59-38.44-2.92-40.99-13.19-2.55-10.28,24.67-18.78,38.32-22.96,11.54-3.53,30.25-15.05,22.74-30.1-2.94-5.89-10.58-10.8-16.87-6.98"/>
  <path class="cls-3" d="m574.46,568.28h0c-.51-.26-1.02-.52-1.55-.77-1.61-.8-3.37-1.59-5.72-2.39-11.44-5.27-23.06-18.08-30.14-21.08-7.07-2.99-25.97-7.38-25.97-7.38,0,0-2.71-.54-4.64.45-2.16,3.19,11.91,6.93,10.87,11.15-2.07,6.33-9.35,9.49-7.27,16.87,0,4.22,5.2,6.33,10.39,5.27,6.24-2.11,13.52-5.27,19.74-1.05,11.22,8.27,16.42,19.57,26.42,28.95.2.19.4.37.6.56.31.23.61.48.92.73"/>
  <path class="cls-3" d="m611.36,386.9c-.45-.06-.89-.11-1.34-.15-3.72-.38-7.48-.45-11.3-.17-6.42.47-13.11,1.94-19.13-.35s-6.31-12.68-6.17-15.48c.13-2.79,4.77-26.7,19.03-45.63s13.17-21.12,15.37-26.05l1.51-4.26c1.79-5.41-4.75-9.67-10-10.84-5.24-1.16-10.84-.54-15.88-2.43-9.54-3.59-13.9-15.03-14.2-25.34-.3-10.32,2.29-20.61,1.45-30.9-.76-9.25-4.72-18.69-12.36-23.81s-19.21-4.48-24.79,2.89c-4.46,5.9-4.19,13.99-4.86,21.38-1.56,17.18-9.5,33.67-21.88,45.48-5.27,5.02-11.47,9.29-18.49,10.98-9.15,2.2-18.66-.12-27.86-2.07-12.79-2.72-25.72-4.74-38.72-6.05-5.66-.58-11.95-.84-16.4,2.76-8.09,6.54-3.65,20.52,4.61,26.85,8.26,6.33,18.99,8.56,27.34,14.77,8.39,6.22,13.58,15.83,18.49,25.11,6.08,11.46,11.73,26.87,2.82,36.22-10.3,10.8-28.8,2.02-42.73,7.1-9.54,3.48-16.45,13.42-26.53,14.5-14.78,1.58-28.69-16.73-42.06-10.13-10.69,5.29-9.47,20.88-14.24,31.93-4.19,9.7-13.71,16.22-23.76,19.05-10.06,2.83-20.69,2.46-31.1,1.66-10.66-.83-22.38-2.65-29.26-10.95-3.81-4.6-5.57-10.69-5.8-16.69-.56-14.61,7.72-28.76,19.64-36.96,11.93-8.21,26.99-10.87,41.33-9.34,5.05.54,10.74,1.4,14.72-1.8,3.66-2.93,4.41-8.15,4.9-12.85,1.53-14.83,3.07-29.65,4.6-44.48,1.24-12.03,2.45-24.44-1.03-36-2.97-9.86-9.24-18.61-10.92-28.77-1.92-11.66,2.44-23.38,7.47-34.04,3.99-8.44,8.63-16.88,15.82-22.73,7.19-5.86,17.5-8.62,25.83-4.63,9.42,4.5,13.45,15.55,18.23,24.91,4.8,9.37,13.74,18.98,23.86,16.57,11.13-2.66,14.08-16.84,17.36-27.94,10.32-34.97,47.15-59.73,82.92-55.76,12.36,1.38,25.3,5.68,36.81.9,13.23-5.49,19.47-23.7,12.47-36.34,12.71,3.7,25.42,7.39,38.13,11.09,10.13,2.94,22.31,8.43,22.58,19.1.27,11.08-13.22,18.9-12.62,29.97.41,7.62,7.3,12.97,13.54,17.23,9.6,6.53,19.18,13.07,28.77,19.6.3.2.6.41.89.61"/>
  <path class="cls-3" d="m607.06,408.04c-.46-.06-.92-.1-1.39-.13-2.43-.19-4.87-.15-7.32.16-10.4,2.11-20.78,6.32-31.17,5.27-10.4-2.11-18.7-7.38-25.98-14.76-7.27-9.49-9.6-24.01-5.2-32.68,4.41-8.67,22.49-18.95,28.03-27.26,5.54-8.31,5.3-10.23,6.05-13.3s3.49-11.91.46-16.9c-3.08-5.06-9.53-6.99-13.18-11.64-2.18-2.77-3.18-6.3-3.77-9.79-2.37-14.13,1.67-28.68-2.08-42.49-.59-2.16-1.55-4.24-3.04-6.18-3.12-4.22-6.24,2.11-9.36,4.22-5.19,5.27-5.19,12.65-8.31,18.97-8.32,20.02-17.67,39-32.22,54.81-6.23,5.27-16.63,9.48-21.81,2.1-13.52-20.02-56.78-24.92-60.27-21.07-3.49,3.84,3.12,7.38,7.28,8.43,14.55,3.16,27.01,9.49,32.21,25.3,3.12,11.6,12.47,18.97,18.7,29.51,4.16,7.38,6.23,15.82,4.16,23.19-1.04,2.1-2.08,3.16-3.12,5.27-9.36,12.65-23.9,11.6-37.41,12.65-6.24,1.06-14.02,1.84-17.67,3.16-3.65,1.33-7.28,3.17-7.28,3.17,0,0-13.51,8.43-20.55,12.17-15.75,7.5-33.07-22.49-46.31-9.47-13.25,13.03-3.76,33.67-15.61,45.46-8.92,8.87-22.55,9.22-34.25,9.59-15.44.48-31.42-.2-45.63-6.97-11.75-5.6-21.87-15.54-25.25-28.54-3.02-11.57-.49-23.81,4.52-34.41,2.32-4.89,5.87-8.54,8.8-13.05,2.95-4.52,6.01-9.22,10.78-11.96,8.68-4.99,19.06-8.15,28.42-9.21,7.27-2.1,14.55-4.21,17.67-9.49,8.31-17.91,9.35-37.94,11.43-56.91,1.04-17.92-7.27-33.73-12.47-50.6-1.04-6.33,0-12.66,2.08-17.92,10.39-22.13,21.82-43.22,39.49-60.08,11.43-11.6,28.05-6.32,38.44,4.22,8.32,9.49,9.87,30.1,23.9,29.51,14.04-.59,15.59-30.56,24.94-42.16,4.15-5.27,10.39-8.44,16.63-11.6,18.7-8.44,35.33-21.08,56.11-26.35,9.35-2.11,16.63,2.11,25.97,4.22,6.24,1.05,11.44,0,16.63-4.22,4.16-4.22,4.16-9.49,3.12-14.76-2.08-9.49-7.28-18.97-2.08-27.41,3.12-4.21,8.32-6.32,11.44-2.11,3.11,4.22,5.39,10.55,7.27,12.66s.28,1.31,5.2,5.27,35.33,9.49,53,9.49c8.31,0,15.59,2.11,20.78,8.43,10.39,13.71,2.08,30.57-2.08,46.39-2.08,8.43-2.08,17.91,6.23,24.24,2.91,2.11,5.83,4.05,8.74,6.02.29.2.58.4.86.59"/>
  <path class="cls-3" d="m603.07,427.66c-.49.05-.99.11-1.48.19-.18.03-.37.06-.55.09-4.6.82-8.89,3.03-13.52,3.76-14.73,2.31-28.96-10.71-43.54-7.54-.94,1.9,1.41,3.7,3.36,4.49,16.47,6.7,33.51,11.92,50.88,15.58.47.1.94.2,1.42.3"/>
  <path class="cls-3" d="m260.98,408.03c-.81,5.49,1.93,11.48,6.84,13.93,3.26,1.63,7.06,1.67,10.68,1.3,4.22-.44,8.39-1.39,12.39-2.82,2.83-1.02,5.69-2.37,7.58-4.74,3.03-3.8,2.8-9.56.34-13.76s-6.76-7-11.26-8.73c-10.93-4.21-24.7,2.25-26.56,14.82Z"/>
  <path class="cls-3" d="m381.83,377.52c.23,1.15.58,2.33,1.4,3.16,1.11,1.13,2.8,1.36,4.36,1.49,3.01.26,6.16.36,8.9-.93,2.69-1.27,4.62-3.71,6.73-5.82,2.86-2.85,6.22-5.18,9.87-6.86,2.33-1.07,4.92-1.99,6.4-4.11,2.25-3.21.8-8.02-2.24-10.47-5.93-4.78-18.26-4.06-24.55-.22-7.92,4.84-12.72,14.47-10.87,23.75Z"/>
  <path class="cls-3" d="m334.66,252.65c1.18,1.89,2.73,3.5,4.27,5.1,1.57,1.63,3.14,3.26,4.71,4.89,1.7,1.77,3.78,3.67,6.19,3.38,2.45-.3,4.02-2.73,5.15-4.95,3-5.96,5.29-12.39,5.74-19.07.45-6.68-1.05-13.63-5-18.99-2.48-3.36-6.32-6.16-10.44-5.74-15.48,1.57-17.2,24.82-10.63,35.38Z"/>
  <path class="cls-3" d="m375.7,347.33c-.9,3.42-1.81,6.84-2.71,10.27-1.94,7.34-3.89,15.03-2.21,22.44,1.68,7.4,8.27,14.26,15.71,13.37,7.02-.84,11.59-7.7,17.59-11.49,8.01-5.06,18.2-4.42,27.29-6.99,5.4-1.53,11.11-5.09,11.8-10.74.5-4.09-1.81-7.96-4.22-11.29-6.07-8.38-13.5-15.91-22.43-21-7-3.99-19.8-9.31-27.87-5.82-7.56,3.27-11.04,14-12.95,21.26Z"/>
  <path class="cls-3" d="m462.8,240.71c2.52,1.09,5.8.71,7.54-1.44,4.98-6.11-1.51-17.86-9.27-16.66-9.75,1.5-4.67,15.33,1.73,18.1Z"/>
  <path class="cls-3" d="m449.24,210.3c0,6.03-.58,12.06-1.72,17.97-.47,2.44-1.04,4.95-.58,7.4.59,3.11,2.78,5.67,5.18,7.7,4.57,3.87,10.21,6.41,16.1,7.27,1.52.22,3.1.33,4.57-.15,3.26-1.06,5-4.6,6.07-7.9,2.14-6.59,2.97-14.06,0-20.31-1.51-3.18-3.92-5.85-5.56-8.96-3.15-5.95-3.29-12.98-3.75-19.72-.17-2.48-.51-5.21-2.35-6.84-1.01-.9-2.34-1.32-3.66-1.57-16.71-3.07-14.3,13.7-14.31,25.11Z"/>
  <path class="cls-3" d="m451.96,175.37c14.96-11.35,33.62-17.6,52.31-17.52,3.77.02,8.11.61,10.15,3.82,1.76,2.78,1.07,6.44-.05,9.54-3.14,8.71-9.25,16.29-17.05,21.14-2.4,1.49-5.12,2.92-6.25,5.53-.69,1.62-.66,3.44-.59,5.21.41,10.89,1.46,21.79.93,32.68-.53,10.89-2.72,21.93-8.3,31.25-1.1,1.83-2.44,3.69-4.41,4.45-1.48.57-3.12.45-4.68.17-10.85-1.95-18.96-10.78-27.92-17.29-4.01-2.91-8.43-5.53-11.2-9.67-4.89-7.29-3.34-17.02-1.61-25.66,1.82-9.03,2.91-18.63,5.55-27.45,2.04-6.82,7.62-12.05,13.11-16.21Z"/>
  <path class="cls-3" d="m481.63,187.39c.79.73,1.71,1.32,2.74,1.61,2.62.75,5.37-.54,7.64-2.06,3.02-2.02,5.85-4.71,6.79-8.25,2.4-9-8.2-11.01-14.4-8.13s-7.76,12.23-2.77,16.83Z"/>
  <path class="cls-3" d="m343.77,388.9c8.24-7.5,16.04-6.5,16.88-6.92,2.44-1.21,1.66-4.86.8-7.47-4.66-14.05-.77-29.37,3.14-43.66,1.37-5,2.89-10.27,6.65-13.78,2.68-2.51,6.34-3.96,8.38-7.03,2.86-4.31,1.5-10.04,1.64-15.23.21-7.87,4.42-15.53,10.9-19.86,3.54-2.36,7.69-3.79,10.84-6.65,3.15-2.86,4.98-8.03,2.42-11.44-.99-1.32-2.47-2.15-3.9-2.95-5.81-3.23-11.62-6.46-17.44-9.69-.51-.28-1.05-.57-1.63-.55-1,.05-1.71,1.01-2.16,1.92-2.6,5.19-2,11.38-3.2,17.08-1.89,8.96-8.63,16.71-17.17,19.71-3.16,1.11-6.62,1.66-9.3,3.69-4.47,3.39-5.36,9.71-5.88,15.35-1.4,14.94-2.8,29.89-4.21,44.83-.61,6.47-1.23,13.01-3.25,19.18-1.24,3.78-3.01,7.44-3.52,11.39-.5,3.96,7.54,14.51,10.01,12.07Z"/>
  <path class="cls-3" d="m643,231.31c-.16-.65-.39-1.3-.67-1.91-.76-1.67-1.92-3.15-3.41-4.2-11.9-8.4-27.07-.86-33.86,9.99-1.82,2.91-3,7.15-.5,9.49,1.85,1.73,4.7,1.43,7.2,1.31,5.62-.27,11.24.88,16.84.47,3.99-.29,8.19-1.64,11.11-4.26.51-.46.97-.95,1.39-1.49"/>
  <path class="cls-3" d="m644.12,225.79c-.27-.36-.55-.71-.83-1.06-1.57-1.94-3.34-3.75-5.45-5.35-17.67-12.65-37.41,3.16-44.69,20.03-1.04,2.1-2.08,5.27-3.12,7.38-2.08,5.27-4.15,11.59-1.04,16.87,2.08,4.21,7.28,4.21,10.4,3.16,7.27-4.22,15.59-8.44,22.86-2.11,4.23,3.68,6.7,8.79,10.28,12.41.31.32.63.62.96.91"/>
  <path class="cls-3" d="m615.06,368.68c-.48.15-.96.33-1.44.52-2.75,1.1-5.44,2.8-8,5.14-4.15,2.11-11.43,1.05-11.43-3.17-3.12-15.81,7.28-28.45,16.63-41.11,3.12-4.22,7.28-7.38,12.47-9.49.11-.03.23-.06.34-.09.44-.13.87-.23,1.3-.33"/>
  <path class="cls-3" d="m630.53,292.65c-.33-.31-.66-.63-.98-.96-4.65-4.71-7.8-10.18-13.53-14.34-2.08-1.05-4.16-2.11-6.24-3.16-9.35,0-21.82,4.22-28.05-5.27-5.2-9.49-3.12-20.03,1.04-29.51,4.16-9.49,11.43-18.97,20.78-24.25,13.71-6.54,28.65-2.93,40.49,5.91.3.22.6.45.9.68"/>
  <path class="cls-3" d="m617.38,357.28c-.52.53-1.04,1.04-1.61,1.49-.06.05-.13.1-.19.15-1.79,1.35-4.1,1.99-6.32,1.74-1-.11-2.07-.46-2.59-1.33-.68-1.13-.15-2.57.4-3.77,2.38-5.19,5-10.27,7.86-15.21,1.85-3.2,3.85-6.37,6.23-7.85.45-.29.91-.51,1.39-.66"/>
  <path class="cls-3" d="m381.67,147.67s13.18,24.03,21.78,19.69c8.62-4.35,6.27-12.37,8.94-17.81,1.6-3.27,3.64-8.72,7.24-10.28,7.28-3.16,14.55-3.17,21.82-5.27,14.55-4.22,24.93-15.82,35.33-26.35,11.43-10.55,27.01-8.44,39.48-1.06,3.12,1.06,9.36,2.11,9.36-1.05,2.08-11.6-3.12-24.24,2.08-34.79,7.27-12.65,20.78-20.02,34.29-17.91,5.2,1.05,11.43,4.22,13.51,9.49,7.28,30.57,40.53,23.18,64.43,28.46,9.35,2.11,18.7,9.49,18.7,18.97,1.51,11.24.58,23.22,1.11,34.87.05,1.12.12,2.23.2,3.34v.02"/>
  <path class="cls-3" d="m609.92,2.03c-.38-.11-.8.02-1.06.32,1.17,3.99,2.8,7.9,5.26,11.24,2.46,3.33,4.8,5.7,8.74,6.87,2.51.76,5.63,1.81,8.75-.3,8.32-7.38,19.74-10.54,30.13-9.49,8.66,1.46,16.3,3.94,23.98,7.44.17.07.33.15.5.23"/>
  <path class="cls-3" d="m678.57,56.05c-.16-.27-.32-.53-.48-.79l-.51-.84c-4.11-6.75-8.3-13.6-14.15-18.83-5.86-5.25-13.73-8.76-21.44-7.5-10.34,1.68-18.87,11.45-29.29,10.39-14-1.43-19.31-20.42-32.12-26.3-8.6-3.95-18.59-1.15-27.6,1.69-7.17,2.26-14.33,4.52-21.49,6.77-7.29,2.3-15.3,4.58-22.36,1.64-7.06-2.95-10.98-13.73-5.03-18.57"/>
  <path class="cls-3" d="m2.97,191.65c4.64,8.42,9.28,16.84,13.92,25.25,4.43,8.03,8.95,16.38,9.68,25.55.84,10.57-3.46,20.76-6.04,31.04-7.65,30.55-.06,62.66,7.51,93.24,4.81,19.41,9.68,39.02,18.7,56.82,9.01,17.8,22.66,33.91,40.74,41.92,3.51-8.51,1.33-18.39-2.52-26.75-3.85-8.36-9.29-15.92-12.7-24.48-9.93-24.94-1.09-53.08,7.77-78.44,4.64-13.29,9.34-26.71,16.82-38.59,5.74-9.12,13.03-17.18,18.67-26.37,8.03-13.08,12.54-28.36,12.93-43.76.36-14.32-2.75-28.73-.68-42.9,3.69-25.21,22.78-44.83,40.86-62.53,15.57-15.25,31.15-30.5,46.72-45.74,18.23-17.85,36.65-35.85,58.26-49.27,18.08-11.23,38.21-19.07,59.05-23"/>
  <path class="cls-3" d="m3.97,156.08c14.27,8.93,25.21,22.84,31.88,38.45,6.67,15.6,9.22,32.83,8.75,49.83-.59,21.44-5.84,42.55-6.17,64-.38,24.65,5.92,49.36,18.03,70.73,7.96-4.83,9.36-15.87,8.84-25.26-.87-15.56-4.39-32.28,2.98-45.96,2.1-3.89,5.08-7.53,5.49-11.95.57-6.22-4.05-11.49-7.03-16.95-5.85-10.71-5.63-23.61-5.88-35.85-.42-21.1-2.78-42.59-11.41-61.79-8.64-19.2-34.47-37.52-44.44-41.54"/>
  <path class="cls-3" d="m541.4,313.56c2.56,2.42,5.66,4.44,7.27,7.59,2.9,5.68-.23,12.8-4.82,17.19s-10.5,7.13-15.22,11.38c-8.95,8.06-12.69,21.58-9.17,33.18,1.34,4.44,3.14,10.39-.77,12.8-2.55,1.57-5.77.25-8.7-.28-5.72-1.02-8.75,4.89-15.33,6.27-6.58,1.38-2.54-9.47-1.26-14.25,1.28-4.79,3.15-9.69,2.21-14.56-1.85-9.59-13.44-14.32-16.47-23.6-.84-2.57-.4-6.19,2.18-6.86.92-.24,1.89-.01,2.83.17,13.7,2.72,28.75-4.52,35.33-17.01,2.68-5.09,4-25.29,8.1-27.58,5.36-2.99,10.62,12.53,13.82,15.55Z"/>
  <polygon class="cls-2" points="469.15 1081.18 688.7 1.18 693.42 1.18 473.88 1081.18 469.15 1081.18"/>
</svg>