<?xml version="1.0" encoding="UTF-8"?>
<svg id="_图层_2" data-name="图层_2" xmlns="http://www.w3.org/2000/svg" xmlns:xlink="http://www.w3.org/1999/xlink" viewBox="0 0 689.64 1080.19">
  <defs>
    <style>
      .cls-1 {
        fill: #141414;
      }

      .cls-2, .cls-3 {
        fill: none;
      }

      .cls-4 {
        clip-path: url(#clippath-1);
      }

      .cls-3 {
        stroke: #fff;
        stroke-miterlimit: 10;
        stroke-width: 2px;
      }

      .cls-5 {
        clip-path: url(#clippath);
      }
    </style>
    <clipPath id="clippath">
      <polygon class="cls-2" points="689.64 0 0 0 0 1080.19 469.95 1080.19 689.64 0"/>
    </clipPath>
    <clipPath id="clippath-1">
      <rect class="cls-2" x="-185.29" y="185.13" width="1080.08" height="709.83" transform="translate(-185.29 894.79) rotate(-90)"/>
    </clipPath>
  </defs>
  <g id="_图层_3" data-name="图层_3">
    <polygon class="cls-1" points="689.64 0 0 0 0 1080.19 469.95 1080.19 689.64 0"/>
    <g class="cls-5">
      <g class="cls-4">
        <path class="cls-3" d="M1240.67-.85c1.03,7.06,2.07,16.55-6.25,19.72-10.39,4.22-19.75-5.27-29.1-9.49-4.16-1.05-7.28-3.16-10.39-5.27-7.28-2.11-15.59-2.11-21.83,3.16-5.2,6.33,1.04,14.76,4.16,21.09,4.16,7.38-4.16,12.65-10.39,13.71s-13.51,0-19.75,3.16c-6.24,4.22-12.47,9.49-14.55,16.87-5.2,22.14-14.55,40.07-28.06,59.05-3.12,4.22-7.28,8.44-12.47,8.44-13.51-2.11-10.39-18.98-12.47-29.52-4.16-15.82-22.87-13.71-35.34-9.49-12.47,5.27-22.87,14.76-29.1,27.41-2.08,5.27-5.2,12.65-10.39,14.76-5.2,1.05-11.43,0-15.59-4.22-9.35-8.44-15.59-20.03-27.02-24.25-14.55-6.33-28.06,2.11-41.58,6.33-5.2,2.11-7.28-4.22-6.24-8.44,2.08-6.33,3.12-11.6,5.2-17.92,5.2-13.71,4.16-29.52-7.28-40.07-2.08-1.05-3.12-3.16-5.2-5.27-6.24-4.22-14.55-7.38-21.83-3.16-8.32,5.27-12.47,13.71-19.75,21.09-16.63,14.76-30.14,32.69-49.89,42.18-8.32,3.16-19.75,5.27-22.87,15.82-1.04,7.38,2.08,15.82,1.04,23.2-1.04,4.22-4.16,8.44-8.32,9.49-7.28,2.11-14.55,0-21.83,2.11-6.24,3.16-8.32,9.49-12.47,14.76-3.12,3.16-8.32,3.16-12.47,1.05-14.55-8.44-31.18-14.76-47.81-14.76-7.28,0-14.55-6.33-14.55-13.71,1.04-13.71,6.24-27.41,0-40.07-7.28-15.82-16.63-29.52-25.99-45.34-1.04-2.11-3.12-3.16-5.2-4.22-10.39-1.05-15.59,10.54-22.87,14.76-21.83,12.65-31.18-16.87-41.58-31.63-7.28-8.44-11.85-18.79-28.06-13.71-16.21,5.08-52.28,22.7-53.01,35.85-1.04,7.38,1.04,13.71,0,21.09-1.04,3.16-3.12,6.33-6.24,7.38-17.67,0-38.46,0-49.89,18.98-3.12,5.27-9.35,8.44-15.59,10.54-16.63,4.22-31.18,8.44-46.77,15.82-4.16,2.11-9.35,2.11-13.51,1.05-9.35,0-18.71-3.16-29.1-2.11-12.47,2.11-22.87,10.54-31.18,20.03-15.59,18.98-28.06,37.96-45.73,54.83-9.35,8.44-19.75,12.65-30.14,18.98-4.16,3.16-1.04,9.49,1.04,13.71,11.43,14.76,27.02,23.2,34.3,40.07,5.2,11.6,4.16,24.25,0,35.85-1.04,2.11-2.08,4.22-3.12,7.38-9.35,17.92-29.1,22.14-43.66,34.79-7.28,7.38-13.51,14.76-16.63,24.25-1.04,2.11-2.08,5.27-3.12,7.38-4.16,13.71-7.28,27.41-6.24,42.18,2.08,14.76,8.32,28.47,18.71,39.01,2.08,2.11,5.2,3.16,7.28,5.27,14.55,14.76,31.18,25.31,46.77,39.01,7.28,7.38,14.55,15.82,24.95,16.87,11.43,2.11,23.91-2.11,32.22-11.6,3.12-4.22,1.07-9.49,4.16-14.76,3.09-5.27,10.39-11.6,16.63-14.76,8.32-4.22,17.67-1.05,24.95,4.22,2.08,1.05,5.2,2.11,7.28,1.05,17.67-7.38,33.26-17.92,49.89-27.41,8.32-4.22,12.47-11.6,17.67-18.98,1.04-1.05,3.12-2.11,4.16-2.11,10.39,1.05,20.79,3.16,31.18-1.05,7.28-3.16,13.51-9.49,20.2-14.11,3.4-2.34,6.44-4.18,10.28-2.72,3.85,1.46,6.81,4.57,9.96,7.24,21.75,18.47,53.42,16.95,80.07,26.81,1.8.67,3.64,1.43,5,2.81,2.64,2.69,2.75,6.9,3.42,10.64,2.11,11.74,11.2,21.17,21.56,26.82,10.36,5.65,22.04,8.19,33.44,11.14,11.4,2.95,22.97,6.54,32.26,13.86,7.96,6.27,15.38,15.64,25.44,15.02,2.55-.16,5.07-.99,7.6-.68,3.23.4,6.09,2.62,9.34,2.77,6.99.33,10.59-8.1,15.81-12.83.57-.52,1.25-1.03,2.02-.99.73.03,1.35.55,1.9,1.04,6.14,5.48,12.28,10.96,18.42,16.45,4.62,4.12,9,8.59,15.45,4.89,3.69-2.12,6.25-5.76,9.32-8.72,4.9-4.72,11.32-7.78,18.02-8.61,4.7-.58,10.35.45,12.47,4.75,1.15,2.34.96,5.09.75,7.69-.29,3.49-.57,6.98-.86,10.47-.36,4.43-.65,9.22,1.67,13,2.3,3.76,7.14,5.72,11.36,4.59,3.29-.88,5.92-3.32,8.4-5.67,3.38-3.21,6.76-6.42,10.15-9.62,4.39-4.16,8.91-8.41,14.47-10.7,5.57-2.29,12.49-2.23,17.03,1.76,3.25,2.85,4.78,7.17,6.19,11.28.54,1.58,1.09,3.19,1.26,4.85.27,2.6-.39,5.2-.87,7.77-1.7,8.95-1.38,18.29.93,27.11,5.13,19.6,16.38,36.88,32.17,49.32,6.5,5.12,13.92,8.87,21.29,12.59,36.78,18.53,74.33,37.31,114.95,43.44,9.94,1.5,20,2.23,29.88,4.13,14.37,2.77,28.17,7.99,42.42,11.34,29.43,6.91,60.7,5.61,89.47-3.72,4.42-1.43,8.11,1.55,12.32,3.53,2.06.97,4.23,2.42,4.63,4.69.31,1.74-.52,3.47-1.4,5-7.16,12.35-19.86,21.25-33.78,23.67-5.29.92-10.72.95-15.95,2.17-5.23,1.22-10.48,3.89-13.13,8.62-2.65,4.73-1.65,11.75,3.1,14.3,1.6.86,3.46,1.16,5.02,2.1,1.56.94,2.78,2.95,1.98,4.6-6.43-.5-12.87-1.01-19.3-1.51-1.39-.11-2.99-.14-3.96.88-.92.98-.88,2.51-.77,3.86.5,6.37,1.01,12.74,1.51,19.11.09,1.11.16,2.3-.38,3.27-1.58,2.86-5.79,1.11-8.75-.22-8.47-3.81-18.2-.81-27.37.54-9.17,1.35-20.56-.31-24.27-8.92-1.89-4.39-1.18-9.41-1.38-14.19-.2-4.79-1.92-10.23-6.34-11.92-5.74-2.2-11.29,3.18-15.74,7.47-6.41,6.18-14.05,11.04-22.32,14.21-3.78,1.45-7.77,2.58-11.02,5.01-7.14,5.33-9.13,15.54-15.77,21.51-6.99,6.29-18.6,7.44-22.64,15.99-1.57,3.32-1.61,7.16-2.6,10.7-.99,3.54-3.57,7.18-7.2,7.28-3.97.11-7.46-4.08-11.31-3.1-2.86.73-4.32,3.95-6.77,5.61-5.38,3.63-12.19-1.36-17.02-5.72-6.77-6.12-14.12-11.57-21.93-16.26"/>
        <path class="cls-3" d="M951.39,837.5c-5.03-3.79-10.49-8.29-11.24-14.6-1.2-10.09,10.33-19.44,6.77-28.93-16.38-1-32.79,9.93-38.39,25.58-2,5.58-2.76,11.68-5.77,16.77-3.01,5.09-9.47,8.9-14.71,6.26-2.5-1.26-4.18-3.7-5.69-6.08-6.08-9.62-11.06-19.95-14.8-30.73-1.22-3.51-2.47-7.3-5.42-9.5-4.54-3.38-10.93-1.57-16.1.68-7.34,3.19-15.38,8.47-15.72,16.57-.17,4.17,1.8,8.56.11,12.36-1.12,2.52-3.61,4.1-5.34,6.24-4.98,6.16-2.69,15.78,2.35,21.89,5.03,6.12,12.17,9.99,18.17,15.13,6,5.14,11.18,12.65,9.88,20.51-.26,1.6-.82,3.2-1.95,4.35-3.29,3.33-9.03,1.08-13.4,2.7-4.24,1.56-6.27,6.3-9.33,9.66-8.64,9.5-23.59,6.9-36.32,7.6-11.59.64-22.97,4.76-32.34,11.7-4.06,3.01-7.89,6.6-12.68,8.14-8.52,2.72-18.71-2.87-21.14-11.59-.92-3.31-1.08-7.29-3.82-9.31-2.03-1.5-4.79-1.33-7.29-1.09-9.62.94-19.29-4.84-28.8,3.29-9.51,8.13,31.08,20.29,36.58,32.28,5.5,11.99-3.23,12.29-8.28,15.77-5.12,3.53-6.2,10.12-10.81,14.31-4.61,4.19-11.28,6.64-17.11,4.55-3.86-1.39-8.77-4.34-11.3-1.08-.93,1.19-1.03,2.81-1.08,4.32-.58,18.48,1.45,37.04,6.02,54.94.89,3.49,1.49,8.06-1.56,9.92-1.44.88-3.25.78-4.93.64-7.3-.58-15.42-1.57-20.12-7.27-3.87-4.69-4.3-11.28-6.59-16.94-3.85-9.52-13.02-16.49-15.13-26.55-1.27-6.08,1.13-12.87-1.4-18.55-2.53-5.68-14.44,31.64-18.87,48.44-4.12,15.59-5.96,32.26-14.5,45.88"/>
        <path class="cls-3" d="M589.28,1077.46c-.45-16.38-4.54-32.64-11.87-47.24-4.8-9.56-11.14-19.04-11.13-29.76.01-7.32,3.04-14.76,1.04-21.8-1.25-4.39-4.29-7.97-7.26-11.41-16.53-19.15-35.16-39.52-59.96-43.41-4.88-.77-9.97-.83-14.68.69-13.83,4.48-20.32,21.84-17.33,36.25,2.99,14.41,13,26.2,23.43,36.44,4.23,4.16,9.01,9.65,7.11,15.31-2.93,8.76-17.7,6.71-22.03,14.86-1.32,2.49-1.34,5.44-1.92,8.2-1.43,6.83-6.66,12.7-13.21,14.84s-14.17.45-19.26-4.25c-7.36-6.8-8.65-18.11-14.56-26.23-6.29-8.64-18-12.77-28.21-9.97-4.36,1.2-8.61,3.55-13.1,3.08-6.12-.64-10.52-6.22-16.22-8.58-3.74-1.55-7.88-1.65-11.92-1.73-21.05-.4-42.78-.68-62.27,7.37-4.9,2.02-9.68,4.62-13.37,8.46-3.89,4.06-6.39,9.33-7.88,14.78-3.96,14.52-.77,30.85,8.36,42.73-.45-1.37-.91-2.75-1.36-4.12"/>
        <path class="cls-3" d="M336.5,1080.08c-.09-4.68-.29-9.69-3.04-13.45-6.55-8.91-23.42-5.7-27.76-15.91-3.01-7.07,2.99-14.89,9.62-18.64,14.54-8.23,33.52-6.22,47.38,3.14,5.22,3.53,9.79,7.97,15.05,11.43s11.55,5.95,17.73,4.87c2.03-.35,4.07-1.09,6.1-.77,2.98.47,5.19,3.1,6.48,5.86,3.22,6.9,2.03,15.68-2.9,21.44"/>
        <path class="cls-3" d="M516.19,982.72c3.49,1.26,7.35,1.89,10.89.78s6.62-4.28,6.77-8.04c.19-4.46-3.49-8.05-7.14-10.53-6.62-4.49-22.09-13.74-27.45-4.89-5.63,9.29,9.24,19.91,16.93,22.68Z"/>
        <path class="cls-3" d="M502.96,1076.79c6.8-3.54,7.88-12.67,9.15-20.31,1.45-8.78,4.91-18.15,12.65-22.36,6.5-3.53,15.13-2.29,20.54,2.79,5.2,4.9,7.14,12.35,8.32,19.45"/>
        <path class="cls-3" d="M279.86,996.57c4.74-.47,9.16-2.53,13.48-4.57,8-3.78,16.01-7.56,24.01-11.34,12.55-5.93,26.09-12.83,31.8-25.63,1.06-2.37,1.81-5.02,1.25-7.57-.76-3.48-3.92-6.04-7.31-6.96-3.39-.93-7-.49-10.45.22-17.34,3.56-32.72,13.57-49.64,18.8-6.97,2.16-14.48,3.65-20.02,8.46-14.26,12.4,2.24,30.02,16.87,28.59Z"/>
        <path class="cls-3" d="M140.65,1079.92c1.34-1.4,2.38-1.4,3.42-2.45,5.2-8.44,4.16-20.03,11.43-27.41,4.16-4.22,10.39-2.11,15.59,0,8.32,5.27,16.63,10.54,25.99,10.54,7.28-1.05,17.67,0,21.83-8.44,2.08-6.33-6.24-5.27-10.39-7.38-13.51-5.27-16.63-23.2-6.24-32.69,4.16-3.16,12.47-5.27,11.43-12.65-2.08-13.71-2.08-28.47,10.39-36.9,28.06-17.92,56.13-30.58,87.31-39.01,28.06-8.44,60.29-13.71,85.23,5.27,1.04,1.05,2.08,3.16,3.12,5.27,3.12,9.49-4.16,15.82-8.32,24.25-2.08,5.27-1.04,13.71,5.2,13.71,4.16,1.05,8.32,0,12.47-3.16,2.08-1.05,5.2-2.11,7.28-1.05,7.28,3.16,20.79,13.71,24.95,2.11,3.12-11.6,0-23.2,2.08-35.85,1.04-5.27,2.08-10.54,4.16-15.82,5.2-8.44,10.39-17.92,19.75-22.14,32.22-14.76,62.37,11.6,91.47,23.2,22.87,8.44,49.89,6.33,69.64-9.49,1.04-1.05,1.04-4.22,0-6.33-1.04-1.05-2.08-3.16-3.12-5.27-1.04-1.05-3.12-2.11-5.2-3.16-9.35-4.22-21.83,0-28.06-8.44-1.04-2.11-3.12-6.33,1.04-8.44,7.28-4.22,19.75-5.27,19.75-15.82,0-3.16-1.04-6.33-1.04-9.49-4.16-13.71-9.35-25.31-19.75-35.85-2.08-3.16-3.12-6.33-2.08-10.54,3.12-6.33,10.39-12.65,6.24-20.03-4.16-7.38-13.38-13.76-11.43-21.09,1.95-7.33,30.14-3.16,42.62,4.22,8.32,5.27,11.89,17.49,9.35,25.31-2.54,7.82-9.35,13.71-3.12,22.14,2.08,3.16,2.08,7.38,1.04,11.6-3.12,10.54-16.63,24.25-5.2,32.69,12.47,9.49,24.95-2.11,38.46-4.22h8.32c11.43,3.16,21.83,6.33,33.14,2.88"/>
        <path class="cls-3" d="M708.73,859.87c7.11-7.15,15.71-12.76,25.08-16.33,2.22-.85,4.6-1.67,6.1-3.53,2.18-2.71,1.74-6.8.15-9.9-3.56-6.93-11.42-10.25-16.85-15.79-11.76-12.02-8.28-35.31,6.45-43.27,5.5-2.97,11.8-3.9,17.97-4.79,8.14-1.18,16.27-2.35,24.41-3.53,3.17-.46,6.89-1.33,8.07-4.35,2.01-5.13-5.07-8.77-10.44-9.65-12.17-2-24.33-4-36.5-6-12.15-2-25.04-4.34-34.17-12.73-9.13-8.39-11.94-25.02-2.36-32.87,6.28-5.14,15.14-4.78,23.19-5.35,11.41-.8,22.52-3.95,33.54-7.08,26.36-7.49,52.72-14.98,79.08-22.47,1.18-.34,2.41-.7,3.3-1.55,2.7-2.57.19-7.54-3.33-8.71-3.52-1.17-7.32-.06-11.01.23-11.87.94-22.63-6.58-34.19-9.43-25.41-6.26-51.5,10.43-77.47,7.37-13.62-1.61-27.18-8.61-40.44-5.06-8.01,2.15-14.53,7.87-21.55,12.34s-15.81,7.8-23.48,4.61c-5.74-2.39-10.48-8.27-16.66-7.68-2.05.2-3.96,1.12-5.82,2.03-6.4,3.14-12.81,6.29-19.21,9.43"/>
        <path class="cls-3" d="M587.39,662.75c-3.95,5.02-11.72,4.96-17.48,2.28-5.75-2.69-10.37-7.36-15.82-10.63-10.91-6.56-24.62-7.22-35.2-14.31-13.28-8.9-21.09-27.38-36.89-29.34-4.94-.61-10.56.44-14.44-2.73-7.27-5.93-.87-19.59-7.2-26.54-4.26-4.67-11.83-3.54-17.6-1.05-5.78,2.49-11.67,6.04-17.86,5.04-7.43-1.2-12.51-9-12.95-16.62-.44-7.62,2.75-14.97,6.49-21.59,9.74-17.24,23.8-31.95,40.48-42.37,3.16-1.97,6.92-4.92,5.98-8.56-.88-3.44-5.23-4.35-8.73-4.32-28.66.23-53.4,18.96-77.55,34.63-38.35,24.89-82.95,44.25-128.22,39.29-4.52-.5-9.2-1.3-12.92-3.96-3.67-2.62-5.99-6.74-7.87-10.87-9.19-20.2-11.06-44.45-25.9-60.82-8.12-8.96-19.44-14.62-26.87-24.17-10.01-12.88-11.27-30.48-11.19-46.87.09-18.42,1.41-37.08,7.32-54.49,5.91-17.41,16.85-33.62,32.62-42.74,7.66-4.43,16.37-7.18,23.06-13.01,6.69-5.83,10.72-16.41,5.71-23.78-18.31-26.93-41.12-51.95-41.84-84.66-.05-2.43.05-5,1.31-7.06,1.21-1.96,3.29-3.17,5.36-4.14,10.79-5.07,23.54-5.99,33-13.29,7.72-5.96,12.09-15.31,18.8-22.4,7.83-8.28,18.54-13.18,26.77-21.05,8.88-8.49,14.38-19.93,21.87-29.7s18.52-18.4,30.67-17.23c5.94.57,11.89,3.45,17.64,1.84,6.27-1.75,10.06-8.23,15.75-11.41,14.84-8.3,34.17,8.57,49.58,1.42,7.38-3.43,11.53-11.47,18.08-16.34,7.54-5.6,18.7-7.55,22.26-16.31,2.11-5.19.77-11.45,3.43-16.37,1.94-3.57,5.62-5.74,9.05-7.86,9.15-5.67,17.73-12.3,25.55-19.74"/>
        <path class="cls-3" d="M-.18,790.39c11.85,1.35,22.32,10.99,24.79,22.82.9,4.33.84,8.88,2.32,13.04,1.48,4.16,5.22,8.04,9.56,7.59,3.51-.36,6.15-3.34,8.14-6.3,4.58-6.83,7.62-14.72,8.83-22.89.68-4.58.82-9.36,2.79-13.54,3.38-7.16,11.67-10.95,19.5-10.82,7.83.13,15.25,3.52,21.99,7.55,14.62,8.73,27.3,20.77,36.85,35,.74,1.1,1.56,2.3,2.82,2.7s2.95-.59,2.69-1.89c2.05-26.43-1.95-53.33-11.59-77.97-2.68-6.85-5.83-13.69-6.44-21.04-.88-10.71,3.69-21.96-.17-31.97-1.92-4.99-5.8-9.12-7.14-14.31-2.25-8.76,3.3-17.61,3.56-26.66.15-5.4-1.59-10.69-1.65-16.1-.06-5.4,1.74-13.03,7.49-12.99,5.75.04,5.04,17.76,7.72,26.75,3.91,13.13,15.43,22.85,19.34,35.99,1.76,5.91,1.9,12.29,4.32,17.95,1.75,4.1,4.61,7.59,7.42,11.03,11.32,13.79,21.9,30.64,35.72,41.84,13.97,11.32,22.29,27.14,31.65,42.96,7.28,9.49,14.55,18.98,27.02,21.09,6.24-8.44,6.24-17.92,6.24-27.41-4.16-35.85-27.02-63.26-42.62-94.89-4.16-10.54-16.77-27.63-4.16-33.74,12.61-6.11,56.13,35.85,80.04,60.1,9.35,8.44,18.71,14.76,30.14,18.98,9.35,3.16,18.16,6.49,29.1-3.16,10.94-9.65-8.32-41.12,6.24-57.99,6.24-6.33,22.87-11.6,22.87-11.6,5.56-.91,17.67-4.22,25.99-6.33,0,0,9.44-3.54,16.89-4.5,7.45-.97-8.58-8.15-8.58-8.15-5.2-3.16-9.35-6.33-14.55-8.44-16.63-6.33-35.34-6.33-50.93-15.82-8.32-5.27-14.55-12.65-22.87-17.92-5.2-3.16-12.47-3.16-18.71-1.05-1.04,0-2.08,2.11-3.12,2.11-3.12,1.05-5.2,2.11-7.28,3.16-5.2,2.11-10.39,3.16-15.59,2.11-8.32-2.11-15.59-7.38-23.91-8.44-14.55-1.05-30.14,0-43.66-5.27-16.63-7.38-21.83-24.25-24.95-41.12-2.08-16.87-3.12-33.74-13.51-48.5-11.43-14.76-25.99-23.2-37.42-37.96-14.55-22.14-18.71-48.5-16.63-73.81,2.08-25.31,6.24-49.56,13.51-73.81,5.2-14.76,15.59-30.58,33.26-32.69,5.2,0,7.28-5.27,6.24-10.54-7.28-22.14-14.55-41.12-19.75-64.32-2.08-13.71-1.04-25.31,3.12-37.96,4.16-11.6,13.51-18.98,22.87-27.41,18.71-14.76,34.3-28.47,53.01-43.23,2.08-2.11,4.16-5.27,6.24-7.38,24.95-21.09,42.62-45.34,67.56-66.43,2.08-1.05,5.2-2.11,8.32-2.11,9.35,1.05,16.63,8.44,25.99,7.38,7.28-1.05,12.47-8.44,19.75-8.44,10.39,0,21.83,7.38,32.22,2.11,5.2-3.16,8.32-7.38,9.35-13.71,1.04-6.33,1.04-13.71-4.48-18.2"/>
        <path class="cls-3" d="M21.74.2c5.06,11.72,10.4,23.85,19.94,32.22,12.28,10.79,30.14,14.08,40.86,26.46,7.92,9.15,12.74,23.53,24.64,25.13,10.81,1.45,19.09-8.98,25.62-17.84C152.41,39.56,177.38,17.03,205.72.37"/>
        <path class="cls-3" d="M241.95-.42c-51.86,27.85-95.75,70.75-125.12,122.28-4.84,8.49-9.51,17.48-17.18,23.45-3.57,2.78-9.29,4.53-12.12.98-1.27-1.6-1.48-3.79-1.72-5.83-2.75-23.6-17.71-45.38-38.57-56.18-6.42-3.32-13.45-5.74-18.83-10.59-3.63-3.27-6.31-7.48-8.81-11.7C12.03,49.22,5.63,35.75.52,21.79"/>
        <path class="cls-3" d="M266.45,1.77c-38.96,23.59-71.6,56.31-103.83,88.7-20.52,20.62-41.7,42.31-50.93,70.07-6.48,19.51-6.51,40.52-9.19,60.92-2.68,20.41-8.83,41.73-24.23,55.14-11.07-12.7-11.47-31.28-12.44-48.21-1.07-18.74-3.54-37.39-7.39-55.75-1.75-8.33-3.88-16.84-8.83-23.73-3.61-5.03-8.52-8.92-13.49-12.57-11.09-8.14-22.81-15.41-35.01-21.72"/>
        <path class="cls-3" d="M.98,337.55c7.82,43.29,21.88,85.41,41.6,124.62,2.93,5.82,6.13,11.76,11.26,15.7,7.1,5.45,16.58,6.14,25,9.08,23.87,8.34,39.62,34.97,64.61,38.55,4.37.63,9.26.33,12.53-2.67,7.11-6.51,1.02-18.48-6.09-24.99-15.19-13.9-34.73-23.18-46.75-39.98-12.28-17.16-14.75-39.44-15.59-60.63-1.1-27.69.82-58,18.97-78.72,10.88-12.43,27.19-20.89,32.71-36.53,4.83-13.68-.13-28.63-2.67-42.93-5.19-29.2.47-60.64,17.28-84.92,8.29-11.97,18.98-21.98,29.59-31.88,32.25-30.12,64.6-60.32,100.08-86.44,9.44-6.95,19.46-13.77,30.93-15.94,7.93-1.51,16.08-.7,24.14-1.15,16.09-.9,31.85-6.98,44.46-17.16"/>
        <path class="cls-3" d="M-2.65,413.12c-.86,7.43,3.36,14.52,8.31,20.07s10.84,10.37,14.6,16.81c7.52,12.9,5.09,29.81,12.15,42.98,4.03,7.51,10.9,13.26,14.26,21.1,3.65,8.53,2.75,18.63,6.99,26.87,2.95,5.73,8.07,9.93,13.04,13.97,8.66,7.02,17.32,14.05,25.98,21.07,4.12,3.34,8.88,6.87,14.11,6.17,9.11-1.23,12.11-13.66,20.17-18.13,6.61-3.66,15.31-.84,20.45,4.74s7.43,13.24,8.92,20.72c1.35,6.79,2.26,13.94,6.05,19.7,3.79,5.76,11.63,9.54,17.61,6.2.55-4.83-2.11-9.35-4.34-13.66-8.18-15.86-11.35-34.33-8.94-52.06"/>
        <path class="cls-3" d="M93.8,544.14c1.09-.14,2.23-.43,3-1.22.85-.87,1.09-2.17,1.15-3.39.44-8.79-14.54-29.27-23.89-19.02-9.44,10.35,10.52,24.85,19.73,23.63Z"/>
        <path class="cls-3" d="M164.68,557.54c-.56-5.16,2.91-10.47,7.81-11.96,5.27,2.43,6.49,9.31,7.11,15.15,2.36,22,7.55,46.27,25.49,58.87,8.98,6.3,19.97,8.72,30.28,12.39,10.31,3.67,25.58,14.5,25.58,19.37s-28.17-3.32-42.25-4.98c-11.34-1.34-25.22-1.53-31.34,8.25-5.15,8.22-1.75,19-2.95,28.67-.17,1.37-.47,2.8-1.41,3.8-2.9,3.1-7.77-.59-10.27-4.03-12.13-16.68-24.61-34.17-28.14-54.59-1.86-10.74-1.12-21.78-2.29-32.62-.59-5.44-2.22-11.61-7.12-13.9-3.92-1.83-8.72-.38-12.02,2.46-3.29,2.83-5.38,6.81-7.35,10.7-8.93,17.71-16.9,35.92-23.86,54.53-2.29,6.12-4.69,12.6-9.76,16.65-5.06,4.05-13.71,4.24-17.05-1.35-4.33-7.23,3.09-15.91,3.57-24.36.33-5.79-2.69-11.19-3.9-16.86-1.36-6.35-.44-12.97-1.19-19.43-2.04-17.55-16.72-31.72-33.34-36.99-11.27-3.58-24.92-4.68-31.39-14.7"/>
        <path class="cls-3" d="M1.19,488.85c4.14-6.62,7.32-14.1,7.49-21.94s-3.1-16.03-9.59-20.29"/>
        <path class="cls-3" d="M-.2,532.44c20.85-17.36,27.84-49.76,16.03-74.36-1.66-3.47-3.67-6.8-6.3-9.59-4.33-4.58-10.67-8.33-11.3-14.64"/>
        <path class="cls-3" d="M-2.31,570.32c8.08,12.7,23.99,17.33,38.65,20.04,3.58.66,7.31,1.33,10.22,3.55,3.45,2.64,5.12,7.04,6.09,11.32,3.47,15.44-.58,32.43-10.6,44.56-2.05,2.48-4.36,4.81-5.79,7.7-5.56,11.19,3.95,24.11,3.74,36.64-.1,5.98-2.45,11.66-3.44,17.55-2.25,13.47,2.71,26.99,7.59,39.72,1.1,2.88,2.28,5.87,4.51,7.98,4.94,4.64,12.97,3.16,18.88-.11,6.28-3.47,11.65-8.61,15.41-14.77,1.99-3.26,3.61-6.88,6.49-9.37,2.87-2.49,7.59-3.4,10.31-.74,2.37,2.31,4.07,7.16,7.05,5.76.87-.41,1.41-1.3,1.81-2.18,4.07-8.9-.77-19.06-3.94-28.33-11.66-34.06.07-71.75,16.13-103.91,1.37-2.74,3.17-5.78,6.15-6.32,5.55-1.01,8.09,6.66,8.76,12.34,3.28,27.93,15.87,53.8,29.69,78.18,12.57,22.16,27.04,44.37,48.51,57.76,2.83,1.76,6.45,3.37,9.32,1.67,3.49-2.07,3.13-7.28,1.95-11.21-5.42-18-18.16-33.08-23.16-51.21-2.14-7.74-2.5-16.91,2.73-22.95,2.94-3.4,7.27-5.29,11.64-6.21,15.67-3.26,31.32,4.83,44.78,13.6,13.46,8.77,37.67,20.33,43.12,20.06s3.93-8.17,2.9-12.63c-1.03-4.47-3.02-8.84-2.66-13.42.48-6.05,5.07-11.07,10.33-13.95,5.26-2.88,11.22-4.08,16.96-5.78,2.95-.87,6.03-2.01,7.88-4.49,4.34-5.83-1.58-14.63-8.61-16.22-7.03-1.59-14.2,1.19-21.27,2.59-15.99,3.17-32.42-.73-48.26-4.62-10.45-2.56-20.91-5.13-31.36-7.69-8.4-2.06-17.52-4.59-22.59-11.7"/>
        <path class="cls-3" d="M-2.5,589.78c7.09,6.18,16.04,10.14,25.33,11.22,2.49.29,5.17.43,7.19,1.94,3.51,2.61,3.41,7.86,2.97,12.24-.77,7.7-1.76,15.92-6.73,21.78-1.65,1.95-3.69,3.56-5.16,5.66-3.92,5.61-2.92,13.17-2.29,20.01,2.16,23.5-2.06,47.06-6.25,70.27-1.03,5.69-2.92,12.42-8.38,14.1-.97.3-2.19.32-2.8-.5s.46-2.33,1.24-1.69"/>
        <path class="cls-3" d="M-2.68,640.54c5.32-3.35,10.27-7.31,14.73-11.76,3.34-3.33,6.62-8.07,4.85-12.47-2.43-6.03-11.42-5.22-16.23-9.54"/>
        <path class="cls-3" d="M-4.19,810.48c12.73,2.44,20.72,15.83,23.05,28.76,2.33,12.93.67,26.31,2.54,39.31.41,2.84,1.42,6.16,4.14,6.94,3.18.91,5.99-2.42,7.11-5.58,2.86-8.11,1.1-17.76,5.75-24.97,2.98-4.62,8.09-7.34,11.71-11.46,6.44-7.34,7.33-17.9,8.76-27.61.57-3.86,1.34-7.86,3.63-11,5.16-7.08,15.75-6.99,23.97-4.16,22.58,7.77,38.48,32.06,36.77,56.18-.23,3.29-.75,6.68.23,9.83.98,3.15,4.07,5.94,7.24,5.2,1.48-.35,2.71-1.38,3.82-2.44,18.03-17.13,20.49-44.94,20.19-70-.08-6.79-.29-13.64-1.83-20.25-1.99-8.5-6.11-16.31-9.35-24.4-9.26-23.11-11.3-48.43-13.24-73.29-.12-1.49.15-3.5,1.61-3.7.68-.09,1.33.3,1.88.72,4.64,3.56,6.64,9.55,8.59,15.11,11.04,31.51,28.47,60.7,50.89,85.21,9.19,10.05,19.28,19.4,26.82,30.78,7.55,11.38,12.41,25.41,9.61,38.83-.7,3.35-1.87,6.66-1.73,10.08.13,3.42,2.04,7.1,5.33,7.86,2.79.64,5.57-.96,7.93-2.6,16.35-11.42,28.82-28.46,34.87-47.64,5.54-17.57,3.95-34.68-2.49-51.94-6.44-17.25-31.84-43.55-21.17-50.93,10.67-7.37,42.37,47.06,71.57,55.98,9.65,2.95,19.95,2.4,29.94,3.7s20.58,5.1,25.81,13.84c4.03,6.74,7.41,17.48,14.96,15.62,4.74-1.17,6.54-7.09,6.49-12.03-.16-16.04-10.44-29.82-17.98-43.92-7.54-14.1-12.13-32.84-2.06-45.21,9.7-11.91,27.45-11.48,42.65-10.51,28.64,1.83,57.39,1.94,86.04.31,2.57-.15,5.31-.37,7.34-1.96,3.64-2.86,3.16-8.94.24-12.55-2.92-3.61-7.46-5.35-11.79-6.95-44.83-16.54-89.67-33.09-134.5-49.63-9.28-3.42-20.47-9.9-18.93-19.8.92-5.94,6.28-12.75,2-16.92-1.71-1.67-4.34-1.88-6.7-1.65-16.46,1.61-27.92,19.11-44.3,21.45-6.15.88-12.37-.51-18.42-1.9-16.69-3.85-33.35-7.83-49.98-11.96,2.22-6.62,10.05-9.66,16.93-9.28,6.88.38,13.37,3.25,20.13,4.65,21.35,4.41,42.65-6.07,61.99-16.23,21.6-11.35,58.83-39.16,64.81-34.06s-8.37,23.02-12.97,34.52c-4.6,11.5-4.12,27.66,6.96,32.93,9.58,4.55,20.36-1.94,29.74-6.9s23.09-7.46,28.72,1.62c1.83,2.95,2.3,6.54,3.72,9.71,2.62,5.85,8.14,9.71,13.41,13.28,15.75,10.65,31.5,21.31,47.24,31.96,30.43,20.59,65.21,42.13,101.08,34.83,11.74-2.39,22.8-7.82,34.69-9.23,2.44-.29,5.14-.33,7.08,1.2,5.54,4.39-1.42,12.42-4.96,18.57-8.65,15.07,6.9,34.33,2.24,51.11-.54,1.95-1.4,3.89-2.88,5.26-6.01,5.57-14.79-1.65-21.74-5.95-13.79-8.53-31.45-4.71-47.09-.61-11.69,3.06-25.65,8.6-27.11,20.76-1.09,9.08,5.83,17.96,3.86,26.89-1.88,8.55-11.34,14.07-12.31,22.78-.74,6.68,2.68,15.93-3.43,18.54-6.4,2.74-10.36-7.16-10.58-14.2-1.07-34.2-8.35-72.67-36.64-91.3-10.44-6.88-22.69-10.22-34.72-13.47-9.66-2.61-19.32-5.22-28.99-7.83-7.89-2.13-16.04-4.28-24.12-3.13-8.08,1.15-16.17,6.47-18.05,14.52-2.63,11.26,7.16,21.23,16.07,28.47,8.91,7.23,18.88,16.85,16.75,28.22-1.06,5.67-5.02,10.26-7.5,15.45-7.41,15.55-1.13,35.39-9.47,50.44-.9,1.63-2.01,3.21-3.55,4.23-4.91,3.25-11.7-.71-14.46-5.95-2.76-5.24-3.1-11.44-5.23-16.98-3.3-8.59-10.54-14.88-17.52-20.79-6.27-5.31-16.33-10.42-21.54-4.04-2.13,2.6-2.49,6.42-4.87,8.79-4.08,4.05-11.13,1.3-15.1-2.86-3.96-4.16-6.91-9.68-12.13-12.04-10.39-4.7-21.4,6.41-24.72,17.45s-3.2,23.61-10.12,32.77c-2.62,3.46-6.21,6.39-7.39,10.58-2.76,9.83,9.2,18.38,8.77,28.59-.26,6.29-5.3,11.43-10.85,14.25-5.55,2.82-11.78,3.97-17.54,6.32-14.41,5.89-24.72,18.66-36.2,29.29-2.94,2.72-7.04,5.48-10.58,3.65-3.72-1.91-3.73-7.2-3.22-11.4,1.98-16.1,3.96-32.19,5.94-48.29"/>
        <path class="cls-3" d="M566.96,703.62c7.61,2.56,15.65,3.69,23.18,6.52,7.52,2.82,14.81,7.81,17.77,15.37-7.92,5.3-18.11,4.84-27.56,5.68-9.45.84-20.14,4.31-23.58,13.29-1.34,3.5-1.53,7.73-4.33,10.18-3.64,3.19-9.39,1.34-13.2-1.65-10.17-8-14.51-22.47-25.79-28.77-7.78-4.35-17.29-3.86-25.7-6.77-2.02-.7-4.33-2.16-4.1-4.32.12-1.13.94-2.05,1.81-2.78,11.51-9.74,29.73,1.53,43.74-3.89,1.54-.59,3.05-1.44,4-2.8,2.19-3.17.5-7.46-.78-11.11-.9-2.57-1.83-7.52.72-9.51,4.4-3.42,5.16,1.62,7.88,4.11,7.82,7.16,15.81,13.04,25.95,16.45Z"/>
        <path class="cls-3" d="M300.03,824.79c-.71,5.1.35,10.27,1.56,15.27,1.69,6.98,3.96,14.31,9.42,18.89,7.67,6.43,18.92,5.33,28.6,2.99,9.68-2.34,19.92-5.55,29.33-2.26,2.81.98,6.14,2.45,8.49.6,1.26-1,1.76-2.68,2-4.29,1.12-7.6-2.09-15.1-5.23-22.09-2.34-5.22-5.24-10.96-10.61-12.73-9.95-3.29-19.74,9.38-29.87,6.73-7.86-2.06-9.96-11.21-16.5-14.97-8.76-5.05-15.91,2.74-17.18,11.88Z"/>
        <path class="cls-3" d="M459.21,790.45c.83,6.76,6.6,12.56,13.27,13.32,6.79.78,13.2-3.11,18.69-7.23,2.25-1.68,4.57-3.61,5.36-6.33,1.5-5.17-3.17-10.01-7.77-12.7-11.29-6.59-31.78-5.24-29.56,12.93Z"/>
        <path class="cls-3" d="M477.64,825.44c7.41-3.23,16.52,1.6,21.84,7.75,1.91,2.21,3.47,5.03,3.11,7.94-.69,5.49-7.26,7.74-12.69,8.33-6.14.67-12.35.72-18.51.17-4.3-.39-9.52-1.91-10.38-6.2-.67-3.34,2.56-6.17,4.23-8.79,1.67-2.62.31-3.92,12.4-9.2Z"/>
        <path class="cls-3" d="M446.98,798.11c1.17,6.82,5.91,12.9,12.18,15.63,1.51.66,3.15,1.16,4.36,2.3,3.33,3.12,1.49,8.98-1.79,12.16-3.28,3.18-7.69,5.12-10.43,8.79-5.75,7.69-1.01,19.7,7.25,24.5,8.26,4.79,18.45,4.23,27.86,2.81,9.92-1.5,20.38-4.18,27.16-11.68s7.63-21.19-.69-26.88c-3.06-2.1-6.81-2.82-10.38-3.8-3.57-.98-7.26-2.42-9.47-5.43-2.21-3.01-2.14-7.98,1-9.95,1.39-.87,3.08-1.02,4.66-1.44,7.47-1.97,12.12-10.41,11.49-18.21-.62-7.8-5.55-14.73-11.69-19.48-6.14-4.75-13.43-7.66-20.62-10.52-3.48-1.38-7.24-2.78-10.87-1.86-4.82,1.23-7.78,6.13-9.55,10.85-3.65,9.72-12.33,21.58-10.5,32.23Z"/>
        <path class="cls-3" d="M406,731.3c-.96-1.12-1.91-2.35-2.15-3.81-.58-3.53,3.05-6.27,6.4-7.37,9.39-3.1,19.72-.68,28.8,3.26,9.08,3.94,17.51,9.37,26.83,12.68,7.85,2.79,16.21,4.02,23.92,7.19,17.33,7.14,30.08,24.58,31.77,43.48.81,9-.7,18.19,1.04,27.06,1.05,5.36,3.25,10.41,5.44,15.4,2.11,4.82,4.22,9.63,6.32,14.45.99,2.27,2.03,4.6,3.82,6.29,5.58,5.27,15.34,1.2,19.12-5.51,3.78-6.71,3.7-14.86,4.82-22.51,1.12-7.65,6.51-22.7,11.47-18.79,4.96,3.91,4.73,10.1,5.21,16.23.59,7.49,5.47,13.78,9.1,20.33,3.63,6.55,6,15.11,1.75,21.26-5.79,8.39-20.39,7.26-24.76,16.5-2.85,6.03-.99,15.65-7.3,17.62-3.57,1.12-7.11-1.52-10.13-3.76-16.62-12.37-38.57-17.07-58.7-12.57-6.84,1.53-13.5,4.07-20.48,4.68-11.57,1.03-23.5-3.63-31.42-12.25-7.91-8.62-11.63-21.03-9.8-32.66.63-4,1.89-7.98,1.57-12.02-.27-3.45-1.66-6.71-2.26-10.11-2.52-14.38,9.05-26.93,13.89-40.69,1.91-5.42,2.64-11.88-.61-16.6-2.84-4.13-7.92-5.85-12.39-8.04-6.79-3.33-16.23-13.86-21.29-19.72Z"/>
        <path class="cls-3" d="M291.68,863.61c.86,10.91,16.65,15.45,17.97,26.32.62,5.07-2.35,10.03-6.3,13.2-3.95,3.17-8.8,4.91-13.5,6.76-23.45,9.2-45.44,22.19-64.9,38.34-6.19,5.14-12.43,10.76-20.17,12.83-7.74,2.08-17.48-.81-20.21-8.44-.89-2.5-.96-5.21-1-7.87-.58-33.56.47-69.57,19.79-96.81,3.65-5.14,8.14-10.81,6.94-17.03-.62-3.21-2.69-5.89-4.7-8.45-8.72-11.08-18.52-35.1-26.17-33.25-7.65,1.85.14,14.08-.22,21.24-.76,15.1-17.21,27.18-14.46,42.04,1.07,5.76,5.01,10.81,5.3,16.67.48,9.52-8.45,16.49-16.61,21.23-10.43,6.05-21.23,11.44-32.32,16.12-4.97,2.1-12.35,3.11-14.25-2-.54-1.46-.42-3.07-.28-4.62.53-6.14,1.06-12.29,1.6-18.43.74-8.53,1.47-17.21-.27-25.59-1.73-8.38-6.33-16.57-13.81-20.53-7.49-3.96-17.99-2.4-22.61,4.77-3.21,4.99-3.1,11.35-4.17,17.2-1.69,9.29-6.67,17.93-13.83,23.98-2.6,2.2-5.56,4.16-7.21,7.16-1.26,2.29-1.62,4.95-2.43,7.43-2.76,8.46-10.74,14.4-19.26,16.52-8.53,2.12-17.53.94-26.04-1.24,1.75.3,3.5.61,5.26.91"/>
        <path class="cls-3" d="M1.37,839.49c4.68,3.07,8.8,7.3,10.8,12.58,3.88,10.24-.83,21.57-5.46,31.48-.68,1.46-1.42,2.98-2.72,3.9s-3.37.95-4.28-.37"/>
        <path class="cls-3" d="M-2.52,953.38c8.86-3.71,18.27-6.06,27.81-6.96,8.11-.77,18.57,1.26,20.25,9.35.91,4.37-1.31,8.7-2.63,12.96-1.32,4.27-1.28,9.86,2.51,12.14,4.76,2.86,10.33-1.95,13.79-6.33,9.03-11.45,20.55-24.31,34.91-22.62,4.22.5,8.32,2.29,12.55,1.91,5.81-.52,10.54-5.05,13.71-10.01s5.3-10.59,8.78-15.34c4.05-5.54,9.89-9.71,16.4-11.71,2.91-.89,6.25-1.3,8.83.32,1.72,1.08,2.84,2.91,3.7,4.77,5.43,11.66,2.31,26.79-7.27,35.27-5.06,4.47-11.95,7.64-14.19,14.05-1.99,5.7.48,11.87,2.21,17.66,6.09,20.34,2.15,44.42-12.97,59.13-4.43,4.31-9.65,7.72-14.21,11.89-5.96,5.44-10.76,12.16-14.01,19.6,1.1-2.48,2.19-4.96,3.29-7.45"/>
        <path class="cls-3" d="M67.04,1075.76c3.4-20.04,23.06-33.08,30.46-51.97,1.94-4.95,2.95-10.72.63-15.51-2.74-5.66-9.65-8.36-15.8-7.51-6.16.84-11.59,4.6-16.02,9.02-7.14,7.13-13.86,16.99-23.88,16.96-7.99-.02-14.25-6.52-20.31-11.79-6.06-5.27-14.8-9.83-21.67-5.7-.41.24.64.56.43.13"/>
        <path class="cls-3" d="M-1.73,1057.06c8.05.35,16.34.76,23.67,4.16,7.33,3.4,13.57,10.56,13.45,18.74"/>
        <path class="cls-3" d="M603.66,955.93c-6.94-6.71,1.62-18.75,10.91-21.16,9.29-2.41,19.95-.86,27.72-6.55,11.2-8.2,8.47-27.52-2.36-36.22-1.09-.88-2.33-1.82-2.55-3.22-.3-1.92,1.48-3.46,3.15-4.42,24.25-13.96,58.78,7.73,81.37-8.86,4.45-3.27,8.04-7.85,13.07-10.1,6.06-2.71,13.21-1.58,19.39-3.99,10.17-3.96,14.77-16.97,12.16-27.7-2.61-10.73-10.75-19.23-19.72-25.5-5.37-3.75-11.83-8-12.1-14.62-.34-8.36,9.79-13.25,18-12.49,8.21.76,16.02,4.79,24.26,4.5,14.48-.51,25.99-16.11,23.88-30.65-2.11-14.54-16.02-25.8-30.49-26.35-9.04-.34-17.81,2.84-26.75,4.16s-19.22.28-25.15-6.64c-2.33-2.72-3.74-6.92-1.7-9.88.99-1.43,2.59-2.28,4.18-2.95,9.98-4.23,21.24-3.62,31.82-5.88,19.34-4.13,35.86-17.68,55.33-21.05,31.79-5.5,64.22,17.15,95.44,8.92,1.78-.47,3.68-1.14,4.7-2.69,1.82-2.76-.08-6.41-2.04-9.06-36.54-49.27-105.57-63.37-165.26-51.76-13.05,2.54-26.19,6.13-39.43,4.89-7.88-.74-15.65-3.19-23.54-2.67-10.41.68-19.75,6.4-29.6,9.91-9.85,3.51-22.15,4.27-29.42-3.33-2.22-2.32-3.84-5.3-6.56-6.98-9.25-5.69-18.4,7.35-28.24,11.92-10.98,5.09-23.91-1.26-32.84-9.51-8.92-8.25-16.26-18.69-27.05-24.18-15.38-7.82-38.45-6.95-43.89-23.51-2.37-7.22-.32-16.3-5.59-21.71-5.46-5.6-14.58-3.24-22.2-1.75-7.63,1.49-18.12-.43-18.97-8.26-.46-4.27,2.43-8.08,5.24-11.3,14.17-16.25,30.43-30.64,48.22-42.68,4.89-3.31,10.04-6.57,13.41-11.46,3.38-4.89,4.51-11.94.97-16.71-4.14-5.58-12.27-5.64-19.11-4.83-30.82,3.64-60.85,14.04-87.43,30.29-2.06,1.26-5.03,2.43-6.56.55"/>
        <path class="cls-3" d="M555.77,464.38c6.29-3.82,13.93,1.08,16.87,6.98,7.51,15.06-11.21,26.58-22.75,30.11-13.65,4.18-40.88,12.69-38.33,22.96,2.55,10.27,32.86,9.6,41,13.19,7.34,3,15.59,6.33,21.83,0,9.35-12.65,20.79-24.25,37.42-21.09,18.71,4.22,32.22,15.82,47.81,25.31,22.87,12.65,46.77,21.09,72.76,18.98,11.43-2.11,22.87-4.22,34.3-3.16,9.35,2.11,16.63,8.44,25.99,6.33,4.16-1.05,8.32-4.22,12.47-4.22,7.28,0,16.63-1.05,18.71,7.38,1.04,6.33,1.04,13.71,7.28,17.92,6.24,3.16,12.47,1.05,17.67-2.11,8.32-6.33,14.55-12.65,23.91-15.82,22.87,0,19.75,30.58,23.91,46.39,5.2,14.76,13.51,27.41,25.41,38.46,25.8,23.96,58.06,37.08,89.75,52.11,12.66,6,25.61,11.64,39.3,14.51,9.91,2.08,20.06,2.67,30.13,3.67,31.91,3.17,63.27,10.45,94.53,17.7,1.27.29,2.69.71,3.27,1.89,1.49,3.04-28.74,24.53-32.92,26.65-4.16,2.11-11.43,4.22-14.55-1.05-2.08-4.22-4.16-8.44-7.28-11.6-9.35-7.38-21.83-5.27-31.18-1.05-11.43,5.27-21.83,12.65-34.3,15.82-8.32,1.05-15.59-3.16-21.83-8.44-7.28-8.44-18.71-14.76-28.06-9.49-5.2,3.16-5.2,10.54,0,14.76,2.08,2.11,5.2,2.11,7.28,4.22h3.12c4.16,2.11,7.28,3.16,11.43,5.27,10.39,6.33,5.2,21.09-3.12,27.41-18.71,15.82-51.97,33.74-66.52,6.33-4.16-7.38-2.08-15.82-5.2-23.2-4.16-8.44-11.43-12.65-19.75-13.71-7.28,0-14.55,2.11-19.75,8.44-4.16,6.33-6.24,12.65-10.39,18.98-9.35,11.6-23.91,5.27-32.22-3.16-10.39-11.6-21.83-28.47-38.46-20.03-17.67,8.44-23.91,28.47-30.14,46.39-4.16,13.71-7.28,28.47,2.08,41.12,4.16,6.33,12.47,13.71,6.24,21.09-2.08,1.05-4.16,2.11-5.2,3.16-11.43,3.16-23.91,0-34.3,7.38-8.32,7.38-17.67,15.82-27.55,7.96-6.81-4.57-13.61-9.16-20.42-13.75,4.75-7.45,13.22-10.45,21.28-12.6,8.76-2.33,18.24-3.82,25.83-9.16,7.73-5.44,11.49-14.41,11.69-23.77.21-9.77-2.99-19.65-8.28-27.76-2.86-4.38-8.09-8.6-8.52-14.15-.44-5.77,3.8-8.35,8.76-6.84,25.27,7.64,42.36-17.82,52.69-37.17,4.8-9,9.07-22.93-2.48-28.75-9-4.54-19.42-.67-28.91-2.13-4.16-.64-8.64-2.03-11.72-5.09-1.29-1.28-2.61-3.09-2.91-4.95s-.23-1.83,1.4-2.85c1.38-.86,2.87-1.57,4.3-2.33,11.26-5.92,23.32-10.88,36.05-12.09,10.68-1.02,21.91.84,31.25,6.36,9.18,5.42,13.72,14.38,20.49,22.22,6.43,7.45,14.88,10.17,22.71,2.95,3.55-3.27,6.31-7.39,10.17-10.33,4.58-3.48,10.12-4.4,15.71-3.73,10.89,1.3,20.48,7.77,31.44,8.56,7.54.54,17.64-1.03,21.16-8.87,4.73-10.54-5.65-19.57-13.19-24.94-10.54-7.49-21.03-15.06-31.54-22.59-21-15.04-42.62-28.92-66.53-38.76-23.92-9.84-49.22-16.21-74.89-18.93-12.84-1.36-25.77-1.81-38.66-1.33-13.45.5-26.68,2.77-40.09,3.74-6.91.5-13.83.41-20.64-.97-6.66-1.34-12.8-2.83-19.65-1.93-12.33,1.62-24.06,7.83-36.74,6.26-5.81-.72-10.31-3.28-14.6-7.21s-8.45-7.26-14.49-6c-11.69,2.45-16.66,15.59-26.83,20.66-10.8,5.38-19.21-3.53-25.81-11.15-7.84-9.04-16.96-16.42-27.94-21.17-9.04-3.91-19.57-5.25-27.62-11.28-3.72-2.79-6.24-6.53-7.21-11.14-1.06-5.01-.33-10.5-2.34-15.29-4.73-11.34-20.92-2.94-26.06-13.33-2.47-4.99,3.12-9.86,6.17-13.14,3.87-4.16,8.13-7.92,12.62-11.36,18.13-13.89,39.56-21.79,58.69-33.92,13.75-8.72-3.14-17.28-10.94-21.38-11.19-5.88-23.17-11.24-35.93-11.9s-25.68,4.74-37.76,9.79c-13.08,5.48-26.17,10.95-39.25,16.43"/>
        <path class="cls-3" d="M513.07,547.11c-2.08,6.33-9.35,9.49-7.28,16.87,0,4.22,5.2,6.33,10.39,5.27,6.24-2.11,13.51-5.27,19.75-1.05,11.43,8.44,16.63,20.03,27.02,29.52,4.16,3.16,8.32,8.44,14.55,4.22,8.32-6.33,8.32-16.87,13.51-24.25,8.32-9.49,20.79-10.54,31.18-3.16,15.59,10.54,32.22,20.03,51.97,16.87,29.1-5.27,56.13-11.6,86.27-7.38,28.06,5.27,53.01,12.65,79,22.14,7.28,2.11,15.59,6.33,22.87,2.11,2.08-1.05,2.08-4.22,0-6.33-16.63-7.38-39.5-2.11-51.97-20.03-2.08-3.16-6.24-3.16-10.39-4.22-8.32-1.05-17.67,0-25.99-1.05-23.91-2.11-46.77,2.11-70.68,1.05-25.99-1.05-49.89-9.49-72.76-25.31-6.24-4.22-12.47-7.38-19.75-5.27-8.32,3.16-14.55,10.54-20.79,16.87-5.2,5.27-12.47,4.22-19.75,3.16-2.08-1.05-4.16-2.11-7.28-3.16-11.43-5.27-23.07-18.09-30.14-21.09-7.07-2.99-25.99-7.38-25.99-7.38,0,0-2.7-.55-4.63.45-2.17,3.19,11.91,6.93,10.87,11.15Z"/>
        <path class="cls-3" d="M1689.12,625.66c-11.44-10.94-22.87-21.89-34.31-32.83-2.05-1.96-4.33-4.04-7.15-4.28-5.72-.5-8.99,6.21-11.46,11.47-9.74,20.75-30.77,33.88-52.36,40.85-21.58,6.97-44.4,8.91-66.5,13.98-27.97,6.42-56.52,17.94-84.42,11.18-3.75-.91-7.88-2.57-9.23-6.23-2.01-5.48,3.55-11.16,2.83-16.96-.71-5.68-7.06-8.81-12.69-9.18-5.63-.37-11.41.95-16.86-.51-9.9-2.65-17.64-14.02-27.65-11.82-3.12.69-5.9,2.7-9.08,3.02-7.81.79-12.77-8.25-19.78-11.82-12.31-6.28-25.54,5.3-37.86,11.55-6.92,3.51-14.52,5.38-21.81,8.01-20.85,7.53-38.96,21.17-58.8,31.12-19.84,9.95-43.45,16.12-63.96,7.66-5.94-2.45-.74-10.91,1.9-16.83,4.44-9.95,1.89-23.94-7.99-28.3-8.62-3.81-18.96.87-27.9-2.09-8.77-2.9-14.52-12.62-23.63-14.11-9.78-1.61-17.98,6.76-25.71,13.06-15.43,12.57-35.75,18.79-55.46,16.97-12.23-1.13-25.44-6.38-30.4-17.78-7.61-17.49,8.17-37.69,3.77-56.28-1.92-8.11-7.44-14.75-11.6-21.94-8.16-14.1-11.21-30.7-18.81-45.12-14.72-27.97-44.33-44.19-73.26-56.18-6.84-2.83-13.96-5.68-19.04-11.12-7.58-8.12-9.83-21.21-19.45-26.67-8.53-4.84-19.36-1.48-27.72,3.65-8.36,5.14-15.91,12.04-25.31,14.78-14.66,4.28-30.08-2.48-45.33-3.01-12.17-.43-24.18,3.14-36.36,3.26-42.77.4-78.58-40.93-121.24-37.78-6.42.47-13.11,1.94-19.14-.35-6.03-2.29-6.31-12.68-6.17-15.48.13-2.79,4.77-26.72,19.04-45.64,14.27-18.93,13.18-21.13,15.37-26.06l1.51-4.26c1.79-5.41-4.75-9.67-10-10.84-5.24-1.17-10.85-.54-15.88-2.43-9.54-3.59-13.9-15.03-14.2-25.35-.3-10.32,2.28-20.61,1.44-30.9-.76-9.26-4.72-18.7-12.36-23.82-7.64-5.12-19.22-4.48-24.8,2.89-4.46,5.89-4.19,13.99-4.86,21.39-1.56,17.17-9.5,33.67-21.89,45.48-5.27,5.02-11.47,9.29-18.5,10.98-9.14,2.2-18.67-.12-27.87-2.07-12.79-2.72-25.72-4.74-38.73-6.05-5.66-.57-11.95-.84-16.4,2.76-8.1,6.54-3.65,20.53,4.61,26.86,8.26,6.33,19,8.56,27.35,14.77,8.39,6.23,13.58,15.83,18.5,25.12,6.08,11.46,11.73,26.88,2.81,36.23-10.29,10.8-28.8,2.01-42.73,7.1-9.55,3.48-16.45,13.42-26.54,14.5-14.79,1.58-28.7-16.73-42.07-10.12-10.69,5.29-9.48,20.89-14.25,31.94-4.19,9.7-13.71,16.22-23.77,19.06-10.06,2.84-20.7,2.46-31.11,1.66-10.66-.82-22.39-2.64-29.27-10.95-3.81-4.6-5.57-10.69-5.8-16.69-.56-14.61,7.72-28.76,19.65-36.97,11.93-8.2,27.01-10.87,41.34-9.34,5.05.54,10.74,1.4,14.73-1.79,3.66-2.93,4.41-8.16,4.9-12.86,1.53-14.83,3.07-29.66,4.6-44.49,1.24-12.03,2.45-24.45-1.03-36.01-2.97-9.85-9.23-18.62-10.91-28.78-1.93-11.65,2.44-23.39,7.47-34.05,3.98-8.44,8.62-16.88,15.81-22.74,7.19-5.86,17.5-8.63,25.85-4.63,9.41,4.5,13.44,15.55,18.24,24.92,4.79,9.37,13.74,18.99,23.87,16.57,11.13-2.66,14.08-16.84,17.36-27.95,10.32-34.98,47.16-59.75,82.94-55.77,12.36,1.37,25.31,5.67,36.82.9,13.24-5.49,19.49-23.71,12.47-36.35,12.71,3.69,25.43,7.39,38.14,11.08,10.13,2.94,22.32,8.43,22.59,19.11.27,11.08-13.22,18.91-12.62,29.98.41,7.62,7.3,12.97,13.55,17.23,18.31,12.48,36.61,24.95,54.92,37.43,2.86,1.95,5.8,3.93,9.16,4.68,11.15,2.49,22.46-9.21,33.17-5.21,11.48,4.29,11.84,22.64,22.87,28.01,0,0,12.48,3.3,16.98,11.07,4.49,7.77,5.46,13.49,7.93,15.92,2.47,2.43,11.93,14.15,15.75-2.41,3.82-16.57,3.37-10.15,3.82-16.57"/>
        <path class="cls-3" d="M1040.8,666.17c-4.41.31-8.11-1.33-12.09-3.3-20.89-10.33-41.67-18.76-60.38-33.52-7.28-6.33-11.43-14.76-12.47-23.2,0-10.54,7.28-17.92,11.43-27.41,2.08-4.22,1.04-9.49,0-13.71-10.39-25.31-19.75-50.61-37.42-70.64-4.16-4.22-10.39-6.33-16.63-8.44-9.35-4.22-16.63-9.49-21.83-18.98-6.24-8.44-17.67-4.22-25.99-7.38-10.39-3.16-16.63-12.65-23.91-22.14-5.2-5.27-12.47-6.33-18.71-3.16-12.47,8.44-25.99,14.76-41.58,12.65-10.39-2.11-21.83-4.22-32.22-3.16-14.55,2.11-28.06,3.16-42.62,2.11-8.32-1.05-15.59-3.16-23.91-5.27-3.12-1.05-6.24-2.11-9.35-3.16-18.71-8.44-36.38-17.92-55.09-26.36-7.28-3.16-15.59-5.27-23.91-4.22-10.39,2.11-20.79,6.33-31.18,5.27-10.39-2.11-18.71-7.38-25.99-14.76-7.28-9.49-9.6-24.02-5.2-32.69s22.49-18.97,28.04-27.27c5.54-8.31,5.3-10.23,6.05-13.3s3.49-11.9.46-16.89c-3.08-5.06-9.53-6.99-13.18-11.64-2.17-2.77-3.18-6.3-3.77-9.79-2.37-14.13,1.67-28.69-2.08-42.51-.59-2.16-1.55-4.23-3.04-6.17-3.12-4.22-6.24,2.11-9.35,4.22-5.2,5.27-5.2,12.65-8.32,18.98-8.32,20.03-17.67,39.01-32.22,54.83-6.24,5.27-16.63,9.49-21.83,2.11-13.51-20.03-56.8-24.93-60.29-21.09-3.49,3.84,3.12,7.38,7.28,8.44,14.55,3.16,27.02,9.49,32.22,25.31,3.12,11.6,12.47,18.98,18.71,29.52,4.16,7.38,6.24,15.82,4.16,23.2-1.04,2.11-2.08,3.16-3.12,5.27-9.35,12.65-23.91,11.6-37.42,12.65-6.24,1.05-14.02,1.84-17.67,3.16-3.65,1.32-7.28,3.16-7.28,3.16,0,0-13.51,8.44-20.56,12.17-15.75,7.5-33.08-22.49-46.33-9.47-13.24,13.03-3.76,33.68-15.61,45.47-8.92,8.87-22.56,9.22-34.26,9.59-15.43.48-31.43-.2-45.64-6.97-11.75-5.6-21.88-15.54-25.26-28.54-3.01-11.57-.49-23.82,4.53-34.42,2.31-4.89,5.87-8.55,8.8-13.05,2.94-4.52,6.01-9.22,10.77-11.96,8.68-4.99,19.08-8.15,28.43-9.21,7.28-2.11,14.55-4.22,17.67-9.49,8.32-17.92,9.35-37.96,11.43-56.94,1.04-17.92-7.28-33.74-12.47-50.61-1.04-6.33,0-12.65,2.08-17.92,10.39-22.14,21.83-43.23,39.5-60.1,11.43-11.6,28.06-6.33,38.46,4.22,8.32,9.49,9.87,30.11,23.91,29.52,14.04-.59,15.59-30.58,24.95-42.18,4.16-5.27,10.39-8.44,16.63-11.6,18.71-8.44,35.34-21.09,56.13-26.36,9.35-2.11,16.63,2.11,25.99,4.22,6.24,1.05,11.43,0,16.63-4.22,4.16-4.22,4.16-9.49,3.12-14.76-2.08-9.49-7.28-18.98-2.08-27.41,3.12-4.22,8.32-6.33,11.43-2.11,3.12,4.22,5.4,10.54,7.28,12.65s.28,1.31,5.2,5.27,35.34,9.49,53.01,9.49c8.32,0,15.59,2.11,20.79,8.44,10.39,13.71,2.08,30.58-2.08,46.39-2.08,8.44-2.08,17.92,6.24,24.25,7.28,5.27,14.55,9.49,21.83,15.82,6.24,4.22,12.47,10.54,20.79,9.49,9.35-2.11,17.67-9.49,27.02-9.49,4.16-1.05,9.35,1.05,12.47,4.22,10.39,12.65,17.67,26.36,25.99,41.12,4.16,6.33,10.39,6.33,14.55,1.05,6.24-10.54,6.24-23.2,7.28-34.79,1.04-4.22,2.08-9.49,6.24-12.65,9.35-5.27,17.67,2.11,24.95,6.33,6.24,3.16,14.55,1.05,19.75-3.16,7.28-6.33,9.35-15.82,10.39-25.31,0-9.49,0-20.03,4.16-29.52,4.16-8.44,13.51-17.92,23.91-12.65,14.55,8.44,8.32,27.41,7.28,41.12,0,12.65,10.39,22.14,21.83,26.36,12.47,4.22,24.95,4.22,37.42-1.05,10.39-5.27,13.51-15.82,18.71-25.31,5.2-8.44,16.63-7.38,21.83,1.05,8.32,12.65,10.39,26.36,19.75,37.96,1.04,1.05,4.16,1.05,5.2,0,13.51-11.6,23.91-25.31,34.3-39.01,6.24-6.33,11.43-13.71,19.75-16.87,5.2-2.11,9.35,2.11,11.43,6.33,1.04,4.22,3.12,8.44,4.16,13.71,1.04,9.49-2.08,17.92-1.04,27.41,1.04,15.82,19.75,16.87,31.18,22.14,10.39,0,22.87,5.27,31.18-3.16,5.2-6.33,0-13.71-2.08-20.03-2.08-6.33,4.16-10.54,9.35-11.6,7.28-1.05,13.51,1.05,20.79-1.05,5.2-1.05,11.43-7.38,7.28-13.71-3.12-4.22-9.35-5.27-13.51-9.49-8.32-9.49-4.16-22.14,0-32.69,1.04-2.11,2.08-5.27,3.12-7.38,3.12-6.33,7.28-12.65,10.39-18.98,4.16-9.49,15.59-10.54,24.95-13.71,6.24-3.16,10.39-8.44,16.63-11.6,11.43-5.27,24.95-1.05,34.3,6.33,10.39-1.05,17.67-8.44,23.91-17.92,9.35-13.71,21.83-23.2,38.46-26.36,5.2-1.05,5.2-7.38,8.32-10.54,3.12-3.16,8.32-5.27,12.47-4.22,13.51,3.16,25.99,9.49,38.46,2.11,10.39-7.38,17.67-18.98,15.65-31.49"/>
        <path class="cls-3" d="M941.58,576.75c-.94,4.05-2.9,7.82-3.66,11.91-2.73,14.86,10.5,27.27,16.13,41.26.65,1.62,1.21,3.43.66,5.09-1.53,4.62-8.45,2.83-12.24-.16-17.48-13.81-28.41-35.81-28.94-58.28-.14-5.71.36-11.45-.43-17.11-2.57-18.38-20.47-33.16-38.73-31.99-5.29.34-10.59,1.83-15.82.96-4.97-.83-9.33-3.7-13.69-6.24-11.76-6.84-26.75-11.56-38.52-4.73-6.66,3.87-12.22,11.31-19.89,10.79-12.72-.86-17.08-22.63-29.8-21.85-6.85.42-11.71,7.69-18.52,8.58-3.8.5-7.7-1.09-11.44-.27-3.06.67-5.7,2.89-8.82,3.17-3.21.28-6.18-1.54-8.94-3.23-15.79-9.68-32.88-17.17-50.65-22.22-8.14-2.31-16.53-4.16-23.94-8.28-7.41-4.12-13.89-11.05-15.05-19.54-.58-4.25.13-8.88-1.95-12.62-2.71-4.88-8.92-6.2-14.35-7.17-20.48-3.67-40.58-9.49-59.88-17.34-1.95-.79-4.3-2.59-3.36-4.5,14.58-3.16,28.81,9.85,43.55,7.54,4.62-.73,8.91-2.94,13.52-3.76,11.55-2.06,22.64,4.72,32.47,11.2,27.56,18.15,57.06,36.73,89.9,37.69,16.3.47,32.47-3.49,48.78-3.29,17.01.21,34.94,4.79,50.46-2.29,5.91-2.69,12.34-7.08,18.27-4.42,7.1,3.18,7.39,13.91,13.59,18.66,2.54,1.94,5.76,2.63,8.85,3.39,16.33,4,31.95,11.42,44.83,22.36,10.36,8.8,18.84,19.84,24.79,32.14,2.7,5.58,4.62,9.79,8.47,14.47,4.44,5.39,5.9,13.32,4.33,20.09Z"/>
        <path class="cls-3" d="M256.67,406.84c-.81,5.49,1.93,11.48,6.84,13.94,3.26,1.63,7.07,1.67,10.68,1.3,4.22-.44,8.39-1.39,12.39-2.83,2.84-1.02,5.69-2.37,7.58-4.74,3.03-3.8,2.8-9.57.34-13.76s-6.76-7-11.27-8.73c-10.93-4.21-24.7,2.25-26.57,14.83Z"/>
        <path class="cls-3" d="M377.55,376.32c.23,1.15.58,2.33,1.4,3.16,1.11,1.13,2.8,1.36,4.36,1.49,3.01.26,6.16.36,8.9-.93,2.69-1.27,4.62-3.71,6.74-5.82,2.86-2.85,6.22-5.18,9.87-6.87,2.33-1.07,4.92-1.99,6.41-4.11,2.25-3.21.8-8.02-2.24-10.47-5.94-4.78-18.26-4.06-24.56-.22-7.93,4.84-12.73,14.47-10.87,23.75Z"/>
        <path class="cls-3" d="M330.37,251.42c1.18,1.89,2.73,3.51,4.27,5.1,1.57,1.63,3.14,3.26,4.71,4.89,1.7,1.77,3.78,3.68,6.19,3.38,2.45-.3,4.03-2.73,5.15-4.96,3-5.96,5.29-12.4,5.74-19.07s-1.05-13.63-5-18.99c-2.48-3.36-6.32-6.16-10.44-5.74-15.48,1.57-17.21,24.82-10.63,35.39Z"/>
        <path class="cls-3" d="M371.42,346.13c-.9,3.42-1.81,6.85-2.71,10.27-1.94,7.34-3.89,15.04-2.21,22.44,1.68,7.41,8.27,14.26,15.71,13.37,7.02-.84,11.6-7.7,17.6-11.49,8.02-5.06,18.2-4.42,27.3-6.99,5.4-1.53,11.11-5.09,11.8-10.74.5-4.1-1.81-7.97-4.22-11.29-6.07-8.38-13.5-15.91-22.44-21.01-7-3.99-19.81-9.31-27.88-5.82-7.56,3.27-11.04,14-12.96,21.26Z"/>
        <path class="cls-3" d="M458.55,239.47c2.52,1.09,5.8.71,7.55-1.44,4.98-6.11-1.51-17.86-9.27-16.66-9.75,1.5-4.67,15.33,1.73,18.1Z"/>
        <path class="cls-3" d="M444.99,209.05c0,6.03-.58,12.06-1.72,17.98-.47,2.44-1.04,4.95-.58,7.4.59,3.11,2.78,5.67,5.18,7.7,4.57,3.87,10.22,6.42,16.11,7.27,1.52.22,3.11.33,4.57-.15,3.26-1.06,5-4.61,6.07-7.9,2.14-6.6,2.98-14.06,0-20.32-1.51-3.18-3.92-5.85-5.57-8.96-3.15-5.95-3.29-12.99-3.75-19.72-.17-2.48-.51-5.21-2.35-6.84-1.01-.9-2.34-1.32-3.66-1.57-16.72-3.07-14.31,13.71-14.31,25.12Z"/>
        <path class="cls-3" d="M447.7,174.11c14.97-11.35,33.63-17.6,52.32-17.52,3.77.02,8.12.61,10.16,3.82,1.76,2.78,1.07,6.45-.05,9.55-3.14,8.72-9.26,16.3-17.06,21.15-2.4,1.49-5.12,2.92-6.25,5.54-.69,1.62-.66,3.45-.59,5.21.42,10.9,1.46,21.8.93,32.69-.53,10.89-2.72,21.94-8.3,31.26-1.1,1.83-2.44,3.69-4.41,4.45-1.48.57-3.12.45-4.68.17-10.85-1.95-18.97-10.78-27.93-17.29-4.01-2.91-8.43-5.53-11.2-9.67-4.89-7.3-3.34-17.03-1.61-25.67,1.82-9.03,2.91-18.64,5.55-27.46,2.04-6.82,7.62-12.05,13.11-16.22Z"/>
        <path class="cls-3" d="M477.38,186.14c.79.73,1.71,1.32,2.74,1.61,2.62.75,5.37-.54,7.65-2.06,3.02-2.02,5.85-4.71,6.79-8.25,2.4-9-8.2-11.02-14.41-8.13s-7.77,12.24-2.77,16.83Z"/>
        <path class="cls-3" d="M339.48,387.71c8.24-7.5,16.04-6.51,16.88-6.93,2.44-1.21,1.66-4.86.8-7.47-4.66-14.05-.77-29.38,3.14-43.67,1.37-5,2.9-10.27,6.65-13.79,2.68-2.51,6.35-3.96,8.38-7.03,2.86-4.31,1.5-10.04,1.64-15.23.21-7.88,4.42-15.53,10.91-19.86,3.54-2.36,7.69-3.79,10.84-6.65,3.15-2.86,4.98-8.03,2.42-11.44-.99-1.32-2.47-2.15-3.9-2.95-5.81-3.23-11.63-6.46-17.44-9.69-.51-.28-1.05-.57-1.63-.55-1,.05-1.71,1.01-2.16,1.92-2.6,5.19-2,11.38-3.2,17.08-1.89,8.97-8.64,16.71-17.18,19.72-3.16,1.11-6.62,1.66-9.3,3.69-4.47,3.4-5.36,9.71-5.89,15.35-1.4,14.95-2.81,29.9-4.21,44.85-.61,6.48-1.23,13.02-3.25,19.19-1.24,3.79-3.02,7.44-3.52,11.4s7.54,14.51,10.01,12.07Z"/>
        <path class="cls-3" d="M600.86,233.95c-1.82,2.91-3,7.16-.5,9.5,1.84,1.73,4.69,1.43,7.2,1.31,5.61-.27,11.23.88,16.84.47s11.61-2.9,13.92-8.09c2-4.5.41-10.35-3.59-13.17-11.9-8.4-27.08-.86-33.87,9.99Z"/>
        <path class="cls-3" d="M1080.67,302.87c-3.04,1.75-6.7,1.82-10.2,1.85-1.22,0-2.44.02-3.64-.18-2.67-.45-5.08-1.9-7.26-3.53-9.35-7-13.48-17.88-18.49-28.03-1.04-1.05-3.12-3.16-5.2-3.16-9.35,0-19.75,2.11-29.1,3.16-10.39,1.05-19.75,1.05-29.1-3.16-7.28-4.22-14.55-10.54-21.83-14.76-8.32-4.22-17.67-2.11-25.99,3.16-13.51,9.49-28.06,25.31-45.73,16.87-2.08-1.05-5.2-2.11-7.28-3.16-12.47-9.49-28.06-4.22-41.58-8.44-10.39-3.16-27.02-20.03-34.3-4.22-2.08,7.38,0,14.76-1.04,22.14-3.12,13.71-11.43,27.41-27.02,29.52-8.32,1.05-16.63-2.11-25.99-1.05-11.43,2.11-24.95,7.38-34.3-2.11-4.16-4.22-4.16-9.49-3.12-14.76,3.12-12.65,11.43-23.2,5.2-35.85-7.28-13.71-22.87-15.82-35.34-7.38-9.35,5.27-20.79,1.05-28.06-7.38-6.24-8.44-9.35-17.92-17.67-24.25-17.67-12.65-37.42,3.16-44.69,20.03-1.04,2.11-2.08,5.27-3.12,7.38-2.08,5.27-4.16,11.6-1.04,16.87,2.08,4.22,7.28,4.22,10.39,3.16,7.28-4.22,15.59-8.44,22.87-2.11,7.28,6.33,9.35,16.87,20.79,16.87,5.2-1.05,11.43-6.33,15.59-2.11,8.32,9.49,12.47,21.09,10.39,33.74-3.12,11.6-14.55,16.87-22.87,24.25-8.32,9.49-5.2,22.14,0,32.69,1.04,1.05,0,3.16-1.04,4.22-1.04,2.11-4.16,1.05-6.24,0-10.39-8.44-22.87-9.49-33.26,0-4.16,2.11-11.43,1.05-11.43-3.16-3.12-15.82,7.28-28.47,16.63-41.12,3.12-4.22,7.28-7.38,12.47-9.49,7.28-2.11,14.55-1.05,20.79-3.16,4.16-2.11,8.32-4.22,7.28-10.54-1.04-2.11-2.08-4.22-4.16-5.27-4.16-3.16-9.35-4.22-13.51-6.33-7.28-5.27-10.39-12.65-17.67-17.92-2.08-1.05-4.16-2.11-6.24-3.16-9.35,0-21.83,4.22-28.06-5.27-5.2-9.49-3.12-20.03,1.04-29.52,4.16-9.49,11.43-18.98,20.79-24.25,17.67-8.44,37.42,0,49.89,14.76,7.28,7.38,15.59,15.82,27.02,12.65,12.47-3.16,25.99-8.44,36.38,0,9.35,9.49,13.51,21.09,15.59,34.79,1.04,5.27,3.12,9.49,7.28,12.65,4.16,2.11,8.32,5.27,12.47,6.33,5.2,1.05,10.39,2.11,16.63,1.05,5.2-1.05,10.39-2.11,14.55-6.33,10.39-10.54,6.24-26.36,9.35-40.07,5.2-22.14,29.1-6.33,43.66-6.33,12.47-1.05,16.63-13.71,19.58-24.56,6.48,4.26-2.7,10.53,0,0,5.36,4.53,5.36,11.91,8.48,17.18,2.08,4.22,6.24,6.33,10.39,6.33,7.28,0,14.55,0,22.87,2.11,5.2,1.05,10.39,2.11,15.59,0,14.55-6.33,27.02-23.2,43.66-13.71,7.28,5.27,13.51,10.54,21.83,13.71,17.67,5.27,35.34,7.38,53.01,9.49,13.51,2.11,24.95,8.44,36.38,15.82,23.91,0,46.77-9.49,70.33-11.92"/>
        <path class="cls-3" d="M674.18,294.06c.16,9.17,18.71,5.29,12.84,20.86-5.87,15.57-5.02,13.4-5.02,13.4l-.55,1.59c-3.12,6.33-11.43,10.54-12.47,18.98,0,2.11,3.12,5.27,5.2,5.27,11.43,0,21.83-7.38,34.3-4.22,4.16,1.05,8.32,3.16,8.32,6.33,3.12,7.38-3.12,15.82,0,23.2,2.08,4.22,7.28,4.22,10.39,3.16,9.35-4.22,17.67-9.49,28.06-8.44,7.28,1.05,14.55,5.27,21.83,4.22,20.79-1.05,21.83-27.41,33.26-42.18,2.08-2.11,4.16-5.27,5.2-7.38,15.59-20.03,41.58-5.27,60.29,2.11,4.16,1.05,9.35,3.16,11.43-2.11,4.16-17.92-12.47-33.74-27.02-40.07-4.16-1.05-8.32,2.11-12.47,1.05-10.39-3.16-25.99-11.6-30.14,2.11-5.2,11.6-13.51,22.14-23.91,27.41-14.55,7.38-30.14,3.16-45.73,1.05-8.32-1.05-16.63,3.16-24.95,5.27-9.35,1.05-17.67-1.05-23.91-8.44-8.32-13.71,2.08-26.36,5.2-40.07,1.04-6.33-5.23-14.04-7.28-14.76s-2.94-1.02-7.54.3c-4.6,1.31-10.74,4.79-11.9,8.56-1.16,3.77-3.43,22.77-3.43,22.77Z"/>
        <path class="cls-3" d="M672.47,308.63c4.85,3.3,5.32,10.64,2.98,16.07-2.34,5.42-6.74,9.59-10.38,14.22-3.22,4.09-5.89,8.62-7.93,13.43-1.69,4-2.96,8.34-2.46,12.67.5,4.33,3.09,8.62,7.14,10.05,6.12,2.17,12.31-2.54,17.29-6.75,4.98-4.21,11.76-8.42,17.49-5.34,5.28,2.84,6.11,10.12,5.56,16.15-.54,6.03-1.64,12.7,1.78,17.67,4.11,5.98,12.78,6.4,19.7,4.47,6.93-1.93,13.52-5.61,20.7-5.75,7.83-.15,15.04,3.9,22.28,6.9s15.91,4.91,22.6.78c7.73-4.77,9.36-15.14,12.6-23.71,2.37-6.27,5.98-12.05,10.54-16.92,4.35-4.64,10.21-8.63,16.49-8.02,4.63.45,8.66,3.31,12.37,6.15,8.28,6.33,16.31,13.07,23.39,20.75,1.5,1.62,3,3.32,4.96,4.31,4.14,2.07,9.21.48,13.63,1.86,6.09,1.9,9.14,8.68,11.08,14.84s3.95,13.03,9.41,16.35"/>
        <path class="cls-3" d="M610.72,339.15c-2.86,4.94-5.48,10.02-7.86,15.22-.55,1.2-1.07,2.64-.4,3.77.52.87,1.59,1.22,2.59,1.33,2.22.25,4.53-.39,6.32-1.74,2.02-1.52,3.45-3.92,5.81-4.77.7-.25,1.47-.36,2.13-.71.75-.4,1.32-1.08,1.84-1.75,1.94-2.48,3.68-5.11,5.21-7.87.51-.93,1.01-1.88,1.21-2.93.45-2.32-.66-4.73-2.31-6.39-6.64-6.7-10.88-.5-14.55,5.84Z"/>
        <path class="cls-3" d="M1338.45.8c6.15,4.35,1.99,12.79-3.2,15.95-4.16,3.16-9.35,1.05-13.51-1.05-6.24-1.05-12.47-5.27-18.71-4.22-10.39,1.05-14.55,12.65-21.83,20.03-6.24,5.27-14.55,4.22-21.83,7.38-7.28,3.16-11.43,10.54-17.67,15.82-5.2,4.22-10.39,6.33-16.63,7.38-14.55,1.05-29.1-1.05-42.62,6.33-7.28,4.22-13.51,8.44-20.79,13.71-9.35,8.44-14.55,17.92-21.83,27.41-8.32,12.65-14.55,25.31-16.63,40.07-1.04,7.38,4.16,11.6,5.2,17.92,1.04,12.65-15.59,10.54-23.91,15.82-4.16,4.22-4.16,10.54-6.24,15.82-2.08,6.33-9.35,9.49-16.63,6.33-4.16-3.16-6.24-8.44-7.28-12.65-4.16-18.98-5.2-39.01-18.71-53.77-16.63-8.44-25.99,12.65-35.34,23.2-1.04,1.05-2.08,1.05-3.12,2.11-4.16,6.33-8.32,12.65-15.59,15.82-7.28,2.11-14.55-2.11-17.67-8.44-6.24-15.82-20.79-33.74-39.5-26.36-4.16,2.11-5.2,9.49-9.35,12.65-15.59,10.54-36.38,9.49-48.85-3.16-6.24-7.38-6.24-18.98-3.12-28.47,2.08-6.33-1.04-13.71-7.28-15.82-15.59-6.33-31.18,4.22-42.62,14.76-6.24,6.33-10.39,14.76-11.43,23.2,0,7.38-1.04,14.76-1.04,22.14,0,2.11-1.04,4.22-2.08,6.33-1.04,1.05-2.08,3.16-3.12,5.27-5.2,4.22-12.47,7.38-18.71,4.22-8.32-5.27-15.59-13.71-25.99-9.49-7.28,3.16-12.47,9.49-15.59,15.82-1.04,3.16,1.04,8.44-1.04,11.6s-6.24,1.05-9.35-1.05c-11.43-8.44-19.75-23.2-35.34-21.09-12.47,10.54-32.22,9.49-42.62-4.22-16.63-20.03-9.35-46.39-12.47-69.59,0-9.49-9.35-16.87-18.71-18.98-23.91-5.27-57.17,2.11-64.44-28.47-2.08-5.27-8.32-8.44-13.51-9.49-13.51-2.11-27.02,5.27-34.3,17.92-5.2,10.54,0,23.2-2.08,34.79,0,3.16-6.24,2.11-9.35,1.05-12.47-7.38-28.06-9.49-39.5,1.05-10.39,10.54-20.79,22.14-35.34,26.36-7.28,2.11-14.55,2.11-21.83,5.27-3.6,1.57-5.64,7.01-7.24,10.28-2.67,5.45-.32,13.47-8.94,17.81-8.61,4.35-21.79-19.69-21.79-19.69"/>
        <path class="cls-3" d="M855.75-.54c-12.15,9.91-7.99,24.67-13.19,37.33-3.12,8.44-8.32,14.76-15.59,20.03-8.32,6.33-14.55,11.6-21.83,17.92-1.04,1.05-3.12,1.05-4.16,2.11-10.39,9.49-20.79,16.87-27.02,30.58-5.2,11.6-18.71,11.6-30.14,10.54-6.24-1.05-13.51-6.33-13.51-12.65,0-14.76,2.08-31.63-12.47-42.18-4.16-3.16-8.32-3.16-11.43-7.38-4.16-5.27-4.16-12.65-5.2-18.98s-4.16-11.6-9.35-14.76c-11.43-6.33-21.83-10.54-34.3-12.65-10.39-1.05-21.83,2.11-30.14,9.49-3.12,2.11-6.24,1.05-8.75.3-3.94-1.18-6.28-3.54-8.74-6.88-2.46-3.34-4.09-7.24-5.26-11.24.25-.3.68-.43,1.05-.32"/>
        <path class="cls-3" d="M499.85,2.39c-5.95,4.86-2.03,15.64,5.04,18.58,7.06,2.95,15.08.67,22.37-1.63,7.16-2.26,14.33-4.52,21.49-6.78,9.02-2.84,19.01-5.64,27.61-1.69,12.81,5.89,18.13,24.88,32.13,26.31,10.42,1.06,18.96-8.7,29.31-10.39,7.71-1.25,15.59,2.25,21.44,7.5,5.86,5.25,10.05,12.1,14.15,18.84,10.73,17.62,21.83,36.6,21.16,57.3-.28,8.57-1.54,19.4,5.86,23.54,7.4,4.14,17.48-2.7,24.78,1.61,4.33,2.55,6.54,8.52,11.45,9.5,6.83,1.38,10.98-7.66,17.36-10.48,7.62-3.36,18.4,2.27,23.87-4.08,2.17-2.51,2.53-6.06,3.27-9.32,3.66-16.17,17.83-27.46,31.74-36.2,13.91-8.74,29.14-16.94,37.7-31.08,7.52-12.42,9.75-29.12,21.86-36.96,8.04-5.21,18.63-4.85,27.56-1.44,8.93,3.41,16.56,9.51,24.04,15.52,4.76,3.83,9.65,7.81,12.56,13.22,2.9,5.4,3.53,12.01,1.72,17.87-1.5,4.86-4.62,9.9-2.79,14.64,2.36,6.13,10.71,6.49,17.1,5.34,6.39-1.15,14.26-2.2,18.17,3.04"/>
        <path class="cls-3" d="M-1.41,190.4c4.64,8.42,9.28,16.84,13.93,25.26,4.43,8.03,8.95,16.38,9.68,25.55.84,10.58-3.46,20.77-6.04,31.05-7.65,30.56-.06,62.68,7.51,93.26,4.81,19.42,9.69,39.03,18.7,56.84,9.01,17.81,22.67,33.92,40.76,41.93,3.51-8.51,1.33-18.39-2.53-26.75-3.85-8.36-9.29-15.93-12.7-24.48-9.93-24.95-1.09-53.1,7.77-78.46,4.64-13.29,9.34-26.71,16.82-38.6,5.74-9.13,13.03-17.19,18.67-26.38,8.03-13.09,12.54-28.37,12.93-43.77.36-14.32-2.75-28.74-.68-42.91,3.69-25.22,22.79-44.84,40.87-62.55,15.58-15.25,31.16-30.5,46.74-45.76,18.24-17.85,36.66-35.86,58.28-49.28,18.09-11.23,38.22-19.07,59.07-23.01"/>
        <path class="cls-3" d="M-.42,154.82c14.27,8.93,25.21,22.85,31.89,38.46,6.67,15.61,9.22,32.84,8.76,49.85-.59,21.44-5.84,42.57-6.17,64.02-.38,24.65,5.92,49.38,18.03,70.75,7.96-4.83,9.37-15.87,8.84-25.27-.87-15.57-4.39-32.29,2.98-45.97,2.1-3.89,5.08-7.54,5.49-11.95.57-6.22-4.05-11.49-7.03-16.96-5.85-10.72-5.64-23.61-5.88-35.86-.42-21.11-2.78-42.6-11.42-61.81-8.64-19.21-34.48-37.53-44.45-41.55"/>
        <path class="cls-3" d="M537.17,312.35c2.56,2.42,5.66,4.44,7.27,7.59,2.91,5.69-.23,12.81-4.82,17.2s-10.51,7.13-15.23,11.39c-8.95,8.06-12.69,21.58-9.17,33.19,1.34,4.44,3.14,10.4-.77,12.8-2.55,1.57-5.77.25-8.7-.28-5.72-1.02-8.75,4.89-15.33,6.27-6.58,1.39-2.54-9.47-1.26-14.26,1.28-4.79,3.15-9.69,2.21-14.56-1.85-9.59-13.45-14.33-16.48-23.61-.84-2.57-.4-6.19,2.18-6.86.92-.24,1.89-.01,2.83.17,13.7,2.72,28.76-4.52,35.34-17.01,2.68-5.09,4-25.3,8.11-27.59,5.36-2.99,10.63,12.53,13.83,15.55Z"/>
      </g>
    </g>
  </g>
</svg>