<?xml version="1.0" encoding="UTF-8"?>
<svg xmlns="http://www.w3.org/2000/svg" viewBox="0 0 636.58 351.89">
  <defs>
    <style>
      .cls-1 {
        fill: #aea181;
        font-family: PangMenZhengDaoBiaoTiTiMianFeiBan-4Regular, PangMenZhengDaoBiaoTiTiMianFeiBan-4;
        font-size: 222px;
      }

      .cls-2 {
        stroke-width: 0px;
      }

      .cls-3 {
        fill: #2d496c;
        stroke: #000;
        stroke-miterlimit: 10;
        stroke-width: 2px;
      }
    </style>
  </defs>
  <g id="accout">
    <g id="a">
      <path class="cls-3" d="m41.5,162.37c-1.96-.68-9.96-3.19-18.82.58-2.54,1.08-9.29,4.43-12.95,12.17-2.81,5.93-2.34,11.33-2.12,13.42.69,6.78,3.81,11.3,5.69,14.02.73,1.06,2.54,3.55,5.62,5.78,1.98,1.43,4.23,3.06,6.06,2.32.88-.36,1.52-1.18,2.65-4.57,1.2-3.58,1.7-6.05,2.12-7.78,1-4.11,1.58-4.15,3.56-10.22.67-2.04,1.57-5.01,2.47-8.71-1.34-.41-2.67-.82-4-1.23-2.51.12-5.56.74-7.5,2.97-2.65,3.06-2.24,8.03-3.09,8.03-.1,0-.47-.07-.9-1.89-.37-1.56-1.86-7.88,2.24-12.92,1.88-2.31,4.1-3.32,5.53-3.97,4.91-2.23,10.9-2.17,10.9-2.17h0c.85-1.94,1.69-3.89,2.54-5.83Z"/>
      <path class="cls-3" d="m23.24,214.33c-1.92-.43-4.72-1.28-7.69-3.07-10.93-6.57-14.93-20.33-14.51-30.67.32-7.94,3.22-13.63,4.13-15.31.88-1.61,4.14-7.31,10.89-11.99,2.61-1.81,7.75-5.38,14.99-5.94,5.59-.43,10.7,1.07,12.37,1.57,5.94,1.8,8.1,3.73,10.89,3.01.63-.16,4.12-7.54,4.12-7.54,0,0,3.32-2.8,5.06-3.9,1.74-1.1,4.05-1.82,4.05-1.82-1.96,2.58-3.22,4.85-4.02,6.48-.88,1.79-1.1,2.6-1.19,3.41,0,0-.1.92.34,4.45h0l4.54,20.18,8.78,36.56c.64,2.36,1.28,4.72,1.93,7.08.17.72.64,2.24,1.97,3.62,1,1.04,2.07,1.57,2.72,1.83,1.27-1.19,2.53-2.38,3.8-3.57,1.79-.1,3.57-.2,5.36-.29-1.43.79-3.42,2.15-5.06,4.41-1.06,1.46-1.7,3.07-3,6.29-.9,2.24-2.33,4.28-2.96,6.61-.05.2-.21.79-.72,1.22-.22.19-.75.54-1.94.5-2.4-.07-4.28-1.62-5.13-2.33-.37-.31-.78-.71-1.58-1.51-1.02-1.02-1.85-1.91-2.06-2.15-2.54-2.81-2.52-7.06-3.94-7.24-.88-.11-1.62,1.44-3.12,3.91,0,0-1.01,1.66-5.28,7.56-3.95,5.46-6.09,8.34-9.15,8.56-1.8.13-3.12-.71-4.42-1.46-7.53-4.34-19.61-8.39-22.89-5.09-1.18,1.19-1.12,3.23-1.08,4.59.01.35.19,4.64,2.47,5.56,2.05.82,4.66-1.53,4.84-1.25.17.26-2.59,1.66-4.78,4.54-2.06,2.71-2.03,4.63-3.15,4.74-1.39.13-2.98-2.68-3.7-5.14-.93-3.21-.54-6.03,1.13-11.29,1.11-3.52,3.18-13.77,4.45-16.68,1.27-2.92,2.54-8.42,2.54-8.42Z"/>
      <path class="cls-2" d="m45.01,165.43c-1.94,4.73-1.83,4.39-1.9,4.62-1.45,4.61-4.02,13.06-4.49,14.59-1.99,6.5-2.99,9.75-4.02,12.4-1.82,4.66-3.03,6.82-2.12,7.78.95,1.01,3.27-.38,8.71-2.25t16.47-4.26s0,0,0,0c-1.54-5.69-6.58-24.18-8.89-31.36-.33-1.03-1.32-4.04-2.3-3.97-.46.04-.74.73-1.44,2.44Z"/>
      <path class="cls-2" d="m27.02,218.53c-.22,1.06-.58,2.65-1.19,4.54-.68,2.12-1.16,3.03-.72,3.72.67,1.05,2.88.73,3.9.62,2.47-.27,5.94.43,12.87,1.84,8.43,1.71,9.82,4.23,12.91,2.82.93-.42,2.29-2.08,5.02-5.38,3.14-3.81,3.52-5.04,3.59-6.09.09-1.37-.36-1.95-1.25-4.84-.77-2.5-1.22-4.58-1.47-5.92-11.22,2.9-22.44,5.8-33.66,8.7Z"/>
    </g>
    <g id="c">
      <path class="cls-3" d="m112.51,202.4s8.76-18.74,8.65-20.8-9.51-36.81-9.51-36.81c0,0,4.37-4.24,3.94-4.13s18.96,67.4,17.54,67.77-6.82-.63-9.46-.82-11.17-5.21-11.17-5.21Z"/>
      <path class="cls-3" d="m101.59,140.15s-16.51,28.02-16.26,28.99-.44,13.6.99,21.46c1.43,7.87,13.78,23.26,17.39,25.43,8.49,5.11,19.7,9.26,28.62,7.06,1.92-.47,6.01-1.78,10.4-3.72,3.24-1.43,5.48-2.42,7.98-4.13,1.79-1.23,9.86-5.56,11.58-14.36.64-3.26,2.26-12.98,1.54-11.76s-2.37,6.81-4.06,8.28-9.07,6.9-12.14,8c-3.07,1.1-9.68,3.23-9.89,2.56-.21-.67-18.42-67.18-18.42-67.18,0,0,18.44,3.44,20.12,1.97s9.36-14.81,7.53-14.34-12.19,1.85-15.86.87c-3.67-.98-10.87-2.26-10.87-2.26l-20.47,30.11s10.48,36.54,10.98,38.48.81,7.13-1.28,5.03c-2.09-2.1-11.75-16.26-13.45-22.47-1.7-6.21-2.99-15.17-2.05-19.54s7.61-18.49,7.61-18.49Z"/>
    </g>
    <g id="c-2" data-name="c">
      <path class="cls-3" d="m189.96,182.38s8.76-18.74,8.65-20.8-9.51-36.81-9.51-36.81c0,0,4.37-4.24,3.94-4.13s18.96,67.4,17.54,67.77-6.82-.63-9.46-.82-11.17-5.21-11.17-5.21Z"/>
      <path class="cls-3" d="m179.04,120.13s-16.51,28.02-16.26,28.99-.44,13.6.99,21.46c1.43,7.87,13.78,23.26,17.39,25.43,8.49,5.11,19.7,9.26,28.62,7.06,1.92-.47,6.01-1.78,10.4-3.72,3.24-1.43,5.48-2.42,7.98-4.13,1.79-1.23,9.86-5.56,11.58-14.36.64-3.26,2.26-12.98,1.54-11.76s-2.37,6.81-4.06,8.28-9.07,6.9-12.14,8c-3.07,1.1-9.68,3.23-9.89,2.56-.21-.67-18.42-67.18-18.42-67.18,0,0,18.44,3.44,20.12,1.97s9.36-14.81,7.53-14.34-12.19,1.85-15.86.87c-3.67-.98-10.87-2.26-10.87-2.26l-20.47,30.11s10.48,36.54,10.98,38.48.81,7.13-1.28,5.03c-2.09-2.1-11.75-16.26-13.45-22.47-1.7-6.21-2.99-15.17-2.05-19.54s7.61-18.49,7.61-18.49Z"/>
    </g>
    <g id="o">
      <path class="cls-3" d="m272.26,86.94l-32.19,39.31c-.47-.03,3.21,26.87,5.85,34.64,2.58,7.57,11.53,16.64,16.41,19.52s22.54,2.5,26.21,1.49,11.21-5.98,20.48-16.66c9.42-10.84,14.24-20.32,15.29-28.74,1-8,2.82-13.38.8-20.87s-9.48-16.79-14.72-20.98c-7.81-6.24-19.92-8.03-20.68-8.08-6.31-.43-12.87-1.84-17.46.38Z"/>
      <path class="cls-2" d="m256.66,112.78c-2.08-.17-5.27,10.27-5.63,19.93-.23,6.17.74,10.79,1.32,13.09,1.37,5.43,2.58,10.26,6.66,13.77,0,0,.03.02.06.05,1.32,1.12,2.14,1.88,2.63,2.35.4.35,2.04,1.69,3.41,1.19.36-.13,1.49-.69,1.9-4.62.43-4.07-.4-7.16-1.01-9.66-.64-2.59-1.49-6.38-2.31-11.17-1.12-3.95-2.75-9.94-4.5-17.43-1.25-5.35-1.62-7.42-2.52-7.49Z"/>
      <path class="cls-2" d="m268.51,164.34c-.24-1.19.42-1.93,1.9-4.62,0,0,1.38-2.5,3.34-7.06,1.68-3.9,1.42-7.49,1.12-11.65-.53-7.32-3.44-20.9-9.1-37.88.94-.49,4.18-2.06,6.37-.67,1.19.76,1.63,2.37,2.47,5.56,1.3,4.95,1.95,7.42,2,7.75,1.19,7.12,4.57,22.43,7.54,33.17,1.6,5.78,2.77,11.68,4.5,17.43.21.7,1.22,4,.91,4.12-.02,0-.04,0-.05,0-.56-.21-6.23.29-9.07.07-1.98-.15-3.32-.71-5.59-1.65-3.17-1.32-5.92-2.46-6.34-4.56Z"/>
      <path class="cls-2" d="m274.76,102.17l4.29,15.03s4.12,5.24,12.26,4.12c8.14-1.13,14.88-7,13.16-9.65-2.78-4.3-9.56-8.75-14.87-9.58-2.47-.39-5.75-.43-6.31-.43-3.53-.05-6.47.25-8.53.53Z"/>
      <path class="cls-2" d="m281.83,123.91l4.71,18.21s7.57-5.96,11.87-7.65c4.3-1.69,16.7,2.33,16.7,2.33.32-1.74.59-4.28.18-7.28-.51-3.73-1.79-6.2-3.47-9.43-1.73-3.33-3.24-6.24-4.66-6.03-1.24.19-1.09,2.51-3.67,5.29-.77.83-1.8,1.65-3.35,2.47-4.79,2.53-6.76,2.52-10.38,2.68s-7.93-.59-7.93-.59Z"/>
      <path class="cls-2" d="m291.03,159.55l1.75,6.78,1,3.87c1.3-.68,3.1-1.67,5.16-2.99,3.79-2.4,6.04-3.85,8.44-6.36.56-.58,4.28-4.57,6.13-10.21.69-2.1.87-3.66.94-4.37.17-1.95.33-3.69-.28-5.09-1.68-3.83-8.87-4.5-13.37-3.77-3.49.56-5.98,2.06-7.5,2.97-2.67,1.61-4.3,2.52-5.06,4.41-.58,1.44-.33,2.63,1.03,8,.42,1.65,1.01,3.97,1.75,6.78Z"/>
    </g>
    <g id="u">
      <path class="cls-3" d="m329.23,97.81c-.77-2.73-1.85-7.18-2.03-11.87-.07-1.79,0-3.48.69-5.34.62-1.67,1.49-2.8,2.15-3.66.38-.48,2.01-2.52,5.06-4.41,1.99-1.23,3.64-1.8,5.56-2.47,1.81-.63,3.5-1.21,5.81-1.5,3.28-.41,6.09,0,7.28.18,2.51.38,3.33.85,5.34.69,2.05-.17,3.55-.85,3.87-1,4.68-2.19,5.41-5.69,8.7-7.87,1.42-.94,2.97-.77,2.97-.77,1.43,7.97,2.75,13.32,3.73,16.83,0,0,2.08,7.45,3.2,11.8.5,1.94.75,2.9.75,2.9.4,1.55.34,1.65.5,1.94.36.66,1.15,1.32,4.62,1.9,3.01.51,4.51.76,6.31.43,2.61-.47,4.37-1.65,5.56-2.47,1.77-1.21,3.36-2.28,4.09-4.16.45-1.17.39-2.08-.78-7.03-1.49-6.26-2.21-8.29-3.72-10.4-.91-1.27-1.68-1.98-2.69-2.4-1.6-.68-3.57-.56-5.09.28,0,0-3.95,5.15-3.95,5.15,1.26-3.06,2.81-7.27,4.14-12.43,1.23-4.76,1.3-6.59,3.05-7.7,2.66-1.69,8.57,2.58,12.44,3.7.08.02,1.47.41,3.15.22,0,0,.52-.09.97-.25,1.5-.53,2.87-2.93,3.59-6.09.29,1.47.58,3.55.53,6.06-.03,1.61-.18,2.86-.22,3.15-.44,3.48-1.28,4.28-1.21,6.51.06,1.82.53,3.14.81,3.92,1.63,4.73,2.33,9.73,3.75,14.52,7.44,25.08,11.16,37.61,11.98,42.35.13.77.48,2.97,1.97,3.62,1.21.53,2.88-.1,3.87-1,1.2-1.08,1.32-2.47,1.44-2.44.23.06-.42,5.5-3.31,11.18,0,0-1.09,2.23-3.84,5.12-1.23,1.3-1.99,1.83-2.83,1.76-.56-.04-.94-.33-2.26-1.48-1.56-1.36-2.34-2.04-2.69-2.4-3.14-3.32-7.17-10.27-8.34-12.3-1.04,2.29-2.63,5.31-5.03,8.53-1.69,2.27-4.88,6.13-9.87,9.78-2,1.47-5.56,4.03-10.87,5.91-3.39,1.2-6.27,1.68-7.96,1.9-2.22.28-4.76.61-8.04.17-.84-.11-2.76-.54-6.56-1.4-6.94-3.76-11.47-7.93-14.15-10.8-2.87-3.07-4.21-5.26-4.66-6.03-.66-1.13-2.59-4.57-3.97-11.37-.9-4.42-1.95-9.62-1.1-16.24.87-6.73,3.25-11.4,7.36-19.46,1.39-2.72,2.73-5.33,5.03-8.53,1.29-1.8,2.37-3.07,6.24-7.81l-3.87,1c-1.94.5-3.87,1-5.81,1.5-2.03.59-3.69.99-4.84,1.25-1.89.43-2.64.53-3.87,1-1.66.63-2.8,1.4-3.62,1.97-1.15.79-3.65,2.54-5.78,5.62-2.78,4.03-3.39,8.12-3.56,10.22Z"/>
      <path class="cls-2" d="m366.89,75.68l-5.95,5.67c-.98,1.5-2.2,3.53-3.41,6.05-.95,1.98-2.18,4.52-3.09,8.03-1.32,5.09-1.2,9.25-1.12,11.65.1,2.95.46,5.11.78,7.03.87,5.23,2.15,9,2.75,10.65.96,2.65,1.44,3.97,2.47,5.56.62.95,2.43,3.69,5.62,5.78.09.06,1.28.76,3.66,2.15h0c2.13-4.23,2.56-7.68,2.59-9.96.06-4.45-1.39-6.28-4.5-17.43-.6-2.16-1.07-4.02-2-7.75-2.24-8.93-2.55-11.17-2.54-13.8.03-4.33.93-6.91,1.15-7.53,1.03-2.82,2.52-4.85,3.59-6.09Z"/>
      <path class="cls-2" d="m369.97,140.06c3.13-4.56,5.6-8.61,7.47-11.85,2.02-3.5,3.09-5.65,3.26-8.59.07-1.3-.04-2.47-.96-6.47-1.42-6.21-2.5-9.68-2.5-9.68-1.92-6.14-4.26-13.28-6.47-21.05-.37-1.29-1.3-4.64-1.28-8.96,0-2.24.28-6.53,1.17-6.63,0,0,.11,0,.24.07,1.22.72,20.24,74.3,20.24,74.3-1.8.91-4.83,2.13-8.71,2.25-3.54.11-6.23-.73-7.53-1.15-2.09-.68-3.74-1.53-4.91-2.24Z"/>
      <path class="cls-2" d="m390.12,117.71c.84-1.48,2.58-4.04,5.68-6.12,2.11-1.41,4.13-2.11,5.56-2.47,1.03.02,2.62.18,4.37.94,1.02.44,1.83.97,2.44,1.44,1.5,5.81,3,11.62,4.5,17.43-1.43,3.3-3.39,5.31-4.56,6.34-1.04.92-3.11,1.93-7.24,3.94-2.59,1.26-4.11,1.88-4.84,1.25-.36-.31-.31-.72-.5-1.94l-1-3.87c-.07-.25-1.25-4.84-1.25-4.84-.55-2.11-1.48-5.7-3.16-12.09Z"/>
      <path class="cls-2" d="m384.33,97.05s2.87,1.27,8.93.74c6.06-.53,10.27-5.7,10.27-5.7l4.09,15.82s-6.22-2.25-10.37-.48c-4.15,1.76-8.58,6.43-8.58,6.43l-4.34-16.8Z"/>
    </g>
    <g id="t">
      <path class="cls-3" d="m537.19,53.2c.58-7.87-1.87-15.1,1.3-18.93,3.72-4.49,8.4-11.47,14.92-14.19,6.53-2.72,17.87-6.69,21.29-5.5,3.42,1.18,24.5-1.17,25.47-1.42,0,0,6.19-.85,10.35-4.88,1.77-1.71,1.94-2.92,1.95-3.47.04-1.85-1.48-3.65-1.24-3.81.09-.06.34.17.37.2,1.34,1.42,4.25,8.25,3.1,11.99-1.15,3.74-4.46,8.08-6.68,10.33-4.09,4.16-13.92,6.18-13.77,6.66.31,1.02,16.14,60.72,15.77,61-1.01.72,2.44,0,6.65-4.09,11.18-10.85,9.87-23.93,9.87-23.93.98,2.76,3.14,9.99.63,18.43-2.17,7.3-6.69,11.62-8.87,13.65-13.59,12.68-32.92,10.12-36.79,9.51-4.85-.76-13.43-2.11-20.93-9.05-8.79-8.12-10.43-18.65-11.1-22.95-1.5-9.61.65-17.28,1.77-21.12,1.1-3.77,2.02-6.93,4.52-10.47,3.48-4.92,8.74-8.75,8.34-9.28-.08-.1-.31-.03-.41,0-2.9.75-8.87.62-16.46,4.25-2.9,1.39-4.23,2.25-5.1,3.23-.83.93-1.54,1.98-2.36,3.87-.91,2.09-2.09,5.43-2.59,9.96Z"/>
      <path class="cls-2" d="m568.79,31.6c-3.89,3.39-5.91,6.85-6.96,9.03-4.34,9.02-2.42,17.92-1.52,22.08.41,1.91,1.26,5.17,3.04,8.93,2.59,5.45,5.6,8.76,8.52,11.84,3.03,3.2,5.77,6.03,7.56,5.28.95-.4,1.28-1.68,1.44-2.44,1.57-7.51-1.58-18.45-2.6-22.05-2.59-9.19-1.61-7.4-4.25-16.46-1.93-6.6-3.78-12.12-5.22-16.21Z"/>
      <path class="cls-2" d="m581.08,90.91c1.07.86,2.7,1.99,4.87,2.87,1.08.44,3.22,1.19,6.56,1.4,4.31.27,12.64-.24,13.55-3.5.18-.66-.09-.86-1-3.87-.58-1.91-1-3.87-1.5-5.81-1.5-5.81-3-11.62-4.5-17.43-3.08-11.9-6.15-23.81-9.23-35.71-2.96.77-5.93,1.53-8.89,2.3,6.81,18.19,10.03,32.36,9.91,37.6-.1,4.13-1.15,7.53-1.15,7.53-.82,2.35-1.64,4.05-2.62,5.84-1.25,2.28-3.16,5.37-5.99,8.78Z"/>
    </g>
    <g id="n">
      <path class="cls-3" d="m441.66,79.22c.59-1.09,1.56-2.55,3.12-3.91,2.85-2.47,6.75-3.74,9.43-3.47.48.05,3.41.4,5.31.63.1.01.16.02.16.02l-3.45-13.36s22.64-27.75,25.79-27.53c11.01.76,23.22,2.81,30.01,9.78,4.28,4.39,6.6,9.34,7.76,12.47,1.94,5.24,2.29,9.87,2.29,12.84-.71,3.93-1.41,7.9-2.09,11.9-.56,3.26-1.1,6.49-1.62,9.71-.7,3.29-1.5,5.93-2.12,7.78-.78,2.32-1.62,4.85-3.09,8.03-.7,1.53-1.31,2.68-1.9,4.62-.55,1.79-.8,3.32-.94,4.37,8.82-10,13.38-11.2,15.93-10.31,1.22.42,2.85,1.63,4.37.94,1.47-.67,2.34-2.89,1.9-4.62-.56-2.22-3.12-3.01-2.94-3.37.2-.4,3.57.17,5.84,2.62,1.18,1.28,1.71,2.68,1.97,3.62,0,1.29-.12,3.16-.69,5.34-.09.33-.34,1.28-1.19,3.41-.59,1.48-1.44,3.49-2.62,5.84-5.31-.42-12.01.35-18.9,2.82-10.4,3.72-7.18,12.18-7.18,12.18-.83-.58-2.14-1.65-2.94-3.37-2.01-4.33,1.4-7.99,3.74-17.49.15-.62.71-4.7,1.84-12.87,1.11-8.08,1.28-9.81.15-11.4-2.76-3.89-10.34-2.81-12.68-2.4-7.83,2.06-9.83,4.4-10.09,6.22-.14.97.25,1.53,1.25,4.84,0,0,.7,2.3,1.75,6.78,1.06,4.51,2.06,8.73,1.57,14.06-.2,2.2-.55,5.99-2.59,9.96-.91,1.78-3.9,6.97-2.92,5.23-3.51,4.29-7.07,6.85-9.46,8.3-2.41,1.47-4.35,2.61-7.13,2.88-1.31.12-3-.06-6.31-.43-2.22-.25-4.06-.5-5.34-.69-.72-.17-1.83-.35-3.15-.22-1.25.12-2.24.46-2.9.75-1.45.68-2.66,1.37-3.62,1.97-.79.49-1.52.94-2.44,1.66-1.4,1.09-1.74,1.62-1.9,1.52,0,0-.41-.24,3.81-9.25,1.85-2.41,3.78-3.71,5.06-4.41,2.47-1.35,4.74-1.69,8.71-2.25,2.5-.35,4.59-.48,6.06-.53.91.07,3.42.12,5.81-1.5.65-.44,2.44-1.66,3.12-3.91.34-1.1.27-2.12-.03-4.12-.43-2.85-.65-4.28-1.5-5.81-.46-.83-1.34-2.13-2.94-3.37-1.86-.97-3.48-1.55-4.62-1.9-2.07-.64-5.05-1.52-8.5-.9-1.78.32-2.73.87-3.27,1.25-1.43,1.01-1.96,2.23-2.04,2.19-.14-.09,1.16-5.19,5.28-7.56,0,0,1.15-.66,7.75-2l.97-.25c0-.66-.07-1.66-.52-2.75-.94-2.28-2.85-3.41-4.39-4.24-2.59-1.41-4.77-1.71-7.78-2.12-3.25-.45-4.32-.13-5.09.28-1.77.96-2.35,2.72-2.4,2.69-.1-.06,1.6-5.99,6.24-7.81,1.32-.52,3.61-.99,6.06-.53,2.25.42,3.92,1.5,4.37.94.11-.14.18-.41-.5-1.94-.77-1.73-1.15-2.6-1.97-3.62-1.36-1.69-2.92-2.63-3.91-3.12-1.43-.9-5.09-2.91-9.96-2.59-2.5.16-4.49.88-5.81,1.5Z"/>
      <path class="cls-2" d="m467.3,51.94l3.97-4.07c1.94,6.57,4.04,13.97,6.21,22.1.08.31.01.05,4.75,18.4,1,3.86,2.7,9.96,5.76,22.27.21.85.76,3.13.53,6.06-.08,1.05-.21,2.59-.94,4.37-1.02,2.51-2.67,4.16-3.84,5.12l-6.53,2.72c1.85-1.98,4.39-5.23,5.74-9.75,0,0,2.3-7.65-6.28-32.91h0l-9.39-34.3Z"/>
      <path class="cls-2" d="m474.88,47.91c1.58,6.03,3.17,12.07,4.76,18.1,1.34,1.01,4.11,2.82,8.03,3.39,1.28.18,7.56.93,12.59-3.25,1.13-.94,4.82-4.01,4.31-7.31-.22-1.41-2.11-3.2-5.87-6.74h0c-1.25-.93-2.87-1.97-4.87-2.87-2.99-1.35-5.73-1.9-7.73-2.13-1.44-.36-3.67-.73-6.36-.42-2.01.23-3.66.76-4.84,1.25Z"/>
      <path class="cls-2" d="m480.64,70.18c1.5,5.81,3,11.62,4.5,17.43,1.77-1.61,5.41-4.48,10.87-5.91,4.29-1.12,7.96-.88,10.18-.57,1.17.39,2.33.77,3.5,1.16.03-1.02.07-2.06.12-3.13.06-1.08.13-2.13.22-3.15.12-1.85.07-4.74-1.03-8-.64-1.88-1.46-3.39-2.21-4.54-1.22,2.11-3.57,5.33-7.48,7.04-2.23.98-4.65,1.33-5.81,1.5-2.05.3-3.8.33-5.09.28-.85.05-1.94.02-3.15-.22-2.09-.41-3.66-1.27-4.62-1.9Z"/>
    </g>
  </g>
  <g id="_账户" data-name="账户">
    <text class="cls-1" transform="translate(192.58 318.6)"><tspan x="0" y="0">账户</tspan></text>
  </g>
</svg>