<?xml version="1.0" encoding="UTF-8"?>
<svg xmlns="http://www.w3.org/2000/svg" viewBox="0 0 897.17 329.76">
  <defs>
    <style>
      .cls-1 {
        fill: #aea181;
        font-family: PangMenZhengDaoBiaoTiTiMianFeiBan-4Regular, PangMenZhengDaoBiaoTiTiMianFeiBan-4;
        font-size: 222px;
      }

      .cls-2 {
        stroke-width: 0px;
      }

      .cls-3 {
        fill: #2d496c;
        stroke: #000;
        stroke-miterlimit: 10;
        stroke-width: 2px;
      }
    </style>
  </defs>
  <g id="switch">
    <g id="h">
      <path class="cls-3" d="m386.59,23.7s-1.3-9.9,3.87-13.98c5.17-4.08,7.16-4.3,12.24-3.85s9.73,2.85,12.54,2.6,6.42-1.65,8.98-2.43c2.16-.66,8.21-5.09,8.51-4.71.1.12-.35.61-.47.74-3.8,4.15-8.11,6.89-10.69,10.8-1.57,2.37-2.29,4.85-2.78,6.54,0,0-.91,2.38-1,4.94-.24,7.07,6.11,48.05,5.14,52.47s-10.62,17.79-8.12,17.39c2.49-.4,6.04-4.81,8.59-9.11s5.67-4.38,4.73-12.46c-.93-8.07-2.84-44.08-3.16-47.06s4.56-13.57,5.44-14.68,1.66-.48,3.15-2c1.49-1.52,12.88-7.79,13.88-7.9s-9.41,8.32-9.92,16.3c-.51,7.97-.77,24.1,1,21.89s17.83-21.05,18.93-20.17,14.01,8.53,15.87,16.38,6.78,34.57,4.44,40.81c-2.02,5.4-8.79,20.34-16.97,25.12-.92.54-4.88,2.71-5.75,6.47-.34,1.46-.55,4.63.35,4.95.08.03.16.03.19.03l6.63-.72c1.32-.14.76,3.94-.13,5.04s-3.76,2.42-5.75,2.64c-.78.09-1.51.38-2.34.5-2,.3-3,.45-3.63.15-2.42-1.18-1.14-8.7-.3-12.04.24-.97.91-3.4,2.33-6.29,1.07-2.17,2.1-3.65,2.55-4.3,4.98-7.28,9.2-13.44,8.92-20.03-.02-.51-.04-.4-.79-7-6.63-1.66-11.59-1.01-14.13-.47-3.78.79-7.51,2.43-8.73,2.96-2.17.95-3.26,1.43-4.47,2.21-6.61,4.28-9.79,12.54-9.79,12.54,0,0,6.32-.86,15.68.16,9.37,1.01,13.24-8.17,13.24-8.17.49.1,1.23.34,1.5.93.45.99-.67,2.38-.94,2.74-3.32,4.36-2.93,15.74-8.09,19.18-5.46,3.64-11.26-5.53-24.52-4.56-7.43.54-16.53,4.22-18.02,10.01,0,0-.29,1.12,1.19,10.94-.92.77-1.84,1.54-2.77,2.31-.6-.11-2.02-.45-3.2-1.66-.15-.16-.79-.83-1.21-1.88-.81-2.02-.3-4.1.34-6.07,1.26-3.87,2.83-6.7,3.22-7.39,4.81-8.57,7.21-12.86,8.6-14.89.58-.84,1.27-1.83,1.49-3.31.57-3.87-2.51-8.41-4.62-8.17-.46.05-.76.32-1.22.76-2.69,2.53-2.13,6.46-3.54,6.72-.14.03-.4.03-.78-.21-.71-.24-1.43-.48-2.14-.72,0,0-1.12-5.71.3-9.01,1.43-3.3,9.49-3.17,9.16-6.16s-.36-4.99-.36-4.99c-2.39-4.19-4.95-5.71-6.9-6.29-5.01-1.5-12.1,1.3-11.88,1.26.44-4.25,2.38-6.53,3.17-7.35,2.51-2.6,6.16-3.61,6.63-3.74,2.56-.68,4.12-.36,4.86-1.54.74-1.17-.02-2.75-.43-3.98-1.28-3.84-.13-7.39,1.39-12.06,2.39-7.34,7.94-13.1,7.94-13.1,0,0,.51-.51.36-.79-.04-.08-.19-.23-.84-.17-1.4.13-2.64.98-3.5,1.39-1.76.85-3.54.68-4.97.54,0,0-.31-.03-3.46-.63-.54-.51-1.48-1.28-2.83-1.7-2.59-.82-4.86.17-5.96.65-4.05,1.76-5.79,5.56-6.26,6.7Z"/>
      <path class="cls-2" d="m439.16,45.16l9.64-13.12s7.97-.87,9.61,4.99c1.63,5.86,2.73,8.6,2.73,8.6,0,0-1.47,1.7-3.28,3.31-2.32,2.07-4.76,2.63-5.3,2.79-.99.3-3.05.9-5.57.63-1.33-.15-2.56-.51-3.09-.67-.64-.19-.19-.09-2.1-.78-1.2-.43-1.86-.65-2.11-1.25-.1-.24-.08-.46-.1-.57l-.43-3.92Z"/>
      <path class="cls-2" d="m440.03,53.09s4.52,4.56,12.26,1.7,7.82-7.64,9.21-5.9c1.4,1.73,2.05,18.85,2.05,18.85-5.35-2.33-9.36-2.28-12.06-1.79,0,0-2.01.36-11.03,4.31h0l-.42-17.16Z"/>
    </g>
    <g id="c">
      <path class="cls-3" d="m332.47,25.57s-20.38,25.35-20.27,26.35-2.39,13.39-2.11,21.38c.28,7.99,10.29,25.01,13.54,27.67,7.67,6.28,18.17,12,27.31,11.11,1.97-.19,6.2-.9,10.83-2.18,3.41-.95,5.77-1.61,8.49-2.94,1.95-.95,10.56-4.08,13.53-12.54,1.1-3.14,4.11-12.52,3.22-11.42s-3.33,6.4-5.21,7.61-9.97,5.52-13.17,6.17c-3.19.65-10.04,1.8-10.15,1.11-.11-.7-8.55-69.13-8.55-69.13,0,0,17.75,6.06,19.63,4.85s11.39-13.31,9.52-13.11-12.33.07-15.82-1.43c-3.49-1.5-10.43-3.8-10.43-3.8l-24.59,26.85s5.11,37.67,5.32,39.66-.22,7.17-1.99,4.8c-1.77-2.38-9.29-17.78-10.08-24.17-.79-6.39-.77-15.44.78-19.64s10.2-17.2,10.2-17.2Z"/>
      <path class="cls-2" d="m334.31,88.74s11.37-17.28,11.56-19.34-4.11-37.79-4.11-37.79c0,0,4.93-3.57,4.5-3.52s9.05,69.43,7.6,69.59-6.66-1.61-9.24-2.17-10.3-6.77-10.3-6.77Z"/>
    </g>
    <g id="i">
      <path class="cls-3" d="m242.96,40.75c1.83-.38,4.15-7.69,10.31-6.22,9.9,2.37-5.82,10.88,9.16,1.02,3.35-2.21,9.72-3.07,9.72-3.07-.13-.85-7.67,13.35-7.96,19.41-.22,4.71,1.46,10.16.9,10.64-1.83,1.54-5.64-.44-9.57,2-6.14,3.79-6.24,10.77-6.24,10.77.98-1.27,7.54-2.67,10.5-2.64,5.62.06,9.3,5.51,10.94,11.38,1.08,3.86,2.95,12.78.52,16.07-.89,1.21-4.22,1.74-10.5,3.16-2.21.5-4.05.84-6.15,2.22-1.89,1.25-3.13,2.77-3.65,3.42-1.4,1.75-2.12,3.33-2.55,4.3-.46,1.05-.61,1.59-1.93,6.74-.81,3.15-1.21,4.73-.97,4.82.19.07.59-.37,1.32-1.66,2.53-4.49,8.17-8.13,12.25-7.56s7.38,1.54,13.37,2.58c3.9.67,13.1,2.1,20.87-2.27,5.96-3.36,8.72-8.84,9.85-11.15,6.61-13.54,1.14-29.65-2.18-39.46-1.96-5.78-3.58-8.64-5.98-17.09-2.69-9.45-3.26-15.02-1.17-20.03.65-1.55,2-4.68,5.31-6.63,1.88-1.1,3.7-1.43,4.86-1.54-2.1-.32-7.71-.89-12.96,2.38-6.13,3.83-7.8,10.44-8.73,14.14-1.76,7-.57,13.36.31,18.05.35,1.85.49,2.04,1.97,8.86,1.09,5,1.58,7.5,2.08,9.85,2.78,13.15,5.58,23.58,5.58,23.58.34,1.28,2,7.41.42,13.06-.29,1.02-.83,2.29-1.99,3.3-1.93,1.68-4.78,1.04-6.63.66-4.95-1.02-5.19-3.37-11.69-5.78-1.81-.67-3.17-1-3.2-1.67-.04-1.01,2.99-1.96,5.75-2.64,1.2-.74,2.87-1.88,4.65-3.53,1.44-1.34,3-2.65,3.74-4.35.82-1.87.87-4.42-.18-9.14-1.97-8.86-2.3-15.05-4.16-19.7-1.4-3.51-3.26-16.22-3.23-22.71.02-5.13,7.97-21.18,7.97-21.18,0,0-5.47.56-10.91,1.19-5.44.63-16.93-.52-18.2.31s-5.35.27-7.9,4.58-3.7,11.54-3.7,11.54Z"/>
    </g>
    <g id="w">
      <path class="cls-3" d="m101.76,59.75c.89-1.5,3.58-5.74,7.2-7.82.9-.52,1.75-.86,1.75-.86,2.59-.94,4.85-.27,11.96-2.64,2.26-.76,3.18-1.21,10.61-4.17,0,0-9.85,11.13-11.63,13.34s-7.87,10.92-9.98,19.19c-2.99,11.71-1.63,21.23-.16,29.28,1.67,9.15,2.92,16.06,8.77,22.09,1.82,1.88,6.53,6.6,13.9,7.54.92.12,5.06.58,9.97-1.1,4.28-1.47,6.93-3.82,9.37-6.03,2.8-2.54,7.08-7.07,10.52-14.22,0,0,8.04,9.18,10.25,10.96s6.93,5.07,12.19,4.1c6.57-1.21,11.73-3.38,15.76-6.13,2.96-2.02,4.87-3.94,5.53-4.63,3.1-3.21,4.98-6.43,6.09-8.71.31,1.45.81,3.48,1.64,5.86.93,2.63,1.46,4.14,2.64,5.75.83,1.13,2.48,2.99,5.51,4.43,8.54-11,11.13-14.77,11.12-15.31,0-.1,0-.84.35-1.28.24-.31.41-.17-.27-.72-1.1-.89-4.65,3.52-4.65,3.52,0,0-2.14,7.27-5.44-18.02-3.3-25.29-5.55-55.22-5.55-55.22l4.91-9.64-2.52-1.95s-3.04,5.63-4.03,5.74-9.81-6.98-9.81-6.98l-10.31,16.21,2.59,1.71s.17-4.02,2.16-4.24,4.19,1.56,4.63,5.53,1.89,17.09,1.89,17.09c0,0,.38,3.78-3.6,4.22s-7.95.87-9.27-2.01c-4.56-9.94-2.07-36.39-4.25-36.76,0,0,0,0-1.75.19-1.38.15-1.52.16-1.55.17-2,.24-3.67,6.44-6.74,6.77-3.83.42-6.09-4.18-13.57-4.56-2.61-.13-4.57.42-4.97.54-6.04,1.77-10.57,7.65-11.63,13.34-.13.71.09,10.05.09,10.05.2-1.24.85-4.17,3.33-6.4,2.01-1.8,4.28-2.31,5.75-2.64,1.65-.37,2.96-.32,5.53-.4,2.6-.08,3.7.05,5.92-.27,1.93-.28,2.79-.6,3.46-.95,1.36-.71,2.25-1.66,2.77-2.31-4.25,4.75-7.46,8.94-9.75,12.13-2.59,3.61-3.94,5.86-5.1,8.6-1.23,2.91-1.87,5.48-2.22,7.28-1.71,4.89-2.39,9.2-2.68,12.36-.45,5.05-.06,9.07.2,11.04.65,5.02.97,7.53,2.08,9.83.98,2.04,2.36,3.98,1.62,5.97-.21.56-.38.58-1.75,2.09-2.52,2.79-4.45,5.54-4.43,5.51l-10.08-83.4s-.22-1.99-3.98.43-4.89,5.45-8.63,5.91c-2.09.26-2.59.24-10.9-1.04-11.27-1.73-13.49-1.12-15.15-.09-2.2,1.36-3.27,3.35-4.43,5.51-.77,1.44-3.06,5.69-2.48,11.31.22,2.1.77,3.79,1.23,4.92Z"/>
      <path class="cls-2" d="m136.58,46.91c-3.67,3.48-12.2,12.52-15.19,26.8-2.06,9.86-.54,17.72.5,23.08.85,4.4,1.6,8.06,4.28,11.6,1.26,1.67,4.62,5.53,4.63,5.53,0,0,2.1.78,3.33-6.4,1.35-7.86-6.56-29.86-4.76-43.74.52-3.98,2.07-9.94,7.22-16.88Z"/>
      <path class="cls-2" d="m143.77,39.08c-.36.31-.87.8-1.36,1.48-1.03,1.43-1.47,2.98-1.86,5.91-.18,1.31-.46,3.41-.45,5.08,0,4.2,1.84,21.64,4.92,45.23-.38,5.43-2.13,8.82-3.83,10.98,0,0-1.04,1.32-7.79,7,0,0,1.17,5.75,8.72,5.95,7.55.21,10.42-1.13,10.42-1.13l-8.76-80.5Z"/>
      <path class="cls-2" d="m179.86,47.23c-4.24,5.01-6.46,9.76-7.65,12.9-3.1,8.18-2.93,15.37-2.81,20.42.13,5.26.88,8.99,1.08,9.94,1.44,6.82,4.8,14.19,6.92,17.35.23.35.63.91,1.1.89.19-.01.77-.15,1.37-2.05,1.22-3.86.54-8.55.31-10.2-.36-2.64-.43-5.32-.87-7.95-.74-4.46-1.5-11.71-1.6-23.97-.02-2.19.13-5.41,1.01-9.16,1.88-7.94,5.93-13.44,5.55-13.68-.16-.1-1.06.81-4.43,5.51Z"/>
      <path class="cls-2" d="m189.5,34.11c-.49.7-1.15,1.78-1.66,3.2-1.4,3.88-.47,6.98.41,13.03.31,2.15.7,5.2.97,8.95.14,1.31.36,3.4.65,5.96.93,8.29,1.25,10,1.51,13.92.35,5.13.52,7.7.09,10.05-.63,3.44-1.88,6.13-3.89,10.48-1.51,3.26-2.26,4.9-3.33,6.4-2.1,2.96-3.68,3.85-3.44,5.4.26,1.67,2.4,2.63,4.41,3.54.76.34,3.03,1.27,6.18,1.34,1.4.03,3.78-.11,6.59-1.29-2.84-27-5.67-53.99-8.51-80.99Z"/>
      <path class="cls-2" d="m195.79,68.76l1.87,17.19s4.15-1.71,7.27-1.63c3.12.08,5.42.25,5.42.25l-1.87-17.19c-.71.65-2.05,1.71-4.04,2.32-.45.14-1.96.57-3.98.43-2.12-.15-3.74-.86-4.68-1.37Z"/>
      <path class="cls-2" d="m197.44,88.57l3.36,26.22s10.39-6.5,11.78-9.72c1.39-3.22-1.95-17.94-1.95-17.94-.77-.25-1.92-.55-3.35-.64-2.02-.13-3.58.22-4.97.54,0,0-.84.19-4.86,1.54h0Z"/>
    </g>
    <g id="s">
      <path class="cls-3" d="m62.84,51.04c1.95-.55,3.9-1.1,5.86-1.64-1.71,1.77-3.95,4.35-6.2,7.72-3.4,5.11-10.03,16.66-6.89,19.86,1.26,1.28,2.92.06,10.05-.09,2.98-.06,7.16-.15,11.15.8,7.98,1.89,12.98,7.37,14.01,8.53,5.78,6.57,6.64,13.91,6.81,16.36.53,7.48-2.16,13.07-3.35,15.45-3.99,8.01-10.9,13.45-18.04,19.06-2.32,1.83-3.59,2.47-5.53,4.63-1.71,1.9-2.25,3.1-3.65,3.42-1.8.41-3.29-1.01-5.3-2.44-1.87-1.33-8.62-6.15-13.7-5.01-2.47.55-1.85,1.91-6.4,5.18-4.06,2.92-7.76,4.14-11.95,5.53-4.65,1.54-7.06,1.69-8.38,1.72-1.01.02-2.56.04-4.31-.34-.9-.2-8.8-2.06-10.78-8.92-1.49-5.15,1.36-9.63,1.88-10.42,5.14-8.13,9.97-9.66,12.38-10.02,1.3-.19,3.41-.2,7.63-.2,3.37,0,6.15.06,8.06.13,0,0,.98-2.65-.11-3.57-.45-.38-1.1-.32-1.31-.29-1.63.17-5.84-.37-14.24-1.47-8.27-1.08-16.41-10.71-15.32-17.14.46-2.72,2.67-5.5,3.66-6.74,2.56-3.22,4.48-3.72,5.32-6.61.31-1.08.1-1.21.45-5.08,0,0,.19-2.11.59-5.09.79-5.87,17.51-25.47,18.43-26.54,0,0,20.9,11.65,24.9,8.65s4.29-5.4,4.29-5.4Z"/>
      <path class="cls-2" d="m14.98,132.83c-3.13,1.23-6.46,7.63-1.27,9.08,5.19,1.45,14.35,2.46,19.21.93s12.06-9.36,12.06-9.36c0,0-11.48-3.78-19.43-2.91s-10.57,2.27-10.57,2.27Z"/>
      <path class="cls-2" d="m40.72,115.81l-1.45,5.19,22.84,6.57c4.9-4.42,6.36-8.65,6.87-10.81.76-3.2.03-4.27-.3-4.65-1.23-1.4-3.76-1.02-5.32-.77-10.89,1.77-22.36,4.39-22.65,4.48Z"/>
      <path class="cls-2" d="m48.5,94.85l-2.33,6.29c3.71-.62,8.8-1.31,14.91-1.62,11.38-.59,13.83.75,15.11,1.64,3.66,2.58,6.13,7.52,5.51,12.21-.51,3.82-2.93,6.34-5.1,8.6-4.03,4.2-9.86,7.11-9.86,7.11h0c3.28.65,6.56,1.3,9.84,1.95,9.4-4.95,13.99-15.33,11.43-24.38-3.04-10.72-14.53-13.96-15.07-14.1-3.73-.36-8.36-.48-13.61.12-4.15.48-7.79,1.3-10.83,2.18Z"/>
      <path class="cls-2" d="m15.6,88.37c.74,1.48,2.13,3.75,4.63,5.53,3.38,2.41,6.9,2.6,11.37,2.79,3.01.12,7.52-.01,12.92-1.41-.45,2.06-.89,4.12-1.34,6.18-6.67,1.47-12.29,1.79-16.34,1.78-8.92-.03-10.97-1.67-11.93-2.73-2.55-2.82-2.23-6.98-1.97-8.84l2.66-3.31Z"/>
      <path class="cls-2" d="m23.14,74.47c0,.73.02,5.26,2.75,6.74,1.12.61,2.44.56,5.08.45,2.17-.09,3.78-.4,3.98-.43,3.18-.6,9-1.57,16.79-2.83-.07-1.28-.02-3.05.45-5.08.41-1.74,1.01-3.15,1.56-4.19-3.42-1.78-7.33-3.73-11.69-5.77-3.26-1.52-5.49-2.39-8.28-2.12-2.66.26-4.74,1.5-4.89,1.59,0,0-1.23.75-2.28,1.83-3.21,3.33-3.43,8.81-3.46,9.8Z"/>
    </g>
  </g>
  <g id="_切换模式" data-name="切换模式">
    <text class="cls-1" transform="translate(8.57 296.5) rotate(-2.58)"><tspan x="0" y="0">切换模式</tspan></text>
  </g>
</svg>