<?xml version="1.0" encoding="UTF-8"?>
<svg id="_图层_1" data-name="图层 1" xmlns="http://www.w3.org/2000/svg" viewBox="0 0 493.25 227.04">
  <defs>
    <style>
      .cls-1 {
        fill: #fff;
      }

      .cls-2 {
        fill: none;
        stroke: #fff;
        stroke-miterlimit: 10;
      }
    </style>
  </defs>
  <g>
    <path class="cls-1" d="M388.16,29.99l104.23,196.48-271.22-19.94L.8,80.84,65.07,11.69,233.58,.5l154.58,29.49Zm84.91,183.77L381.24,47.33,232.51,12.32l-.57,.03L69.67,21.25,30.17,82.87l192.11,115.32,.19,.11,5.92,3.56,244.68,11.9Z"/>
    <polygon points="231.94 12.35 222.48 197.85 222.28 198.19 30.17 82.87 69.67 21.25 231.94 12.35"/>
    <polygon points="381.24 47.33 473.07 213.76 228.39 201.86 231.94 12.35 232.51 12.32 381.24 47.33"/>
  </g>
  <g>
    <polygon class="cls-2" points=".8 80.84 65.07 11.69 233.58 .5 388.16 29.99 492.39 226.47 221.17 206.53 .8 80.84"/>
    <polygon class="cls-2" points="222.28 198.19 30.17 82.87 69.67 21.25 231.94 12.35 232.51 12.32 381.24 47.33 473.07 213.76 228.39 201.86 222.47 198.3 222.28 198.19"/>
    <polyline class="cls-2" points="222.48 197.85 231.94 12.35 228.39 201.86"/>
  </g>
</svg>