<?xml version="1.0" encoding="UTF-8"?>
<svg id="_图层_7" data-name="图层 7" xmlns="http://www.w3.org/2000/svg" viewBox="0 0 566 273.5">
  <defs>
    <style>
      .cls-1, .cls-2 {
        stroke-width: 0px;
      }

      .cls-2, .cls-3 {
        fill: #fff;
      }

      .cls-3 {
        stroke: #fff;
        stroke-miterlimit: 10;
      }
    </style>
  </defs>
  <g>
    <polygon class="cls-2" points="125 38.17 125 67 124.98 67 174.03 231 281.67 214.76 295.68 38.17 125 38.17"/>
    <polygon class="cls-1" points="293.54 63.79 293.54 54.64 143 54.64 143 78 128.66 79.33 168.46 212.38 282.82 194.67 282 176.37 284.74 176.03 293.65 63.77 293.54 63.79"/>
    <polygon class="cls-3" points="199.51 98.67 196.33 139.94 210.14 142.94 222.34 140.29 220.77 98.67 199.51 98.67"/>
    <polygon class="cls-3" points="175.35 135.39 210.14 170.65 244.92 135.39 210.14 142.94 196.33 139.94 175.35 135.39"/>
  </g>
  <g>
    <polygon class="cls-2" points="566 11 374.33 .3 433.21 174.65 442 173 439 158 566 142.51 566 11"/>
    <polygon class="cls-1" points="551.64 131 546.15 18.94 388 18.94 388 40.77 423 144.41 423 142 551.64 131"/>
    <polygon class="cls-3" points="433.5 70.88 474.77 67.7 477.77 81.5 475.12 93.71 433.5 92.14 433.5 70.88"/>
    <polygon class="cls-3" points="470.22 46.72 505.48 81.51 470.22 116.28 477.77 81.5 474.77 67.7 470.22 46.72"/>
  </g>
  <g>
    <polygon class="cls-2" points="369 0 376 38.17 306 49 311.93 38.17 295.68 38.17 281.67 214.76 300 212 298 200 433.21 174.65 374.33 .3 369 0"/>
    <polygon class="cls-1" points="388 43 293.65 63.77 284.74 176.03 423 159 423 144.41 388 40.77 388 43"/>
    <polygon class="cls-3" points="352.78 143.48 317.52 108.69 352.78 73.91 345.23 108.7 348.23 122.5 352.78 143.48"/>
    <polygon class="cls-3" points="389.5 119.32 348.23 122.5 345.23 108.7 347.88 96.49 389.5 98.06 389.5 119.32"/>
  </g>
  <g>
    <polygon class="cls-2" points="0 75 10.5 273.5 172.5 270.5 174 231 174.03 231 124.98 67 0 75"/>
    <polygon class="cls-1" points="14 90 32.5 259.5 158.5 254.5 158 214 168.46 212.38 128.66 79.33 14 90"/>
    <polygon class="cls-3" points="52.23 169.95 87.01 134.69 121.79 169.95 87.01 162.4 73.2 165.4 52.23 169.95"/>
    <polygon class="cls-3" points="76.38 206.67 73.2 165.4 87.01 162.4 99.21 165.05 97.64 206.67 76.38 206.67"/>
  </g>
</svg>