<?xml version="1.0" encoding="UTF-8"?>
<svg id="_按日期查找及返回按钮组" data-name="按日期查找及返回按钮组" xmlns="http://www.w3.org/2000/svg" viewBox="0 0 1159.91 736.57">
  <defs>
    <style>
      .cls-1 {
        fill: #aea181;
      }

      .cls-1, .cls-2, .cls-3, .cls-4 {
        stroke-width: 0px;
      }

      .cls-3 {
        fill: none;
      }

      .cls-4 {
        fill: #fff;
      }
    </style>
  </defs>
  <rect id="_边框" data-name="边框" class="cls-3" x="1.5" y=".25" width="1158.16" height="734.76"/>
  <polyline id="_白底" data-name="白底" class="cls-4" points="1152.39 7.07 1152.35 54.96 991.31 68.81 936.19 8.51"/>
  <g id="_返回按钮" data-name="返回按钮">
    <polygon class="cls-2" points="950.29 12.2 995.25 62.82 1013.71 12.2 950.29 12.2"/>
    <polygon class="cls-1" points="984.98 32.64 984.97 32.64 997.31 42.23 997.31 37.42 989.56 32.64 989.56 32.64 997.31 27.77 997.31 22.92 984.98 32.64"/>
    <polygon class="cls-1" points="976.32 32.64 976.32 32.64 988.65 42.23 988.65 37.42 980.9 32.64 980.91 32.64 988.65 27.77 988.65 22.92 976.32 32.64"/>
  </g>
  <g id="_按日期查找按钮按钮" data-name="按日期查找按钮按钮">
    <polygon class="cls-2" points="1147.1 12.2 1019.16 12.2 1000.24 63.54 1143.44 49.62 1147.1 12.2"/>
    <g>
      <path class="cls-1" d="m1034,34.59v-6.03h-1.48v-1.78h1.48v-.9h2.31v.9h1.33v1.78h-1.33v3.11h1.48l-1.48,3.19v4.18c0,.55-.17,1.01-.51,1.39-.34.38-.75.57-1.23.57h-1.98l.48-1.45h.35c.16,0,.3-.06.41-.19s.17-.28.17-.46v-.84h-1.59l1.59-3.46Zm6.59,3.95c-.72-.42-1.24-.8-1.57-1.13v-3.59h-.98v-2.04h.98v-1.09h2.15v1.09h4.4v-1.09h2.15v1.09h.98v2.04h-.98v3.59c-.33.34-.86.71-1.57,1.13.88.27,1.72.45,2.54.55v1.87c-.75,0-1.59-.1-2.52-.3-.92-.2-1.86-.48-2.79-.83-.94.35-1.87.63-2.79.83-.92.2-1.76.3-2.52.3v-1.87c.89-.11,1.73-.29,2.54-.55Zm-2.5-11.82h3.74l-.41-.92h2.78l.41.92h2.26c.48,0,.89.19,1.23.58.34.39.51.85.51,1.4v1.39h-2.13v-1.22c0-.08-.03-.16-.08-.22s-.13-.09-.21-.09h-5.75v1.53h-2.33v-3.36Zm5.27,10.75c.75-.35,1.49-.74,2.2-1.16v-2.5h-4.4v2.5c.72.42,1.45.81,2.2,1.16Z"/>
      <path class="cls-1" d="m1050.95,26.02h16.19v12.68c0,.56-.17,1.04-.52,1.43-.35.39-.77.59-1.26.59h-11.93v.02h-2.48v-14.72Zm13.69,6.38v-4.43h-11.21v4.43h11.21Zm-.41,6.36c.12,0,.22-.05.3-.14.07-.09.11-.2.11-.33v-3.95h-11.21v4.41h10.81Z"/>
      <path class="cls-1" d="m1069.46,36.48h.46v-7.98h-.41v-1.85h.41v-.86h2.57v.86h2.7v-.86h2.57v.86h.48v1.85h-.48v7.98h.52v1.87h-8.83v-1.87Zm.68,2.44h2.55l-.63,2.08h-2.55l.63-2.08Zm5.05-8.92v-1.49h-2.7v1.49h2.7Zm0,3.25v-1.41h-2.7v1.41h2.7Zm0,3.23v-1.34h-2.7v1.34h2.7Zm2.09,2.44l.65,2.08h-2.55l-.63-2.08h2.54Zm1.31-13.15h5.13c.54,0,1,.21,1.38.63.38.42.56.94.56,1.55v11.15c0,.53-.16.98-.48,1.34-.31.38-.7.57-1.18.57h-1.33l-.8-1.85h.63c.16,0,.3-.07.43-.21.11-.11.17-.26.17-.44v-1.41h-1.87v3.86h-2.63v-15.2Zm4.5,4.6v-1.87c0-.22-.05-.39-.14-.49-.09-.1-.25-.16-.47-.16h-1.26v2.52h1.87Zm0,4.6v-2.5h-1.87v2.5h1.87Z"/>
      <path class="cls-1" d="m1087.93,39.13h16.26v1.85h-16.26v-1.85Zm.04-12.54h6.64v-.78h2.96v.78h6.64v2.06h-6.64v1.97h-2.96v-1.97h-6.64v-2.06Zm1.04,2.62h2.87l-.87,1.62h-2.89l.89-1.62Zm-.44,2.08h15.06v5c0,.64-.2,1.19-.6,1.63-.4.44-.87.66-1.42.66h-13.04v-7.29Zm12.58,2.88v-1.01h-9.9v1.01h9.9Zm-.59,2.54c.17,0,.32-.06.43-.19.11-.13.17-.28.17-.46v-.34h-9.9v.99h9.31Zm2.65-7.5l.89,1.62h-2.89l-.89-1.62h2.89Z"/>
      <path class="cls-1" d="m1116.88,35.73l-1.67-5.29h-2.02v-1.34h-2.05v1.81h2.55l-2.55,3.72v4.12c0,.66-.2,1.2-.59,1.64s-.88.65-1.44.65h-1.92l.7-1.81h.31c.16,0,.3-.06.41-.19.11-.13.17-.28.17-.46v-1.24h-2.39l2.39-3.47v-4.77h-1.96v-2.08h1.96v-1.28h2.37v1.28h2.05v1.34h1.35l-.78-2.5h2.81l.8,2.5h1.91l-.85-2.5h2.78l1.54,4.58h-4.72l.85,2.67.48-.61h3.26l-2.78,3.63,1.54,4.91h-2.81l-.72-2.29-1.76,2.29h-3.26l4.05-5.31Z"/>
    </g>
  </g>
</svg>