<?xml version="1.0" encoding="UTF-8"?>
<svg xmlns="http://www.w3.org/2000/svg" viewBox="0 0 909.73 374.78">
  <defs>
    <style>
      .cls-1 {
        fill: #aea181;
        font-family: PangMenZhengDaoBiaoTiTiMianFeiBan-4Regular, PangMenZhengDaoBiaoTiTiMianFeiBan-4;
        font-size: 222px;
      }

      .cls-2 {
        stroke-width: 0px;
      }

      .cls-3 {
        fill: #2d496c;
        stroke: #000;
        stroke-miterlimit: 10;
        stroke-width: 2px;
      }
    </style>
  </defs>
  <g id="function">
    <g id="F">
      <path class="cls-3" d="m90.92,17.9c-.95-.07-2.33-.15-4-.16-1.84-.01-2.78-.04-3.84.17-2.72.53-4.13,1.67-4.24,1.5-.17-.26,2.8-3.58,7.2-4.71,2.2-.57,2.94-.12,7.99.33,9.08.79,13.55-.07,15.03-.39,1.91-.41,3.3-.89,4.29-1.29,2.53-1.02,4.4-2.27,5.91-3.3,2.29-1.56,5.74-3.9,5.24-5.79-.38-1.45-3-2.28-4.91-2.2-1.76.07-3.03.9-3.04.88-.01-.03,2.13-1.37,5.08-1.79,2.26-.33,4.05.01,5,.2,6.34,1.29,10.36,3.2,16.82,4.69,1.52.35,6.18,1.37,9.99.41,1.25-.31,2.69-.68,4.08-1.83,1.2-1,1.71-2.05,2.08-1.92.49.18.28,2.28-.16,4-1.54,5.96-6.54,9.5-9.54,11.62-1.56,1.11-3.3,2.08-5.58,2.51-.78.15-1.59.2-2.48.17-3-.12-15.28-3.3-15.28-3.3l-.56,13.78c3.02.18,5.55.2,7.4.19,3.79-.04,6.08-.07,9.03-.63,2.62-.5,4.7-1.21,6.08-1.75-.22,2.13-.92,5.92-3.41,9.87-1.75,2.77-3.77,4.64-5.24,5.79l-15.99-.65s.11,9.51-.04,19.39c-.11,7.36.98,13.98-1.63,21.58-.78,2.28-1.58,3.84-2.2,4.91-.66,1.14-3.1,5.15-9.4,9.62-2.42,1.72-5.02,3.01-10.24,5.59-1.44.71-9.39,4.61-16.27,6.34-1.39.35-3.03.68-5.04.79-2.09.12-3.7-.06-5-.2-2.64-.3-4.2-.45-6.13-1.25-1.03-.42-2.35-.97-3.73-2.15-1.69-1.45-2.15-2.71-3.87-3.16-.97-.26-1.82-.11-2-.08-1.05.19-1.74.7-2.04.92-1.74,1.3-2.09,3.4-2.16,3.91l.29-6.99.04-1,.12-3c.16-.51.47-1.24,1.08-1.96.4-.47.79-.78,1.04-.96.57-.41,1.08-.6,2.04-.92,1.63-.53,2.44-.81,3.04-.88,1.19-.14,2.17-.02,3,.12,5.85,1.02,9.87,3.41,9.87,3.41.71.44,5.83,4.24,5.83,4.24.87.22,3.65.8,6.04-.75,1.76-1.15,2.45-2.9,3.2-4.87,1.13-2.96,1.23-5.48,1.24-5.95,1.32-40.64.96-48,.96-48-2.78-.82-5.18-1.15-6.95-1.29-4.13-.31-7.09.25-9.03.63-.78.15-4.09.86-6.12,2.75-.34.32-.57.58-3.16,3.87-.68-6.48,1.38-9.63,2.45-10.91.62-.75,1.46-1.46,3.12-2.87,1.89-1.61,3.38-2.67,6.2-4.75,3.98.1,7.02.25,8.99.37,2.37.14,3.94.26,5.04-.79.83-.8.94-1.85,1.16-3.96.21-1.99.43-4.04-.75-6.04-.62-1.04-1.4-1.71-1.92-2.08Z"/>
      <path class="cls-2" d="m105.83,20.51c1,.04,6.08-1.75,6.08-1.75h0s.8-.36,2.04-.92c.04,2.96.5,46.13-3.65,64.9-1.36,6.13-3.14,9.36-5.49,11.79-5.13,5.31-14.47,8.32-14.43,8.38,0,0,.08.04.08.04,4.37-3.53,6.96-7.22,8.4-9.66,2.7-4.57,3.72-8.67,4.49-11.83.78-3.24,1.09-5.88,1.37-8.95.95-10.69.78-18.98.78-18.98-.15-7.14-.16-17.51.35-33.01Z"/>
    </g>
    <g id="U">
      <path class="cls-3" d="m156.54,28.59c.05-2.84.31-7.41,1.49-11.95.45-1.74,1-3.33,2.2-4.91,1.08-1.42,2.23-2.25,3.12-2.87.5-.35,2.66-1.83,6.12-2.75,2.26-.6,4-.67,6.04-.75,1.91-.08,3.7-.15,5.99.25,3.26.56,5.82,1.76,6.91,2.28,2.29,1.09,2.95,1.78,4.91,2.2,2.01.43,3.65.21,4,.16,5.11-.74,6.82-3.88,10.61-5.02,1.63-.49,3.06.13,3.06.13-.94,8.04-1.23,13.55-1.31,17.18,0,0-.17,7.74-.35,12.22l-.12,3c-.07,1.6-.15,1.68-.08,2,.16.74.72,1.6,3.87,3.16,2.73,1.36,4.1,2.03,5.91,2.24,2.63.31,4.66-.32,6.04-.75,2.04-.65,3.88-1.21,5.12-2.79.77-.99.98-1.88,1.29-6.95.39-6.42.29-8.57-.55-11.03-.5-1.48-1.04-2.38-1.88-3.08-1.33-1.11-3.26-1.57-4.95-1.2,0,0-5.28,3.79-5.28,3.79,2.09-2.56,4.79-6.14,7.56-10.7,2.55-4.2,3.16-5.93,5.15-6.49,3.04-.85,7.46,4.95,10.83,7.14.07.04,1.28.82,2.96,1.12,0,0,.52.06,1,.04,1.59-.08,3.6-1.98,5.2-4.79-.15,1.49-.48,3.56-1.24,5.95-.49,1.53-1,2.68-1.12,2.96-1.43,3.2-2.47,3.73-3.04,5.88-.47,1.76-.4,3.16-.37,3.99.19,5-.59,9.99-.61,14.99-.14,26.16-.21,39.24-.8,44-.1.78-.4,2.98.84,4.04,1,.86,2.78.74,4,.16,1.46-.69,1.98-1.98,2.08-1.92.2.12-1.99,5.15-6.4,9.75,0,0-1.69,1.82-5.16,3.79-1.56.89-2.43,1.17-3.22.87-.52-.2-.8-.59-1.74-2.07-1.1-1.75-1.65-2.63-1.88-3.08-2.04-4.09-3.89-11.91-4.42-14.19-1.66,1.89-4.05,4.32-7.28,6.71-2.28,1.69-6.45,4.45-12.28,6.5-2.34.82-6.49,2.25-12.11,2.51-3.6.17-6.49-.21-8.16-.49-2.2-.37-4.73-.79-7.74-2.17-.77-.35-2.48-1.32-5.87-3.24-5.56-5.61-8.68-10.91-10.42-14.44-1.86-3.77-2.5-6.25-2.71-7.12-.31-1.27-1.16-5.12-.51-12.03.42-4.49.92-9.77,3.65-15.86,2.78-6.19,6.41-9.97,12.68-16.5,2.11-2.2,4.16-4.31,7.28-6.71,1.75-1.35,3.16-2.25,8.24-5.67l-4-.16-5.99-.25c-2.11-.03-3.82-.12-5-.2-1.93-.14-2.69-.26-4-.16-1.77.12-3.08.53-4.04.84-1.33.42-4.23,1.37-7.16,3.71-3.82,3.05-5.6,6.79-6.36,8.75Z"/>
      <path class="cls-2" d="m199,18.31l-7.34,3.7c-1.37,1.15-3.13,2.74-5.02,4.8-1.49,1.62-3.4,3.7-5.28,6.79-2.74,4.49-3.83,8.5-4.45,10.83-.75,2.85-1.04,5.03-1.29,6.95-.68,5.26-.55,9.24-.45,10.99.15,2.81.23,4.22.75,6.04.31,1.09,1.25,4.24,3.71,7.16.07.09,1.01,1.1,2.87,3.12h0c3.26-3.43,4.67-6.61,5.36-8.79,1.34-4.25.49-6.41.74-17.98.05-2.24.14-4.16.33-7.99.45-9.2.79-11.43,1.57-13.95,1.28-4.14,2.89-6.35,3.28-6.87,1.8-2.4,3.82-3.91,5.2-4.79Z"/>
      <path class="cls-2" d="m183.21,81.41c4.32-3.46,7.85-6.62,10.58-9.18,2.94-2.76,4.6-4.51,5.61-7.28.45-1.22.67-2.38.96-6.47.44-6.36.41-9.99.41-9.99-.06-6.44-.23-13.95-.1-22.02.02-1.35.1-4.82,1.37-8.95.66-2.15,2.15-6.17,3.03-6,0,0,.11.02.21.13.96,1.04-2.15,76.98-2.15,76.98-1.99.35-5.24.64-8.99-.37-3.42-.92-5.75-2.51-6.87-3.28-1.8-1.25-3.13-2.55-4.05-3.56Z"/>
      <path class="cls-2" d="m209.05,65.26c1.24-1.17,3.64-3.12,7.21-4.21,2.43-.74,4.57-.82,6.04-.75.98.32,2.46.93,3.91,2.16.85.72,1.47,1.46,1.92,2.08l-.74,17.98c-2.32,2.75-4.78,4.1-6.2,4.75-1.27.58-3.54.94-8.08,1.67-2.84.46-4.47.61-5-.2-.25-.4-.09-.77.08-2l.16-4,.2-5c.09-2.18.23-5.88.48-12.49Z"/>
      <path class="cls-2" d="m209.5,43.81s2.38,2.05,8.33,3.29,11.48-2.48,11.48-2.48l-.67,16.33s-5.31-3.95-9.78-3.47c-4.48.49-10.08,3.67-10.08,3.67l.71-17.34Z"/>
    </g>
    <g id="N">
      <path class="cls-3" d="m265.96,45.07c.88-.87,2.23-1.99,4.12-2.83,3.44-1.53,7.54-1.63,10.03-.59.44.18,3.15,1.37,4.9,2.14.1.04.15.07.15.07l.56-13.79s29.7-20.01,32.66-18.88c10.32,3.92,21.41,9.42,25.89,18.06,2.82,5.44,3.61,10.85,3.82,14.18.34,5.58-.67,10.11-1.53,12.95-1.82,3.56-3.63,7.16-5.45,10.79-1.47,2.96-2.93,5.9-4.36,8.83-1.63,2.95-3.16,5.24-4.28,6.83-1.41,1.99-2.96,4.17-5.28,6.79-1.12,1.26-2.03,2.19-3.16,3.87-1.04,1.55-1.73,2.95-2.16,3.91,11.34-7.01,16.05-6.84,18.23-5.26,1.04.76,2.26,2.39,3.91,2.16,1.61-.22,3.08-2.09,3.16-3.87.1-2.29-2.11-3.79-1.83-4.08.31-.32,3.37,1.2,4.83,4.2.76,1.56.86,3.06.84,4.04-.37,1.23-1.03,2.99-2.2,4.91-.18.29-.7,1.12-2.12,2.92-.99,1.25-2.39,2.92-4.2,4.83-4.96-1.94-11.59-3.14-18.9-2.77-11.03.55-10.4,9.58-10.4,9.58-.63-.79-1.57-2.2-1.83-4.08-.67-4.72,3.65-7.24,8.65-15.66.33-.55,2.05-4.29,5.49-11.79,3.41-7.42,4.07-9.02,3.45-10.87-1.51-4.52-9.09-5.68-11.44-5.97-8.1-.29-10.68,1.36-11.46,3.03-.42.89-.2,1.53-.2,5,0,0,0,2.4-.29,6.99-.29,4.63-.56,8.95-2.57,13.91-.83,2.05-2.26,5.57-5.36,8.79-1.39,1.44-5.75,5.54-4.31,4.16-4.6,3.09-8.75,4.51-11.46,5.2-2.73.7-4.92,1.24-7.66.69-1.29-.26-2.85-.93-5.91-2.24-2.05-.88-3.74-1.65-4.91-2.2-.64-.37-1.65-.86-2.96-1.12-1.23-.25-2.28-.21-3-.12-1.58.23-2.94.54-4.04.84-.89.24-1.73.46-2.82.89-1.66.64-2.13,1.05-2.26.91,0,0-.32-.35,6.32-7.75,2.47-1.77,4.69-2.45,6.12-2.75,2.76-.58,5.03-.25,8.99.37,2.49.39,4.53.87,5.95,1.24.85.33,3.24,1.11,5.99.25.74-.23,2.81-.88,4.12-2.83.64-.96.87-1.95,1.16-3.96.41-2.85.62-4.28.25-5.99-.2-.92-.66-2.43-1.83-4.08-1.5-1.47-2.88-2.49-3.87-3.16-1.8-1.21-4.39-2.92-7.87-3.32-1.79-.21-2.86.04-3.5.25-1.67.55-2.52,1.57-2.58,1.5-.11-.13,2.61-4.63,7.24-5.71,0,0,1.29-.3,7.99.33l1,.04c.19-.63.41-1.61.3-2.79-.24-2.46-1.74-4.09-2.97-5.33-2.08-2.1-4.07-3.02-6.83-4.28-2.98-1.37-4.1-1.38-4.95-1.2-1.97.41-3.04,1.92-3.08,1.88-.08-.09,3.27-5.27,8.24-5.67,1.41-.11,3.75.1,5.95,1.24,2.03,1.05,3.31,2.57,3.91,2.16.15-.1.29-.34.08-2-.23-1.88-.35-2.82-.84-4.04-.81-2.02-2.03-3.37-2.83-4.12-1.11-1.27-4.03-4.26-8.79-5.36-2.44-.57-4.55-.45-5.99-.25Z"/>
      <path class="cls-2" d="m298.4,26.38l4.98-2.75c-.04,6.85-.18,14.54-.45,22.95-.01.32,0,.06-.78,18.98-.16,3.98-.3,10.32-.94,22.98-.04.87-.18,3.21-1.24,5.95-.38.99-.95,2.42-2.16,3.91-1.7,2.1-3.76,3.21-5.16,3.79l-7.04.71c2.34-1.36,5.71-3.73,8.32-7.67,0,0,4.42-6.66,3.52-33.32h0l.94-35.55Z"/>
      <path class="cls-2" d="m306.82,24.72c-.23,6.23-.46,12.47-.69,18.7.99,1.36,3.12,3.89,6.7,5.57,1.17.54,6.96,3.08,12.99.53,1.36-.57,5.77-2.44,6.24-5.75.2-1.41-1.09-3.68-3.67-8.16h0c-.93-1.26-2.18-2.72-3.83-4.16-2.47-2.16-4.93-3.48-6.78-4.28-1.28-.76-3.31-1.76-5.97-2.25-1.99-.36-3.72-.33-5-.2Z"/>
      <path class="cls-2" d="m305.88,47.7l-.74,17.98c2.16-1.03,6.48-2.72,12.11-2.51,4.44.17,7.88,1.46,9.91,2.41,1,.71,2.01,1.42,3.01,2.12.32-.97.66-1.95,1.03-2.96.37-1.02.74-2,1.12-2.96.66-1.74,1.44-4.51,1.33-7.95-.07-1.98-.42-3.67-.8-4.98-1.78,1.67-4.95,4.07-9.19,4.58-2.41.29-4.84-.07-5.99-.25-2.05-.31-3.73-.79-4.95-1.2-.83-.2-1.86-.54-2.96-1.12-1.88-1-3.14-2.27-3.87-3.16Z"/>
    </g>
    <g id="C">
      <path class="cls-3" d="m375.44,84.57s13.81-15.4,14.31-17.4,1.55-37.98,1.55-37.98c0,0,5.41-2.79,4.97-2.81s-1.37,70-2.83,69.94-6.34-2.58-8.82-3.52-9.18-8.22-9.18-8.22Z"/>
      <path class="cls-3" d="m383.01,21.83s-23.92,22.04-23.96,23.04-4.36,12.89-5.27,20.83c-.91,7.94,6.45,26.26,9.28,29.38,6.65,7.35,16.18,14.57,25.35,15.05,1.98.1,6.26.04,11.03-.55,3.52-.43,5.95-.73,8.83-1.64,2.07-.65,11.05-2.47,15.25-10.39,1.56-2.94,5.92-11.77,4.88-10.81s-4.24,5.83-6.28,6.75-10.68,3.98-13.94,4.14c-3.25.16-10.2.29-10.2-.42,0-.7,1.82-69.63,1.82-69.63,0,0,16.65,8.63,18.69,7.72s13.25-11.47,11.36-11.55-12.2-1.76-15.43-3.76c-3.23-2-9.75-5.31-9.75-5.31l-28.31,22.9s-.55,38.01-.63,40.01-1.29,7.06-2.68,4.45c-1.39-2.61-6.54-18.97-6.37-25.4.17-6.43,1.53-15.39,3.7-19.3s12.64-15.5,12.64-15.5Z"/>
    </g>
    <g id="T">
      <path class="cls-3" d="m431.07,45.81c2.83-7.36,2.58-14.99,6.73-17.74,4.86-3.22,11.36-8.54,18.39-9.26s19.04-1.22,21.97.9c2.93,2.12,23.79,5.98,24.79,6.02,0,0,6.17.98,11.32-1.67,2.19-1.13,2.7-2.24,2.87-2.75.57-1.75-.36-3.92-.09-4,.1-.03.28.26.29.3.88,1.75,1.68,9.13-.51,12.37-2.19,3.24-6.61,6.44-9.39,7.95-5.12,2.79-15.11,1.89-15.11,2.38,0,1.06-2.13,62.8-2.57,62.95-1.17.4,2.34.7,7.55-1.99,13.85-7.14,16.38-20.05,16.38-20.05.14,2.92.12,10.47-4.73,17.82-4.19,6.36-9.77,9.19-12.44,10.5-16.67,8.2-34.44.15-37.97-1.55-4.42-2.14-12.24-5.91-17.41-14.72-6.06-10.32-4.58-20.87-3.97-25.18,1.35-9.63,5.63-16.35,7.81-19.7,2.14-3.29,3.94-6.05,7.36-8.71,4.76-3.7,10.9-5.85,10.67-6.46-.04-.12-.29-.12-.39-.12-3-.12-8.67-1.98-16.99-.69-3.18.49-4.7.93-5.82,1.61-1.07.65-2.04,1.45-3.38,3.02-1.48,1.74-3.57,4.59-5.36,8.79Z"/>
      <path class="cls-2" d="m467.57,34.3c-4.7,2.12-7.64,4.85-9.28,6.63-6.77,7.37-7.51,16.45-7.85,20.7-.16,1.94-.29,5.31.33,9.43.9,5.97,2.82,10.01,4.73,13.8,1.98,3.94,3.78,7.45,5.71,7.24,1.03-.11,1.71-1.24,2.08-1.92,3.68-6.73,3.83-18.11,3.9-21.86.18-9.55.6-7.55.69-16.99.07-6.88-.1-12.69-.3-17.03Z"/>
      <path class="cls-2" d="m462.08,95.2c.78,1.14,2,2.68,3.83,4.16.9.73,2.74,2.07,5.87,3.24,4.05,1.51,12.17,3.44,13.99.57.37-.58.16-.85.16-4,0-2,.16-4,.25-5.99.25-5.99.49-11.99.74-17.98l1.51-36.85c-3.06-.13-6.12-.25-9.17-.38,1.25,19.38.23,33.88-1.41,38.86-1.29,3.92-3.28,6.87-3.28,6.87-1.47,2.02-2.74,3.4-4.2,4.83-1.85,1.82-4.58,4.23-8.28,6.67Z"/>
    </g>
    <g id="I">
      <path class="cls-3" d="m524.75,32.68c1.87-.1,5.25-6.97,11.12-4.6,9.44,3.81-7.37,9.87,8.91,2.37,3.64-1.68,10.07-1.59,10.07-1.59,0-.86-9.57,12.03-10.75,17.98-.92,4.61-.06,10.25-.69,10.63-2.04,1.25-5.51-1.27-9.76.55-6.63,2.83-7.78,9.7-7.78,9.7,1.16-1.1,7.85-1.52,10.78-1.05,5.55.89,8.38,6.82,9.13,12.86.5,3.97,1.02,13.05-1.88,15.94-2.9,2.88-7.85,1.68-10.85,1.56s-11.21,4.95-11.5,5.24c-.78.77-.81,2.26-5.1,9.1-1.06,1.69-3.3,7.23-.13,3.18s9.29-6.81,13.24-5.64,7.07,2.62,12.84,4.53c3.76,1.24,12.65,4.02,20.97.86,6.39-2.43,9.94-7.43,11.4-9.54,8.55-12.39,5.54-29.1,3.71-39.27-1.08-5.99-2.26-9.06-3.38-17.76-1.25-9.73-.99-15.31,1.82-19.94.87-1.44,2.67-4.32,6.24-5.75,2.02-.81,3.87-.86,5.04-.79-2.03-.63-7.5-2.02-13.17.43-6.63,2.87-9.27,9.14-10.74,12.66-2.79,6.64-2.55,13.1-2.38,17.86.07,1.88.18,2.09.63,9.03.33,5.1.45,7.64.59,10.03.79,13.39,2.02,24.1,2.02,24.1.15,1.31.88,7.61-1.53,12.95-.44.97-1.16,2.14-2.46,2.96-2.16,1.37-4.89.32-6.66-.33-4.75-1.74-4.63-4.1-10.7-7.44-1.69-.93-2.99-1.46-2.92-2.12.11-1,3.25-1.49,6.08-1.75,1.3-.55,3.12-1.43,5.12-2.79,1.62-1.1,3.36-2.17,4.35-3.74,1.09-1.72,1.51-4.23,1.18-9.05-.63-9.03-.04-15.2-1.18-20.07-.86-3.67-.81-16.49.18-22.89.79-5.06,11.03-19.72,11.03-19.72,0,0-5.49-.26-10.97-.45-5.48-.19-16.67-3.03-18.04-2.39s-5.33-.53-8.49,3.34-5.37,10.84-5.37,10.84Z"/>
    </g>
    <g id="O">
      <path class="cls-3" d="m635.16,23.13l-42.19,28.3c-.44-.17-4.71,26.64-4.43,34.85.28,8,6.22,19.27,10.05,23.43s20.86,8.92,24.65,9.01,12.46-2.48,24.43-10.01c12.15-7.65,19.51-15.33,22.96-23.08,3.28-7.37,6.57-11.99,6.81-19.74s-4.21-18.82-8.01-24.35c-5.67-8.24-16.74-13.45-17.45-13.72-5.91-2.24-11.79-5.49-16.82-4.69Z"/>
      <path class="cls-2" d="m612.75,43.35c-1.94-.77-8.02,8.3-11.16,17.44-2.01,5.84-2.42,10.55-2.53,12.91-.26,5.6-.5,10.57,2.38,15.11,0,0,.02.03.04.07.94,1.46,1.5,2.42,1.83,3.01.28.45,1.46,2.21,2.92,2.12.38-.02,1.63-.23,3.16-3.87,1.59-3.77,1.69-6.97,1.83-9.54.14-2.67.42-6.54,1.03-11.36.07-4.11.24-10.32.74-17.98.35-5.48.6-7.57-.24-7.9Z"/>
      <path class="cls-2" d="m609.16,96.13c.11-1.21.96-1.72,3.16-3.87,0,0,2.04-2,5.24-5.79,2.74-3.25,3.53-6.76,4.45-10.83,1.61-7.16,2.76-21,2.26-38.89,1.05-.2,4.59-.76,6.29,1.2.92,1.07.88,2.74.75,6.04-.19,5.11-.28,7.66-.33,7.99-.92,7.16-2.12,22.79-2.39,33.93-.14,6-.73,11.98-.74,17.98,0,.73.01,4.18-.33,4.21-.02,0-.04-.01-.05-.02-.47-.37-6.05-1.53-8.7-2.56-1.85-.72-2.97-1.64-4.87-3.2-2.65-2.18-4.95-4.07-4.75-6.2Z"/>
      <path class="cls-2" d="m633.14,38.44l-.24,15.62s2.43,6.21,10.54,7.49c8.11,1.28,16.27-2.39,15.39-5.43-1.42-4.92-6.61-11.15-11.46-13.48-2.25-1.08-5.38-2.07-5.91-2.24-3.37-1.07-6.26-1.64-8.32-1.96Z"/>
      <path class="cls-2" d="m633.61,61.3l-.77,18.79s8.97-3.51,13.57-3.89c4.6-.38,15.31,7.07,15.31,7.07.81-1.57,1.81-3.92,2.28-6.91.59-3.71.08-6.45-.59-10.03-.69-3.69-1.3-6.91-2.71-7.12-1.25-.18-1.77,2.09-5.04,4-.97.57-2.2,1.06-3.92,1.39-5.31,1.03-7.21.46-10.71-.44s-7.42-2.86-7.42-2.86Z"/>
      <path class="cls-2" d="m632.1,98.07l-.29,6.99-.16,4c1.44-.28,3.45-.71,5.81-1.36,4.32-1.21,6.9-1.93,9.92-3.65.7-.4,5.42-3.14,8.83-8,1.27-1.81,1.89-3.25,2.16-3.91.73-1.82,1.39-3.44,1.2-4.95-.5-4.16-7.18-6.88-11.7-7.48-3.5-.47-6.32.24-8.03.67-3.02.76-4.85,1.16-6.12,2.75-.97,1.21-1.08,2.42-1.33,7.95-.08,1.7-.18,4.09-.29,6.99Z"/>
    </g>
    <g id="N-2" data-name="N">
      <path class="cls-3" d="m682.33,62.36c.88-.87,2.23-1.99,4.12-2.83,3.44-1.53,7.54-1.63,10.03-.59.44.18,3.15,1.37,4.9,2.14.1.04.15.07.15.07l.56-13.79s29.7-20.01,32.66-18.88c10.32,3.92,21.41,9.42,25.89,18.06,2.82,5.44,3.61,10.85,3.82,14.18.34,5.58-.67,10.11-1.53,12.95-1.82,3.56-3.63,7.16-5.45,10.79-1.47,2.96-2.93,5.9-4.36,8.83-1.63,2.95-3.16,5.24-4.28,6.83-1.41,1.99-2.96,4.17-5.28,6.79-1.12,1.26-2.03,2.19-3.16,3.87-1.04,1.55-1.73,2.95-2.16,3.91,11.34-7.01,16.05-6.84,18.23-5.26,1.04.76,2.26,2.39,3.91,2.16,1.61-.22,3.08-2.09,3.16-3.87.1-2.29-2.11-3.79-1.83-4.08.31-.32,3.37,1.2,4.83,4.2.76,1.56.86,3.06.84,4.04-.37,1.23-1.03,2.99-2.2,4.91-.18.29-.7,1.12-2.12,2.92-.99,1.25-2.39,2.92-4.2,4.83-4.96-1.94-11.59-3.14-18.9-2.77-11.03.55-10.4,9.58-10.4,9.58-.63-.79-1.57-2.2-1.83-4.08-.67-4.72,3.65-7.24,8.65-15.66.33-.55,2.05-4.29,5.49-11.79,3.41-7.42,4.07-9.02,3.45-10.87-1.51-4.52-9.09-5.68-11.44-5.97-8.1-.29-10.68,1.36-11.46,3.03-.42.89-.2,1.53-.2,5,0,0,0,2.4-.29,6.99-.29,4.63-.56,8.95-2.57,13.91-.83,2.05-2.26,5.57-5.36,8.79-1.39,1.44-5.75,5.54-4.31,4.16-4.6,3.09-8.75,4.51-11.46,5.2-2.73.7-4.92,1.24-7.66.69-1.29-.26-2.85-.93-5.91-2.24-2.05-.88-3.74-1.65-4.91-2.2-.64-.37-1.65-.86-2.96-1.12-1.23-.25-2.28-.21-3-.12-1.58.23-2.94.54-4.04.84-.89.24-1.73.46-2.82.89-1.66.64-2.13,1.05-2.26.91,0,0-.32-.35,6.32-7.75,2.47-1.77,4.69-2.45,6.12-2.75,2.76-.58,5.03-.25,8.99.37,2.49.39,4.53.87,5.95,1.24.85.33,3.24,1.11,5.99.25.74-.23,2.81-.88,4.12-2.83.64-.96.87-1.95,1.16-3.96.41-2.85.62-4.28.25-5.99-.2-.92-.66-2.43-1.83-4.08-1.5-1.47-2.88-2.49-3.87-3.16-1.8-1.21-4.39-2.92-7.87-3.32-1.79-.21-2.86.04-3.5.25-1.67.55-2.52,1.57-2.58,1.5-.11-.13,2.61-4.63,7.24-5.71,0,0,1.29-.3,7.99.33l1,.04c.19-.63.41-1.61.3-2.79-.24-2.46-1.74-4.09-2.97-5.33-2.08-2.1-4.07-3.02-6.83-4.28-2.98-1.37-4.1-1.38-4.95-1.2-1.97.41-3.04,1.92-3.08,1.88-.08-.09,3.27-5.27,8.24-5.67,1.41-.11,3.75.1,5.95,1.24,2.03,1.05,3.31,2.57,3.91,2.16.15-.1.29-.34.08-2-.23-1.88-.35-2.82-.84-4.04-.81-2.02-2.03-3.37-2.83-4.12-1.11-1.27-4.03-4.26-8.79-5.36-2.44-.57-4.55-.45-5.99-.25Z"/>
      <path class="cls-2" d="m714.77,43.67l4.98-2.75c-.04,6.85-.18,14.54-.45,22.95-.01.32,0,.06-.78,18.98-.16,3.98-.3,10.32-.94,22.98-.04.87-.18,3.21-1.24,5.95-.38.99-.95,2.42-2.16,3.91-1.7,2.1-3.76,3.21-5.16,3.79l-7.04.71c2.34-1.36,5.71-3.73,8.32-7.67,0,0,4.42-6.66,3.52-33.32h0l.94-35.55Z"/>
      <path class="cls-2" d="m723.2,42.02c-.23,6.23-.46,12.47-.69,18.7.99,1.36,3.12,3.89,6.7,5.57,1.17.54,6.96,3.08,12.99.53,1.36-.57,5.77-2.44,6.24-5.75.2-1.41-1.09-3.68-3.67-8.16h0c-.93-1.26-2.18-2.72-3.83-4.16-2.47-2.16-4.93-3.48-6.78-4.28-1.28-.76-3.31-1.76-5.97-2.25-1.99-.36-3.72-.33-5-.2Z"/>
      <path class="cls-2" d="m722.26,65c-.25,5.99-.49,11.99-.74,17.98,2.16-1.03,6.48-2.72,12.11-2.51,4.44.17,7.88,1.46,9.91,2.41,1,.71,2.01,1.42,3.01,2.12.32-.97.66-1.95,1.03-2.96.37-1.02.74-2,1.12-2.96.66-1.74,1.44-4.51,1.33-7.95-.07-1.98-.42-3.67-.8-4.98-1.78,1.67-4.95,4.07-9.19,4.58-2.41.29-4.84-.07-5.99-.25-2.05-.31-3.73-.79-4.95-1.2-.83-.2-1.86-.54-2.96-1.12-1.88-1-3.14-2.27-3.87-3.16Z"/>
    </g>
  </g>
  <g id="_输入函数" data-name="输入函数">
    <text class="cls-1" transform="translate(25.05 341.77) rotate(-7.55)"><tspan x="0" y="0">输入函数</tspan></text>
  </g>
</svg>