<?xml version="1.0" encoding="UTF-8"?>
<svg id="_图层_1" data-name="图层 1" xmlns="http://www.w3.org/2000/svg" viewBox="0 0 163 176">
  <defs>
    <style>
      .cls-1, .cls-2 {
        stroke-width: 0px;
      }

      .cls-2 {
        fill: #fff;
      }
    </style>
  </defs>
  <polygon class="cls-2" points="0 0 163 16 151 176 9 166 0 0"/>
  <path class="cls-1" d="m29,23l116,11-9,121s-113.04-7.25-113.5-7.5,6.5-124.5,6.5-124.5Z"/>
  <g>
    <path class="cls-2" d="m114.82,84.92v6.42h-10.59l-.22-.03c.14-1.04.22-2.11.22-3.19s-.08-2.15-.22-3.2h10.81Z"/>
    <path class="cls-2" d="m83.8,64.87c10.47,1.35,18.78,9.6,20.21,20.05.14,1.04.22,2.11.22,3.2s-.07,2.15-.22,3.19c-1.45,10.65-10.06,19.03-20.82,20.12-.79.08-1.59.12-2.4.12-1.11,0-2.19-.08-3.26-.23-10.38-1.44-18.59-9.69-19.97-20.08-.13-1.02-.2-2.06-.2-3.12s.07-2.1.2-3.12c1.38-10.4,9.59-18.64,19.97-20.08,1.07-.15,2.15-.23,3.26-.23,1.02,0,2.02.06,3.01.19Zm14.86,23.67c0-10.01-8.11-18.12-18.12-18.12s-18.12,8.11-18.12,18.12,8.11,18.12,18.12,18.12,18.12-8.11,18.12-18.12Z"/>
    <circle class="cls-2" cx="80.9" cy="88.18" r="9.15"/>
    <path class="cls-2" d="m83.8,111.55v9.45h-6.27v-9.68c1.07.15,2.15.23,3.26.23.81,0,1.61-.04,2.4-.12l.61.12Z"/>
    <path class="cls-2" d="m83.8,55.54v9.33c-.99-.13-1.99-.19-3.01-.19-1.11,0-2.19.08-3.26.23v-9.36h6.27Z"/>
    <path class="cls-2" d="m48.12,84.99h9.45c-.13,1.02-.2,2.06-.2,3.12s.07,2.1.2,3.12l-9.31.17-.14-6.42Z"/>
  </g>
</svg>