<?xml version="1.0" encoding="UTF-8"?>
<svg xmlns="http://www.w3.org/2000/svg" viewBox="0 0 543 179.81">
  <defs>
    <style>
      .cls-1, .cls-2 {
        stroke-width: 0px;
      }

      .cls-2 {
        fill: #fff;
      }
    </style>
  </defs>
  <g id="_图层_5" data-name="图层 5">
    <polygon class="cls-2" points="380.4 0 384.5 13.31 251.5 26.31 260.5 9.31 115.9 15.54 116.68 32.88 0 30.81 10 179.81 128.31 170.04 127.69 154.9 260 159.81 259.5 141.31 380.4 140.5 380.4 113.12 543 131.81 532 10.81 380.4 0"/>
    <polygon class="cls-1" points="138.37 141.09 124.5 140.33 126.17 43.82 135.63 43.82 138.37 141.09"/>
    <polygon class="cls-1" points="257.77 34.69 248.18 35.55 248.18 130.87 257.77 130.65 257.77 34.69"/>
    <polygon class="cls-1" points="387.03 23.17 371.42 24.56 374.84 102.34 387.03 103.47 387.03 23.17"/>
  </g>
  <g id="_图层_8" data-name="图层 8">
    <g id="_图层_7" data-name="图层 7">
      <polygon class="cls-1" points="17.17 43.82 23.96 163.31 119.97 151.3 119.82 140.07 129.58 140.61 132.45 43.82 17.17 43.82"/>
      <polygon class="cls-2" points="72.55 74.19 45 101.81 63 97.81 64 128.81 80.93 128.81 83.44 97.81 100 101.81 72.55 74.19"/>
    </g>
    <g id="_图层_9" data-name="图层 9">
      <polygon class="cls-1" points="253.5 35.07 252.07 130.87 363.82 126.52 363.82 101.32 374.84 102.34 381.32 23.67 253.5 35.07"/>
      <polygon class="cls-2" points="289.38 77.45 317 105 313 87 344 86 344 69.07 313 66.56 317 50 289.38 77.45"/>
    </g>
    <g id="_图层_10" data-name="图层 10">
      <polygon class="cls-1" points="522.13 19.52 390.44 10.81 395.29 22.43 381.32 23.67 374.84 102.34 526 116.35 522.13 19.52"/>
      <polygon class="cls-2" points="477.62 63.3 450 90.85 454 72.85 423 71.85 423 54.92 454 52.42 450 35.85 477.62 63.3"/>
    </g>
    <g id="_图层_11" data-name="图层 11">
      <polygon class="cls-1" points="239.4 36.33 246.11 19.61 136.28 25.82 135.63 43.82 132.45 43.82 129.58 140.61 251.98 147.33 251.98 136.45 251.97 137.66 251.98 136.45 251.98 130.87 252.07 130.87 253.5 35.07 239.4 36.33"/>
      <polygon class="cls-2" points="191.08 110.43 218.64 82.81 200.64 86.81 199.64 55.81 182.7 55.81 180.2 86.81 163.64 82.81 191.08 110.43"/>
    </g>
  </g>
</svg>