<?xml version="1.0" encoding="UTF-8"?>
<svg id="_开启同步" data-name="开启同步" xmlns="http://www.w3.org/2000/svg" viewBox="0 0 796.71 717.42">
  <defs>
    <style>
      .cls-1 {
        fill: #6e7576;
      }

      .cls-1, .cls-2, .cls-3 {
        stroke-width: 0px;
      }

      .cls-3 {
        fill: none;
      }
    </style>
  </defs>
  <polygon id="_边框" data-name="边框" class="cls-3" points="2.5 2.5 2.5 715.29 790.64 715.29 796.71 2.5 2.5 2.5"/>
  <g id="_开启同步按钮" data-name="开启同步按钮">
    <path id="_黑底" data-name="黑底" class="cls-2" d="m299.85,485.05s-7-1-9,11-11,91-6,97,11,13.4,15,13.7,98,10.3,98,10.3c0,0,3-40,8-64s9-48,9-48l-6.98-5.84-108.02-14.16Z"/>
    <g id="_开启同步字样" data-name="开启同步字样">
      <path class="cls-1" d="m326.51,537.85h-3.5v-2.47h3.94l.94-5.28h-4.08v-2.47h19.42v2.47h-2.78v5.28h3.58v2.47h-3.58v7.03h-3.22v-7.03h-7.49l-1.22,7.03h-3.22l1.22-7.03Zm10.7-2.47v-5.28h-6.12l-.94,5.28h7.06Z"/>
      <path class="cls-1" d="m348.06,542.92v-13.87h8.81l-.58-1.44h2.88l.58,1.44h8.3v4.7c0,.74-.26,1.36-.79,1.87-.53.51-1.14.77-1.85.77h-14.02v6.53l-1.1,2.02h-3.34l1.1-2.02Zm15.91-8.9c.21,0,.38-.07.53-.22.14-.14.22-.32.22-.53v-1.85h-13.13v2.59h12.38Zm-11.76,3.26h15.17v5.02c0,.74-.26,1.36-.78,1.87-.52.51-1.13.77-1.84.77h-12.55v-7.66Zm11.09,5.28c.22,0,.41-.07.55-.22s.22-.33.22-.55v-2.14h-8.52v2.9h7.75Z"/>
      <path class="cls-1" d="m322.98,556.4h18.46c.74,0,1.36.26,1.86.79s.76,1.14.76,1.85v12.05c0,.74-.26,1.36-.78,1.87-.52.51-1.13.77-1.84.77h-2.71l.98-2.38h.5c.21,0,.38-.07.53-.22.14-.14.22-.32.22-.53v-11.06c0-.22-.07-.41-.22-.55s-.32-.22-.53-.22h-14.14v14.95h-3.1v-17.33Zm4.39,3.38h12.31v2.38h-12.31v-2.38Zm0,3.58h12.31v4.78c0,.75-.26,1.38-.77,1.88-.51.5-1.14.76-1.87.76h-9.67v-7.42Zm8.23,5.04c.21,0,.38-.07.53-.22.14-.14.22-.33.22-.55v-1.9h-5.64v2.66h4.9Z"/>
      <path class="cls-1" d="m346.96,571.12l16.06-2.04v-3.5h3.31v5.66l-19.37,2.47v-2.59Zm8.93-6.62h-8.83v-2.14h2.18v-4.8h3.31v4.8h3.34v-5.95h3.31v1.73h7.56v2.11h-7.56v2.11h8.86v2.14h-8.86v4.37h-3.31v-4.37Zm-6.65.65h3.31l-1.49,4.46h-3.31l1.49-4.46Z"/>
    </g>
  </g>
</svg>