<?xml version="1.0" encoding="UTF-8"?>
<svg id="_手机主体" data-name="手机主体" xmlns="http://www.w3.org/2000/svg" viewBox="0 0 793.14 717.42">
  <defs>
    <style>
      .cls-1 {
        stroke-width: 5px;
      }

      .cls-1, .cls-2 {
        fill: none;
        stroke: #000;
        stroke-linecap: round;
        stroke-linejoin: round;
      }

      .cls-3, .cls-4, .cls-5 {
        stroke-width: 0px;
      }

      .cls-4 {
        fill: #2d496c;
      }

      .cls-2 {
        stroke-width: .5px;
      }

      .cls-5 {
        fill: #fff;
      }
    </style>
  </defs>
  <g>
    <polygon class="cls-3" points="735.32 308.44 743.25 324.51 730.44 327.15 733.63 308.16 735.32 308.44"/>
    <polygon class="cls-3" points="728.1 339.36 730.44 327.15 762.98 326.75 777.22 338.95 786.98 352.17 790.64 388.17 757.08 441.86 735.72 456.51 733.28 496.78 729.01 507.15 738.16 521.8 733.89 540.39 737.55 570 734.5 580.37 772.74 645.66 735.52 714.92 704.6 714.92 720.67 704.03 732.98 681.46 741.22 641.39 717.32 601.02 693.72 582.1 716.2 436.37 727.99 437.39 755.25 408.71 772.74 379.63 771.22 349.73 754.54 341.39 728.1 339.36"/>
    <polygon class="cls-3" points="652.94 714.92 676.54 692.64 685.69 688.78 695.05 676.98 716.6 682.88 713.55 699.15 704.6 714.92 652.94 714.92"/>
    <path class="cls-4" d="m182.57,710.56l20.34-97.94-4.17-61.52,28.78-143.29s10.17-10.88,10.88-11.69c.71-.82,10.98-32.95,10.98-32.95l4.68-34.48-7.32-75.56-12.2-38.84,23.49-182.95,361.42,54.81,105.36,22.78-57.05,512.03-33.36,55.12-10.98,29.49v4.99l-.17,4.36H182.57v-4.36Z"/>
    <path class="cls-5" d="m225.01,26.98s-5.49-25.66,12.21-24.44c17.69,1.22,527.79,72,527.79,72,0,0,7.02-1.83,6.1,7.93-.91,9.77-13.52,82.78-13.52,82.78l-23.96,142.91-3.19,18.99-2.34,12.21,26.44,2.03,16.68,8.34,1.52,29.9-17.49,29.08-27.26,28.68-11.79-1.02-22.48,145.73,23.6,18.92,23.9,40.37-8.24,40.07-12.31,22.57-16.07,10.89,8.95-15.77,3.05-16.27-21.55-5.9-9.36,11.8-9.15,3.86-23.6,22.28-1.01-6-9.56-5.29,16.07-38.04,29.49-32.34,6.51-2.23,1.01-14.44,12.41-2.85-15.05-15.05-4.48,28.27-12.71,5.14,65.6-531.77L248.5,17.49l-1.83,9.49-19.83,187.9-18.3-13.42,6.25-36.76,8.59-105.61,1.63-32.11Z"/>
    <polygon class="cls-5" points="63.92 708.2 66.32 702.43 67.47 669.17 89.66 616.78 93.52 636.51 102.27 601.73 118.33 580.07 127.69 503.8 165.72 425.09 177.11 367.02 191.55 341.59 194.4 317.39 186.88 312.1 187.69 268.58 201.72 216.31 205.99 226.07 212.5 226.68 222.47 241.12 237.11 283.42 239.55 334.68 229.69 384.2 210.37 411.05 189.83 503.29 181.89 660.31 167.96 714.92 51.11 714.92 50.6 714.92 50.97 712.9 51.77 708.55 63.92 708.2"/>
    <path class="cls-3" d="m165.72,425.09l-38.03,78.71-9.36,76.27-16.06,21.66-8.75,34.78-3.86-19.73-22.19,52.39-1.15,33.26-2.4,5.77-12.15.35-.8,4.35-.37,2.02H2.5l12-36.51,1.02-22.99,12.61-41.89,3.86-30.31,30.11-61.73,1.52-15.56,28.07-53.59,11.8-28.58,8.34-28.47,5.69-13.22,7.53-9.97,25.72-56.95,39.36-136.88,29.7-115.12,3.55-4.06-8.59,105.61-6.25,36.76,18.3,13.42,19.83-187.9,1.83-9.49,492.72,82.83-65.6,531.77,12.71-5.14,4.48-28.27,15.05,15.05-12.41,2.85-1.01,14.44-6.51,2.23-29.49,32.34-16.07,38.04,9.56,5.29,1.01,6h-29.69l.17-4.36v-4.99l10.98-29.49,33.36-55.12,57.05-512.03-105.36-22.78L258.03,31.34l-23.49,182.95,12.2,38.84,7.32,75.56-4.68,34.48s-10.27,32.13-10.98,32.95c-.71.81-10.88,11.69-10.88,11.69l-28.78,143.29,4.17,61.52-20.34,97.94v4.36h-14.61l13.93-54.61,7.94-157.02,20.54-92.24,19.32-26.85,9.86-49.52-2.44-51.26-14.64-42.3-9.97-14.44-6.51-.61-4.27-9.76-14.03,52.27-.81,43.52,7.52,5.29-2.85,24.2-14.44,25.43-11.39,58.07Z"/>
  </g>
  <g>
    <path class="cls-1" d="m730.44,327.15l32.54-.4,14.24,12.2,9.76,13.22,3.66,36-33.56,53.69-21.36,14.65-2.44,40.27-4.27,10.37,9.15,14.65-4.27,18.59,3.66,29.61-3.05,10.37,38.24,65.29-37.22,69.26H2.5l12-36.51,1.02-22.99,12.61-41.89,3.86-30.31,30.11-61.73,1.52-15.56,28.07-53.59,11.8-28.58,8.34-28.47,5.69-13.22,7.53-9.97,25.72-56.95,39.36-136.88,29.7-115.12,3.55-4.06,1.63-32.11s-5.49-25.66,12.21-24.44c17.69,1.22,527.79,72,527.79,72,0,0,7.02-1.83,6.1,7.93-.91,9.77-13.52,82.78-13.52,82.78l-23.96,142.91-3.19,18.99Z"/>
    <polyline class="cls-1" points="50.6 714.92 50.97 712.9 51.77 708.55 63.92 708.2 66.32 702.43 67.47 669.17 89.66 616.78 93.52 636.51 102.27 601.73 118.33 580.07 127.69 503.8 165.72 425.09 177.11 367.02 191.55 341.59 194.4 317.39 186.88 312.1 187.69 268.58 201.72 216.31 205.99 226.07 212.5 226.68 222.47 241.12 237.11 283.42 239.55 334.68 229.69 384.2 210.37 411.05 189.83 503.29 181.89 660.31 167.96 714.92"/>
    <polyline class="cls-1" points="730.44 327.15 728.1 339.36 754.54 341.39 771.22 349.73 772.74 379.63 755.25 408.71 727.99 437.39 716.2 436.37 693.72 582.1 717.32 601.02 741.22 641.39 732.98 681.46 720.67 704.03 704.6 714.92 713.55 699.15 716.6 682.88 695.05 676.98 685.69 688.78 676.54 692.64 652.94 714.92 651.93 708.92 642.37 703.63 658.44 665.59 687.93 633.25 694.44 631.02 695.45 616.58 707.86 613.73 692.81 598.68 688.33 626.95 675.62 632.09 741.22 100.32 248.5 17.49 246.67 26.98 226.84 214.88 208.54 201.46 214.79 164.7 223.38 59.09"/>
    <polyline class="cls-2" points="735.32 308.44 743.25 324.51 730.44 327.15"/>
    <path class="cls-1" d="m182.57,714.92v-4.36l20.34-97.94-4.17-61.52,28.78-143.29s10.17-10.88,10.88-11.69c.71-.82,10.98-32.95,10.98-32.95l4.68-34.48-7.32-75.56-12.2-38.84,23.49-182.95,361.42,54.81,105.36,22.78-57.05,512.03-33.36,55.12-10.98,29.49v4.99l-.17,4.36"/>
  </g>
</svg>