<?xml version="1.0" encoding="UTF-8"?>
<svg xmlns="http://www.w3.org/2000/svg" viewBox="0 0 793.14 717.42">
  <defs>
    <style>
      .cls-1, .cls-2, .cls-3, .cls-4, .cls-5, .cls-6, .cls-7 {
        stroke-width: 0px;
      }

      .cls-1, .cls-8 {
        fill: #6e7576;
      }

      .cls-2 {
        fill: #2d5c6c;
      }

      .cls-3 {
        fill: #aea181;
      }

      .cls-9 {
        stroke: #fff;
      }

      .cls-9, .cls-10, .cls-11 {
        fill: none;
      }

      .cls-9, .cls-8 {
        stroke-miterlimit: 10;
      }

      .cls-10 {
        stroke-width: 5px;
      }

      .cls-10, .cls-11 {
        stroke: #000;
        stroke-linecap: round;
        stroke-linejoin: round;
      }

      .cls-8 {
        stroke: #6e7576;
        stroke-width: 4px;
      }

      .cls-5 {
        fill: #2d496c;
      }

      .cls-11 {
        stroke-width: .5px;
      }

      .cls-6 {
        fill: #fff;
      }

      .cls-7 {
        fill: #00405f;
      }
    </style>
  </defs>
  <g id="_手机主体" data-name="手机主体">
    <g>
      <g>
        <polygon class="cls-4" points="735.32 308.44 743.25 324.51 730.44 327.15 733.63 308.16 735.32 308.44"/>
        <polygon class="cls-4" points="728.1 339.36 730.44 327.15 762.98 326.75 777.22 338.95 786.98 352.17 790.64 388.17 757.08 441.86 735.72 456.51 733.28 496.78 729.01 507.15 738.16 521.8 733.89 540.39 737.55 570 734.5 580.37 772.74 645.66 735.52 714.92 704.6 714.92 720.67 704.03 732.98 681.46 741.22 641.39 717.32 601.02 693.72 582.1 716.2 436.37 727.99 437.39 755.25 408.71 772.74 379.63 771.22 349.73 754.54 341.39 728.1 339.36"/>
        <polygon class="cls-4" points="652.94 714.92 676.54 692.64 685.69 688.78 695.05 676.98 716.6 682.88 713.55 699.15 704.6 714.92 652.94 714.92"/>
        <path class="cls-5" d="m182.57,710.56l20.34-97.94-4.17-61.52,28.78-143.29s10.17-10.88,10.88-11.69c.71-.82,10.98-32.95,10.98-32.95l4.68-34.48-7.32-75.56-12.2-38.84,23.49-182.95,361.42,54.81,105.36,22.78-57.05,512.03-33.36,55.12-10.98,29.49v4.99l-.17,4.36H182.57v-4.36Z"/>
        <path class="cls-6" d="m225.01,26.98s-5.49-25.66,12.21-24.44c17.69,1.22,527.79,72,527.79,72,0,0,7.02-1.83,6.1,7.93-.91,9.77-13.52,82.78-13.52,82.78l-23.96,142.91-3.19,18.99-2.34,12.21,26.44,2.03,16.68,8.34,1.52,29.9-17.49,29.08-27.26,28.68-11.79-1.02-22.48,145.73,23.6,18.92,23.9,40.37-8.24,40.07-12.31,22.57-16.07,10.89,8.95-15.77,3.05-16.27-21.55-5.9-9.36,11.8-9.15,3.86-23.6,22.28-1.01-6-9.56-5.29,16.07-38.04,29.49-32.34,6.51-2.23,1.01-14.44,12.41-2.85-15.05-15.05-4.48,28.27-12.71,5.14,65.6-531.77L248.5,17.49l-1.83,9.49-19.83,187.9-18.3-13.42,6.25-36.76,8.59-105.61,1.63-32.11Z"/>
        <polygon class="cls-6" points="63.92 708.2 66.32 702.43 67.47 669.17 89.66 616.78 93.52 636.51 102.27 601.73 118.33 580.07 127.69 503.8 165.72 425.09 177.11 367.02 191.55 341.59 194.4 317.39 186.88 312.1 187.69 268.58 201.72 216.31 205.99 226.07 212.5 226.68 222.47 241.12 237.11 283.42 239.55 334.68 229.69 384.2 210.37 411.05 189.83 503.29 181.89 660.31 167.96 714.92 51.11 714.92 50.6 714.92 50.97 712.9 51.77 708.55 63.92 708.2"/>
        <path class="cls-4" d="m165.72,425.09l-38.03,78.71-9.36,76.27-16.06,21.66-8.75,34.78-3.86-19.73-22.19,52.39-1.15,33.26-2.4,5.77-12.15.35-.8,4.35-.37,2.02H2.5l12-36.51,1.02-22.99,12.61-41.89,3.86-30.31,30.11-61.73,1.52-15.56,28.07-53.59,11.8-28.58,8.34-28.47,5.69-13.22,7.53-9.97,25.72-56.95,39.36-136.88,29.7-115.12,3.55-4.06-8.59,105.61-6.25,36.76,18.3,13.42,19.83-187.9,1.83-9.49,492.72,82.83-65.6,531.77,12.71-5.14,4.48-28.27,15.05,15.05-12.41,2.85-1.01,14.44-6.51,2.23-29.49,32.34-16.07,38.04,9.56,5.29,1.01,6h-29.69l.17-4.36v-4.99l10.98-29.49,33.36-55.12,57.05-512.03-105.36-22.78L258.03,31.34l-23.49,182.95,12.2,38.84,7.32,75.56-4.68,34.48s-10.27,32.13-10.98,32.95c-.71.81-10.88,11.69-10.88,11.69l-28.78,143.29,4.17,61.52-20.34,97.94v4.36h-14.61l13.93-54.61,7.94-157.02,20.54-92.24,19.32-26.85,9.86-49.52-2.44-51.26-14.64-42.3-9.97-14.44-6.51-.61-4.27-9.76-14.03,52.27-.81,43.52,7.52,5.29-2.85,24.2-14.44,25.43-11.39,58.07Z"/>
      </g>
      <g>
        <path class="cls-10" d="m730.44,327.15l32.54-.4,14.24,12.2,9.76,13.22,3.66,36-33.56,53.69-21.36,14.65-2.44,40.27-4.27,10.37,9.15,14.65-4.27,18.59,3.66,29.61-3.05,10.37,38.24,65.29-37.22,69.26H2.5l12-36.51,1.02-22.99,12.61-41.89,3.86-30.31,30.11-61.73,1.52-15.56,28.07-53.59,11.8-28.58,8.34-28.47,5.69-13.22,7.53-9.97,25.72-56.95,39.36-136.88,29.7-115.12,3.55-4.06,1.63-32.11s-5.49-25.66,12.21-24.44c17.69,1.22,527.79,72,527.79,72,0,0,7.02-1.83,6.1,7.93-.91,9.77-13.52,82.78-13.52,82.78l-23.96,142.91-3.19,18.99Z"/>
        <polyline class="cls-10" points="50.6 714.92 50.97 712.9 51.77 708.55 63.92 708.2 66.32 702.43 67.47 669.17 89.66 616.78 93.52 636.51 102.27 601.73 118.33 580.07 127.69 503.8 165.72 425.09 177.11 367.02 191.55 341.59 194.4 317.39 186.88 312.1 187.69 268.58 201.72 216.31 205.99 226.07 212.5 226.68 222.47 241.12 237.11 283.42 239.55 334.68 229.69 384.2 210.37 411.05 189.83 503.29 181.89 660.31 167.96 714.92"/>
        <polyline class="cls-10" points="730.44 327.15 728.1 339.36 754.54 341.39 771.22 349.73 772.74 379.63 755.25 408.71 727.99 437.39 716.2 436.37 693.72 582.1 717.32 601.02 741.22 641.39 732.98 681.46 720.67 704.03 704.6 714.92 713.55 699.15 716.6 682.88 695.05 676.98 685.69 688.78 676.54 692.64 652.94 714.92 651.93 708.92 642.37 703.63 658.44 665.59 687.93 633.25 694.44 631.02 695.45 616.58 707.86 613.73 692.81 598.68 688.33 626.95 675.62 632.09 741.22 100.32 248.5 17.49 246.67 26.98 226.84 214.88 208.54 201.46 214.79 164.7 223.38 59.09"/>
        <polyline class="cls-11" points="735.32 308.44 743.25 324.51 730.44 327.15"/>
        <path class="cls-10" d="m182.57,714.92v-4.36l20.34-97.94-4.17-61.52,28.78-143.29s10.17-10.88,10.88-11.69c.71-.82,10.98-32.95,10.98-32.95l4.68-34.48-7.32-75.56-12.2-38.84,23.49-182.95,361.42,54.81,105.36,22.78-57.05,512.03-33.36,55.12-10.98,29.49v4.99l-.17,4.36"/>
      </g>
    </g>
  </g>
  <g id="_未注册账号_" data-name="未注册账号？">
    <g>
      <path class="cls-3" d="m204.17,699.65h-5.1v-1.44h5.1v-1.32h-4.63v-1.44h4.63v-.87h2.04v.87h4.62v1.44h-4.62v1.32h5.08v1.44h-5.08v4.94h-2.04v-4.94Zm-3.04.59h1.96l-2.06,4.45h-1.96l2.06-4.45Zm8.15,0l2.04,4.45h-1.96l-2.04-4.45h1.96Z"/>
      <path class="cls-3" d="m214.02,696.89l-.97-2.31h1.95l1.3,3.14h-.97l.97,2.31h-1.95l-1.3-3.14h.97Zm.34,3.79h1.95l-1.3,3.99h-1.95l1.3-3.99Zm3,2.62h3.11v-2.2h-3.11v-1.39h3.11v-2.51h-3.11v-1.39h3.04l-.42-1.25h1.95l.42,1.25h3.01v1.39h-2.94v2.51h2.94v1.39h-2.94v2.2h2.94v1.37h-7.99v-1.37Z"/>
      <path class="cls-3" d="m227.6,700.24h-.55v-1.36h.55v-4.3h4.02c.36,0,.67.13.93.38.26.26.38.57.38.93v2.98h.62v-4.28h4.02c.36,0,.67.13.93.38.26.26.39.57.39.93v2.97h.46v1.36h-.46v3.42c0,.29-.1.54-.3.74-.2.2-.45.3-.75.3h-1.86l.46-1.37h.42c.07,0,.14-.03.2-.08.06-.06.09-.13.09-.21v-2.79h-1.86v4.45h-1.74v-4.45h-.62v3.4c0,.29-.1.53-.31.74-.21.2-.45.3-.74.3h-1.86l.46-1.37h.41c.08,0,.16-.03.22-.08.06-.06.09-.13.09-.21v-2.77h-1.86v4.45h-1.74v-4.45Zm3.6-1.36v-2.49c0-.13-.04-.24-.13-.32s-.19-.13-.32-.13h-1.41v2.94h1.86Zm5.95,0v-2.48c0-.12-.04-.22-.13-.31s-.19-.13-.31-.13h-1.43v2.91h1.86Z"/>
      <path class="cls-3" d="m241.04,694.63h3.95c.51,0,.86.1,1.04.31s.27.54.27.99v6.17h-.92l.97,2.56h-1.62l-.85-2.28-.94,2.25h-1.68l1.04-2.53h-1.25v-7.48Zm1.92,5.82v-3.5h1.48v4.06l-.21.52h.53v-5.14c0-.25-.09-.38-.28-.38h-1.88v5.29l.35-.85Zm4.6,3.79c-.29-.3-.44-.66-.44-1.09v-3.33h-.59v-1.39h.59v-3.85h1.81v2.66l2.21-2.66h2.13l-2.62,3.19h-1.72v.66h4.42v1.39h-2.23l2.18,4.86h-1.9l-2.14-4.86h-.34v3.22c0,.13.04.24.13.32s.19.13.32.13h.46l-.43,1.2h-.74c-.44,0-.81-.15-1.1-.45Z"/>
      <path class="cls-3" d="m260.04,703.22h3.93c.08,0,.15-.03.21-.09s.08-.13.08-.22v-.87h-7.83l1.57-2.06h-2.79v-1.2h11.96v1.2h-7.13l-.64.84h6.8v2.72c0,.29-.1.54-.31.74-.21.21-.45.31-.74.31h-5.94l.81-1.37Zm-4.09-8.55h10.53v2.38c0,.29-.1.53-.3.74-.2.2-.45.3-.73.3h-9.49v-3.42Zm8.29,2.2c.08,0,.15-.03.21-.08.06-.06.08-.13.08-.21v-.7h-6.64v.99h6.34Z"/>
      <path class="cls-3" d="m271,694.67h4.76c.37,0,.72.09,1.03.27.31.18.56.43.74.74s.27.66.27,1.03v1.37c0,.38-.09.73-.28,1.04-.19.31-.44.56-.75.74-.31.18-.65.27-1.02.27h-.91c-.14,0-.25.05-.34.14-.09.09-.13.2-.13.32v1.69h-1.96v-1.39c0-.37.09-.72.27-1.04.18-.32.43-.57.75-.75.32-.18.66-.27,1.04-.27h.91c.13,0,.24-.05.34-.14s.14-.21.14-.34v-1.95c0-.14-.05-.25-.14-.34s-.21-.13-.34-.13h-4.38v-1.29Zm1.41,8.29h1.96v1.68h-1.96v-1.68Z"/>
    </g>
  </g>
  <g id="_立刻登录按钮" data-name="立刻登录按钮">
    <polygon id="_白底" data-name="白底" class="cls-6" points="529.25 653.21 642.25 642.21 612.25 694.17 526.25 685.21 529.25 653.21"/>
    <polygon id="_黑底" data-name="黑底" class="cls-4" points="533.75 657.71 623.75 651.71 611.75 690.71 532.75 678.71 533.75 657.71"/>
    <g id="_立刻登录字样" data-name="立刻登录字样">
      <path class="cls-1" d="m543.16,672.76l3.18.41-.08-7.01,2.02.26.08,7.01,3.21.41,2.44-6.69,2.02.26-2.44,6.69,3.88.5-.22,1.75-14.32-1.84.22-1.75Zm1.62-9.76l5.6.72-.21-1.37,2.02.26.21,1.37,5.99.77-.22,1.75-13.61-1.75.22-1.75Z"/>
      <path class="cls-1" d="m563.54,669.84l-3.36-.43,1.91-2.82-1.52-.2.22-1.73,3.28.42.12-.91,1.96.25-.12.91,3.69.47-.22,1.73-5.5-.71-.82,1.2,1.78.23.56-.63,2.32.3-5.91,6.64-2.32-.3,3.94-4.43Zm2.52.79l2.32.3-2,2.14.42.05,1.38,4.62-2.32-.3-.87-2.91-2.33,2.5-2.32-.3,5.71-6.11Zm3.5,5.51l1.47.19c.14.02.27-.02.38-.11.11-.1.18-.22.2-.37l1.36-10.55,2.27.29-1.4,10.91c-.07.54-.3.97-.7,1.31-.4.34-.85.47-1.35.41l-3.17-.41.94-1.66Zm.65-10.46l1.96.25-1.23,9.55-1.96-.25,1.23-9.55Z"/>
      <path class="cls-1" d="m575.73,677.26l2.59.33-.27-1.4,2.35.3.27,1.4,4.46.57.61-1.28,2.35.3-.61,1.28,2.59.33-.19,1.46-14.34-1.84.19-1.46Zm2.19-7.63l-.99-1.72,2.25.29.13.25,1.03-.88-2.59-.33.17-1.3,6.3.81-3.29,3.04,6.12.79-2.61-3.8,2.84.37.62.9.65-.66,1.92.25-1.67,1.73.32.46.21-.21,1.94.25-1.24,1.27.91,1.33-2.84-.36-.83-1.2-.16,1.23-6.75-.87.14-1.09-1.05.97-2.84-.37,1.32-1.14Zm-.63,1.97l12.71,1.63-.26,2.05c-.07.51-.29.95-.66,1.31-.37.36-.89.5-1.54.42l-10.77-1.38.52-4.04Zm9.93,3.78c.08,0,.14,0,.2-.06s.09-.11.1-.18l.08-.62-8.3-1.07-.12.89,8.04,1.03Z"/>
      <path class="cls-1" d="m594.39,678.15l2.59.33-2.48,2.67-2.59-.33,2.48-2.68Zm6.41-.74l-.31,2.43c-.07.55-.31,1-.73,1.35-.42.35-.87.5-1.36.43l-2.41-.31.86-1.5.57.07c.15.02.29-.02.4-.11.11-.09.18-.22.2-.39l.5-3.86-5.82-.75.2-1.57,11.13,1.43.15-1.18-10.16-1.31.2-1.55,10.16,1.31.05-.43c.02-.15-.01-.29-.1-.41-.08-.12-.2-.19-.35-.21l-10-1.29.2-1.57,11.13,1.43c.51.07.91.31,1.21.74.29.43.41.91.34,1.46l-.43,3.32.72.09-.2,1.57-5.92-.76-.13.98,2.15.28.44.87.88-1.08,2.5.32-1.96,2.52-.57-.09,1.49,2.97-2.54-.33-2.46-4.87Zm-5.24-1.8l1.64,2.32-2.59-.33-1.64-2.32,2.59.33Z"/>
    </g>
  </g>
  <g id="_两行信息" data-name="两行信息">
    <g id="_密码" data-name="密码">
      <line id="_横线" data-name="横线" class="cls-9" x1="349.02" y1="525.01" x2="653.02" y2="571.01"/>
      <path id="_白底-2" data-name="白底" class="cls-6" d="m259.59,465.89s-5.81-1.1-8.02,2.84-13.25,30.3-9.33,32.91c3.92,2.61,8.6,5.82,11.94,6.35s81.51,14.1,81.51,14.1c0,0,4.29-13.51,9.54-21.28,5.25-7.76,5.07-11.77,5.07-13.77s-1-4-2-5c-2.55-2.55-88.71-16.15-88.71-16.15Z"/>
      <path id="_黑底-2" data-name="黑底" class="cls-4" d="m264.37,469.73s-5.04-.95-6.94,2.39-11.42,25.71-8.02,27.94c3.4,2.23,7.47,4.96,10.36,5.42s70.69,12.16,70.69,12.16c0,0,3.69-11.47,8.22-18.06,4.53-6.59,4.37-9.99,4.36-11.69s-.88-3.4-1.74-4.25c-2.22-2.17-76.93-13.92-76.93-13.92Z"/>
      <g id="_密码字样" data-name="密码字样">
        <path class="cls-1" d="m277.21,496.83l2.47.37-.32,2.14,3.74.57.32-2.14,2.49.38-.32,2.14,3.17.48c.17.03.31-.01.44-.12.13-.06.21-.18.23-.35l.24-1.58,2.47.37-.27,1.76c-.04.27-.13.53-.28.76-.12.2-.29.39-.52.56-.19.14-.42.25-.67.34-.23.05-.48.05-.77.01l-12.99-1.97.56-3.72Zm-.12-2l4.16-.39.45-2.97,2.47.37-.36,2.35,3.99-.36-1.94-.29-.88-1.99,2.39.36.86,1.9,5.01-.48-.26,1.73-8.4.77,4.52.68-.88,1.49-5.38-.81c-.31-.05-.61-.16-.89-.35-.26-.21-.46-.45-.6-.73l-4.51.43.26-1.69Zm1.41-3.21l2.3.35-1.1,2.13-2.33-.35,1.14-2.12Zm-.4-3.36l6.3.95-.17-.7,2.69.41.18.7,4.7.71c.3.04.54.13.74.26.26.15.45.32.58.52.14.19.25.41.34.67.06.28.06.54.03.79l-.12.77-2.49-.38.06-.39c.03-.18,0-.32-.1-.42-.07-.12-.18-.19-.35-.22l-10.16-1.54-.14.94-2.49-.38.41-2.71Zm13.56,7.57l.99,2.83-2.08-.32-.99-2.83,2.08.32Z"/>
        <path class="cls-1" d="m296.78,492.26l-.91-.14.27-1.76,7.42,1.12-.27,1.76-4.06-.61-.25.8,3.7.56-1.25,8.29c-.08.55-.35.98-.8,1.3-.45.32-.94.44-1.46.36l-3.92-.59.75-4.93-1.17-.18,1.94-5.99Zm1.79,9.79c.15.02.29,0,.42-.1.12-.09.2-.21.22-.37l.93-6.18-1.32-.2-1.02,6.73.77.12Zm3.83-1.84l4.52.68-.27,1.76-4.52-.68.27-1.76Zm3.95,3.26l.62.09c.15.02.29-.01.42-.1.12-.09.2-.22.22-.39l.53-3.51-5.52-.83,1.59-4.4,2.56.39-.95,2.7,1.98.3.48-3.17c.02-.15-.01-.29-.1-.42-.09-.12-.21-.2-.37-.22l-3.93-.6.27-1.76,5,.76c.56.08.99.34,1.31.78.32.44.43.93.35,1.47l-.53,3.52.61.09-.82,5.41c-.08.56-.34.99-.78,1.31-.44.32-.93.43-1.47.35l-2.37-.36.91-1.43Z"/>
      </g>
    </g>
    <g id="_账号" data-name="账号">
      <line id="_横线-2" data-name="横线" class="cls-9" x1="369.02" y1="385.79" x2="673.02" y2="431.79"/>
      <path id="_白底-3" data-name="白底" class="cls-6" d="m279.74,327.11s-5.81-1.1-8.02,2.84-13.25,30.3-9.33,32.91c3.92,2.61,8.6,5.82,11.94,6.35s81.51,14.1,81.51,14.1c0,0,4.29-13.51,9.54-21.28,5.25-7.76,5.07-11.77,5.07-13.77s-1-4-2-5c-2.55-2.55-88.71-16.15-88.71-16.15Z"/>
      <path id="_黑底-3" data-name="黑底" class="cls-4" d="m284.52,330.95s-5.04-.95-6.94,2.39-11.42,25.71-8.02,27.94c3.4,2.23,7.47,4.96,10.36,5.42s70.69,12.16,70.69,12.16c0,0,3.69-11.47,8.22-18.06,4.53-6.59,4.37-9.99,4.36-11.69s-.88-3.4-1.74-4.25c-2.22-2.17-76.93-13.92-76.93-13.92Z"/>
      <g id="_账号字样" data-name="账号字样">
        <path class="cls-1" d="m299.13,347.82l5.02.76c.65.1,1.07.3,1.27.6.19.3.24.74.16,1.31l-1.19,7.85-1.17-.18.73,3.44-2.06-.31-.65-3.06-1.63,2.68-2.14-.32,1.8-3.02-1.58-.24,1.44-9.5Zm1.32,7.77l.67-4.45,1.89.29-.78,5.16-.37.62.68.1.99-6.53c.05-.32-.05-.5-.28-.53l-2.38-.36-1.02,6.73.61-1.02Zm5.12,5.71c-.32-.44-.43-.93-.35-1.47l.64-4.24-.75-.11.27-1.76.75.11.74-4.89,2.3.35-.51,3.38,3.32-2.96,2.71.41-3.94,3.55-2.19-.33-.13.84,5.62.85-.27,1.76-2.83-.43,1.84,6.6-2.42-.37-1.79-6.59-.43-.06-.62,4.09c-.03.17,0,.31.1.43s.22.2.39.22l.59.09-.78,1.45-.94-.14c-.56-.08-1-.34-1.31-.78Z"/>
        <path class="cls-1" d="m321.63,362.4l5,.76c.11.02.2,0,.28-.08.08-.07.13-.15.15-.26l.17-1.1-9.95-1.5,2.39-2.31-3.54-.54.23-1.53,15.2,2.3-.23,1.53-9.06-1.37-.98.94,8.65,1.31-.52,3.45c-.06.37-.23.66-.54.88s-.63.3-1,.25l-7.55-1.14,1.3-1.59Zm-3.55-11.66l13.38,2.02-.46,3.03c-.06.37-.23.66-.52.88-.29.22-.62.3-.99.24l-12.07-1.83.66-4.34Zm10.11,4.39c.11.02.2,0,.28-.07.08-.06.13-.14.15-.25l.13-.89-8.44-1.28-.19,1.26,8.06,1.22Z"/>
      </g>
    </g>
  </g>
  <g id="_请登录装饰" data-name="请登录装饰">
    <path class="cls-7" d="m606.52,213.29c14.13-3.58,37.15,16.74,35,36-1.65,14.77-17.48,23.22-19,24-14.57,7.51-22.05-.74-46,5-9.75,2.34-24.5,5.87-28,16-2.77,8.02,3.83,13.45,0,21-3.26,6.43-12.14,10.56-20,9-10.01-1.99-15.12-12.58-16-20-2.12-17.8,17.97-31.88,21-34,15.81-11.06,36.61-13.87,45-15,12.24-1.65,23.73-1.48,28-9,.38-.67,2.65-4.83,1-8-2.56-4.9-11.7-2.05-14-6-2.6-4.46,4-16.72,13-19Z"/>
    <path class="cls-2" d="m448.52,124.29c-30.35.56-97.61,1.79-108,33-6.49,19.49,11.09,45.04,28,59,38.73,31.96,71.24.89,160,24,28.92,7.53,44.2,15.7,61,7,21.28-11.02,34.55-43.67,27-68-17.92-57.75-149.09-55.35-168-55Z"/>
    <g>
      <path class="cls-1" d="m394,167.75l12.22,1.57-3.03,23.54c-.07.52.06.97.38,1.34.4.42.8.66,1.2.71l2.66.34-2.98,5.03-5.99-.77c-1.25-.16-2.32-.77-3.21-1.83-.84-1.09-1.18-2.32-1-3.7l2.54-19.78-3.57-.46.77-5.99Zm10.42-12.13l3.15,10.43-8.59-1.1-3.21-10.44,8.65,1.11Zm6.58,21.57l30.86,3.97c1.25.16,2.25.73,3.01,1.71.75.98,1.05,2.09.89,3.34l-1.63,12.64h-.06c-.26,1.72-1.1,3.13-2.51,4.22-1.41,1.05-3.04,1.46-4.89,1.22l-4.78-.61,2.06-4.04,1.27.16c.44.06.89-.07,1.34-.38.4-.28.64-.7.72-1.26l.02-.18-21.72-2.79-.81,6.29-6.78-.87,3.01-23.41Zm.82-6.35l13.79,1.77.23-1.81-13.79-1.77.55-4.3,13.79,1.77.23-1.81-13.79-1.77.54-4.17,13.79,1.77.23-1.75,8.23,1.06-.23,1.75,13.31,1.71-.54,4.17-13.31-1.71-.23,1.81,13.31,1.71-.55,4.3-13.31-1.71-.23,1.81,13.31,1.71-.54,4.24-35.33-4.54.54-4.24Zm26.03,22.84l.28-2.18-21.72-2.79-.28,2.18,21.72,2.79Zm.83-6.47l.12-.91c.04-.32-.04-.62-.25-.89-.21-.27-.5-.43-.86-.48l-20.45-2.63-.27,2.12,21.72,2.79Z"/>
      <path class="cls-1" d="m451.21,201.12l9.62,1.24-1.05-4.75,8.71,1.12,1.05,4.75,16.52,2.12,2.22-4.33,8.71,1.12-2.22,4.33,9.62,1.24-.64,4.96-53.18-6.84.64-4.96Zm7.81-25.81l-3.73-5.89,8.35,1.07.5.86,3.76-2.96-9.62-1.24.57-4.42,23.35,3-12.07,10.19,22.69,2.92-9.83-13.01,10.53,1.35,2.31,3.06,2.38-2.22,7.14.92-6.1,5.8,1.21,1.57.77-.7,7.2.92-4.55,4.28,3.41,4.56-10.53-1.35-3.1-4.09-.54,4.17-25.05-3.22.47-3.69-3.86,3.25-10.53-1.35,4.86-3.8Zm-2.27,6.66l47.13,6.06-.89,6.96c-.22,1.74-1.02,3.21-2.38,4.43-1.37,1.22-3.26,1.67-5.68,1.36l-39.93-5.13,1.76-13.67Zm36.92,13.23c.28.04.53-.02.73-.18.2-.16.32-.36.35-.6l.27-2.12-30.79-3.96-.39,3.03,29.83,3.83Z"/>
      <path class="cls-1" d="m520.34,204.9l9.62,1.24-9.09,8.98-9.62-1.24,9.09-8.98Zm23.72-2.24l-1.06,8.23c-.24,1.86-1.12,3.37-2.65,4.55s-3.19,1.65-5.01,1.42l-8.95-1.15,3.11-5.07,2.12.27c.57.07,1.05-.05,1.46-.37.41-.32.65-.76.72-1.32l1.68-13.07-21.6-2.78.68-5.32,41.26,5.31.51-3.99-37.69-4.85.68-5.26,37.69,4.85.19-1.45c.07-.52-.06-.99-.37-1.4-.32-.41-.76-.65-1.32-.72l-37.09-4.77.68-5.32,41.26,5.3c1.9.24,3.4,1.09,4.5,2.55,1.11,1.46,1.54,3.11,1.3,4.96l-1.45,11.25,2.66.34-.68,5.32-21.96-2.82-.43,3.33,7.99,1.03,1.65,2.98,3.24-3.64,9.26,1.19-7.18,8.49-2.11-.33,5.65,10.14-9.44-1.21-9.3-16.63Zm-19.48-6.32l6.18,7.93-9.62-1.24-6.18-7.93,9.62,1.24Z"/>
    </g>
    <circle class="cls-1" cx="537.02" cy="283.79" r="3.5"/>
    <circle class="cls-1" cx="554.02" cy="280.79" r="3.5"/>
    <circle class="cls-1" cx="567.52" cy="268.29" r="4"/>
    <line class="cls-8" x1="536.52" y1="284.29" x2="553.52" y2="281.29"/>
    <line class="cls-8" x1="567.52" y1="268.29" x2="553.52" y2="280.29"/>
  </g>
</svg>