<?xml version="1.0" encoding="UTF-8"?>
<svg xmlns="http://www.w3.org/2000/svg" viewBox="0 0 793.14 717.42">
  <defs>
    <style>
      .cls-1 {
        fill: #6e7576;
      }

      .cls-1, .cls-2, .cls-3, .cls-4, .cls-5 {
        stroke-width: 0px;
      }

      .cls-2 {
        fill: #aea181;
      }

      .cls-6 {
        stroke: #fff;
        stroke-miterlimit: 10;
      }

      .cls-6, .cls-7, .cls-8 {
        fill: none;
      }

      .cls-7 {
        stroke-width: 5px;
      }

      .cls-7, .cls-8 {
        stroke: #000;
        stroke-linecap: round;
        stroke-linejoin: round;
      }

      .cls-4 {
        fill: #2d496c;
      }

      .cls-8 {
        stroke-width: .5px;
      }

      .cls-5 {
        fill: #fff;
      }
    </style>
  </defs>
  <g id="_手机主体" data-name="手机主体">
    <g>
      <g>
        <polygon class="cls-3" points="786.98 352.17 790.64 388.17 757.08 441.86 735.72 456.51 733.28 496.78 729.01 507.15 738.16 521.8 733.89 540.39 737.55 570 734.5 580.37 772.74 645.66 735.52 714.92 704.6 714.92 720.67 704.03 732.98 681.46 741.22 641.39 717.32 601.02 693.72 582.1 716.2 436.37 727.99 437.39 755.25 408.71 772.74 379.63 771.22 349.73 754.54 341.39 728.1 339.36 730.44 327.15 762.98 326.75 777.22 338.95 786.98 352.17"/>
        <path class="cls-5" d="m771.22,349.73l1.52,29.9-17.49,29.08-27.26,28.68-11.79-1.02-22.48,145.73,23.6,18.92,23.9,40.37-8.24,40.07-12.31,22.57-16.07,10.89,8.95-15.77,3.05-16.27-21.55-5.9-9.36,11.8-9.15,3.86-23.6,22.28-1.01-6-9.56-5.29,16.07-38.04,29.49-32.34,6.51-2.23,1.01-14.44,12.41-2.85-15.05-15.05-4.48,28.27-12.71,5.14,65.6-531.77L248.5,17.49l-1.83,9.49-19.83,187.9-18.3-13.42,6.25-36.76,8.59-105.61,1.63-32.11s-5.49-25.66,12.21-24.44c17.69,1.22,527.79,72,527.79,72,0,0,7.02-1.83,6.1,7.93-.91,9.77-13.52,82.78-13.52,82.78l-23.96,142.91-3.19,18.99-2.34,12.21,26.44,2.03,16.68,8.34Z"/>
        <polygon class="cls-3" points="735.32 308.44 743.25 324.51 730.44 327.15 733.63 308.16 735.32 308.44"/>
        <path class="cls-3" d="m741.22,100.32l-65.6,531.77,12.71-5.14,4.48-28.27,15.05,15.05-12.41,2.85-1.01,14.44-6.51,2.23-29.49,32.34-16.07,38.04,9.56,5.29,1.01,6h-29.69l.17-4.36v-4.99l10.98-29.49,33.36-55.12,57.05-512.03-105.36-22.78L258.03,31.34l-23.49,182.95,12.2,38.84,7.32,75.56-4.68,34.48s-10.27,32.13-10.98,32.95c-.71.81-10.88,11.69-10.88,11.69l-28.78,143.29,4.17,61.52-20.34,97.94v4.36h-14.61l13.93-54.61,7.94-157.02,20.54-92.24,19.32-26.85,9.86-49.52-2.44-51.26-14.64-42.3-9.97-14.44-6.51-.61-4.27-9.76-14.03,52.27-.81,43.52,7.52,5.29-2.85,24.2-14.44,25.43-11.39,58.07-38.03,78.71-9.36,76.27-16.06,21.66-8.75,34.78-3.86-19.73-22.19,52.39-1.15,33.26-2.4,5.77-12.15.35-.8,4.35-.37,2.02H2.5l12-36.51,1.02-22.99,12.61-41.89,3.86-30.31,30.11-61.73,1.52-15.56,28.07-53.59,11.8-28.58,8.34-28.47,5.69-13.22,7.53-9.97,25.72-56.95,39.36-136.88,29.7-115.12,3.55-4.06-8.59,105.61-6.25,36.76,18.3,13.42,19.83-187.9,1.83-9.49,492.72,82.83Z"/>
        <path class="cls-4" d="m724.81,108.93l-57.05,512.03-33.36,55.12-10.98,29.49v4.99l-.17,4.36H182.57v-4.36l20.34-97.94-4.17-61.52,28.78-143.29s10.17-10.88,10.88-11.69c.71-.82,10.98-32.95,10.98-32.95l4.68-34.48-7.32-75.56-12.2-38.84,23.49-182.95,361.42,54.81,105.36,22.78Z"/>
        <polygon class="cls-3" points="716.6 682.88 713.55 699.15 704.6 714.92 652.94 714.92 676.54 692.64 685.69 688.78 695.05 676.98 716.6 682.88"/>
        <polygon class="cls-5" points="237.11 283.42 239.55 334.68 229.69 384.2 210.37 411.05 189.83 503.29 181.89 660.31 167.96 714.92 51.11 714.92 50.6 714.92 50.97 712.9 51.77 708.55 63.92 708.2 66.32 702.43 67.47 669.17 89.66 616.78 93.52 636.51 102.27 601.73 118.33 580.07 127.69 503.8 165.72 425.09 177.11 367.02 191.55 341.59 194.4 317.39 186.88 312.1 187.69 268.58 201.72 216.31 205.99 226.07 212.5 226.68 222.47 241.12 237.11 283.42"/>
      </g>
      <g>
        <path class="cls-7" d="m730.44,327.15l32.54-.4,14.24,12.2,9.76,13.22,3.66,36-33.56,53.69-21.36,14.65-2.44,40.27-4.27,10.37,9.15,14.65-4.27,18.59,3.66,29.61-3.05,10.37,38.24,65.29-37.22,69.26H2.5l12-36.51,1.02-22.99,12.61-41.89,3.86-30.31,30.11-61.73,1.52-15.56,28.07-53.59,11.8-28.58,8.34-28.47,5.69-13.22,7.53-9.97,25.72-56.95,39.36-136.88,29.7-115.12,3.55-4.06,1.63-32.11s-5.49-25.66,12.21-24.44c17.69,1.22,527.79,72,527.79,72,0,0,7.02-1.83,6.1,7.93-.91,9.77-13.52,82.78-13.52,82.78l-23.96,142.91-3.19,18.99Z"/>
        <polyline class="cls-7" points="50.6 714.92 50.97 712.9 51.77 708.55 63.92 708.2 66.32 702.43 67.47 669.17 89.66 616.78 93.52 636.51 102.27 601.73 118.33 580.07 127.69 503.8 165.72 425.09 177.11 367.02 191.55 341.59 194.4 317.39 186.88 312.1 187.69 268.58 201.72 216.31 205.99 226.07 212.5 226.68 222.47 241.12 237.11 283.42 239.55 334.68 229.69 384.2 210.37 411.05 189.83 503.29 181.89 660.31 167.96 714.92"/>
        <polyline class="cls-7" points="730.44 327.15 728.1 339.36 754.54 341.39 771.22 349.73 772.74 379.63 755.25 408.71 727.99 437.39 716.2 436.37 693.72 582.1 717.32 601.02 741.22 641.39 732.98 681.46 720.67 704.03 704.6 714.92 713.55 699.15 716.6 682.88 695.05 676.98 685.69 688.78 676.54 692.64 652.94 714.92 651.93 708.92 642.37 703.63 658.44 665.59 687.93 633.25 694.44 631.02 695.45 616.58 707.86 613.73 692.81 598.68 688.33 626.95 675.62 632.09 741.22 100.32 248.5 17.49 246.67 26.98 226.84 214.88 208.54 201.46 214.79 164.7 223.38 59.09"/>
        <polyline class="cls-8" points="735.32 308.44 743.25 324.51 730.44 327.15"/>
        <path class="cls-7" d="m182.57,714.92v-4.36l20.34-97.94-4.17-61.52,28.78-143.29s10.17-10.88,10.88-11.69c.71-.82,10.98-32.95,10.98-32.95l4.68-34.48-7.32-75.56-12.2-38.84,23.49-182.95,361.42,54.81,105.36,22.78-57.05,512.03-33.36,55.12-10.98,29.49v4.99l-.17,4.36"/>
      </g>
    </g>
  </g>
  <g id="_已有账号_" data-name="已有账号？">
    <g>
      <path class="cls-2" d="m197.33,705.46c-.26-.26-.39-.58-.39-.95v-6.06h1.88v1.29h8.19c.08,0,.16-.03.22-.09s.09-.14.09-.23v-2.18h-10.37v-1.44h12.25v4.05c0,.37-.13.69-.39.95-.26.26-.58.39-.95.39h-9.03v2.93c0,.08.03.16.09.22s.14.09.23.09h10.05l-.53,1.44h-10.37c-.37,0-.69-.13-.95-.39Z"/>
      <path class="cls-2" d="m212.6,700.71h-1.6l1.78-3.05h-1.46v-1.37h2.25l.28-.49h1.89l-.28.49h7.66v1.37h-8.46l-.48.83h7.22c.36,0,.67.13.93.38.26.26.38.57.38.93v5c0,.3-.1.55-.3.75-.2.2-.45.3-.75.3h-2.17l.53-1.22h.66c.08,0,.15-.03.21-.09.06-.06.08-.13.08-.22v-.38h-6.66v1.9h-1.74v-5.14Zm8.4,0v-.42c0-.13-.04-.24-.13-.32s-.19-.13-.31-.13h-6.23v.87h6.66Zm0,2.02v-.81h-6.66v.81h6.66Z"/>
      <path class="cls-2" d="m224.91,695.81h3.95c.51,0,.86.1,1.04.31s.27.54.27.99v6.17h-.92l.97,2.56h-1.62l-.85-2.28-.94,2.25h-1.68l1.04-2.53h-1.25v-7.48Zm1.92,5.82v-3.5h1.48v4.06l-.21.52h.53v-5.14c0-.25-.09-.38-.28-.38h-1.88v5.29l.35-.85Zm4.6,3.79c-.29-.3-.44-.66-.44-1.09v-3.33h-.59v-1.39h.59v-3.85h1.81v2.66l2.21-2.66h2.13l-2.62,3.19h-1.72v.66h4.42v1.39h-2.23l2.18,4.86h-1.9l-2.14-4.86h-.34v3.22c0,.13.04.24.13.32s.19.13.32.13h.46l-.43,1.2h-.74c-.44,0-.81-.15-1.1-.45Z"/>
      <path class="cls-2" d="m243.9,704.41h3.93c.08,0,.15-.03.21-.09s.08-.13.08-.22v-.87h-7.83l1.57-2.06h-2.79v-1.2h11.96v1.2h-7.13l-.64.84h6.8v2.72c0,.29-.1.54-.31.74-.21.21-.45.31-.74.31h-5.94l.81-1.37Zm-4.09-8.55h10.53v2.38c0,.29-.1.53-.3.74-.2.2-.45.3-.73.3h-9.49v-3.42Zm8.29,2.2c.08,0,.15-.03.21-.08.06-.06.08-.13.08-.21v-.7h-6.64v.99h6.34Z"/>
      <path class="cls-2" d="m254.87,695.86h4.76c.37,0,.72.09,1.03.27.31.18.56.43.74.74s.27.66.27,1.03v1.37c0,.38-.09.73-.28,1.04-.19.31-.44.56-.75.74-.31.18-.65.27-1.02.27h-.91c-.14,0-.25.05-.34.14-.09.09-.13.2-.13.32v1.69h-1.96v-1.39c0-.37.09-.72.27-1.04.18-.32.43-.57.75-.75.32-.18.66-.27,1.04-.27h.91c.13,0,.24-.05.34-.14s.14-.21.14-.34v-1.95c0-.14-.05-.25-.14-.34s-.21-.13-.34-.13h-4.38v-1.29Zm1.41,8.29h1.96v1.68h-1.96v-1.68Z"/>
    </g>
  </g>
  <g id="_登录按钮" data-name="登录按钮">
    <polygon id="_白底" data-name="白底" class="cls-5" points="531.02 652.79 644.02 641.79 614.02 693.74 528.02 684.79 531.02 652.79"/>
    <polygon id="_黑底" data-name="黑底" class="cls-3" points="535.52 657.29 625.52 651.29 613.52 690.29 534.52 678.29 535.52 657.29"/>
    <g id="_登录字样" data-name="登录字样">
      <path class="cls-1" d="m561.88,674.64l2.59.33-.27-1.4,2.35.3.27,1.4,4.45.57.61-1.28,2.35.3-.61,1.28,2.59.33-.19,1.46-14.34-1.84.19-1.46Zm2.19-7.63l-.99-1.72,2.25.29.13.25,1.03-.89-2.59-.33.17-1.3,6.3.81-3.29,3.04,6.12.79-2.61-3.8,2.84.37.61.9.65-.66,1.92.25-1.67,1.73.32.46.21-.21,1.94.25-1.24,1.27.91,1.33-2.84-.36-.83-1.2-.16,1.23-6.75-.87.14-1.09-1.05.97-2.84-.37,1.32-1.14Zm-.63,1.97l12.71,1.63-.26,2.05c-.07.51-.29.95-.66,1.31-.37.36-.89.5-1.54.42l-10.77-1.38.52-4.03Zm9.93,3.78c.08,0,.14,0,.2-.06.06-.05.09-.11.1-.18l.08-.62-8.3-1.07-.11.89,8.04,1.03Z"/>
      <path class="cls-1" d="m580.53,675.53l2.59.33-2.48,2.67-2.59-.33,2.48-2.67Zm6.41-.74l-.31,2.43c-.07.55-.31,1-.73,1.35-.42.35-.87.5-1.36.43l-2.42-.31.86-1.5.57.07c.15.02.28-.02.4-.11.11-.09.18-.22.2-.39l.5-3.86-5.82-.75.2-1.57,11.13,1.43.15-1.18-10.16-1.31.2-1.55,10.16,1.31.06-.43c.02-.15-.01-.29-.1-.41-.08-.12-.2-.19-.36-.21l-10-1.29.2-1.57,11.13,1.43c.51.07.91.31,1.21.74.29.42.41.91.33,1.46l-.43,3.32.72.09-.2,1.57-5.92-.76-.13.98,2.15.28.43.87.89-1.08,2.5.32-1.97,2.52-.57-.09,1.49,2.97-2.54-.33-2.46-4.87Zm-5.24-1.8l1.64,2.32-2.59-.33-1.64-2.32,2.59.33Z"/>
    </g>
  </g>
  <g id="_五行信息" data-name="五行信息">
    <g id="_确认密码" data-name="确认密码">
      <line id="_横线" data-name="横线" class="cls-6" x1="345.02" y1="571.96" x2="649.02" y2="617.96"/>
      <path id="_白底-2" data-name="白底" class="cls-5" d="m253.86,513.3s-5.81-1.1-8.02,2.84-13.25,30.3-9.33,32.91c3.92,2.61,8.6,5.82,11.94,6.35s81.51,14.1,81.51,14.1c0,0,4.29-13.51,9.54-21.28,5.25-7.76,5.07-11.77,5.07-13.77s-1-4-2-5c-2.55-2.55-88.71-16.15-88.71-16.15Z"/>
      <path id="_黑底-2" data-name="黑底" class="cls-3" d="m258.64,517.13s-5.04-.95-6.94,2.39-11.42,25.71-8.02,27.94c3.4,2.23,7.47,4.96,10.36,5.42s70.69,12.16,70.69,12.16c0,0,3.69-11.47,8.22-18.06,4.53-6.59,4.37-9.99,4.36-11.69s-.88-3.4-1.74-4.25c-2.22-2.17-76.93-13.92-76.93-13.92Z"/>
      <g id="_确认密码字样" data-name="确认密码字样">
        <path class="cls-1" d="m260.07,533.67l-.78-.1.23-1.77,5.61.72-.23,1.77-2.82-.36-.87,2.77,3.18.41-.84,6.55c-.03.24-.1.45-.21.62-.09.19-.22.36-.38.5-.13.12-.3.21-.52.28-.21.06-.41.07-.62.05l-3.36-.43.68-5.28-.85-.11,1.78-5.61Zm1.29,9.58c.11.01.19-.01.24-.08.09-.06.13-.15.15-.25l.55-4.29-1.09-.14-.6,4.66.75.1Zm3.62-7.63l4.65.6.48-.65-5.14-.66,1.69-2.18,2.22.29-.42.53,5.11.66-1.72,2.3.25.03c.34.04.6.2.78.48.19.28.24.69.17,1.24l-.89,6.91c-.05.39-.21.71-.48.94-.27.23-.59.32-.95.28l-.99-.13-.34-1.71.39.05c.09.01.16-.02.21-.08.07-.05.11-.12.13-.2l.06-.46-1.01-.13-.31,2.43-2.14-.28.31-2.43-.88-.11-.31,2.43-2.12-.27,1.27-9.85Zm2.25,6.26l.16-1.27-.88-.11-.16,1.27.88.11Zm.37-2.86l.16-1.25-.88-.11-.16,1.25.88.11Zm2.78,3.26l.16-1.27-1.01-.13-.16,1.27,1.01.13Zm.37-2.86l.1-.75c.04-.33-.11-.52-.46-.57l-.49-.06-.16,1.25,1.01.13Z"/>
        <path class="cls-1" d="m275.11,537.8l3.2.41-.88,6.86c-.02.15.01.29.1.41.08.12.2.19.34.21l.96.12-.82,1.46-1.3-.17c-.49-.06-.88-.3-1.18-.72-.3-.42-.41-.9-.34-1.45l.67-5.25-.96-.12.23-1.75Zm3.16-3.55l.82,3.03-2.66-.34-.81-3.03,2.64.34Zm6.51.84l2.38.31-2.29,4.55,1.19.15,2.19,8.48-2.28-.29-1.79-6.96-3.17,6.33-2.38-.31,6.15-12.26Z"/>
        <path class="cls-1" d="m291.02,545.2l2.27.29-.28,2.14,3.43.44.28-2.14,2.28.29-.28,2.14,2.9.37c.15.02.28-.02.4-.13.12-.07.19-.19.21-.35l.2-1.59,2.27.29-.23,1.77c-.04.27-.12.53-.25.77-.1.2-.26.4-.47.57-.17.15-.38.27-.61.36-.21.06-.44.07-.7.04l-11.91-1.53.48-3.73Zm-.13-1.99l3.8-.53.38-2.98,2.27.29-.3,2.36,3.65-.49-1.78-.23-.83-1.96,2.19.28.8,1.86,4.58-.65-.22,1.73-7.68,1.04,4.14.53-.79,1.51-4.93-.63c-.28-.04-.56-.14-.82-.32-.24-.2-.43-.44-.56-.71l-4.12.58.22-1.7Zm1.26-3.25l2.11.27-.99,2.16-2.14-.27,1.02-2.15Zm-.4-3.34l5.78.74-.16-.69,2.46.32.18.69,4.31.55c.27.04.5.11.68.23.24.14.41.31.53.5.13.19.23.41.31.66.05.27.06.53.03.78l-.1.77-2.28-.29.05-.39c.02-.18,0-.32-.1-.41-.06-.12-.17-.18-.32-.2l-9.32-1.2-.12.95-2.28-.29.35-2.71Zm12.49,7.1l.94,2.79-1.91-.25-.94-2.79,1.91.25Z"/>
        <path class="cls-1" d="m308.89,539.98l-.83-.11.23-1.77,6.8.88-.23,1.77-3.72-.48-.22.81,3.39.44-1.07,8.32c-.07.55-.31.99-.72,1.32-.41.33-.85.47-1.33.41l-3.59-.46.64-4.95-1.08-.14,1.72-6.04Zm1.74,9.71c.14.02.27-.02.38-.11s.18-.22.2-.37l.8-6.19-1.21-.16-.87,6.75.7.09Zm3.49-1.97l4.14.53-.23,1.77-4.14-.53.23-1.77Zm3.65,3.12l.57.07c.14.02.27-.02.38-.11.11-.09.18-.23.2-.39l.45-3.52-5.06-.65,1.42-4.45,2.35.3-.85,2.72,1.81.23.41-3.18c.02-.15-.01-.29-.1-.41-.08-.12-.2-.19-.34-.21l-3.61-.46.23-1.77,4.58.59c.51.07.91.31,1.21.74.29.42.41.91.34,1.46l-.45,3.54.55.07-.7,5.43c-.07.56-.31,1-.7,1.33-.4.33-.85.46-1.34.4l-2.17-.28.82-1.46Z"/>
      </g>
    </g>
    <g id="_密码" data-name="密码">
      <line id="_横线-2" data-name="横线" class="cls-6" x1="360.02" y1="478.74" x2="664.02" y2="524.74"/>
      <path id="_白底-3" data-name="白底" class="cls-5" d="m265.86,421.3s-5.81-1.1-8.02,2.84-13.25,30.3-9.33,32.91c3.92,2.61,8.6,5.82,11.94,6.35s81.51,14.1,81.51,14.1c0,0,4.29-13.51,9.54-21.28,5.25-7.76,5.07-11.77,5.07-13.77s-1-4-2-5c-2.55-2.55-88.71-16.15-88.71-16.15Z"/>
      <path id="_黑底-3" data-name="黑底" class="cls-3" d="m270.64,425.13s-5.04-.95-6.94,2.39-11.42,25.71-8.02,27.94c3.4,2.23,7.47,4.96,10.36,5.42s70.69,12.16,70.69,12.16c0,0,3.69-11.47,8.22-18.06,4.53-6.59,4.37-9.99,4.36-11.69s-.88-3.4-1.74-4.25c-2.22-2.17-76.93-13.92-76.93-13.92Z"/>
      <g id="_密码字样" data-name="密码字样">
        <path class="cls-1" d="m282.03,449.68l2.63.4-.32,2.14,3.98.6.32-2.14,2.65.4-.32,2.14,3.37.51c.18.03.33-.01.46-.11.14-.06.22-.18.25-.34l.24-1.58,2.63.4-.27,1.76c-.04.27-.14.53-.29.76-.12.2-.3.38-.55.55-.2.14-.44.25-.71.33-.24.05-.51.05-.82,0l-13.83-2.09.56-3.72Zm-.14-2.01l4.41-.35.45-2.97,2.63.4-.36,2.35,4.24-.32-2.07-.31-.96-2,2.54.38.93,1.91,5.32-.43-.26,1.73-8.92.69,4.81.73-.92,1.48-5.72-.87c-.33-.05-.65-.17-.95-.36-.28-.21-.49-.46-.64-.74l-4.79.39.26-1.69Zm1.47-3.2l2.45.37-1.15,2.12-2.48-.38,1.19-2.11Zm-.46-3.37l6.71,1.02-.18-.7,2.86.43.2.71,5,.76c.32.05.58.14.79.27.27.15.48.33.62.53.15.19.27.42.36.67.06.28.07.54.04.79l-.12.76-2.65-.4.06-.39c.03-.18,0-.32-.11-.42-.07-.12-.2-.19-.37-.22l-10.82-1.64-.14.94-2.65-.4.41-2.71Zm14.5,7.71l1.08,2.84-2.22-.34-1.08-2.84,2.22.34Z"/>
        <path class="cls-1" d="m302.8,445.29l-.97-.15.27-1.76,7.9,1.2-.27,1.76-4.32-.65-.26.8,3.94.6-1.25,8.29c-.08.55-.36.98-.84,1.29-.47.32-.99.43-1.54.35l-4.17-.63.75-4.93-1.25-.19,2.01-5.98Zm2,9.82c.16.03.31,0,.44-.1s.21-.21.23-.37l.93-6.18-1.4-.21-1.02,6.73.82.12Zm4.05-1.81l4.81.73-.27,1.76-4.81-.73.27-1.76Zm4.23,3.3l.66.1c.16.02.31,0,.44-.1.13-.09.21-.22.23-.38l.53-3.51-5.87-.89,1.65-4.39,2.73.41-.99,2.69,2.1.32.48-3.17c.02-.15-.01-.29-.11-.42-.1-.12-.23-.2-.39-.22l-4.19-.63.27-1.76,5.32.8c.59.09,1.06.36,1.4.79.34.44.47.93.39,1.48l-.53,3.52.64.1-.82,5.41c-.08.56-.36.99-.82,1.31-.46.31-.98.42-1.56.34l-2.52-.38.95-1.42Z"/>
      </g>
    </g>
    <g id="_邮箱" data-name="邮箱">
      <line id="_横线-3" data-name="横线" class="cls-6" x1="374.02" y1="375.12" x2="678.02" y2="421.12"/>
      <path id="_白底-4" data-name="白底" class="cls-5" d="m279.86,317.3s-5.81-1.1-8.02,2.84-13.25,30.3-9.33,32.91c3.92,2.61,8.6,5.82,11.94,6.35s81.51,14.1,81.51,14.1c0,0,4.29-13.51,9.54-21.28,5.25-7.76,5.07-11.77,5.07-13.77s-1-4-2-5c-2.55-2.55-88.71-16.15-88.71-16.15Z"/>
      <path id="_黑底-4" data-name="黑底" class="cls-3" d="m284.64,321.13s-5.04-.95-6.94,2.39-11.42,25.71-8.02,27.94c3.4,2.23,7.47,4.96,10.36,5.42s70.69,12.16,70.69,12.16c0,0,3.69-11.47,8.22-18.06,4.53-6.59,4.37-9.99,4.36-11.69s-.88-3.4-1.74-4.25c-2.22-2.17-76.93-13.92-76.93-13.92Z"/>
      <g id="_邮箱字样" data-name="邮箱字样">
        <path class="cls-1" d="m300.08,339.41l3.13.4.19-1.48,1.88.24-.19,1.48,3.12.4-1.22,9.48c-.07.55-.31.99-.71,1.32-.4.34-.84.47-1.32.41l-6.35-.82,1.47-11.44Zm1.89,10.08l.39-3.07-1.03-.13-.39,3.07,1.03.13Zm.62-4.84l.39-3.07-1.03-.13-.39,3.07,1.03.13Zm1.76,5.14c.15.02.28-.02.4-.11.11-.09.18-.22.2-.39l.32-2.5-1.03-.13-.39,3.07.51.07Zm1.14-4.77l.39-3.07-1.03-.13-.39,3.07,1.03.13Zm3.45-5.94l5.66.73-1.92,5.51,1.19.15-2.51,6.26-1.86-.24,1.98-4.84-1.27-.16,1.87-5.22-1.5-.19-1.43,11.12-1.86-.24,1.65-12.87Z"/>
        <path class="cls-1" d="m316.31,346.43l1.62.21-1.36,6.48-1.62-.21,1.36-6.49Zm2-.36l-2.45-.31.19-1.46,2.45.31.09-.68,2.07.27-.09.68,2.42.31-.19,1.46-2.42-.31-.92,7.16-2.07-.27.92-7.16Zm-.39-5.84l2.25.29-.29.47,3.69.47-.16,1.21-1.29-.17.55,1.36-2.1-.27-.56-1.36-.85-.11-.7,1.15-2.25-.29,1.7-2.76Zm4.3,6.96l-.34,6.62-1.6-.21.32-6.62,1.62.21Zm1.18-1.99l6.98.9-.9,7c-.06.45-.25.82-.57,1.12s-.69.41-1.09.36l-5.53-.71,1.11-8.66Zm1.78-4.04l2.25.29-.29.47,3.69.47-.16,1.21-1.29-.17.56,1.36-2.11-.27-.55-1.36-.85-.11-.69,1.15-2.25-.29,1.7-2.76Zm1.97,11.78c.15.02.24-.07.27-.26l.07-.55-2.81-.36-.11.84,2.58.33Zm.53-2.35l.11-.86-2.81-.36-.11.86,2.81.36Zm.31-2.39l.11-.84-2.81-.36-.11.84,2.81.36Z"/>
      </g>
    </g>
    <g id="_昵称" data-name="昵称">
      <line id="_横线-4" data-name="横线" class="cls-6" x1="389.02" y1="275.9" x2="693.02" y2="321.9"/>
      <path id="_白底-5" data-name="白底" class="cls-5" d="m294.86,217.3s-5.81-1.1-8.02,2.84-13.25,30.3-9.33,32.91c3.92,2.61,8.6,5.82,11.94,6.35s81.51,14.1,81.51,14.1c0,0,4.29-13.51,9.54-21.28,5.25-7.76,5.07-11.77,5.07-13.77s-1-4-2-5c-2.55-2.55-88.71-16.15-88.71-16.15Z"/>
      <path id="_黑底-5" data-name="黑底" class="cls-3" d="m299.64,221.13s-5.04-.95-6.94,2.39-11.42,25.71-8.02,27.94c3.4,2.23,7.47,4.96,10.36,5.42s70.69,12.16,70.69,12.16c0,0,3.69-11.47,8.22-18.06,4.53-6.59,4.37-9.99,4.36-11.69s-.88-3.4-1.74-4.25c-2.22-2.17-76.93-13.92-76.93-13.92Z"/>
      <g id="_昵称字样" data-name="昵称字样">
        <path class="cls-1" d="m312.02,236.63l6.2.94-1.65,10.87c-.08.56-.33.98-.74,1.28-.41.3-.93.4-1.58.3l-4.17-.63,1.93-12.76Zm1.57,11.51c.15.02.29-.02.42-.13.13-.11.2-.23.22-.38l.52-3.43-1.36-.21-.61,4.02.81.12Zm1.42-5.7l.54-3.54-1.36-.21-.54,3.54,1.36.21Zm2.68,4.81l1.44-9.5,9.61,1.45-.46,3.06c-.08.5-.32.89-.74,1.18-.42.29-.89.39-1.42.31l-5.21-.79-.71,4.66-1.36,3.2-2.52-.38,1.38-3.2Zm3.53-3.49l2.48.38-.39,2.56,1.86-1.65,2.56.39-3.53,3.2-1.16-.17-.1.64c-.02.15.01.29.11.42.1.12.23.2.39.22l3.45.52-1.1,1.62-3.62-.55c-.58-.09-1.04-.35-1.38-.79-.34-.44-.47-.93-.39-1.46l.81-5.32Zm4.18-1.86c.14.02.26,0,.36-.07.1-.07.16-.16.18-.28l.14-.94-4.68-.71-.21,1.37,4.21.64Z"/>
        <path class="cls-1" d="m330.51,245.34l1.5.23-1.42,6.94-1.48-.22,1.4-6.94Zm1.94-.38l-2.2-.33.23-1.51,2.2.33.23-1.55-2.16-.07.24-1.58,6.11.2-.24,1.58-1.93-.07-.27,1.8,2.2.33-.23,1.51-2.2-.33-1.16,7.65-1.99-.3,1.16-7.65Zm3.8,1.25l-.72,7.05-1.48-.22.7-7.05,1.5.23Zm1.48-.67l2.08.32-1.92,7.85-2.07-.31,1.9-7.85Zm.8-4.92l2.43.37-.61,1.18,7.13,1.08-1.35,2.89-2.37-.36.68-1.32-7.41-1.12,1.5-2.72Zm.69,11.85c.18.03.33,0,.45-.1.12-.09.2-.21.22-.37l1.12-7.42,2.27.34-1.12,7.39c-.08.55-.35.98-.81,1.29-.46.31-.97.43-1.55.34l-.59-.09-.61-1.48.61.09Zm6.43-5.73l-.5,8.06-2.08-.32.5-8.06,2.08.32Z"/>
      </g>
    </g>
    <g id="_账号" data-name="账号">
      <line id="_横线-5" data-name="横线" class="cls-6" x1="398.02" y1="178.1" x2="702.02" y2="224.1"/>
      <path id="_白底-6" data-name="白底" class="cls-5" d="m305.81,121.14s-5.81-1.1-8.02,2.84-13.25,30.3-9.33,32.91c3.92,2.61,8.6,5.82,11.94,6.35s81.51,14.1,81.51,14.1c0,0,4.29-13.51,9.54-21.28,5.25-7.76,5.07-11.77,5.07-13.77s-1-4-2-5c-2.55-2.55-88.71-16.15-88.71-16.15Z"/>
      <path id="_黑底-6" data-name="黑底" class="cls-3" d="m310.59,124.98s-5.04-.95-6.94,2.39-11.42,25.71-8.02,27.94c3.4,2.23,7.47,4.96,10.36,5.42s70.69,12.16,70.69,12.16c0,0,3.69-11.47,8.22-18.06,4.53-6.59,4.37-9.99,4.36-11.69s-.88-3.4-1.74-4.25c-2.22-2.17-76.93-13.92-76.93-13.92Z"/>
      <g id="_账号字样" data-name="账号字样">
        <path class="cls-1" d="m325.4,140.65l5.34.81c.69.11,1.15.31,1.35.61s.27.74.18,1.31l-1.19,7.85-1.25-.19.81,3.45-2.2-.33-.72-3.08-1.7,2.67-2.27-.34,1.89-3.01-1.69-.25,1.44-9.5Zm1.48,7.8l.67-4.45,2.01.3-.78,5.16-.38.62.72.11.99-6.53c.05-.32-.05-.5-.31-.54l-2.54-.38-1.02,6.73.64-1.01Zm5.5,5.77c-.34-.44-.47-.93-.39-1.48l.64-4.24-.8-.12.27-1.76.8.12.74-4.89,2.44.37-.51,3.38,3.51-2.93,2.88.44-4.16,3.52-2.33-.35-.13.84,5.99.91-.27,1.76-3.01-.46,2.02,6.62-2.58-.39-1.96-6.61-.46-.07-.62,4.09c-.02.17.01.31.11.44.1.12.23.2.41.23l.63.09-.82,1.44-1-.15c-.59-.09-1.06-.35-1.4-.79Z"/>
        <path class="cls-1" d="m349.46,155.47l5.33.81c.11.02.21,0,.3-.07.09-.07.14-.15.16-.26l.17-1.1-10.59-1.6,2.52-2.29-3.77-.57.23-1.53,16.18,2.45-.23,1.53-9.65-1.46-1.03.94,9.21,1.39-.52,3.45c-.06.37-.24.66-.56.88-.32.22-.67.3-1.06.24l-8.03-1.22,1.36-1.58Zm-3.89-11.71l14.25,2.16-.46,3.03c-.06.37-.24.66-.55.87-.31.21-.66.29-1.05.23l-12.85-1.94.66-4.34Zm10.8,4.49c.11.02.21,0,.3-.06.09-.06.14-.14.15-.25l.13-.89-8.98-1.36-.19,1.26,8.58,1.3Z"/>
      </g>
    </g>
  </g>
</svg>