<?xml version="1.0" encoding="UTF-8"?>
<svg xmlns="http://www.w3.org/2000/svg" viewBox="0 0 793.14 717.42">
  <defs>
    <style>
      .cls-1 {
        fill: #6e7576;
      }

      .cls-1, .cls-2, .cls-3, .cls-4, .cls-5 {
        stroke-width: 0px;
      }

      .cls-2 {
        fill: #aea181;
      }

      .cls-6 {
        stroke: #fff;
        stroke-miterlimit: 10;
      }

      .cls-6, .cls-7, .cls-8 {
        fill: none;
      }

      .cls-7 {
        stroke-width: 5px;
      }

      .cls-7, .cls-8 {
        stroke: #000;
        stroke-linecap: round;
        stroke-linejoin: round;
      }

      .cls-4 {
        fill: #2d496c;
      }

      .cls-8 {
        stroke-width: .5px;
      }

      .cls-5 {
        fill: #fff;
      }
    </style>
  </defs>
  <g id="_手机主体" data-name="手机主体">
    <g>
      <g>
        <polygon class="cls-3" points="786.98 352.17 790.64 388.17 757.08 441.86 735.72 456.51 733.28 496.78 729.01 507.15 738.16 521.8 733.89 540.39 737.55 570 734.5 580.37 772.74 645.66 735.52 714.92 704.6 714.92 720.67 704.03 732.98 681.46 741.22 641.39 717.32 601.02 693.72 582.1 716.2 436.37 727.99 437.39 755.25 408.71 772.74 379.63 771.22 349.73 754.54 341.39 728.1 339.36 730.44 327.15 762.98 326.75 777.22 338.95 786.98 352.17"/>
        <path class="cls-5" d="m771.22,349.73l1.52,29.9-17.49,29.08-27.26,28.68-11.79-1.02-22.48,145.73,23.6,18.92,23.9,40.37-8.24,40.07-12.31,22.57-16.07,10.89,8.95-15.77,3.05-16.27-21.55-5.9-9.36,11.8-9.15,3.86-23.6,22.28-1.01-6-9.56-5.29,16.07-38.04,29.49-32.34,6.51-2.23,1.01-14.44,12.41-2.85-15.05-15.05-4.48,28.27-12.71,5.14,65.6-531.77L248.5,17.49l-1.83,9.49-19.83,187.9-18.3-13.42,6.25-36.76,8.59-105.61,1.63-32.11s-5.49-25.66,12.21-24.44c17.69,1.22,527.79,72,527.79,72,0,0,7.02-1.83,6.1,7.93-.91,9.77-13.52,82.78-13.52,82.78l-23.96,142.91-3.19,18.99-2.34,12.21,26.44,2.03,16.68,8.34Z"/>
        <polygon class="cls-3" points="735.32 308.44 743.25 324.51 730.44 327.15 733.63 308.16 735.32 308.44"/>
        <path class="cls-3" d="m741.22,100.32l-65.6,531.77,12.71-5.14,4.48-28.27,15.05,15.05-12.41,2.85-1.01,14.44-6.51,2.23-29.49,32.34-16.07,38.04,9.56,5.29,1.01,6h-29.69l.17-4.36v-4.99l10.98-29.49,33.36-55.12,57.05-512.03-105.36-22.78L258.03,31.34l-23.49,182.95,12.2,38.84,7.32,75.56-4.68,34.48s-10.27,32.13-10.98,32.95c-.71.81-10.88,11.69-10.88,11.69l-28.78,143.29,4.17,61.52-20.34,97.94v4.36h-14.61l13.93-54.61,7.94-157.02,20.54-92.24,19.32-26.85,9.86-49.52-2.44-51.26-14.64-42.3-9.97-14.44-6.51-.61-4.27-9.76-14.03,52.27-.81,43.52,7.52,5.29-2.85,24.2-14.44,25.43-11.39,58.07-38.03,78.71-9.36,76.27-16.06,21.66-8.75,34.78-3.86-19.73-22.19,52.39-1.15,33.26-2.4,5.77-12.15.35-.8,4.35-.37,2.02H2.5l12-36.51,1.02-22.99,12.61-41.89,3.86-30.31,30.11-61.73,1.52-15.56,28.07-53.59,11.8-28.58,8.34-28.47,5.69-13.22,7.53-9.97,25.72-56.95,39.36-136.88,29.7-115.12,3.55-4.06-8.59,105.61-6.25,36.76,18.3,13.42,19.83-187.9,1.83-9.49,492.72,82.83Z"/>
        <path class="cls-4" d="m724.81,108.93l-57.05,512.03-33.36,55.12-10.98,29.49v4.99l-.17,4.36H182.57v-4.36l20.34-97.94-4.17-61.52,28.78-143.29s10.17-10.88,10.88-11.69c.71-.82,10.98-32.95,10.98-32.95l4.68-34.48-7.32-75.56-12.2-38.84,23.49-182.95,361.42,54.81,105.36,22.78Z"/>
        <polygon class="cls-3" points="716.6 682.88 713.55 699.15 704.6 714.92 652.94 714.92 676.54 692.64 685.69 688.78 695.05 676.98 716.6 682.88"/>
        <polygon class="cls-5" points="237.11 283.42 239.55 334.68 229.69 384.2 210.37 411.05 189.83 503.29 181.89 660.31 167.96 714.92 51.11 714.92 50.6 714.92 50.97 712.9 51.77 708.55 63.92 708.2 66.32 702.43 67.47 669.17 89.66 616.78 93.52 636.51 102.27 601.73 118.33 580.07 127.69 503.8 165.72 425.09 177.11 367.02 191.55 341.59 194.4 317.39 186.88 312.1 187.69 268.58 201.72 216.31 205.99 226.07 212.5 226.68 222.47 241.12 237.11 283.42"/>
      </g>
      <g>
        <path class="cls-7" d="m730.44,327.15l32.54-.4,14.24,12.2,9.76,13.22,3.66,36-33.56,53.69-21.36,14.65-2.44,40.27-4.27,10.37,9.15,14.65-4.27,18.59,3.66,29.61-3.05,10.37,38.24,65.29-37.22,69.26H2.5l12-36.51,1.02-22.99,12.61-41.89,3.86-30.31,30.11-61.73,1.52-15.56,28.07-53.59,11.8-28.58,8.34-28.47,5.69-13.22,7.53-9.97,25.72-56.95,39.36-136.88,29.7-115.12,3.55-4.06,1.63-32.11s-5.49-25.66,12.21-24.44c17.69,1.22,527.79,72,527.79,72,0,0,7.02-1.83,6.1,7.93-.91,9.77-13.52,82.78-13.52,82.78l-23.96,142.91-3.19,18.99Z"/>
        <polyline class="cls-7" points="50.6 714.92 50.97 712.9 51.77 708.55 63.92 708.2 66.32 702.43 67.47 669.17 89.66 616.78 93.52 636.51 102.27 601.73 118.33 580.07 127.69 503.8 165.72 425.09 177.11 367.02 191.55 341.59 194.4 317.39 186.88 312.1 187.69 268.58 201.72 216.31 205.99 226.07 212.5 226.68 222.47 241.12 237.11 283.42 239.55 334.68 229.69 384.2 210.37 411.05 189.83 503.29 181.89 660.31 167.96 714.92"/>
        <polyline class="cls-7" points="730.44 327.15 728.1 339.36 754.54 341.39 771.22 349.73 772.74 379.63 755.25 408.71 727.99 437.39 716.2 436.37 693.72 582.1 717.32 601.02 741.22 641.39 732.98 681.46 720.67 704.03 704.6 714.92 713.55 699.15 716.6 682.88 695.05 676.98 685.69 688.78 676.54 692.64 652.94 714.92 651.93 708.92 642.37 703.63 658.44 665.59 687.93 633.25 694.44 631.02 695.45 616.58 707.86 613.73 692.81 598.68 688.33 626.95 675.62 632.09 741.22 100.32 248.5 17.49 246.67 26.98 226.84 214.88 208.54 201.46 214.79 164.7 223.38 59.09"/>
        <polyline class="cls-8" points="735.32 308.44 743.25 324.51 730.44 327.15"/>
        <path class="cls-7" d="m182.57,714.92v-4.36l20.34-97.94-4.17-61.52,28.78-143.29s10.17-10.88,10.88-11.69c.71-.82,10.98-32.95,10.98-32.95l4.68-34.48-7.32-75.56-12.2-38.84,23.49-182.95,361.42,54.81,105.36,22.78-57.05,512.03-33.36,55.12-10.98,29.49v4.99l-.17,4.36"/>
      </g>
    </g>
  </g>
  <g id="_五行信息" data-name="五行信息">
    <g id="_密码" data-name="密码">
      <line id="_横线" data-name="横线" class="cls-6" x1="331.03" y1="666.41" x2="623.02" y2="697.79"/>
      <path id="_白底" data-name="白底" class="cls-5" d="m236.12,612.79s-5.84-.92-7.92,3.09-12.29,30.7-8.3,33.19c4,2.49,8.78,5.55,12.13,5.98s81.91,11.54,81.91,11.54c0,0,3.86-13.64,8.87-21.57,5-7.93,4.7-11.93,4.64-13.93s-1.12-3.97-2.16-4.93c-2.63-2.47-89.17-13.36-89.17-13.36Z"/>
      <path id="_黑底" data-name="黑底" class="cls-3" d="m241.02,616.47s-5.07-.79-6.86,2.61-10.61,26.06-7.14,28.18c3.47,2.12,7.62,4.73,10.53,5.1s71.03,9.95,71.03,9.95c0,0,3.33-11.58,7.65-18.31,4.32-6.72,4.05-10.13,4-11.82s-.98-3.37-1.88-4.2c-2.28-2.1-77.33-11.51-77.33-11.51Z"/>
      <g id="_密码字样" data-name="密码字样">
        <path class="cls-1" d="m253.22,640.65l2.64.32-.26,2.14,4,.48.26-2.14,2.66.32-.26,2.14,3.39.4c.18.02.33-.02.46-.13.14-.07.22-.19.24-.35l.19-1.59,2.65.32-.21,1.77c-.03.27-.12.53-.27.77-.12.2-.29.39-.53.57-.2.15-.43.26-.7.35-.24.06-.51.07-.81.03l-13.89-1.66.45-3.74Zm-.21-2l4.4-.49.36-2.98,2.65.32-.28,2.36,4.22-.46-2.07-.25-1.02-1.97,2.55.3.99,1.88,5.3-.6-.21,1.73-8.9.97,4.83.58-.88,1.51-5.75-.69c-.33-.04-.65-.15-.96-.33-.28-.2-.51-.44-.67-.71l-4.77.54.2-1.7Zm1.37-3.24l2.46.29-1.09,2.15-2.49-.3,1.12-2.15Zm-.56-3.35l6.74.8-.21-.7,2.87.34.23.7,5.02.6c.32.04.58.12.8.24.28.14.49.31.63.51.16.19.29.41.38.66.07.27.09.54.06.79l-.09.77-2.67-.32.05-.39c.02-.18-.02-.32-.12-.41-.08-.12-.2-.19-.38-.21l-10.87-1.3-.11.95-2.66-.32.32-2.72Zm14.73,7.25l1.17,2.8-2.23-.27-1.17-2.8,2.23.27Z"/>
        <path class="cls-1" d="m273.84,635.61l-.97-.12.21-1.77,7.94.95-.21,1.77-4.34-.52-.23.81,3.96.47-.99,8.33c-.07.55-.33.99-.79,1.32s-.98.46-1.53.4l-4.19-.5.59-4.95-1.26-.15,1.82-6.04Zm2.31,9.76c.17.02.31-.02.44-.11s.2-.22.22-.37l.74-6.2-1.41-.17-.81,6.76.82.1Zm3.99-1.93l4.83.58-.21,1.77-4.83-.58.21-1.77Zm4.33,3.16l.67.08c.17.02.31-.02.44-.11.13-.09.2-.22.22-.39l.42-3.52-5.9-.71,1.51-4.44,2.74.33-.9,2.72,2.11.25.38-3.18c.02-.15-.02-.29-.12-.41-.1-.12-.23-.19-.4-.21l-4.21-.5.21-1.77,5.35.64c.6.07,1.07.32,1.43.75.35.43.5.92.43,1.46l-.42,3.54.65.08-.65,5.43c-.07.56-.33,1-.78,1.33-.45.33-.97.45-1.55.38l-2.53-.3.91-1.45Z"/>
      </g>
    </g>
    <g id="_邮箱" data-name="邮箱">
      <line id="_横线-2" data-name="横线" class="cls-6" x1="342.84" y1="573.21" x2="648.14" y2="609.68"/>
      <path id="_白底-2" data-name="白底" class="cls-5" d="m247.92,518.37s-5.84-.92-7.92,3.09c-2.08,4-12.29,30.7-8.3,33.19,4,2.49,8.78,5.55,12.13,5.98s81.91,11.54,81.91,11.54c0,0,3.86-13.64,8.87-21.57,5-7.93,4.7-11.93,4.64-13.93s-1.12-3.97-2.16-4.93c-2.63-2.47-89.17-13.36-89.17-13.36Z"/>
      <path id="_黑底-2" data-name="黑底" class="cls-3" d="m252.82,522.05s-5.07-.79-6.86,2.61-10.61,26.06-7.14,28.18c3.47,2.12,7.62,4.73,10.53,5.1,2.9.37,71.03,9.95,71.03,9.95,0,0,3.33-11.58,7.65-18.31,4.32-6.72,4.05-10.13,4-11.82s-.98-3.37-1.88-4.2c-2.28-2.1-77.33-11.51-77.33-11.51Z"/>
      <g id="_邮箱字样" data-name="邮箱字样">
        <path class="cls-1" d="m268.76,539.84l3.14.3.14-1.49,1.88.18-.14,1.49,3.13.3-.92,9.51c-.05.55-.27,1-.67,1.35-.39.35-.83.5-1.31.45l-6.37-.62,1.11-11.48Zm2.2,10.01l.3-3.08-1.03-.1-.3,3.08,1.03.1Zm.47-4.86l.3-3.08-1.03-.1-.3,3.08,1.03.1Zm1.92,5.09c.15.01.28-.03.39-.12.11-.1.17-.23.19-.4l.24-2.51-1.03-.1-.3,3.08.51.05Zm.99-4.8l.3-3.08-1.03-.1-.3,3.08,1.03.1Zm3.26-6.05l5.68.55-1.75,5.56,1.2.12-2.32,6.34-1.87-.18,1.83-4.9-1.28-.12,1.7-5.28-1.51-.15-1.08,11.16-1.87-.18,1.25-12.92Z"/>
        <path class="cls-1" d="m285.2,546.35l1.62.16-1.16,6.52-1.62-.16,1.16-6.52Zm1.99-.42l-2.46-.24.14-1.47,2.46.24.07-.68,2.08.2-.07.68,2.42.24-.14,1.47-2.42-.23-.7,7.18-2.08-.2.7-7.18Zm-.58-5.83l2.26.22-.28.48,3.7.36-.12,1.22-1.29-.12.6,1.34-2.11-.2-.6-1.34-.85-.08-.66,1.17-2.26-.22,1.61-2.81Zm4.51,6.82l-.13,6.62-1.6-.16.11-6.63,1.62.16Zm1.12-2.03l7.01.68-.68,7.02c-.04.45-.22.83-.54,1.13-.32.3-.68.43-1.08.39l-5.55-.54.84-8.69Zm1.65-4.09l2.26.22-.28.48,3.7.36-.12,1.22-1.29-.12.6,1.34-2.11-.21-.6-1.34-.85-.08-.66,1.17-2.26-.22,1.61-2.81Zm2.34,11.71c.15.01.24-.07.26-.26l.05-.56-2.82-.27-.08.84,2.59.25Zm.46-2.36l.08-.86-2.82-.27-.08.86,2.82.27Zm.23-2.4l.08-.84-2.82-.27-.08.84,2.82.27Z"/>
      </g>
    </g>
    <g id="_签名" data-name="签名">
      <line id="_横线-3" data-name="横线" class="cls-6" x1="353.33" y1="483.09" x2="658.62" y2="519.56"/>
      <path id="_白底-3" data-name="白底" class="cls-5" d="m256.38,427.47s-5.84-.92-7.92,3.09-12.29,30.7-8.3,33.19,8.78,5.55,12.13,5.98,81.91,11.54,81.91,11.54c0,0,3.86-13.64,8.87-21.57,5-7.93,4.7-11.93,4.64-13.93s-1.12-3.97-2.16-4.93c-2.63-2.47-89.17-13.36-89.17-13.36Z"/>
      <path id="_黑底-3" data-name="黑底" class="cls-3" d="m261.28,431.15s-5.07-.79-6.86,2.61-10.61,26.06-7.14,28.18c3.47,2.12,7.62,4.73,10.53,5.1s71.03,9.95,71.03,9.95c0,0,3.33-11.58,7.65-18.31,4.32-6.72,4.05-10.13,4-11.82s-.98-3.37-1.88-4.2c-2.28-2.1-77.33-11.51-77.33-11.51Z"/>
      <g id="_签名字样" data-name="签名字样">
        <path class="cls-1" d="m272.75,457.66l10.01,1.2,1.57-2.33,2.63.31-1.57,2.33,2.88.34-.18,1.48-15.53-1.86.18-1.48Zm3.02-7.31l11.28,1.35,1.85,2.52-3.45-.41-.63-.86-7.18-.86-.83.68-3.43-.41,2.39-2.02Zm-.23-3.92l2.44.29-.31.49,4,.48-.14,1.22-1.45-.17.62,1.36-2.46-.29-.62-1.36-.69-.08-.73,1.15-2.44-.29,1.78-2.78Zm-1.54,6.63l14.15,1.69-.18,1.52-14.15-1.69.18-1.52Zm3.19,2.57l.89,2.34-2.63-.32-.89-2.34,2.63.31Zm3.93.47l.89,2.34-2.64-.32-.89-2.34,2.63.32Zm2.32-8.73l2.42.29-.31.49,4,.48-.14,1.22-1.45-.17.62,1.36-2.46-.29-.63-1.36-.67-.08-.75,1.14-2.44-.29,1.8-2.78Z"/>
        <path class="cls-1" d="m291.26,455.69l14.64,1.75-.44,3.7c-.04.31-.11.57-.22.77-.16.24-.33.43-.5.58-.22.17-.45.28-.69.33-.18.08-.43.09-.78.05l-12.7-1.52.68-5.67Zm.7-2.29l2.14.26-1.37-2.21,2.86.34,1.33,2.21,4.83.58,1.51-2.41-11.87-1.42,1.35-2.29,2.65.32-.38.59,12.33,1.47-3.21,5.6-13.03-1.56.86-1.47Zm10.47,7.58c.18.02.31-.02.41-.12.12-.12.19-.24.21-.37l.19-1.57-9.73-1.16-.25,2.13,9.18,1.1Z"/>
      </g>
    </g>
    <g id="_昵称" data-name="昵称">
      <line id="_横线-4" data-name="横线" class="cls-6" x1="363.51" y1="396.33" x2="668.8" y2="432.79"/>
      <path id="_白底-4" data-name="白底" class="cls-5" d="m269.56,341.7s-5.84-.92-7.92,3.09-12.29,30.7-8.3,33.19c4,2.49,8.78,5.55,12.13,5.98s81.91,11.54,81.91,11.54c0,0,3.86-13.64,8.87-21.57,5-7.93,4.7-11.93,4.64-13.93s-1.12-3.97-2.16-4.93c-2.63-2.47-89.17-13.36-89.17-13.36Z"/>
      <path id="_黑底-4" data-name="黑底" class="cls-3" d="m274.46,345.39s-5.07-.79-6.86,2.61c-1.8,3.4-10.61,26.06-7.14,28.18s7.62,4.73,10.53,5.1c2.9.37,71.03,9.95,71.03,9.95,0,0,3.33-11.58,7.65-18.31,4.32-6.72,4.05-10.13,4-11.82s-.98-3.37-1.88-4.2c-2.28-2.1-77.33-11.51-77.33-11.51Z"/>
      <g id="_昵称字样" data-name="昵称字样">
        <path class="cls-1" d="m287.36,360.49l6.22.74-1.3,10.92c-.07.56-.3.99-.7,1.3-.4.31-.92.42-1.57.35l-4.19-.5,1.53-12.82Zm1.93,11.45c.15.02.29-.03.41-.14s.19-.24.21-.38l.41-3.45-1.37-.16-.48,4.04.82.1Zm1.25-5.74l.42-3.56-1.37-.16-.42,3.56,1.37.16Zm2.83,4.72l1.14-9.54,9.65,1.15-.37,3.07c-.06.5-.29.9-.7,1.2s-.88.42-1.41.36l-5.23-.62-.56,4.68-1.25,3.24-2.53-.3,1.28-3.24Zm3.42-3.6l2.49.3-.31,2.57,1.81-1.71,2.57.31-3.42,3.31-1.16-.14-.08.64c-.02.15.02.29.12.41.1.12.23.19.4.21l3.46.41-1.05,1.65-3.63-.43c-.58-.07-1.05-.32-1.41-.75-.35-.43-.5-.91-.44-1.45l.64-5.34Zm4.12-1.99c.14.02.26-.01.36-.08.1-.07.15-.17.17-.29l.11-.95-4.7-.56-.17,1.38,4.22.5Z"/>
        <path class="cls-1" d="m306.11,368.62l1.5.18-1.2,6.98-1.48-.18,1.18-6.98Zm1.93-.44l-2.21-.26.18-1.52,2.21.26.19-1.55h-2.16s.19-1.6.19-1.6h6.12s-.19,1.6-.19,1.6h-1.93s-.22,1.79-.22,1.79l2.21.26-.18,1.52-2.21-.26-.92,7.69-2-.24.92-7.68Zm3.84,1.13l-.5,7.06-1.48-.18.48-7.07,1.5.18Zm1.46-.71l2.09.25-1.68,7.9-2.07-.25,1.66-7.91Zm.65-4.94l2.44.29-.57,1.2,7.16.85-1.26,2.93-2.38-.28.64-1.34-7.44-.89,1.41-2.77Zm1.06,11.82c.18.02.33-.02.45-.11.12-.09.19-.22.21-.37l.89-7.45,2.28.27-.89,7.42c-.07.55-.32.99-.77,1.31-.44.33-.96.46-1.54.39l-.59-.07-.66-1.46.61.07Zm6.25-5.92l-.25,8.07-2.09-.25.25-8.07,2.09.25Z"/>
      </g>
    </g>
    <g id="_账号" data-name="账号">
      <line id="_横线-5" data-name="横线" class="cls-6" x1="374.37" y1="303.87" x2="679.67" y2="340.33"/>
      <path id="_白底-5" data-name="白底" class="cls-5" d="m280.62,250.16s-5.84-.92-7.92,3.09-12.29,30.7-8.3,33.19c4,2.49,8.78,5.55,12.13,5.98s81.91,11.54,81.91,11.54c0,0,3.86-13.64,8.87-21.57,5-7.93,4.7-11.93,4.64-13.93s-1.12-3.97-2.16-4.93c-2.63-2.47-89.17-13.36-89.17-13.36Z"/>
      <path id="_黑底-5" data-name="黑底" class="cls-3" d="m285.52,253.84s-5.07-.79-6.86,2.61-10.61,26.06-7.14,28.18c3.47,2.12,7.62,4.73,10.53,5.1s71.03,9.95,71.03,9.95c0,0,3.33-11.58,7.65-18.31,4.32-6.72,4.05-10.13,4-11.82s-.98-3.37-1.88-4.2c-2.28-2.1-77.33-11.51-77.33-11.51Z"/>
      <g id="_账号字样" data-name="账号字样">
        <path class="cls-1" d="m300.85,269.04l5.37.64c.7.08,1.16.27,1.37.57.21.3.29.73.22,1.3l-.94,7.88-1.26-.15.92,3.43-2.21-.26-.81-3.05-1.62,2.73-2.28-.27,1.79-3.07-1.69-.2,1.14-9.54Zm1.72,7.75l.53-4.47,2.02.24-.62,5.18-.37.63.72.09.78-6.56c.04-.32-.07-.5-.32-.53l-2.55-.3-.81,6.76.61-1.03Zm5.67,5.59c-.35-.43-.5-.92-.43-1.47l.51-4.25-.8-.1.21-1.77.8.1.59-4.92,2.46.29-.41,3.4,3.41-3.04,2.89.35-4.05,3.65-2.34-.28-.1.84,6.01.72-.21,1.77-3.03-.36,2.23,6.56-2.59-.31-2.17-6.55-.46-.05-.49,4.11c-.02.17.02.31.12.43.1.12.24.19.42.21l.63.07-.77,1.47-1.01-.12c-.6-.07-1.07-.32-1.43-.75Z"/>
        <path class="cls-1" d="m325.37,283.1l5.35.64c.11.01.21-.01.3-.08.08-.07.13-.16.15-.26l.13-1.11-10.64-1.27,2.45-2.37-3.79-.45.18-1.54,16.25,1.94-.18,1.54-9.69-1.16-1,.97,9.25,1.1-.42,3.47c-.04.37-.22.67-.53.9-.31.23-.66.32-1.06.27l-8.07-.96,1.31-1.62Zm-4.25-11.58l14.31,1.71-.36,3.04c-.04.37-.22.67-.52.89-.3.22-.65.31-1.04.27l-12.9-1.54.52-4.36Zm10.93,4.15c.11.01.21-.01.3-.07.08-.06.13-.15.15-.25l.11-.89-9.02-1.08-.15,1.27,8.62,1.03Z"/>
      </g>
    </g>
  </g>
  <g id="_点击更换头像" data-name="点击更换头像">
    <g>
      <path class="cls-2" d="m436.3,236.01l2.13.25-.92,1.68-2.14-.26.93-1.68Zm.07-5.45l2.74.33.34-2.81,2.15.26-.08.62,6.55.78-.16,1.38-6.55-.78-.1.81,7.08.84-.43,3.64c-.04.35-.21.64-.5.87s-.62.32-.98.28l-10.65-1.27.59-4.95Zm9.4,4.75c.06,0,.12,0,.17-.04.05-.04.07-.08.08-.14l.24-2-8.13-.97-.26,2.21,7.91.94Zm-4.64,1.28l.51,1.85-2.13-.25-.51-1.85,2.13.25Zm2.98.36l.5,1.85-2.13-.25-.5-1.85,2.13.25Zm2.97.36l.5,1.85-2.13-.25-.5-1.85,2.13.25Z"/>
      <path class="cls-2" d="m450.11,235.34l1.91.23-.32,2.64,2.83.34.46-3.81-5.07-.61.17-1.43,5.07.61.14-1.21-4.89-.58.17-1.43,4.89.58.08-.71,2.03.24-.08.71,4.89.58-.17,1.43-4.89-.58-.14,1.21,5.07.61-.17,1.43-5.07-.61-.46,3.81,2.57.31c.08,0,.16-.01.22-.07.06-.05.1-.12.11-.21l.28-2.33,1.88.22-.36,3.03c-.03.29-.17.52-.39.7-.23.18-.49.25-.77.22l-10.47-1.25.49-4.07Z"/>
      <path class="cls-2" d="m465.98,240.06l-2.61-.68.18-1.51,3.87,1.01.78-.64-4.23-.5.58-4.87,4.67.56.07-.54-5.07-.61.15-1.28,12.22,1.46-.15,1.28-5.07-.61-.07.54,4.67.56-.4,3.34c-.05.44-.24.78-.58,1.04-.33.26-.71.36-1.14.31l-3.43-.41-1.06.87,6.21,1.62-.18,1.52-7.46-1.95-1.13.92-2.22-.27,1.41-1.16Zm2.82-3.05l.07-.63-2.74-.33-.08.63,2.74.33Zm.2-1.7l.07-.61-2.74-.33-.07.61,2.74.33Zm4.18,2.22c.12.01.23-.01.32-.09.09-.07.15-.17.16-.29l.02-.19-2.74-.33-.07.62,2.31.28Zm.63-1.64l.07-.61-2.74-.33-.07.61,2.74.33Z"/>
      <path class="cls-2" d="m478.17,233.62l1.04.12.11-.95,1.92.23-.11.95.83.1-.16,1.38-.83-.1-.21,1.77.96.12-1.21,2-.27,2.29c-.05.43-.25.77-.58,1.03-.34.26-.71.37-1.12.32l-1.42-.17.67-1.13h.04c.13.02.24,0,.33-.08.09-.07.15-.17.16-.29l.1-.82-1.01-.12,1.28-2.12.36-3.02-1.04-.12.16-1.38Zm5.5,7l-2.68-.32.15-1.22.53.06.39-3.25,4.87.58.45-.71-5-.6,1.13-1.87,2.06.25-.35.56,4.66.56-1.13,2.04c.31.08.55.26.73.53s.25.57.21.89l-.23,1.95.35.04-.15,1.22-3.59-.43-2.8,2.53-2.36-.28,2.78-2.53Zm.95-1.13l.24-2.03-1.04-.12-.24,2.03,1.04.12Zm3.16,2.11l1.51,2.55-2.25-.27-1.43-2.54,2.17.26Zm-.27-1.77l.19-1.6c.01-.12-.02-.23-.1-.32-.08-.09-.18-.15-.3-.16l-.6-.07-.24,2.03,1.04.12Z"/>
      <path class="cls-2" d="m497.57,241.27l-5.88-.7.16-1.36,6.92.83.58-4.84,1.72.21-.58,4.84,3.09.37-.16,1.36-3.09-.37-.87.39,1.27.15,2.44,3.67-2.18-.26-2.18-3.26-5.18,2.38-2.64-.32,6.57-3.09Zm-5.03-4.72l5.29,1.38-.16,1.35-5.29-1.37.16-1.36Zm.25-2.11l5.31,1.24-.16,1.36-5.31-1.24.16-1.36Z"/>
      <path class="cls-2" d="m507.81,236.2l1.99.24-1.36,2.31.38.04-.91,7.59-1.7-.2.73-6.1-1.33-.16,2.21-3.71Zm3.69,9.69l.4.05c.12,0,.23-.03.32-.11.09-.08.14-.18.16-.3l.02-.14-4.23.91.12-1.03,4.23-.91.05-.46-3.85.82.12-1.04,3.85-.81.02-.15-.04-.24-3.76.71.12-1.03,2.99-.56-2.75-.33.31-2.58,5.38.64.24-.51-5.07-.61.84-1.61,1.93.23-.27.5,5.05.6-.8,1.61,1.13.13-.15,1.28c-.04.36-.21.65-.49.88-.29.22-.61.32-.97.27l-1.96-.23.15.86,1.1.13.26-.39,1.74.21-.92,1.37-.61-.07.9,3.22-1.72-.21-.77-2.74-.16,1.38c-.03.23-.12.46-.27.67-.15.22-.35.39-.6.51-.25.12-.52.16-.82.13l-1.61-.19.44-.86Zm1.14-5.18l.08-.71-1.38-.16-.08.71,1.38.16Zm2.84.34c.12.01.23-.02.32-.09.09-.07.15-.17.16-.29l.03-.28-1.38-.16-.08.71.94.11Z"/>
    </g>
  </g>
</svg>