<?xml version="1.0" encoding="UTF-8"?>
<svg xmlns="http://www.w3.org/2000/svg" viewBox="0 0 796.71 717.42">
  <defs>
    <style>
      .cls-1 {
        fill: #6e7576;
      }

      .cls-1, .cls-2, .cls-3, .cls-4 {
        stroke-width: 0px;
      }

      .cls-5 {
        stroke-width: 5px;
      }

      .cls-5, .cls-6 {
        fill: none;
        stroke: #000;
        stroke-linecap: round;
        stroke-linejoin: round;
      }

      .cls-3 {
        fill: #2d496c;
      }

      .cls-6 {
        stroke-width: .5px;
      }

      .cls-4 {
        fill: #fff;
      }
    </style>
  </defs>
  <g id="_手机主体" data-name="手机主体">
    <g>
      <g>
        <polygon class="cls-2" points="735.32 308.44 743.25 324.51 730.44 327.15 733.63 308.16 735.32 308.44"/>
        <polygon class="cls-2" points="728.1 339.36 730.44 327.15 762.98 326.75 777.22 338.95 786.98 352.17 790.64 388.17 757.08 441.86 735.72 456.51 733.28 496.78 729.01 507.15 738.16 521.8 733.89 540.39 737.55 570 734.5 580.37 772.74 645.66 735.52 714.92 704.6 714.92 720.67 704.03 732.98 681.46 741.22 641.39 717.32 601.02 693.72 582.1 716.2 436.37 727.99 437.39 755.25 408.71 772.74 379.63 771.22 349.73 754.54 341.39 728.1 339.36"/>
        <polygon class="cls-2" points="652.94 714.92 676.54 692.64 685.69 688.78 695.05 676.98 716.6 682.88 713.55 699.15 704.6 714.92 652.94 714.92"/>
        <path class="cls-3" d="m182.57,710.56l20.34-97.94-4.17-61.52,28.78-143.29s10.17-10.88,10.88-11.69c.71-.82,10.98-32.95,10.98-32.95l4.68-34.48-7.32-75.56-12.2-38.84,23.49-182.95,361.42,54.81,105.36,22.78-57.05,512.03-33.36,55.12-10.98,29.49v4.99l-.17,4.36H182.57v-4.36Z"/>
        <path class="cls-4" d="m225.01,26.98s-5.49-25.66,12.21-24.44c17.69,1.22,527.79,72,527.79,72,0,0,7.02-1.83,6.1,7.93-.91,9.77-13.52,82.78-13.52,82.78l-23.96,142.91-3.19,18.99-2.34,12.21,26.44,2.03,16.68,8.34,1.52,29.9-17.49,29.08-27.26,28.68-11.79-1.02-22.48,145.73,23.6,18.92,23.9,40.37-8.24,40.07-12.31,22.57-16.07,10.89,8.95-15.77,3.05-16.27-21.55-5.9-9.36,11.8-9.15,3.86-23.6,22.28-1.01-6-9.56-5.29,16.07-38.04,29.49-32.34,6.51-2.23,1.01-14.44,12.41-2.85-15.05-15.05-4.48,28.27-12.71,5.14,65.6-531.77L248.5,17.49l-1.83,9.49-19.83,187.9-18.3-13.42,6.25-36.76,8.59-105.61,1.63-32.11Z"/>
        <polygon class="cls-4" points="63.92 708.2 66.32 702.43 67.47 669.17 89.66 616.78 93.52 636.51 102.27 601.73 118.33 580.07 127.69 503.8 165.72 425.09 177.11 367.02 191.55 341.59 194.4 317.39 186.88 312.1 187.69 268.58 201.72 216.31 205.99 226.07 212.5 226.68 222.47 241.12 237.11 283.42 239.55 334.68 229.69 384.2 210.37 411.05 189.83 503.29 181.89 660.31 167.96 714.92 51.11 714.92 50.6 714.92 50.97 712.9 51.77 708.55 63.92 708.2"/>
        <path class="cls-2" d="m165.72,425.09l-38.03,78.71-9.36,76.27-16.06,21.66-8.75,34.78-3.86-19.73-22.19,52.39-1.15,33.26-2.4,5.77-12.15.35-.8,4.35-.37,2.02H2.5l12-36.51,1.02-22.99,12.61-41.89,3.86-30.31,30.11-61.73,1.52-15.56,28.07-53.59,11.8-28.58,8.34-28.47,5.69-13.22,7.53-9.97,25.72-56.95,39.36-136.88,29.7-115.12,3.55-4.06-8.59,105.61-6.25,36.76,18.3,13.42,19.83-187.9,1.83-9.49,492.72,82.83-65.6,531.77,12.71-5.14,4.48-28.27,15.05,15.05-12.41,2.85-1.01,14.44-6.51,2.23-29.49,32.34-16.07,38.04,9.56,5.29,1.01,6h-29.69l.17-4.36v-4.99l10.98-29.49,33.36-55.12,57.05-512.03-105.36-22.78L258.03,31.34l-23.49,182.95,12.2,38.84,7.32,75.56-4.68,34.48s-10.27,32.13-10.98,32.95c-.71.81-10.88,11.69-10.88,11.69l-28.78,143.29,4.17,61.52-20.34,97.94v4.36h-14.61l13.93-54.61,7.94-157.02,20.54-92.24,19.32-26.85,9.86-49.52-2.44-51.26-14.64-42.3-9.97-14.44-6.51-.61-4.27-9.76-14.03,52.27-.81,43.52,7.52,5.29-2.85,24.2-14.44,25.43-11.39,58.07Z"/>
      </g>
      <g>
        <path class="cls-5" d="m730.44,327.15l32.54-.4,14.24,12.2,9.76,13.22,3.66,36-33.56,53.69-21.36,14.65-2.44,40.27-4.27,10.37,9.15,14.65-4.27,18.59,3.66,29.61-3.05,10.37,38.24,65.29-37.22,69.26H2.5l12-36.51,1.02-22.99,12.61-41.89,3.86-30.31,30.11-61.73,1.52-15.56,28.07-53.59,11.8-28.58,8.34-28.47,5.69-13.22,7.53-9.97,25.72-56.95,39.36-136.88,29.7-115.12,3.55-4.06,1.63-32.11s-5.49-25.66,12.21-24.44c17.69,1.22,527.79,72,527.79,72,0,0,7.02-1.83,6.1,7.93-.91,9.77-13.52,82.78-13.52,82.78l-23.96,142.91-3.19,18.99Z"/>
        <polyline class="cls-5" points="50.6 714.92 50.97 712.9 51.77 708.55 63.92 708.2 66.32 702.43 67.47 669.17 89.66 616.78 93.52 636.51 102.27 601.73 118.33 580.07 127.69 503.8 165.72 425.09 177.11 367.02 191.55 341.59 194.4 317.39 186.88 312.1 187.69 268.58 201.72 216.31 205.99 226.07 212.5 226.68 222.47 241.12 237.11 283.42 239.55 334.68 229.69 384.2 210.37 411.05 189.83 503.29 181.89 660.31 167.96 714.92"/>
        <polyline class="cls-5" points="730.44 327.15 728.1 339.36 754.54 341.39 771.22 349.73 772.74 379.63 755.25 408.71 727.99 437.39 716.2 436.37 693.72 582.1 717.32 601.02 741.22 641.39 732.98 681.46 720.67 704.03 704.6 714.92 713.55 699.15 716.6 682.88 695.05 676.98 685.69 688.78 676.54 692.64 652.94 714.92 651.93 708.92 642.37 703.63 658.44 665.59 687.93 633.25 694.44 631.02 695.45 616.58 707.86 613.73 692.81 598.68 688.33 626.95 675.62 632.09 741.22 100.32 248.5 17.49 246.67 26.98 226.84 214.88 208.54 201.46 214.79 164.7 223.38 59.09"/>
        <polyline class="cls-6" points="735.32 308.44 743.25 324.51 730.44 327.15"/>
        <path class="cls-5" d="m182.57,714.92v-4.36l20.34-97.94-4.17-61.52,28.78-143.29s10.17-10.88,10.88-11.69c.71-.82,10.98-32.95,10.98-32.95l4.68-34.48-7.32-75.56-12.2-38.84,23.49-182.95,361.42,54.81,105.36,22.78-57.05,512.03-33.36,55.12-10.98,29.49v4.99l-.17,4.36"/>
      </g>
    </g>
  </g>
  <g id="_四个功能按钮" data-name="四个功能按钮">
    <g id="_编辑资料按钮" data-name="编辑资料按钮">
      <path class="cls-2" d="m318.52,323.29s-7-1-9,11-11,91-6,97,11,13.4,15,13.7,98,10.3,98,10.3c0,0,3-40,8-64s9-48,9-48l-6.98-5.84-108.02-14.16Z"/>
      <g id="_编辑资料字样" data-name="编辑资料字样">
        <path class="cls-1" d="m345.67,372.72h-1.92l2.62-8.11h3.22l-1.92,5.95h1.92l-1.92,5.95h1.92v2.16h-5.83l1.92-5.95Zm-1.49,7.08h5.4v2.06l.58-1.95v-14.21h5.93l-.6-1.13h3.94l.55,1.13h4.92v3.17c0,.34-.06.67-.19,1.01-.11.3-.3.59-.58.86-.27.27-.55.46-.84.58-.38.13-.73.19-1.03.19h-9.02v8.4l-.62,2.04h-8.42v-2.16Zm16.92-10.22c.21,0,.38-.06.5-.19.16-.16.24-.34.24-.55v-1.2h-8.62v1.94h7.87Zm-7.34,2.71h9.46c.46,0,.86.16,1.19.49.33.33.49.72.49,1.19v5.78c0,.27-.06.55-.19.84-.16.29-.35.53-.58.72-.03.02-.13.08-.29.2s-.34.21-.53.28c-.27.11-.61.17-1.01.17h-2.59v-3.53h-.77v3.53h-2.21v-3.53h-.74v3.53h-2.23v-9.67Zm2.98,4.2v-2.3h-.74v2.3h.74Zm2.98,0v-2.3h-.77v2.3h.77Zm2.95,0v-1.82c0-.32-.12-.48-.36-.48h-.38v2.3h.74Zm-.43,4.18c.1,0,.21-.03.34-.1.06-.06.1-.16.1-.29v-1.85h-.74v3.24l.31-1.01Z"/>
        <path class="cls-1" d="m371.81,378.93h-4.06v-1.99h4.06v-2.11h-4.06l1.01-7.01h-1.01v-1.73h1.25l.22-1.51h2.74l-.26,1.51h4.94v1.73h-5.18l-.72,5.02h1.08v-3.38h2.5v3.38h2.4v1.99h-2.4v2.11h2.33v1.99h-2.33v3h-2.5v-3Zm5.28.26l1.03-.05v-7.32h-1.03v-1.73h11.83v1.73h-1.03v6.87l1.03-.03v1.73l-1.03.05v1.49h-2.5v-1.39l-8.3.38v-1.73Zm.72-14.62h10.54v2.98c0,.54-.19,1-.58,1.38-.38.38-.84.56-1.37.56h-8.59v-4.92Zm7.49,3.41c.16,0,.29-.05.4-.16.1-.1.16-.24.16-.4v-1.32h-5.74v1.87h5.18Zm.1,5.18v-1.34h-4.78v1.34h4.78Zm0,3v-1.54h-4.78v1.54h4.78Zm0,2.64v-1.18h-4.78v1.39l4.78-.22Z"/>
        <path class="cls-1" d="m352.13,406.36v-1.87h4.2v1.7h2.3l2.3,1.66v-2.88c0-.21-.07-.39-.22-.54-.14-.15-.32-.23-.53-.23h-12.19v3.67h-3.34v-5.81h16.97c.75,0,1.38.26,1.88.77.5.51.76,1.14.76,1.87v3.17h-3.31l3.94,2.81h-5.11l-3.89-3.02-5.76,3.02h-6.38l8.38-4.32Zm-6.22-9.07h3.34l-1.58,4.08h-3.34l1.58-4.08Zm1.78-3.82l1.56,2.95h-3.34l-1.54-2.95h3.31Zm6.84,4.39v-.98h4.27v.98l-1.25.89h2.74l4.27,2.62h-4.66l-3.05-2.14-3.05,2.14h-4.32l5.04-3.5Zm-3.29-4.44h3.55l-.29.7h10.37l-1.34,3.7h-3.14l.62-1.49h-11.11l1.34-2.9Z"/>
        <path class="cls-1" d="m367.89,399.33h1.1l-.94-5.35h2.28l.94,5.35h.07v-5.9h2.76v5.9h.05l.94-5.35h2.3l-.94,5.35h.94v2.06h-3.29v9.29h-2.76v-9.29h-3.46v-2.06Zm.58,2.81h2.3l-.55,8.54h-2.3l.55-8.54Zm8.52,0l.55,8.54h-2.3l-.55-8.54h2.3Zm7.3,5.57h-6.14v-1.97h6.14v-12.14h3.24v12.14h1.25v1.97h-1.25v3h-3.24v-3Zm-3.98-8.47l-1.68-4.8h3.12l1.87,5.33h-1.7l1.7,4.8h-3.12l-1.87-5.33h1.68Z"/>
      </g>
    </g>
    <g id="_返回主页按钮" data-name="返回主页按钮">
      <path class="cls-2" d="m490.4,348.75s-7-1-9,11-11,91-6,97,11,13.4,15,13.7,98,10.3,98,10.3c0,0,3-40,8-64s9-48,9-48l-6.98-5.84-108.02-14.16Z"/>
      <g id="_返回主页字样" data-name="返回主页字样">
        <path class="cls-1" d="m517.83,401.91h-2.02l.05-.12,2.02-5.21h-2.06v-2.21h5.3l-2.04,5.33h1.63l-1.08,3.94,1.75,2.26h15.36v2.21h-17.09l-.94-1.18-.34,1.18h-2.57l2.02-6.19Zm1.18-11.18l1.66,2.95h-3.17l-1.66-2.95h3.17Zm3.29,12.6v-11.76l13.66-.77v2.18l-10.85.62v9.72l-.79,2.04h-2.81l.79-2.04Zm3.5-.14c1.04-.34,2.12-.92,3.24-1.75-.7-.7-1.31-1.42-1.82-2.15-.51-.73-.91-1.42-1.2-2.08h2.74c.83,1.12,1.54,1.98,2.11,2.57.61-.62,1.13-1.24,1.56-1.85.43-.61.7-1.06.79-1.37h-7.42v-1.94h10.03v1.94c-.18.69-.55,1.47-1.12,2.34-.57.87-1.25,1.72-2.05,2.53,1.02.83,2.09,1.42,3.19,1.75v2.18c-1.62-.26-3.29-1.04-5.02-2.35-1.71,1.28-3.39,2.06-5.04,2.35v-2.18Z"/>
        <path class="cls-1" d="m539.74,390.75h21.07v14.69c0,.75-.26,1.38-.77,1.88-.51.5-1.14.76-1.87.76h-18.43v-17.33Zm17.23,14.95c.21,0,.38-.07.53-.22s.22-.32.22-.53v-11.83h-14.88v12.58h14.14Zm-12.58-10.92h11.76v6.62c0,.74-.26,1.36-.78,1.87-.52.51-1.13.77-1.84.77h-9.14v-9.26Zm7.68,6.89c.22,0,.41-.07.55-.22s.22-.32.22-.53v-3.77h-5.14v4.51h4.37Z"/>
        <path class="cls-1" d="m516.01,434.5h8.78v-4.75h-8.26v-2.35h8.26v-3.72h-8.78v-2.35h8.5l-.55-1.78h2.98l.55,1.78h9.07v2.35h-8.78v3.72h8.26v2.35h-8.26v4.75h8.78v2.35h-20.54v-2.35Z"/>
        <path class="cls-1" d="m548.57,430.15v-2.76h3.84v3.65l-1.18.89h2.21l7.39,4.97h-5.33l-5.62-3.96-5.3,3.96h-4.9l8.88-6.74Zm-8.06-6.6h7.87l.77-1.68h-9.31v-2.38h20.95v2.38h-8.16l-.77,1.68h5.62c.74,0,1.36.26,1.87.79.51.53.77,1.14.77,1.85v6.86h-3.34v-6.36c0-.22-.07-.41-.22-.55s-.32-.22-.53-.22h-12.19v7.13h-3.34v-9.5Z"/>
      </g>
    </g>
    <g id="_关闭同步按钮" data-name="关闭同步按钮">
      <path class="cls-2" d="m299.4,484.75s-7-1-9,11-11,91-6,97,11,13.4,15,13.7,98,10.3,98,10.3c0,0,3-40,8-64s9-48,9-48l-6.98-5.84-108.02-14.16Z"/>
      <g id="_关闭同步字样" data-name="关闭同步字样">
        <path class="cls-1" d="m330.97,538.64h-8.28v-2.38h8.88v-3.46h-8.09v-2.38h3.7l-1.27-2.86h3.48l1.27,2.86h5.16l1.27-2.86h3.48l-1.27,2.86h3.7v2.38h-7.58v3.46h8.38v2.38h-8.38v.43l-1.18.86h2.23l7.39,4.99h-5.35l-5.62-3.98-5.28,3.98h-4.92l8.28-6.29Z"/>
        <path class="cls-1" d="m346.91,529.57h3.31v15.38h-3.31v-15.38Zm7.27-2.02l1.54,3.46h-3.94l-1.54-3.46h3.94Zm-3.17,5.52h7.78v-1.56h3.02v1.56h1.68v2.23h-1.68v4.9c0,.75-.26,1.38-.77,1.88-.51.5-1.14.76-1.87.76h-2.59l.79-2.23h.67c.21,0,.38-.07.53-.22.14-.14.22-.32.22-.53v-4.56h-1.58l-2.86,7.54h-3.1l2.86-7.54h-3.1v-2.23Zm11.76,9.82h.77c.21,0,.38-.07.53-.22.14-.14.22-.32.22-.53v-11.81h-8.02v-2.38h11.35v14.35c0,.74-.26,1.36-.79,1.87-.53.51-1.14.77-1.85.77h-3.14l.94-2.06Z"/>
        <path class="cls-1" d="m322.74,556.4h18.46c.74,0,1.36.26,1.86.79.5.53.76,1.14.76,1.85v12.05c0,.74-.26,1.36-.78,1.87-.52.51-1.13.77-1.84.77h-2.71l.98-2.38h.5c.21,0,.38-.07.53-.22.14-.14.22-.32.22-.53v-11.06c0-.22-.07-.41-.22-.55-.14-.14-.32-.22-.53-.22h-14.14v14.95h-3.1v-17.33Zm4.39,3.38h12.31v2.38h-12.31v-2.38Zm0,3.58h12.31v4.78c0,.75-.26,1.38-.77,1.88-.51.5-1.14.76-1.87.76h-9.67v-7.42Zm8.23,5.04c.21,0,.38-.07.53-.22.14-.14.22-.33.22-.55v-1.9h-5.64v2.66h4.9Z"/>
        <path class="cls-1" d="m346.72,571.12l16.06-2.04v-3.5h3.31v5.66l-19.37,2.47v-2.59Zm8.93-6.62h-8.83v-2.14h2.18v-4.8h3.31v4.8h3.34v-5.95h3.31v1.73h7.56v2.11h-7.56v2.11h8.86v2.14h-8.86v4.37h-3.31v-4.37Zm-6.65.65h3.31l-1.49,4.46h-3.31l1.49-4.46Z"/>
      </g>
    </g>
    <g id="_退出登录按钮" data-name="退出登录按钮">
      <path class="cls-2" d="m470.4,514.75s-7-1-9,11-11,91-6,97,11,13.4,15,13.7,98,10.3,98,10.3c0,0,3-40,8-64s9-48,9-48l-6.98-5.84-108.02-14.16Z"/>
      <g id="_退出登录字样" data-name="退出登录字样">
        <path class="cls-1" d="m496.45,564.79h-1.7l.02-.07,1.78-5.16h-1.8v-2.18h5.23l-1.73,5.26h1.34l-1.01,4.01,1.66,2.11h15.43v2.16h-17.11l-.79-.91-.19.91h-2.83l1.7-6.12Zm1.46-10.99l1.63,2.86h-3.14l-1.63-2.86h3.14Zm2.71-.17h2.28v-.02h12.77v6.24c0,.34-.06.65-.19.94-.1.26-.28.52-.55.79-.21.21-.46.38-.74.5s-.6.19-.94.19h-9.55v2.98c0,.21.06.37.17.48.13.13.3.19.5.19h2.98l-.94,2.16h-3.38c-.3,0-.62-.07-.94-.22-.3-.1-.56-.27-.77-.53-.21-.18-.38-.42-.5-.74-.13-.3-.19-.62-.19-.96v-12Zm11.98,3.24v-1.08h-8.9v1.08h8.9Zm-.67,3.22c.19,0,.36-.07.5-.22.11-.11.17-.27.17-.48v-.31h-8.9v1.01h8.23Zm-1.39,2.71l.98,1.2,1.1-.94h3.17l-2.86,2.59h.02l2.42,2.54h-3.5l-4.87-5.4h3.53Z"/>
        <path class="cls-1" d="m518.98,563.4h3.38v5.16h5.18v-6.89h-8.14v-7.1h3.43v4.7h4.7v-5.69h3.41v5.69h4.03c.16,0,.3-.06.41-.17s.17-.24.17-.38v-4.15h3.41v4.82c0,.64-.22,1.18-.67,1.62-.45.44-.98.66-1.61.66h-5.74v6.89h4.63c.16,0,.3-.06.41-.17.11-.11.17-.25.17-.41v-4.58h3.41v5.26c0,.62-.23,1.16-.68,1.61-.46.45-1,.67-1.62.67h-18.29v-7.54Z"/>
        <path class="cls-1" d="m496.47,587.3l-1.75-2.11h3.31l.24.31,1.32-1.34h-3.82v-1.75h9.26l-4.2,4.58h9l-4.49-4.58h4.18l1.06,1.08.82-.98h2.83l-2.09,2.57.55.55.26-.31h2.86l-1.56,1.9,1.56,1.61h-4.18l-1.42-1.44v1.66h-9.94v-1.46l-1.34,1.46h-4.18l1.7-1.73Zm-1.75,10.46h3.82l-.65-1.8h3.46l.65,1.8h6.55l.65-1.8h3.46l-.65,1.8h3.82v1.97h-21.1v-1.97Zm1.2-7.75h18.7v2.76c0,.69-.24,1.3-.71,1.85s-1.19.82-2.15.82h-15.84v-5.42Zm15.07,3.31c.11,0,.2-.04.28-.11.07-.07.11-.16.11-.25v-.84h-12.22v1.2h11.83Z"/>
        <path class="cls-1" d="m531.03,593.71v3.26c0,.74-.27,1.37-.8,1.91-.54.54-1.16.8-1.88.8h-3.55l.96-2.14h.84c.22,0,.41-.07.55-.22.14-.14.22-.33.22-.55v-5.18h-8.57v-2.11h16.37v-1.58h-14.95v-2.09h14.95v-.58c0-.21-.07-.38-.22-.53s-.33-.22-.55-.22h-14.71v-2.11h16.37c.75,0,1.38.26,1.88.77.5.51.76,1.14.76,1.87v4.46h1.06v2.11h-8.71v1.32h3.17l.79,1.08,1.08-1.58h3.67l-2.38,3.67-.84-.02,2.71,3.67h-3.74l-4.46-6.02Zm-9.14,2.06h3.82l-3.1,3.96h-3.82l3.1-3.96Zm1.22-3.55l2.81,2.78h-3.82l-2.81-2.78h3.82Z"/>
      </g>
    </g>
  </g>
</svg>