<?xml version="1.0" encoding="UTF-8"?>
<svg xmlns="http://www.w3.org/2000/svg" viewBox="0 0 173.6 437">
  <defs>
    <style>
      .cls-1, .cls-2 {
        stroke-width: 0px;
      }

      .cls-2 {
        fill: #fff;
      }
    </style>
  </defs>
  <g id="_图层_2" data-name="图层 2">
    <polygon class="cls-2" points="24.07 0 68.51 123.73 138.92 168.95 173.6 0 24.07 0"/>
    <polygon class="cls-1" points="44.75 14.37 85.3 126.25 80.74 131.59 139.36 169.23 171.3 14 44.75 14.37"/>
    <polygon class="cls-2" points="106.28 84.01 102.76 60.09 154.14 38.38 91.69 55.25 106.28 84.01"/>
    <polygon class="cls-2" points="115.64 66.84 137.26 54.93 104.93 61.27 129.34 119.66 115.64 66.84"/>
  </g>
  <g id="_图层_3" data-name="图层 3">
    <polygon class="cls-2" points="68.51 123.73 68.52 123.76 0 204.87 83.9 437 138.92 168.95 68.51 123.73"/>
    <polygon class="cls-1" points="80.74 131.59 16.96 206.3 89.5 411.52 139.36 169.23 80.74 131.59"/>
    <path class="cls-2" d="m117.05,228.97l-15,6.58.17,20.07-10.5,12.6,5.41,9.09-13.89-2.77-10.66,21.02-1.94-23.54-14.29-2.85,8.68-6.28-5.07-15.71,7.98-18.44-11.7-11.91,30.83,6.16,29.97,5.99Zm-23.38,8.43l8.63-6.11-16.24-3.24-16.24-3.24,5.63,8.95-5.33,15.32,1.85,12.39-5.02,5.55,7.53,1.5-.27,18.88,7.01-17.54,7.53,1.5-2.51-7.05,6.47-10.73.97-16.19Z"/>
  </g>
</svg>