<?xml version="1.0" encoding="UTF-8"?>
<svg xmlns="http://www.w3.org/2000/svg" viewBox="0 0 675.66 322.97">
  <defs>
    <style>
      .cls-1 {
        fill: #aea181;
        font-family: PangMenZhengDaoBiaoTiTiMianFeiBan-4Regular, PangMenZhengDaoBiaoTiTiMianFeiBan-4;
        font-size: 222px;
      }

      .cls-2 {
        stroke-width: 0px;
      }

      .cls-3 {
        fill: #2d496c;
        stroke: #000;
        stroke-miterlimit: 10;
        stroke-width: 2px;
      }
    </style>
  </defs>
  <g id="setting">
    <g id="s">
      <path class="cls-3" d="m45.5,130.5c1.65-.76,3.31-1.52,4.96-2.28-1.26,1.82-2.89,4.43-4.41,7.75-2.3,5.03-6.55,16.26-3.31,18.68,1.29.97,2.6-.35,8.9-1.47,2.64-.47,6.33-1.13,10-.84,7.34.58,12.55,4.77,13.62,5.67,6.05,5.06,7.85,11.49,8.35,13.65,1.53,6.6-.07,11.96-.79,14.25-2.4,7.7-7.77,13.51-13.31,19.52-1.8,1.95-2.84,2.7-4.25,4.9-1.25,1.93-1.55,3.07-2.76,3.55-1.54.61-3.06-.45-5.04-1.44-1.85-.93-8.51-4.29-12.85-2.57-2.11.84-1.37,1.96-4.94,5.51-3.19,3.17-6.3,4.77-9.82,6.59-3.91,2.02-6.02,2.49-7.19,2.7-.89.16-2.26.39-3.87.3-.82-.05-8.09-.61-10.82-6.46-2.04-4.39-.15-8.78.2-9.56,3.41-7.97,7.48-10.01,9.56-10.66,1.13-.35,3-.65,6.74-1.24,2.98-.47,5.46-.8,7.17-1,0,0,.5-2.5-.6-3.17-.45-.27-1.02-.13-1.21-.08-1.42.38-5.23.48-12.83.67-7.48.19-16.06-7.27-16-13.17.02-2.49,1.6-5.28,2.3-6.52,1.82-3.23,3.45-3.94,3.78-6.64.13-1.01-.08-1.1-.31-4.59,0,0-.13-1.91-.2-4.63-.13-5.34,11.93-25.16,12.59-26.24,0,0,16.88,7.39,23.88,3.39,2-3,2.46-4.54,2.46-4.54Z"/>
      <path class="cls-2" d="m15.03,209.81c-2.6,1.53-4.65,7.7.15,8.28s13.07.2,17.17-1.84c4.09-2.05,9.37-10.03,9.37-10.03,0,0-10.71-1.78-17.64.1s-9.05,3.49-9.05,3.49Z"/>
      <path class="cls-2" d="m35.03,191.37l-.55,4.83,21.18,2.69c3.72-4.62,4.42-8.6,4.57-10.6.22-2.96-.58-3.82-.93-4.11-1.29-1.08-3.48-.39-4.82.05-9.4,3.09-19.2,7.02-19.45,7.14Z"/>
      <path class="cls-2" d="m38.97,171.59l-1.18,5.94c3.2-1.07,7.62-2.39,12.99-3.52,10.01-2.11,12.37-1.26,13.63-.63,3.61,1.79,6.5,5.86,6.61,10.13.09,3.48-1.7,6.07-3.31,8.38-2.98,4.31-7.74,7.71-7.74,7.71h0c3,.12,6,.25,9,.37,7.63-5.72,10.24-15.62,6.69-23.34-4.21-9.15-14.86-10.44-15.35-10.49-3.35.2-7.48.74-12.05,2-3.61,1-6.72,2.24-9.29,3.45Z"/>
      <path class="cls-2" d="m8.89,170.37c.86,1.22,2.41,3.05,4.88,4.29,3.34,1.68,6.48,1.37,10.47.91,2.69-.31,6.67-1.05,11.26-3.05-.11,1.9-.21,3.8-.32,5.7-5.7,2.24-10.64,3.3-14.24,3.86-7.91,1.22-9.97.04-10.96-.77-2.66-2.16-2.97-5.92-2.99-7.61l1.89-3.32Z"/>
      <path class="cls-2" d="m13.61,156.93c.1.65.76,4.69,3.39,5.63,1.08.39,2.24.16,4.57-.3,1.92-.38,3.3-.88,3.46-.94,2.73-.98,7.75-2.65,14.49-4.86-.24-1.13-.45-2.72-.31-4.59.12-1.61.45-2.95.79-3.96-3.29-1.11-7.02-2.31-11.18-3.52-3.11-.91-5.2-1.37-7.64-.74-2.32.6-3.99,2-4.11,2.1,0,0-.99.84-1.76,1.95-2.38,3.41-1.8,8.34-1.68,9.23Z"/>
    </g>
    <g id="E">
      <path class="cls-3" d="m111.08,114.28c-3.06,2.47-15.29,12.89-17.59,30.67-.32,2.5-2.73,23.77,12.13,37.12,2.48,2.23,8.61,7.13,17.88,8.63,9.61,1.56,16.98-1.45,20.69-3.01,15.98-6.75,21.46-21.16,22.4-23.75,1.43-3.95.47-3.68.47-3.68-1.3,1.7-2.87,3.54-4.75,5.43-1.73,1.74-3.43,3.22-5.01,4.46-1.41,1.12-3.16,2.35-5.27,3.5-2.55,1.39-4.93,2.29-6.9,2.88l-5.67,1.54-9.13-34.8c3.07-.07,7.64-.53,12.81-2.43,4.85-1.79,8.46-4.19,10.8-6.03.24-4.21.48-8.42.72-12.63-1.39,1.46-4.32,4.12-8.87,5.51-2.82.87-5.31.95-7.02.87,4.7-7.14,9.39-14.29,14.09-21.43-1.55.99-4.15,2.39-7.66,3.11-3.5.72-6.43.46-8.24.16-3.84-.86-7.67-1.72-11.51-2.58l-18.09,27.17,8.36,33.6-.62,2.63c-1.71-.94-4.28-2.62-6.66-5.45-1.95-2.31-3.09-4.59-3.76-6.23-1.23-2.28-2.64-5.44-3.58-9.39-.84-3.54-1.05-6.66-1.04-9.08.22-2.14.63-5.12,1.42-8.64.8-3.59,1.38-6.14,2.73-9.03,1.05-2.24,3.04-5.67,6.86-9.11Z"/>
      <path class="cls-2" d="m118.53,172.36c1.35-1.81,2.91-4.26,4.22-7.36,1.62-3.83,2.29-7.29,2.57-9.83-2.58-9.53-5.16-19.06-7.74-28.58l3.32-6.67,15.94,58.86c-1.92.28-6.03.61-10.69-1.22-3.84-1.51-6.34-3.81-7.62-5.19Z"/>
      <path class="cls-2" d="m125.33,121.02c1.32,6.13,2.64,12.25,3.95,18.38,3.61-5.81,7.21-11.62,10.82-17.43-1.61.48-4.04.99-7.02.87-3.43-.15-6.12-1.09-7.75-1.81Z"/>
    </g>
    <g id="t">
      <path class="cls-3" d="m163.74,123.19c.57-7.05-1.71-13.45,1.3-16.95,3.53-4.11,7.97-10.46,14.14-13.05s16.9-6.42,20.12-5.45c3.22.97,23.13-1.65,24.04-1.9,0,0,5.85-.92,9.79-4.62,1.68-1.58,1.84-2.66,1.85-3.15.05-1.65-1.38-3.23-1.16-3.37.08-.05.32.15.35.17,1.26,1.23,3.98,7.27,2.88,10.64-1.1,3.37-4.24,7.33-6.34,9.4-3.88,3.82-13.16,5.87-13.02,6.29.29.9,15.02,53.87,14.66,54.12-.95.67,2.3-.07,6.29-3.82,10.6-9.97,9.4-21.64,9.4-21.64.92,2.44,2.93,8.85.53,16.46-2.08,6.58-6.36,10.55-8.42,12.42-12.87,11.67-31.11,9.86-34.76,9.42-4.58-.56-12.67-1.55-19.73-7.57-8.27-7.04-9.78-16.41-10.39-20.24-1.38-8.55.68-15.46,1.75-18.92,1.05-3.4,1.93-6.24,4.31-9.47,3.31-4.48,8.28-8.04,7.9-8.5-.07-.09-.3-.02-.38,0-2.74.74-8.37.77-15.55,4.21-2.74,1.31-4,2.12-4.83,3.01-.79.85-1.46,1.8-2.24,3.51-.87,1.89-1.99,4.9-2.48,8.97Z"/>
      <path class="cls-2" d="m193.65,103.1c-3.68,3.13-5.61,6.27-6.6,8.24-4.13,8.17-2.35,16.08-1.52,19.78.38,1.69,1.17,4.59,2.84,7.9,2.42,4.81,5.26,7.69,8,10.37,2.85,2.78,5.43,5.25,7.12,4.53.9-.38,1.21-1.53,1.36-2.21,1.51-6.75-1.43-16.45-2.38-19.64-2.41-8.15-1.5-6.57-3.96-14.61-1.79-5.85-3.52-10.74-4.87-14.36Z"/>
      <path class="cls-2" d="m204.93,155.75c1.01.75,2.54,1.71,4.59,2.45,1.01.36,3.04.99,6.19,1.09,4.07.14,11.93-.53,12.81-3.47.18-.59-.08-.77-.93-3.44-.54-1.7-.93-3.44-1.4-5.15-1.4-5.15-2.79-10.31-4.19-15.46-2.86-10.56-5.72-21.12-8.58-31.69l-8.4,2.28c6.36,16.08,9.35,28.67,9.21,33.36-.11,3.69-1.12,6.76-1.12,6.76-.78,2.12-1.56,3.66-2.5,5.29-1.19,2.07-3,4.88-5.69,8Z"/>
    </g>
    <g id="t-2" data-name="t">
      <path class="cls-3" d="m245.23,100.53c.57-7.05-1.71-13.45,1.3-16.95,3.53-4.11,7.97-10.46,14.14-13.05s16.9-6.42,20.12-5.45c3.22.97,23.13-1.65,24.04-1.9,0,0,5.85-.92,9.79-4.62,1.68-1.58,1.84-2.66,1.85-3.15.05-1.65-1.38-3.23-1.16-3.37.08-.05.32.15.35.17,1.26,1.23,3.98,7.27,2.88,10.64-1.1,3.37-4.24,7.33-6.34,9.4-3.88,3.82-13.16,5.87-13.02,6.29.29.9,15.02,53.87,14.66,54.12-.95.67,2.3-.07,6.29-3.82,10.6-9.97,9.4-21.64,9.4-21.64.92,2.44,2.93,8.85.53,16.46-2.08,6.58-6.36,10.55-8.42,12.42-12.87,11.67-31.11,9.86-34.76,9.42-4.58-.56-12.67-1.55-19.73-7.57-8.27-7.04-9.78-16.41-10.39-20.24-1.38-8.55.68-15.46,1.75-18.92,1.05-3.4,1.93-6.24,4.31-9.47,3.31-4.48,8.28-8.04,7.9-8.5-.07-.09-.3-.02-.38,0-2.74.74-8.37.77-15.55,4.21-2.74,1.31-4,2.12-4.83,3.01-.79.85-1.46,1.8-2.24,3.51-.87,1.89-1.99,4.9-2.48,8.97Z"/>
      <path class="cls-2" d="m275.14,80.44c-3.68,3.13-5.61,6.27-6.6,8.24-4.13,8.17-2.35,16.08-1.52,19.78.38,1.69,1.17,4.59,2.84,7.9,2.42,4.81,5.26,7.69,8,10.37,2.85,2.78,5.43,5.25,7.12,4.53.9-.38,1.21-1.53,1.36-2.21,1.51-6.75-1.43-16.45-2.38-19.64-2.41-8.15-1.5-6.57-3.96-14.61-1.79-5.85-3.52-10.74-4.87-14.36Z"/>
      <path class="cls-2" d="m286.42,133.09c1.01.75,2.54,1.71,4.59,2.45,1.01.36,3.04.99,6.19,1.09,4.07.14,11.93-.53,12.81-3.47.18-.59-.08-.77-.93-3.44-.54-1.7-.93-3.44-1.4-5.15l-4.19-15.46c-2.86-10.56-5.72-21.12-8.58-31.69l-8.4,2.28c6.36,16.08,9.35,28.67,9.21,33.36-.11,3.69-1.12,6.76-1.12,6.76-.78,2.12-1.56,3.66-2.5,5.29-1.19,2.07-3,4.88-5.69,8Z"/>
    </g>
    <g id="i">
      <path class="cls-3" d="m327.43,65.91c1.59-.58,2.78-6.94,8.46-6.65,9.13.47-3.88,9.82,8.31-.53,2.73-2.31,8.31-3.98,8.31-3.98-.22-.68-5.23,12.13-4.75,17.16.37,3.91,2.54,8.14,2.09,8.62-1.45,1.54-5.09.48-8.31,3.07-5.02,4.03-4.27,9.79-4.27,9.79.72-1.19,6.41-3.32,9.06-3.73,5.02-.79,8.97,3.15,11.16,7.74,1.43,3.01,4.19,10.08,2.41,13.15-1.78,3.07-6.37,3.45-8.99,4.16s-8.45,6.95-8.62,7.26c-.48.82-.13,2.02-2.11,8.59-.49,1.63-1.02,6.63.69,2.56s6.31-7.9,10.03-8.05c3.72-.14,6.78.17,12.25.13,3.57-.03,11.96-.22,18.36-4.97,4.91-3.65,6.72-8.57,7.45-10.64,4.26-12.13-2.57-24.57-6.74-32.15-2.45-4.46-4.25-6.58-7.42-13.17-3.55-7.38-4.73-11.88-3.48-16.31.39-1.37,1.22-4.15,3.94-6.24,1.54-1.19,3.13-1.73,4.16-1.99-1.92.05-7,.42-11.28,3.89-5.01,4.06-5.7,9.75-6.09,12.94-.73,6.02,1.11,11.08,2.46,14.81.53,1.47.68,1.61,2.83,6.99,1.58,3.95,2.32,5.93,3.05,7.8,4.08,10.41,7.85,18.57,7.85,18.57.46,1,2.69,5.8,1.95,10.68-.13.88-.46,2.01-1.38,3.01-1.52,1.67-4.15,1.57-5.84,1.53-4.55-.1-5.05-2-11.15-3.02-1.7-.28-2.95-.35-3.06-.9-.16-.83,2.44-2.06,4.81-3.03.98-.79,2.33-1.98,3.72-3.6,1.13-1.31,2.35-2.62,2.82-4.14.51-1.66.24-3.76-1.27-7.49-2.83-6.99-3.88-12.04-6.1-15.6-1.67-2.68-4.88-12.86-5.64-18.21-.6-4.23,4.55-18.61,4.55-18.61,0,0-4.82,1.28-9.6,2.6-4.79,1.33-15.19,2.09-16.22,2.97s-4.75,1.02-6.5,4.94c-1.75,3.92-1.9,10.05-1.9,10.05Z"/>
    </g>
    <g id="n">
      <path class="cls-3" d="m401.38,66.62c.57-.92,1.51-2.17,2.99-3.35,2.71-2.15,6.37-3.36,8.87-3.25.44.02,3.17.19,4.94.3.1,0,.15,0,.15,0l-2.94-10.87s21.68-23.8,24.62-23.75c10.25.17,21.59,1.37,27.78,6.83,3.9,3.44,5.96,7.43,6.98,9.96,1.7,4.24,1.93,8.04,1.87,10.48-.74,3.27-1.47,6.57-2.19,9.89-.59,2.71-1.16,5.4-1.71,8.07-.72,2.74-1.52,4.95-2.14,6.5-.77,1.94-1.62,4.06-3.05,6.74-.69,1.29-1.28,2.26-1.87,3.89-.55,1.5-.82,2.77-.96,3.64,8.43-8.6,12.71-9.78,15.06-9.15,1.13.3,2.62,1.23,4.06.59,1.39-.61,2.24-2.48,1.87-3.89-.48-1.8-2.85-2.35-2.67-2.66.2-.34,3.33,0,5.39,1.92,1.07,1,1.54,2.14,1.76,2.9-.03,1.06-.17,2.61-.75,4.43-.09.27-.35,1.07-1.18,2.85-.58,1.24-1.41,2.93-2.57,4.92-4.94-.13-11.2.78-17.68,3.1-9.77,3.49-6.95,10.33-6.95,10.33-.76-.44-1.96-1.27-2.67-2.66-1.78-3.48,1.47-6.64,3.85-14.57.16-.52.76-3.9,1.98-10.68,1.2-6.71,1.4-8.14.38-9.4-2.49-3.09-9.59-1.89-11.77-1.46-7.35,2.02-9.25,4.03-9.54,5.54-.15.81.2,1.25,1.07,3.94,0,0,.6,1.86,1.49,5.51.9,3.68,1.74,7.11,1.17,11.52-.24,1.82-.64,4.96-2.62,8.32-.89,1.5-3.78,5.9-2.83,4.43-3.36,3.68-6.74,5.93-8.99,7.23-2.28,1.31-4.11,2.33-6.71,2.66-1.23.16-2.79.07-5.87-.1-2.06-.12-3.77-.25-4.97-.35-.67-.11-1.69-.21-2.94-.05-1.17.15-2.1.47-2.72.74-1.36.62-2.51,1.24-3.42,1.77-.74.44-1.43.84-2.31,1.47-1.33.96-1.65,1.41-1.81,1.33,0,0-.37-.18,3.74-7.78,1.77-2.06,3.6-3.21,4.81-3.84,2.33-1.21,4.46-1.59,8.17-2.21,2.33-.39,4.29-.59,5.66-.69.84.02,3.19-.04,5.45-1.48.61-.39,2.31-1.47,2.99-3.35.34-.92.3-1.75.05-3.4-.34-2.33-.51-3.5-1.28-4.73-.41-.66-1.2-1.7-2.67-2.66-1.72-.72-3.21-1.14-4.27-1.38-1.92-.44-4.68-1.05-7.9-.39-1.66.34-2.56.83-3.08,1.17-1.36.89-1.88,1.92-1.94,1.88-.13-.07,1.19-4.32,5.08-6.45,0,0,1.09-.59,7.26-1.97l.91-.25c.02-.54-.03-1.37-.43-2.25-.83-1.84-2.59-2.69-4-3.32-2.39-1.05-4.42-1.21-7.21-1.43-3.02-.23-4.03.07-4.75.44-1.67.86-2.25,2.34-2.3,2.31-.09-.05,1.62-5,5.98-6.69,1.24-.48,3.39-.97,5.66-.69,2.08.26,3.62,1.07,4.06.59.11-.12.17-.34-.43-1.58-.68-1.4-1.02-2.1-1.76-2.9-1.23-1.34-2.67-2.05-3.58-2.41-1.32-.68-4.69-2.19-9.24-1.72-2.33.24-4.2.91-5.45,1.48Z"/>
      <path class="cls-2" d="m425.85,43.09l3.79-3.52c1.68,5.34,3.48,11.35,5.34,17.95.07.25.01.04,4.05,14.96.85,3.14,2.31,8.1,4.91,18.11.18.69.64,2.55.37,4.97-.1.87-.25,2.14-.96,3.64-1,2.11-2.57,3.54-3.69,4.38l-6.14,2.51c1.76-1.71,4.2-4.49,5.56-8.27,0,0,2.3-6.4-5.17-26.86h0l-8.05-27.88Z"/>
      <path class="cls-2" d="m433.01,39.46c1.35,4.91,2.71,9.81,4.06,14.72,1.23.78,3.77,2.16,7.42,2.46,1.19.1,7.03.46,11.8-3.2,1.08-.82,4.57-3.5,4.17-6.2-.17-1.15-1.9-2.55-5.34-5.32h0c-1.15-.72-2.64-1.51-4.49-2.17-2.76-.99-5.3-1.33-7.16-1.44-1.34-.24-3.41-.45-5.92-.09-1.88.27-3.43.78-4.54,1.23Z"/>
      <path class="cls-2" d="m437.91,57.57l3.84,14.18c1.68-1.4,5.14-3.92,10.26-5.31,4.03-1.1,7.44-1.06,9.51-.88,1.08.27,2.16.54,3.24.81.05-.84.1-1.7.18-2.58.08-.89.17-1.76.27-2.61.15-1.53.17-3.91-.8-6.55-.56-1.52-1.29-2.74-1.96-3.65-1.18,1.79-3.43,4.53-7.12,6.11-2.1.9-4.36,1.29-5.45,1.48-1.92.33-3.55.43-4.75.44-.8.07-1.8.1-2.94-.05-1.94-.25-3.39-.89-4.27-1.38Z"/>
    </g>
    <g id="G">
      <path class="cls-3" d="m518.52,1.33c-6.16,3.61-14.62,9.79-21.37,19.78-4.18,6.19-6.19,11.58-6.78,13.23-2.66,7.48-3.23,14.08-3.28,18.5-.14,3.11.07,8.71,2.96,14.74,2.58,5.38,6.11,8.61,7.96,10.28,1.58,1.42,3.93,3.5,7.62,5.19,4.31,1.98,8.02,2.31,9.99,2.47,5.05.41,8.85-.45,12.11-1.21,10.75-2.52,17.91-7.68,19.79-9.09,4.98-3.73,8.12-7.5,9.45-9.2,3.59-4.58,5.74-8.99,7.04-12.27.91-2.03,2.33-5.91,2.21-10.96-.11-4.81-1.57-8.47-2.53-10.45-.97-1.9-2.62-4.56-5.33-7.1-1.84-1.74-3.67-2.95-5.17-3.78-1.52-.86-3.49-1.8-5.87-2.55-2.51-.8-4.77-1.16-6.58-1.33-1.7.11-3.39.23-5.09.34l6.38-6.91c3.35-2.98,6.7-5.96,10.04-8.94l-10.62,2.88c-1.51-.07-3.69-.19-6.31-.36-4.31-.29-6.56-.21-8.51-.8-2.71-.82-5.42-1.64-8.13-2.46Z"/>
      <path class="cls-2" d="m501.69,30.23c3.39,5.93,7.01,13.75,9.43,23.35,1.07,4.23,1.75,8.21,2.17,11.84-.62,1.55-1.23,3.1-1.85,4.65-1.57-1.28-3.62-3.16-5.69-5.71-1.7-2.1-4.49-5.1-5.77-9.83-.75-2.76-1.54-6.97-1.21-12.11.35-5.32,1.77-9.51,2.92-12.19Z"/>
      <path class="cls-2" d="m511.81,14.02l6.28,23.17c5.04-6.89,10.08-13.78,15.12-20.67l-21.4-2.49Z"/>
      <path class="cls-2" d="m519.77,43.43c1.21,5.73,2.41,11.46,3.62,17.18-.45,1.73-1.35,4.35-3.26,7.1-1.98,2.86-4.22,4.66-5.71,5.69,1.24,1.29,4.51,4.37,9.81,5.63,5.08,1.21,9.22.1,10.93-.47-3.63-13.41-7.26-26.81-10.9-40.22l-4.5,5.09Z"/>
      <path class="cls-2" d="m526.51,33.87c.99,3.95,1.99,7.9,2.98,11.85,1.35.71,3.78,1.78,7,2.02,3.1.24,5.58-.39,7.02-.87,1.86-.63,4.53-1.8,7.2-4.02,1.61-1.34,2.81-2.71,3.68-3.88-.79-1.25-2.02-2.85-3.84-4.37-3.18-2.64-6.5-3.59-8.33-3.96-1.69-.32-4.25-.59-7.28-.1-3.95.64-6.84,2.26-8.43,3.32Z"/>
      <path class="cls-2" d="m530.69,49.31c.96,3.84,1.92,7.67,2.89,11.51,1.43-1.41,3.48-3.14,6.22-4.65,1.93-1.06,3.75-1.76,5.27-2.23,1.23-.23,2.71-.4,4.38-.38,2.93.03,5.35.61,7.08,1.19-.43-4.19-.86-8.37-1.29-12.56-1.34,1.23-2.91,2.53-4.73,3.83-2.22,1.58-4.34,2.8-6.23,3.76-1.6.47-4.03.99-7.02.87-2.8-.12-5.06-.76-6.58-1.33Z"/>
      <path class="cls-2" d="m534.42,63.94l3.22,11.88c2.49-.63,6.81-2.07,11.17-5.52,4.25-3.36,6.62-7.12,7.82-9.37l-.76-2.8c-1.52-.8-4.71-2.18-8.79-1.86-7.71.6-12.04,6.77-12.66,7.67Z"/>
    </g>
  </g>
  <g id="_设置" data-name="设置">
    <text class="cls-1" transform="translate(231.04 289.95) rotate(-7.33)"><tspan x="0" y="0">设置</tspan></text>
  </g>
</svg>