<?xml version="1.0" encoding="UTF-8"?>
<svg id="_双数层显示框" data-name="双数层显示框" xmlns="http://www.w3.org/2000/svg" viewBox="0 0 387.58 687.1">
  <defs>
    <style>
      .cls-1 {
        fill: #687f98;
      }

      .cls-1, .cls-2 {
        stroke-width: 0px;
      }

      .cls-2 {
        fill: #2b4769;
      }
    </style>
  </defs>
  <path class="cls-2" d="m98.91,187.36c-4.25.86-11.71,3.04-18.92,9.43-3.09,2.74-14.54,12.88-12.54,22.24,1.38,6.46,8.54,9.69,18.42,14.16,5.79,2.62,10.84,3.98,14.31,4.72,7.73,2.51,15.45,5.02,23.18,7.54,24.36.68,43.79-1.6,56.94-3.79,32.32-5.37,47.22-13.53,73.53-9.03,5.93,1.01,12.24,2.64,23.74,3.79,15.74,1.57,28.73,1.02,37.28.29,8.34-1.1,14.31-4.16,17.87-6.41,3.96-2.5,8.31-5.34,9.25-10.38.54-2.87-.31-5.41-.92-7.29-6.29-19.54-36.48-37.47-36.48-37.47-14.37-3.25-31.35-5.9-50.45-6.63-15.15-.58-28.96.15-41.13,1.51-14.39.24-25.57,2.83-33.17,5.19-11.94,3.69-14.18,6.53-26.81,9.61-11.72,2.86-21.36,3.24-28.85,3.49-10.09.34-18.7-.25-25.25-.98Z"/>
  <path class="cls-1" d="m79.71,187.36c-4.25.86-11.71,3.04-18.92,9.43-3.09,2.74-14.54,12.88-12.54,22.24,1.38,6.46,8.54,9.69,18.42,14.16,5.79,2.62,10.84,3.98,14.31,4.72,7.73,2.51,15.45,5.02,23.18,7.54,24.36.68,43.79-1.6,56.94-3.79,32.32-5.37,47.22-13.53,73.53-9.03,5.93,1.01,12.24,2.64,23.74,3.79,15.74,1.57,28.73,1.02,37.28.29,8.34-1.1,14.31-4.16,17.87-6.41,3.96-2.5,8.31-5.34,9.25-10.38.54-2.87-.31-5.41-.92-7.29-6.29-19.54-36.48-37.47-36.48-37.47-14.37-3.25-31.35-5.9-50.45-6.63-15.15-.58-28.96.15-41.13,1.51-14.39.24-25.57,2.83-33.17,5.19-11.94,3.69-14.18,6.53-26.81,9.61-11.72,2.86-21.36,3.24-28.85,3.49-10.09.34-18.7-.25-25.25-.98Z"/>
</svg>