<?xml version="1.0" encoding="UTF-8"?>
<svg id="_唤出按钮" data-name="唤出按钮" xmlns="http://www.w3.org/2000/svg" viewBox="0 0 387.58 687.1">
  <defs>
    <style>
      .cls-1, .cls-2 {
        stroke-width: 3px;
      }

      .cls-1, .cls-2, .cls-3 {
        stroke: #49759f;
        stroke-miterlimit: 10;
      }

      .cls-1, .cls-4 {
        fill: none;
      }

      .cls-2, .cls-3 {
        fill: #49759f;
      }

      .cls-4, .cls-5 {
        stroke-width: 0px;
      }

      .cls-5 {
        fill: #ac9f80;
      }
    </style>
  </defs>
  <polygon id="_边框" data-name="边框" class="cls-4" points="0 687.1 3.15 593.69 54.36 556.91 14.18 445.11 28.36 414.95 329.29 382.59 357.64 414.95 329.29 539.26 374.19 584.12 382.85 593.69 387.58 687.1 0 687.1"/>
  <g id="_眼睛图案" data-name="眼睛图案">
    <path class="cls-5" d="m384.84,629.08l2.74,58.01c-18.28-.06-36.55-.12-54.83-.18-8.11-13.83-8.27-30.67-.19-43.28,10.31-16.1,32.48-22.83,52.28-14.55Z"/>
    <path class="cls-3" d="m346.44,683.09c.49-.96,3.34-6.54,4.89-9.57,2.69-5.26,3.52-6.89,5.07-7.5,2.02-.8,2.69,1.18,5.6.53.79-.18,3.5-.93,4.86-3.49,1.32-2.47.6-5.15.4-5.88-.3-1.12-.88-2-.93-2.07-.47-.75-.81-1.01-1.96-2.39-.8-.95-1.2-1.43-1.27-1.59-.58-1.31.35-2.73,1.74-5.32,1.14-2.13,2.11-4.35,3.16-6.52.96-1.97,1.73-3.69,2.32-5.05.84.49,1.68.98,2.52,1.47-1.69,3.12-3.09,5.73-4.11,7.65-2.18,4.08-2.57,4.85-2.6,5.99-.1,3.53,3.43,3.41,4.21,7.23.87,4.26-2.29,10.6-5.98,12.82-.67.4-2.02,1.21-3.61,1.14-1.89-.09-2.4-1.36-3.59-.99-1.36.42-2.19,2.53-3.17,4.79-1.09,2.52-2.68,5.98-4.91,10.15-.88-.47-1.75-.93-2.63-1.4Z"/>
    <line class="cls-2" x1="375.29" y1="669.43" x2="367.39" y2="665.07"/>
    <line class="cls-2" x1="376.83" y1="666.23" x2="368.93" y2="662.13"/>
    <path class="cls-3" d="m344.9,681.96c.46-.98,3.12-6.65,4.57-9.73,2.51-5.35,3.29-7.01,2.85-8.65-.58-2.14-2.53-1.51-3.76-4.3-.33-.76-1.35-3.44-.16-6.09,1.15-2.56,3.68-3.56,4.36-3.84,3.84-1.53,5.26,1.29,7.88-.26,1-.59,1.62-1.49,4.35-7.32,1.63-3.47,2.94-6.42,3.9-8.62-.89-.4-1.77-.8-2.66-1.2-1.44,3.25-2.64,5.96-3.53,7.95-1.89,4.23-2.26,5.01-3.13,5.71-2.7,2.19-4.72-.79-8.16.85-3.85,1.83-6.93,8.21-6.46,12.57.08.79.26,2.39,1.26,3.65,1.19,1.5,2.49,1.17,2.92,2.37.49,1.37-.67,3.31-1.86,5.47-1.32,2.4-3.08,5.77-5.02,10.1.89.44,1.77.89,2.66,1.33Z"/>
    <line class="cls-2" x1="338.39" y1="650.05" x2="346.51" y2="653.96"/>
    <line class="cls-2" x1="339.97" y1="646.88" x2="347.89" y2="650.94"/>
    <ellipse class="cls-1" cx="358.27" cy="658.29" rx="2.44" ry="7.08" transform="translate(-391.06 672.82) rotate(-62.55)"/>
  </g>
</svg>