<?xml version="1.0" encoding="UTF-8"?>
<svg id="_本体" data-name="本体" xmlns="http://www.w3.org/2000/svg" viewBox="0 0 387.58 687.1">
  <defs>
    <style>
      .cls-1 {
        fill: #49759f;
      }

      .cls-1, .cls-2, .cls-3, .cls-4, .cls-5 {
        stroke-width: 0px;
      }

      .cls-2 {
        fill: #294666;
      }

      .cls-3 {
        fill: #294566;
      }

      .cls-4 {
        fill: #ac9f80;
      }

      .cls-5 {
        fill: #d0c8b7;
      }
    </style>
  </defs>
  <g id="_盒子图案" data-name="盒子图案">
    <polygon class="cls-5" points="54.36 556.91 3.15 593.69 374.19 584.12 329.29 539.26 54.36 556.91"/>
    <polygon class="cls-4" points="0 687.1 3.15 593.69 374.19 584.12 382.85 593.69 387.58 687.1 0 687.1"/>
    <polygon class="cls-5" points="14.18 445.11 54.36 556.91 329.29 539.26 357.64 414.95 14.18 445.11"/>
    <polygon class="cls-4" points="28.36 414.95 14.18 445.11 357.64 414.95 329.29 382.59 28.36 414.95"/>
    <path class="cls-1" d="m2.21,621.47c45.35,21.88,90.7,43.75,136.05,65.63l-10.53-.1c-41.95-18.43-83.91-36.86-125.86-55.3l.35-10.24Z"/>
    <polygon class="cls-1" points="1.21 651.18 75.07 687.1 66.64 687.1 1 657.49 1.21 651.18"/>
    <path class="cls-4" d="m279.58,438.93c19.78-1.53,39.56-3.06,59.33-4.6l-5.72,30.89c-17.87-8.77-35.74-17.53-53.62-26.3Z"/>
    <polygon class="cls-4" points="87.32 455.01 38.03 458.33 61.54 527.27 87.32 455.01"/>
    <polygon class="cls-4" points="332.69 475.44 329.37 502.5 306.59 490.25 332.69 475.44"/>
  </g>
  <g id="_隐藏按钮" data-name="隐藏按钮">
    <path class="cls-4" d="m384.84,629.08l2.74,58.01c-18.28-.06-36.55-.12-54.83-.18-8.11-13.83-8.27-30.67-.19-43.28,10.31-16.1,32.48-22.83,52.28-14.55Z"/>
    <ellipse class="cls-3" cx="358.44" cy="660.13" rx="5.86" ry="11.87" transform="translate(-381.62 531.45) rotate(-51.63)"/>
    <ellipse class="cls-2" cx="376.13" cy="651.18" rx="5.86" ry="11.87" transform="translate(-88.89 60.2) rotate(-8.19)"/>
    <ellipse class="cls-3" cx="351.21" cy="678.21" rx="11.87" ry="5.86"/>
  </g>
</svg>