<?xml version="1.0" encoding="UTF-8"?>
<svg id="_顶部猫猫" data-name="顶部猫猫" xmlns="http://www.w3.org/2000/svg" viewBox="0 0 387.58 687.1">
  <defs>
    <style>
      .cls-1, .cls-2, .cls-3 {
        stroke-width: .75px;
      }

      .cls-1, .cls-2, .cls-3, .cls-4 {
        stroke: #231815;
        stroke-miterlimit: 10;
      }

      .cls-1, .cls-5 {
        fill: #da886b;
      }

      .cls-2 {
        fill: #d26f53;
      }

      .cls-6 {
        fill: #2b465a;
      }

      .cls-6, .cls-7, .cls-8, .cls-9, .cls-10, .cls-5, .cls-11, .cls-12 {
        stroke-width: 0px;
      }

      .cls-7 {
        fill: #49759f;
      }

      .cls-3 {
        fill: #487292;
      }

      .cls-8 {
        fill: #25465e;
      }

      .cls-9 {
        fill: #2b5a69;
      }

      .cls-4 {
        fill: #4d7493;
      }

      .cls-10 {
        fill: #fffffd;
      }

      .cls-11 {
        fill: #445c6d;
      }

      .cls-12 {
        fill: #5283b1;
      }
    </style>
  </defs>
  <path class="cls-9" d="m92.93,73.31c-.28,3.02-.16,7.26,2.33,10.85,1.87,2.71,3.74,3.12,7.02,6,4.84,4.25,4.24,6.38,8.17,10.72,5.34,5.89,12.02,8.1,16.47,9.57,5.12,1.69,9.46,2.15,14.55,2.43,14.33.76,21.16-.7,32.94-1.17,10.93-.43,8.44.7,31.4,1.23,16.13.37,24.32.53,30.38-1.09,15.21-4.05,24.13-12.92,26.43-15.32,2.05-2.14,14.94-15.6,11.36-21.7-.69-1.17-1.83-1.82-3.56-2.1-5.71-.93-17.79,2.07-40.86,2.99-15.8.63-23.69.95-30.26-.89-11.98-3.36-16.92-8.94-32.23-11-6.14-.82-11.58-.78-13.73-.75-10.82.13-16.23.2-21.32,2.55-3.87,1.79-12.43,6.81-18,7.02-.64.02-1.15,0-1.15,0-3.92-.19-5.22-2.14-8.55-2.94-2.72-.65-5.03-.11-5.87.13-2.8.79-4.63,2.48-5.52,3.45Z"/>
  <path class="cls-9" d="m233.48,56.62c-2.94,1.91-7.46,4.75-13.16,7.89-9.41,5.17-14.75,7.14-27.24,13.73-9.28,4.89-15.91,8.86-17.72,14.58-1.24,3.93-.45,7.56-.45,7.56.29,1.35.81,3.74,2.84,5.65,2.2,2.07,4.88,2.36,6.99,2.59,2.73.3,4.8-.14,6.77-.57,1.77-.39,5.73-.54,8.94-3.45,2.68-2.43,9.83-10.98,9.83-10.98,0,0,4.3-4.11,8.85-8.22,0,0,7.2-7.97,10.42-8.18,1.03-.07,1.88.29,1.88.29.95.4,1.52,1.08,1.79,1.47.29.69.82,1.72,1.79,2.68,1.38,1.38,3.02,1.99,4.88,2.43,6.2,1.44,11.39.51,11.39.51,2.8-.5,13.19-2.33,19.06-11.41,4.96-7.66,3.81-15.78,2.88-22.4-.43-3.02-1.52-10.2-6.23-17.51-7.61-11.79-19.59-16.01-31.21-20.11-11.34-4-21.55-5.09-28.63-5.84-5.8-.62-10.7-.81-14.27-.86-2.46.15-5.52.56-8.9,1.53-2.53.73-4.71,1.62-6.51,2.49-1.98,1.06-3.95,2.19-5.92,3.4-24.5,15.01-40.01,36.77-49.9,56.76,25.31.97,42.38,2.75,54.55,4.6,5.9.9,14.03,2.32,23.68-.6,4.67-1.41,9.21-3.92,18.28-8.95,8.72-4.83,15.34-9.07,15.33-9.06Z"/>
  <path class="cls-9" d="m110.78,32.2c-1.86,5.19-3.71,10.38-5.57,15.57-.51,1.69-1.17,4.71-.51,8.3,1.25,6.78,6.28,10.56,7.8,11.7,4.12,3.09,8.36,3.96,13.26,4.64,13.69,1.9,24.85,1.25,30.35.86,15.98-1.12,24.05-1.74,27.54-4.84,7.83-6.94,7.87-19.4,6.93-24.84-.29-1.69-.89-5.09-3.22-8.64-.78-1.19-2.02-3.08-4.25-4.86-1.95-1.56-3.37-2-5.07-4.03-1-1.19-1.61-2.22-1.85-2.93-1.02-3.01-3.53-7.37-8.55-16.09-2.1-3.64-3.78-6.09-6.59-6.83-.54-.14-1.46-.37-2.54-.1-3.07.78-4.44,4.9-5.31,7.52-1.13,3.37-2.46,9.55-3.83,10.19-.23.11-.47.16-.47.16-.86.14-1.63-.6-4.37-.44-3.16.18-3.81,1.27-5.13.77-1.87-.72-1.54-3.32-3.3-7.52-1.07-2.55-2.97-7.11-6.2-7.81-2.52-.55-4.79,1.51-7.97,4.27-1.31,1.13-6.11,5.41-7.76,12.16-.5,2.06-.39,3.04-1.29,6.46-.72,2.73-1.53,4.9-2.11,6.32Z"/>
  <ellipse class="cls-9" cx="149.77" cy="48.29" rx="17.94" ry="12.13" transform="translate(-5.15 20.69) rotate(-7.77)"/>
  <circle class="cls-9" cx="127.68" cy="51.6" r="11.49"/>
  <circle class="cls-9" cx="170.22" cy="49.55" r="11.89"/>
  <path class="cls-9" d="m137.2,51.06c-.07,3.59-3.17,7.08-6.77,6.77-3.31-.28-5.6-3.64-5.62-6.77-.02-3.36,2.58-6.98,6.19-6.98,3.59,0,6.26,3.57,6.19,6.98Z"/>
  <path class="cls-9" d="m174.28,48.29c.18,2.15-.51,5.42-3.19,6.89-2.78,1.53-5.79.06-6.39-.23-.18-.09-4.55-2.3-4.59-6.66-.03-3.69,3.03-7.47,7.09-7.47s6.82,4.19,7.09,7.47Z"/>
  <path class="cls-9" d="m182.11,82.76s5.19,2.3,7.36,3.06,5.23,4.34,7.28,7.15c2.04,2.81,4.54,7.96,6.29,8.96s4.79-3.2,4.94-4.49-.94-1.61,0-1.91,1.53,1.15,3.19-.77,3.08-.99,1.86-3.75-1.09-4.16-4.41-6.59-7.2-5.62-9.96-6.64-2.22-.38-4.11-.32-4.19,1.98-4.82,1.98-3.06.38-3.96,1.02-3.66,2.3-3.66,2.3Z"/>
  <path class="cls-9" d="m118.46,71.79c2.31-1.59,5.3-3.35,8.97-4.87,4.49-1.86,8.57-2.77,11.74-3.23,3.96-.71,8.74-1.26,14.17-1.24,6.63.02,12.35.88,16.87,1.88,3.39.7,7.12,1.65,11.09,2.97,2.91.97,5.59,2.01,8.04,3.06,3.32,1.49,6.64,2.98,9.96,4.47l-24.51,7.53-28.47-1.4-27.86-9.17Z"/>
  <path class="cls-9" d="m129.22,11.01c2.3.47,4.17,4.72,2.94,6.77-.58.97-2.09,1.29-5.11,1.91-3.02.63-4.53.95-4.98.38-1.3-1.65,3.6-9.79,7.15-9.06Z"/>
  <path class="cls-9" d="m157.94,10.25c-.84,6.06-2.04,6.55-1.28,7.91,1.36,2.41,5.85,2.14,7.53,2.04,1.23-.07,1.44-.27,1.53-.38,1.61-1.99-5.77-11.52-7.4-10.72-.25.12-.29.46-.38,1.15Z"/>
  <path class="cls-12" d="m87.4,75.83c-.28,3.02-.16,7.26,2.33,10.85,1.87,2.71,3.74,3.12,7.02,6,4.84,4.25,4.24,6.38,8.17,10.72,5.34,5.89,12.02,8.1,16.47,9.57,5.12,1.69,9.46,2.15,14.55,2.43,14.33.76,21.16-.7,32.94-1.17,10.93-.43,8.44.7,31.4,1.23,16.13.37,24.32.53,30.38-1.09,15.21-4.05,24.13-12.92,26.43-15.32,2.05-2.14,14.94-15.6,11.36-21.7-.69-1.17-1.83-1.82-3.56-2.1-5.71-.93-17.79,2.07-40.86,2.99-15.8.63-23.69.95-30.26-.89-11.98-3.36-16.92-8.94-32.23-11-6.14-.82-11.58-.78-13.73-.75-10.82.13-16.23.2-21.32,2.55-3.87,1.79-12.43,6.81-18,7.02-.64.02-1.15,0-1.15,0-3.92-.19-5.22-2.14-8.55-2.94-2.72-.65-5.03-.11-5.87.13-2.8.79-4.63,2.48-5.52,3.45Z"/>
  <path class="cls-3" d="m227.94,59.14c-2.94,1.91-7.46,4.75-13.16,7.89-9.41,5.17-14.75,7.14-27.24,13.73-9.28,4.89-15.91,8.86-17.72,14.58-1.24,3.93-.45,7.56-.45,7.56.29,1.35.81,3.74,2.84,5.65,2.2,2.07,4.88,2.36,6.99,2.59,2.73.3,4.8-.14,6.77-.57,1.77-.39,5.73-.54,8.94-3.45,2.68-2.43,9.83-10.98,9.83-10.98,0,0,4.3-4.11,8.85-8.22,0,0,7.2-7.97,10.42-8.18,1.03-.07,1.88.29,1.88.29.95.4,1.52,1.08,1.79,1.47.29.69.82,1.72,1.79,2.68,1.38,1.38,3.02,1.99,4.88,2.43,6.2,1.44,11.39.51,11.39.51,2.8-.5,13.19-2.33,19.06-11.41,4.96-7.66,3.81-15.78,2.88-22.4-.43-3.02-1.52-10.2-6.23-17.51-7.61-11.79-19.59-16.01-31.21-20.11-11.34-4-21.55-5.09-28.63-5.84-5.8-.62-10.7-.81-14.27-.86-2.46.15-5.52.56-8.9,1.53-2.53.73-4.71,1.62-6.51,2.49-1.98,1.06-3.95,2.19-5.92,3.4-24.5,15.01-40.01,36.77-49.9,56.76,25.31.97,42.38,2.75,54.55,4.6,5.9.9,14.03,2.32,23.68-.6,4.67-1.41,9.21-3.92,18.28-8.95,8.72-4.83,15.34-9.07,15.33-9.06Z"/>
  <path class="cls-4" d="m105.25,34.72c-1.86,5.19-3.71,10.38-5.57,15.57-.51,1.69-1.17,4.71-.51,8.3,1.25,6.78,6.28,10.56,7.8,11.7,4.12,3.09,8.36,3.96,13.26,4.64,13.69,1.9,24.85,1.25,30.35.86,15.98-1.12,24.05-1.74,27.54-4.84,7.83-6.94,7.87-19.4,6.93-24.84-.29-1.69-.89-5.09-3.22-8.64-.78-1.19-2.02-3.08-4.25-4.86-1.95-1.56-3.37-2-5.07-4.03-1-1.19-1.61-2.22-1.85-2.93-1.02-3.01-3.53-7.37-8.55-16.09-2.1-3.64-3.78-6.09-6.59-6.83-.54-.14-1.46-.37-2.54-.1-3.07.78-4.44,4.9-5.31,7.52-1.13,3.37-2.46,9.55-3.83,10.19-.23.11-.47.16-.47.16-.86.14-1.63-.6-4.37-.44-3.16.18-3.81,1.27-5.13.77-1.87-.72-1.54-3.32-3.3-7.52-1.07-2.55-2.97-7.11-6.2-7.81-2.52-.55-4.79,1.51-7.97,4.27-1.31,1.13-6.11,5.41-7.76,12.16-.5,2.06-.39,3.04-1.29,6.46-.72,2.73-1.53,4.9-2.11,6.32Z"/>
  <ellipse class="cls-11" cx="144.23" cy="50.81" rx="17.94" ry="12.13" transform="translate(-5.54 19.96) rotate(-7.77)"/>
  <circle class="cls-1" cx="122.15" cy="54.11" r="11.49"/>
  <circle class="cls-2" cx="164.68" cy="52.07" r="11.89"/>
  <path class="cls-6" d="m131.66,53.57c-.04,3.58-3.01,6.86-6.77,6.77-3.68-.08-6.48-3.36-6.46-6.85.02-3.78,3.34-7.09,7.15-6.8,3.48.27,6.12,3.46,6.07,6.88Z"/>
  <path class="cls-8" d="m168.74,50.81c.26,2.26-.54,5.44-3.19,6.89-2.91,1.6-6-.01-6.39-.23-2.72-1.48-4.23-4.64-3.83-7.68.32-2.42,1.92-5.27,4.6-6,3.89-1.06,8.33,2.85,8.82,7.01Z"/>
  <path class="cls-10" d="m176.57,85.27s5.19,2.3,7.36,3.06,5.23,4.34,7.28,7.15,4.54,7.96,6.29,8.96,4.79-3.2,4.94-4.49-.94-1.61,0-1.91,1.53,1.15,3.19-.77,3.08-.99,1.86-3.75-1.09-4.16-4.41-6.59-7.2-5.62-9.96-6.64-2.22-.38-4.11-.32-4.19,1.98-4.82,1.98-3.06.38-3.96,1.02-3.66,2.3-3.66,2.3Z"/>
  <path class="cls-12" d="m112.92,74.31c2.31-1.59,5.3-3.35,8.97-4.87,4.49-1.86,8.57-2.77,11.74-3.23,3.96-.71,8.74-1.26,14.17-1.24,6.63.02,12.35.88,16.87,1.88,3.39.7,7.12,1.65,11.09,2.97,5.32,1.76,7.03,2.5,8.04,3.06,3.35,1.87,5.69,4.11,7.15,5.75-7.23,2.08-14.47,4.17-21.7,6.25l-28.47-1.4-27.86-9.17Z"/>
  <path class="cls-6" d="m123.68,13.53c2.3.47,4.17,4.72,2.94,6.77-.58.97-2.09,1.29-5.11,1.91-3.02.63-4.53.95-4.98.38-1.3-1.65,3.6-9.79,7.15-9.06Z"/>
  <path class="cls-6" d="m152.4,12.76c-.84,6.06-2.04,6.55-1.28,7.91,1.36,2.41,5.85,2.14,7.53,2.04,1.23-.07,1.44-.27,1.53-.38,1.61-1.99-5.77-11.52-7.4-10.72-.25.12-.29.46-.38,1.15Z"/>
  <path class="cls-7" d="m87.56,81.28s13.52,10.37,15.69,11.91c2.17,1.53,12.13,5.62,15.19,7.66,3.06,2.04,15.75,5.56,19.53,6.77,3.78,1.21,6.83,4.34,10.74,4.02,6.27-.52,12.74.07,15.97-.41,4.52-.68,6.28-1.41,9.62-.8,1.79.33,2.83.83,4.35,1.02.42.05.87.05,1.78.07,2.53.06,4,.08,5.8-.19,1.2-.18,2.11-.42,2.43-.51,2.26-.63,4.56-1.2,6.18-3.04,1.23-1.39,1.53-2.63,2.95-3.03.5-.14.89-.11,1.53-.45.63-.34,1-.78,1.72-1.66.84-1.03,1.26-1.54,1.34-1.98.19-1.06-.51-1.68-.06-2.36.17-.26.49-.5.83-.51.58-.02.71.62,1.24.66.56.04.68-.67,2.02-1.81.56-.48,1.39-1.08,1.39-1.08l-.3-2.04c4.19-2.62,6.74-5.04,8.32-6.81,1.6-1.78,3.62-3.14,5.26-4.88.5-.54,1.29-1.4,2.56-1.67,1.68-.35,3.09.59,3.26.7,1.26.86,1.41,1.97,2.04,3.06,1.68,2.9,5.55,3.66,8.1,4.16,3.02.59,5.3.21,8.18-.26,4.46-.74,7.54-2.17,10.34-3.45,2.91-1.32,4.25-2.25,5.34-3.24,1.59-1.45,2.39-2.17,2.95-3.39.44-.95.56-1.75,1.28-2.04.94-.39,2.11.44,2.3.57.68.5,1,1.16,1.21,1.6.1.21.29.64.43,1.28,0,0,.36,1.65-.04,3.41-.41,1.77-2.33,4.61-6.9,7.31-2.83,1.68-5.03,2.33-9.3,3.59-5.8,1.72-10.17,2.26-11.44,2.41-13.15,1.53-9.06-2.04-24.26,3.96-15.19,6-24.54,15.43-27.21,15.3-2.67-.13-13.13-1.68-19.13-1.18-6,.5-22.98,1.79-27.83,1.67-4.85-.11-17.54-.21-20.3-1.67-2.76-1.46-9.65-4.79-12.74-6.2-3.09-1.4-12.72-9.54-14.06-13.2s-5.65-7.22-5.65-7.22l-2.64-6.04Z"/>
  <path class="cls-5" d="m122.15,78.29l.46,4.5s9.86,4.58,10.24,4.25,8.03-3.01,8.04-3.01,1.98.77,1.98.77l-1.98-2.51-6.19.38-6.19-.94-4.27-4.61-2.09,1.17Z"/>
  <path class="cls-5" d="m167.14,78.49l-.47,4.5s-10.15,4.58-10.55,4.25-8.27-3.01-8.27-3.01-2.03.77-2.03.77l2.03-2.51,6.38.38,6.38-.94,4.39-4.61,2.15,1.17Z"/>
  <path class="cls-5" d="m130.7,72.01s1.57,4.86,2.95,5.31,8.68,3.55,8.68,3.55l-1.44-4.43-5.54-4.11-4.65-.32Z"/>
  <path class="cls-5" d="m157.75,72.01s-1.61,4.86-3.03,5.31-8.91,3.55-8.91,3.55l1.48-4.43,5.69-4.11,4.78-.32Z"/>
</svg>